<svg width="800" height="600" viewBox="0 0 1060 500" preserveAspectRatio="xMidYMin meet" xmlns="http://www.w3.org/2000/svg" fill-rule="evenodd" clip-rule="evenodd" stroke-linejoin="round" stroke-miterlimit="2"><g fill-rule="nonzero"><path d="M167.618 676.632l.042 17.854-10.361.024-.047-19.794 10.366 1.916zM210.221 673.531l2.048 19.291 11.195-1.188-2.27-21.388-10.973 3.285z" fill="#edd3b8"/><path d="M223.305 690.988l-10.062 2.255-3.202 2.881-.2 7.604 26.195 4.863c2.532-3.068 1.492-7.7-2.109-9.392l-1.188-.558-9.434-7.653zM167.374 693.288l-10.362-.024-3.63 4.773.724 7.573 26.591 1.649.763-1.727c1.499-3.394-.678-7.278-4.356-7.768l-.589-.078-9.141-4.398z" fill="#292949"/><path d="M129.927 508.53l10.061 90.174 3.999 88.416 34.13.119 13.655-241.687-55.008.863-6.837 62.115z" fill="#8cabef"/><path d="M231.758 496.527l7.403 87.967-9.373 102.47-33.14-.99-4.782-99.215-5.61-80.235-5.732-59.804 39.68-1.139 11.554 50.946z" fill="#8cabef"/><path d="M203.124 309.062l-38.477 1.407-20.402 18.292-12.601 67.522-6.986 57.839 89.946.405 22.438-5.678-7.054-60.628-11.172-57.983-15.692-21.176z" fill="#474ebb"/><path d="M167.821 251.657c4.294-4.519 10.458-7.204 16.691-7.27 21.628-.231 23.72 20.775 20.039 37.228-1.622 7.25-5.028 14.4-10.958 18.876-1.61 1.216-3.433 2.176-5.353 2.86l.004.01c.356 1.113.574 14.671 1.53 14.521-5.008.78-10.217.233-14.955-1.571.064-4.048-.559-9.019-.257-13.398-.61-.304-1.208-.636-1.777-1.032-5.876-4.083-7.915-11.727-9.146-18.776-1.599-9.157-2.761-24.142 4.182-31.448z" fill="#eac5b0"/><path d="M171.287 261.431c-4.101 4.871-4.399 11.816-4.197 18.18.27 8.461 1.14 17.149 5.008 24.68-5.256-4.006-10.511-8.013-15.766-12.02-1.978-1.507-4.011-3.079-5.21-5.257-1.209-2.197-1.442-4.783-1.61-7.286-.894-13.336-.267-27.863 8.062-38.317 5.26-6.603 13.352-10.869 21.772-11.478 6.874-.498 35.634 8.298 24.309 18.999-3.265 3.086-11.318 3.568-15.497 4.691-5.966 1.604-12.674 2.823-16.871 7.808z" fill="#d67086"/><path d="M196.347 258.438c.838.048 1.707.105 2.443.509.875.479 1.429 1.373 1.915 2.244 6.967 12.5 7.283 28.469.817 41.235 10.975-3.521 19.154-13.795 21.329-25.114 2.175-11.32-1.252-23.335-8.074-32.625-6.379-8.687-16.677-15.451-27.381-14.194-6.383.75-12.364 4.422-15.921 9.775-13.432 20.215 11.921 17.422 24.872 18.17z" fill="#d67086"/><path d="M400.171 706.744l-1.532 7.879-16.512 5.292-5.958-9.172 9.022-6.585 16.512-5.292-1.532 7.878zM446.181 697.885l.698 8.174 16.031 6.821 6.97-8.851-8.365-7.498-15.334 1.354z" fill="#292949"/><path d="M376.169 466.126l-6.994 25.406 3.626 11.61-.345-.04 4.343 66.97 9.184 134.829 15.466-.56 27.78-157.589 2.022 7.293 15.001 145.646 14.18-1.251 21.972-190.072v-38.544l-106.235-3.698z" fill="#292949"/><path d="M439.154 305.668l-18.118-1.511c-40.487-3.376-43.368 53.072-48.621 81.154-7.608 40.674-10.955 82.348-7.067 123.631 12.733-6.955 30.381-5.507 44.857-6.008 26.662-.921 54.254-1.651 79.959 2.45 4.8.765 2.701-33.815 1.729-40.244-1.982-13.089-3.962-26.178-5.943-39.266-3.58-23.655-7.16-47.311-10.74-70.965l-.315-2.082c-.385-2.547-1.238-5-2.513-7.238l-16.782-29.43c-3.417-5.993-9.57-9.918-16.446-10.491z" fill="#8cabef"/><path d="M441.092 245.995c-1.148-3.972-2.685-7.803-4.875-11.304-4.177-6.678-11.129-12.042-18.992-12.508-14.463-.857-30.407 8.634-31.311 24.08-.57 9.738-1.612 20.202 1.44 29.645 1.574 4.869 4.507 9.657 8.609 12.8 2.971 2.276 9.114 2.682 11.336 5.267 7.278 8.467-2.72 12.882 10.224 18.407.65.278 1.324.559 2.03.548 1.003-.015 1.892-.613 2.715-1.188 1.587-1.112 3.176-2.224 4.765-3.335.188-.131.381-.269.49-.47.176-.322.094-.718.002-1.074-3.454-13.349 11.859-17.808 14.932-30.108 1.616-6.471 2.056-13.195.995-19.74-.598-3.698-1.319-7.417-2.36-11.02z" fill="#eac5b0"/><path d="M601.24 271.621c4.364 4.366 9.313 8.148 14.672 11.212-4.996-9.612-8.664-19.915-10.865-30.522-.168-.809-.388-1.711-1.09-2.147-.655-.408-1.501-.26-2.249-.07-13.358 3.404-8.075 13.916-.468 21.527z" fill="#3b3387"/><path d="M639.808 285.01c.804-.921 1.502-1.898 2.085-2.87 8.066-13.45 7.698-63.9-28.363-57.263-32.743 6.026-11.624 44.676 2.151 58.316 2.61 2.586 5.904 5.201 9.795 6.326 1.042.302.73 10.442 1.652 11.97 1.847 3.057 6.213 3.958 9.332 2.535 2.703-1.232 5.331-4.973 5.926-7.805.43-2.049-3.333-10.344-2.578-11.209z" fill="#eac5b0"/><path d="M640.202 270.442c3.292 1.757 7.165-1.087 9.401-4.074 9.186-12.269 9.009-30.697-.411-42.787-7.881-10.117-26.268-11.487-22.189 3.881 1.446 5.449 7.869 10.797 9.912 16.624 2.92 8.327 3.002 17.64 3.287 26.356z" fill="#3b3387"/><path d="M577.81 225.531c-9.962 15.235-7.187 35.713-14.961 52.172 14.376-.814 28.305-7.745 37.626-18.722 9.14-10.765 35.142-28.112 23.053-42.273-12.305-14.414-36.991-4.526-45.718 8.823z" fill="#3b3387"/><path d="M648.011 698.156l-2.659 3.264-1.158 3.506 7.992 12.088 7.55 2.901 8.462-.726s3.626-1.329 1.45-4.23c-2.175-2.901-7.977-4.352-7.977-4.352l.846-9.761-14.506-2.69zM616.461 698.519l-1.088 6.044-5.924 10.275 2.66 3.264 9.912-.847 6.044-8.582V691.75l-11.363 1.087-.241 5.682z" fill="#292949"/><path d="M603.164 461.471l-5.912 32.396 16.678 206.979 17.457-3.661 28.959-228.784-57.182-6.93z" fill="#292949"/><path d="M694.459 457.218l3.372 133.414-33.885 115.166-19.752-7.344 16.635-102.705-15.273-139.67 48.903 1.139z" fill="#292949"/><path d="M593.09 323.05c-3.164 6.881-3.749 14.49-4.795 22.781-1.812 14.37-2.707 28.819-2.91 43.263-.237 16.791.471 33.573 1.798 50.3.662 8.365 1.482 16.718 2.415 25.058.483 4.32-1.422 15.412 3.254 17.685 2.596 1.263 5.74.987 8.678.678l77.745-8.163c4.156-.436 8.458-.918 12.054-2.911 6.441-3.571 5.324-10.586 6.342-16.497 1.348-7.833 1.652-15.785 1.492-23.686-.329-16.254-2.821-32.348-3.992-48.542-1.259-17.411-4.05-40.762-10.652-57.315-2.97-6.992-7.155-13.481-12.871-18.82-7.138-6.668-13.709-8.349-23.323-10.09-.402-.073-.823-.154-1.132-.403-.334-.268-.477-.684-.606-1.077-.613-1.874-1.227-3.748-1.84-5.621-.231-.707-.518-1.48-1.213-1.834-.668-.341-1.495-.18-2.239-.011-6.44 1.464-12.878 2.928-19.316 4.392.353 1.471.709 2.981.485 4.479-.225 1.498-1.157 3.006-2.678 3.545-6.587 2.338-13.468 7.531-18.791 12.25-3.716 3.294-6.189 6.809-7.905 10.539z" fill="#d67086"/><path d="M778.322 276.012c2.393-2.459 4.392-5.185 6.562-8.017.513-.669 1.035-1.354 1.31-2.152.333-.962.281-2.009.225-3.026-.082-1.478-.164-2.955-.245-4.432-.051-.921-.106-1.858-.423-2.725-.817-2.232-3.138-3.481-5.271-4.53-.435-.214-.893-.433-1.378-.416-.812.03-1.47.739-1.707 1.516-.752 2.464-.519 3.379-2.285 5.687-1.504 1.965-3.085 3.917-5.055 5.437-.581-.9-.437-2.071-.466-3.233-.025-.974-.148-2.123-.995-2.604-1.129-.64-2.477.474-3.066 1.631-1.182 2.319-1.169 5.04-1.711 7.586-.806 3.786-4.672 9.44-1.84 12.562 1.722 1.898 4.589 3.313 6.684 4.824 2.248-1.813 4.497-3.626 6.746-5.44 1.049-.845 2.01-1.737 2.915-2.668z" fill="#fee7de"/><path d="M659.059 333.167c-2.818-2.858-5.582-5.769-8.291-8.73-5.986-6.541-14.116-15.555-10.324-24.684 4.263-10.263 15.199-9.506 23.304-5.397 9.219 4.672 32.201 30.125 41.42 34.797 0 0 34.1-34.683 54.801-55.5 2.987 2.306 9.354 4.708 10.601 8.55 2.926 9.009-16.946 33.858-21.728 40.979-11.154 16.607-24.665 31.631-40.027 44.449-1.253 1.046-2.623 2.122-4.249 2.277-1.973.188-3.781-1.02-5.383-2.187-14.287-10.399-27.72-21.97-40.124-34.554z" fill="#d67086"/><path d="M653.627 666.787l-192.441-.149c-4.146-.003-7.504-3.342-7.502-7.457l.248-312.902c.002-4.115 3.367-7.448 7.512-7.445l192.442.149c4.145.003 7.504 3.342 7.501 7.457l-.247 312.902c-.003 4.115-3.367 7.449-7.513 7.445z" fill="#2f3789"/><path d="M650.021 636.32l-185.608-.144.221-279.948 185.607.144-.22 279.948z" fill="#dddae8"/><path d="M568.528 654.497l-22.224-.018.004-5.09 22.224.017-.004 5.091z" fill="#fff"/><path d="M650.021 636.32l-185.608-.144.191-241.088L650.021 636.32z" fill="#d8d5e3"/><path d="M279.57 224.451l-2.646-121.258c-.021-.964.744-1.763 1.709-1.784l212.775-4.641c.964-.021 1.764.743 1.784 1.708l2.646 121.257c.02.965-.744 1.763-1.708 1.784l-212.776 4.642c-.964.021-1.763-.744-1.784-1.708z" fill="#2f3789"/><path d="M309.193 216.294l-2.318-106.244 175.227-3.822 2.318 106.244-175.227 3.822z" fill="#f7f7f7"/><path d="M287.264 176.489l-.561-25.715c-.014-.61.47-1.115 1.079-1.128l6.955-.152c.61-.013 1.115.47 1.128 1.08l.561 25.715c.013.61-.47 1.115-1.08 1.128l-6.954.152c-.61.013-1.115-.47-1.128-1.08z" fill="#fff"/><path d="M819.226 259.445l-101.725 16.758c-.952.157-1.851-.488-2.008-1.44L686.025 95.885c-.157-.952.488-1.851 1.44-2.008L789.189 77.12c.952-.157 1.851.487 2.007 1.439l29.469 178.879c.156.952-.488 1.85-1.439 2.007z" fill="#474ebb"/><path d="M809.011 235.334l-89.57 14.755-24.336-147.725 89.57-14.755 24.336 147.725zM777.831 258.699l-21.362 3.52c-.602.099-1.17-.309-1.269-.91l-.914-5.546c-.098-.602.309-1.17.91-1.269l21.363-3.519c.601-.099 1.169.308 1.268.91l.913 5.546c.1.601-.307 1.169-.909 1.268z" fill="#fff"/><path d="M322.298 571.351H191.015c-.965 0-1.747-.781-1.747-1.746V339.449c0-.965.782-1.747 1.747-1.747h131.283c.964 0 1.746.782 1.746 1.747v230.156c0 .965-.782 1.746-1.746 1.746z" fill="#292949"/><path fill="#fff" d="M199.265 349.861h114.783V539.17H199.265zM270.636 561.913h-27.959c-.61 0-1.104-.494-1.104-1.104v-7.69c0-.61.494-1.104 1.104-1.104h27.959c.61 0 1.104.494 1.104 1.104v7.69c0 .61-.494 1.104-1.104 1.104z"/><path d="M223.128 456.661c.358.172.731.297 1.129.346 3.783.467 8.601-.89 12.272-1.733 2.838-.652 3.204-4.404 3.593-6.691.113-.665.209-1.412-.187-1.958-.229-.316-.59-.51-.956-.646-2.099-.786-4.157.364-6.271.304-.934-.027-2.131-.143-2.708-.995-1.338-1.978 1.615-2.03 2.828-2.482.04-3.29-2.663-2.637-4.993-2.315-2.879.397-5.731.997-8.525 1.794-2.172.618-3.278.677-3.666 2.981-.098.577-1.318 5.776-1.075 5.927 1.982 1.233 3.965 2.465 5.937 3.713.873.552 1.694 1.31 2.622 1.755z" fill="#eac5b0"/><path d="M176.48 339.456c.266 1.593-.082 3.256-.431 4.851-1.836 8.383-3.489 16.813-4.978 25.264-1.364 7.745-5.069 18.783-3.956 26.577.944 6.604 9.761 13.059 14.597 17.931 5.808 5.851 11.85 11.539 18.625 16.268 2.634 1.838 19.157 8.551 18.457 12.159-.939 4.358-1.877 8.712-2.924 13.047.124-.513-23.548-9.823-25.411-10.615-15.06-6.404-27.964-15.236-40.771-25.601-2.459-1.99-4.938-4.08-6.521-6.82-1.364-2.36-1.981-5.065-2.582-7.725-3.155-13.975-2.06-28.327-.491-42.43.742-6.678.416-14.842 2.3-21.255 1.75-5.958 7.316-11.963 11.346-16.603.781-.898 1.619-1.81 2.723-2.256 6.231-2.514 13.854 8.713 17.108 12.322 1.142 1.267 2.306 2.605 2.768 4.247.059.211.106.424.141.639z" fill="#474ebb"/><path d="M439.3 261.803c-1.967 2.506-11.258 1.47-14.474 1.65-3.615.203-5.293.024-5.88-4.324-.148-1.103-.069-2.226-.048-3.353.092-.01.186-.024.286-.053 4.929-1.453 9.93-2.477 15.051-2.767 1.162-.064 2.326-.095 3.49-.094 2.202-.194 2.984.896 2.346 3.271.105 1.985.464 4.097-.771 5.67zm-34.1-2.573c-.316 2.524-.66 2.688-3.01 2.878-1.81.146-3.619.304-5.425.51-3.305.377-6.587.905-9.858 1.523.01-2.174-1.356-7.585.276-9.346 1.509-1.628 7.3-.707 9.409-.639 3.687.121 9.303-.488 8.608 5.074zm42.087-9.088c-1.252.648-2.371 1.805-3.365 2.792-.273.27-.557.548-.84.833-.293-1.518-.797-2.767-1.556-3.344-2.128-1.62-6.887-.581-9.268-.391-4.669.374-9.216 1.275-13.717 2.621-.492.147-.806.473-.973.859-.113.09-.212.202-.264.35-.588 1.625-.951 3.685-1.025 5.723l-.035-.01c-1.943-.156-3.921-.068-5.87-.024-.688.016-1.422-.034-2.12.033.007-.507-.002-1.033-.015-1.579-.078-3.177.047-5.642-3.277-6.423-6.195-1.455-13.435-.882-19.715-.387-1.657.13-2.071 2.401-1.027 3.097-1.446 3.37-.4 8.034-.246 11.623.043 1.016.777 1.788 1.798 1.588 6.208-1.217 12.635-1.207 18.79-2.425 2.149-.425 3.068-1.551 3.447-3.103.713.11 1.476.074 2.234.104 1.946.079 3.92.201 5.866.08.091-.006.161-.042.242-.062.078.776.201 1.524.393 2.203.681 2.396 2.107 2.139 4.292 2.128 4.852-.025 9.725-.319 14.571-.552 2.247-.109 4.991.098 6.514-2.008.863-1.193 1.341-4.205 1.265-7.112.74-.65 1.429-1.371 2.157-2.024 1.07-.962 2.308-1.839 3.231-2.94.772-.918-.538-2.142-1.487-1.65z" fill="#292949"/><path d="M321.033 228.593l-10.411 1.919-5.173-16.831 7.994-7.629 9.202 2.407-2.541 7.993 1.952-.36 1.58-2.343 2.324 1.624-4.927 13.22z" fill="#eac5b0"/><path d="M399.526 338.177c4.4-15.25 7.374-29.585 7.131-29.577-10.895.36-21.794.732-32.697.743-6.903.007-16.69 3.264-21.067-1.965-5.573-6.659-7.748-22.074-10.647-30.358-3.231-9.235-6.463-18.47-9.694-27.706-1.91-5.46-5.204-22.548-10.22-24.053-1.062-.318-14.05 2.259-14.074 2.021 1.304 14.169 2.607 28.337 3.911 42.505.974 10.591 1.949 21.182 2.923 31.773 1.713 18.612 7.013 25.593 21.032 37.792 13.892 12.09 28.733 23.027 43.544 33.951 6.494 4.789 14.31-15.896 19.858-35.126z" fill="#8cabef"/><path fill="#fff" d="M480.375 443.711h145.933v34.5H480.375zM483.172 514.337h145.932v34.5H483.172z"/><path d="M498.66 538.137l-2.466-1.806 3.196-3.925-4.933-1.355.973-2.917 4.723 1.806-.243-5.071h3.057l-.243 5.036 4.758-1.771.938 2.917-4.898 1.32 3.197 3.96-2.501 1.806-2.78-4.237-2.778 4.237zM518.288 538.137l-2.466-1.806 3.196-3.925-4.933-1.355.972-2.917 4.724 1.806-.243-5.071h3.056l-.242 5.036 4.758-1.771.938 2.917-4.898 1.32 3.197 3.96-2.501 1.806-2.781-4.237-2.777 4.237zM537.916 538.137l-2.466-1.806 3.196-3.925-4.933-1.355.973-2.917 4.723 1.806-.243-5.071h3.057l-.244 5.036 4.759-1.771.938 2.917-4.898 1.32 3.196 3.96-2.5 1.806-2.78-4.237-2.778 4.237zM557.544 538.137l-2.466-1.806 3.195-3.925-4.932-1.355.972-2.917 4.724 1.806-.243-5.071h3.057l-.244 5.036 4.759-1.771.938 2.917-4.898 1.32 3.196 3.96-2.5 1.806-2.78-4.237-2.778 4.237z" fill="#d67086"/><path d="M890.26 696.476v7.349l-18.848 9.425-9.425-9.425 9.425-9.424h1.216l.303 2.075h17.329zM936.677 694.401h1.301l9.423 9.424-9.423 9.425-18.848-9.425v-7.349h17.329l.218-2.075z" fill="#292949"/><path d="M981.186 463.101c-.177-5.323-.493-9.778-.537-11.371-.399-14.412-1.778-28.908-3.734-43.448-1.767-13.127-4.01-26.289-6.438-39.514-3.809-20.738-7.272-39.011-14.907-58.734-2.712-7.005-5.494-14.135-10.175-19.967-6.326-7.882-19.25-13.539-29.28-13.197-.179.412-.922 5.086-.42 5.026-.153.018-.306.037-.459.055l2.129-.02 11.535 23.874s2.378 62.415 2.913 81.314c.177 6.283 2.117 17.87 4.597 30.423 4.815 24.358 11.67 52.361 11.67 52.361s-.945 1.431-8.545 1.029c4.52 1.205 8.925 2.728 13.05 4.725 2.059.997 3.968 2.115 5.808 3.291 5.236 3.347 9.914 7.177 15.852 10.111.761.376 1.594.765 2.458.66 4.616-.557 4.854-15.469 4.483-26.618zM901.38 277.51c-2.626.479-5.173 1.134-7.594 1.982-13.552 4.751-21.291 14.317-25.876 27.898-3.69 10.926-7.38 21.853-11.07 32.78-3.029 8.973-6.061 17.95-8.688 27.052-6.877 23.829-10.942 48.386-13.928 73.001-1.497 12.341-2.723 24.714-3.904 37.09-.723 7.585 1.603 6.114 6.909 2.403 3.591-2.514 7.109-5.718 11.433-6.885.752-.203 1.512-.419 2.275-.642 10.614-3.105 22.111-7.895 33.196-7.795 1.178.011 2.357.042 3.536.07-15.939-1.209-26.955-1.473-26.955-1.473s2.382-22.975 4.434-44.24c1.297-13.437 2.463-26.193 2.814-32.036.922-15.371 26.017-104.557 26.017-104.557l8.894-.086c-.81-.947-1.178-2.393-1.335-3.697-.036-.3-.095-.584-.158-.865z" fill="#2f3789"/><path d="M850.937 472.189c10.613-3.105 22.111-7.894 33.197-7.795 1.177.011 2.356.042 3.535.07.986.075 1.991.154 3.015.236 7.427.597 15.774 1.395 24.488 2.453.428.052.853.102 1.283.156 11.146 2.425 18.382 3.374 23.08 3.623 4.52 1.205 8.925 2.728 13.05 4.725 2.059.997 3.967 2.115 5.809 3.291l.058 12.11-21.249 205.696h-17.422v2.094h-.099l-19.157-137.971-.079-.777-10.495 138.748h-.099v-2.094h-17.507L850.14 542.248l.797-70.059z" fill="#2f3789"/><path d="M860.714 462.991s11.017.264 26.955 1.473c.986.075 1.992.154 3.015.236 7.427.597 15.774 1.395 24.488 2.453.428.052.853.102 1.283.156 11.146 2.425 18.382 3.374 23.08 3.623 7.6.403 8.545-1.029 8.545-1.029s-6.856-28.003-11.67-52.361c-2.48-12.553-4.42-24.139-4.597-30.423-.733-19.774-1.196-39.556-1.79-59.333-.295-9.878-.622-19.756-1.031-29.63-.181-4.382.574-10.507-3.001-13.811-5.437-5.023-12.342-1.288-18.579-1.5-4.651-.158-11.57-2.243-14.678 2.549-1.91 2.947-2.264 9.384-3.255 12.992-2.94 10.707-5.834 21.427-8.658 32.166-4.738 18.02-11.735 37.441-12.859 56.162-.351 5.844-1.517 18.6-2.814 32.037-2.052 21.265-4.434 44.24-4.434 44.24z" fill="#fff"/><path d="M886.75 225.078c-2.232 4.501-3.16 9.601-3.123 14.642.01 1.341-.002 2.89-1.024 3.735-1.096.905-.002 2.707-.925 1.622-.923-1.086-4.062-4.859-4.267-6.279-.478-3.327-.644-6.7-.495-10.059.131-2.921.561-5.989 2.318-8.303 1.043-1.372 2.476-2.373 3.888-3.345 2.048-1.409 4.159-2.833 6.564-3.42 4.143-1.011 6.787.381 3.246 3.541-2.537 2.264-4.653 4.782-6.182 7.866z" fill="#292949"/><path d="M916.095 280.826c-.073 1.647-.385 3.204-1.244 4.562-.859 1.357-2.245 2.286-3.65 3.062-1.751.966-3.647 1.769-5.643 1.875-1.997.106-4.118-.585-5.353-2.157-3.622-4.607-3.621-14.504-4.061-20.084-5.058-.611-11.038-1.951-13.021-7.202-.625-1.654-.737-3.482-.841-5.271-.428-7.396-.855-14.792-1.283-22.188-.148-2.558-.288-5.194.454-7.614 1.301-4.246 5.017-6.931 8.705-8.691 9.412-4.492 20.626-4.92 29.787.288 2.438 1.386 4.765 3.211 6.259 5.776 2.303 3.954 2.293 8.986 2.205 13.693-.081 4.344-.163 8.689-.244 13.033-.094 4.997-.539 10.767-4.207 13.596-1.948 1.501-4.544 1.894-6.192 3.792-3.147 3.623-1.469 8.927-1.671 13.53z" fill="#eac5b0"/><path d="M899.957 260.28c2.25 1.373 4.528 1.273 6.903.408 1.22-.444 1.852 1.64.634 2.084-2.866 1.044-5.75 1.098-8.452-.551-1.125-.686-.217-2.632.915-1.941zm-18.762-.294c1.132 4.558 3.545 8.841 7.362 11.235 4.326 2.713 9.579 2.647 14.545 2.507 2.715-.077 5.432-.154 8.148-.231 6.872-.195 13.655-1.455 16.814-8.991 1.457-3.474 1.776-7.442 1.342-11.251-.119-1.047-.305-2.12-.84-3-.534-.88-1.496-1.525-2.44-1.34-1.208.237-1.871 1.607-2.603 2.683-1.594 2.349-4.549 3.767-7.049 2.687-.742-.32-1.394-.828-2.044-1.341-.266-.21-.532-.42-.803-.62-2.687-1.977-5.895-2.781-9.073-3.035-2.758-.22-6.843-1.035-8.756 1.444-1.113 1.443-2.227 2.885-3.34 4.327-.458.594-.928 1.2-1.539 1.597-.629.409-1.369.571-2.102.622-1.841.13-3.954-.627-4.676-2.495-.315-.814-.321-1.721-.398-2.6-.078-.877-.256-1.805-.82-2.438-2.156-2.42-2.542 1.631-2.554 3.007-.021 2.433.242 4.879.826 7.233zM877.303 212.717c-.571-1.768-1.017-3.577-1.335-5.409 1.708.511 3.545.575 5.283.183-.05-1.064-.099-2.128-.148-3.192-.038-.886 11.701-2.122 12.654-2.252 8.916-1.215 17.068-2.355 25.412 2.108 7.128 3.812 11.877 9.814 13.35 17.872 1.406 7.699-.577 17.953-4.659 24.618-.079-2.065.842-6.994.265-8.93-.394-1.95-1.157-3.811-2.167-5.512-2.017-3.397-5.015-6.188-8.412-8.114-5.418-3.069-11.609-4.518-17.747-5.063-5.623-.498-12.464-.871-17.904.922-2.615.861-3.021 1.561-4.764-1.077-.308-.465-2.836-5.95-2.616-5.965.928-.063 1.858-.126 2.788-.189zM941.484 536.082L824.915 569.58c-.927.266-1.894-.269-2.161-1.196l-58.779-204.548c-.267-.927.269-1.895 1.196-2.161l116.569-33.498c.927-.266 1.895.269 2.161 1.196l58.78 204.548c.266.927-.27 1.895-1.197 2.161z" fill="#292949"/><path d="M926.039 508.521l-102.136 29.35-48.407-168.451 102.137-29.35 48.406 168.451z" fill="#8cabef"/><path d="M893.147 539.881l-24.721 7.104c-.586.168-1.197-.17-1.365-.756l-1.922-6.686c-.168-.586.17-1.198.756-1.366l24.721-7.104c.586-.168 1.197.17 1.365.756l1.922 6.686c.168.586-.17 1.198-.756 1.366zM822.497 420.526c1.341 4.394-1.134 9.043-5.528 10.384-4.395 1.341-9.044-1.134-10.385-5.528-1.341-4.395 1.134-9.044 5.528-10.385 4.395-1.341 9.044 1.134 10.385 5.529zM854.589 410.733c1.341 4.394-1.135 9.044-5.529 10.385-4.395 1.34-9.044-1.135-10.385-5.529-1.341-4.395 1.135-9.044 5.529-10.385 4.395-1.341 9.044 1.134 10.385 5.529zM886.68 400.94c1.341 4.394-1.134 9.044-5.529 10.385-4.394 1.341-9.044-1.135-10.384-5.529-1.341-4.394 1.134-9.044 5.528-10.385 4.394-1.341 9.044 1.135 10.385 5.529zM832.62 453.697c1.341 4.395-1.135 9.044-5.529 10.385-4.395 1.341-9.044-1.134-10.385-5.529-1.341-4.394 1.135-9.043 5.529-10.384 4.394-1.341 9.043 1.134 10.385 5.528zM864.711 443.905c1.341 4.394-1.134 9.043-5.528 10.384-4.395 1.341-9.044-1.134-10.385-5.528-1.341-4.395 1.134-9.044 5.528-10.385 4.395-1.341 9.044 1.134 10.385 5.529zM896.803 434.112c1.341 4.394-1.135 9.044-5.53 10.385-4.393 1.341-9.043-1.135-10.384-5.529-1.341-4.395 1.134-9.044 5.529-10.385 4.395-1.341 9.044 1.134 10.385 5.529zM842.742 486.869c1.341 4.395-1.135 9.044-5.528 10.385-4.395 1.341-9.044-1.134-10.385-5.529-1.342-4.394 1.134-9.043 5.528-10.384 4.395-1.341 9.044 1.134 10.385 5.528zM874.834 477.077c1.341 4.394-1.135 9.043-5.529 10.384-4.395 1.341-9.044-1.134-10.385-5.528-1.341-4.395 1.135-9.044 5.529-10.385 4.395-1.341 9.044 1.134 10.385 5.529zM906.925 467.284c1.341 4.394-1.134 9.044-5.529 10.384-4.394 1.342-9.043-1.134-10.384-5.528-1.341-4.395 1.134-9.044 5.528-10.385 4.395-1.341 9.044 1.134 10.385 5.529zM849.657 378.552l-24.857 7.586-1.449-4.749 24.857-7.585 1.449 4.748z" fill="#fff"/><path d="M335.561 166.256l38.458-1.189-.467-15.073 2.184-.068.466 15.074 5.003-.155-.466-15.074 3.18-.098.466 15.074 2.501-.078-.466-15.073-.877.027 72.702-2.248.466 15.074-123.15 3.807zm123.471-19.919l-124.787 3.859.528 17.098 124.788-3.859-.529-17.098z" fill="#d67086"/><path d="M739.505 157.46c1.391 2.724 2.784 5.448 4.177 8.172.658 1.288 2.597.152 1.94-1.134-1.393-2.724-2.785-5.448-4.178-8.172-.658-1.288-2.597-.153-1.939 1.134zM756.01 156.091c-.954 2.563-1.481 5.215-1.62 7.945-.075 1.445 2.173 1.441 2.246 0 .131-2.538.654-4.968 1.54-7.348.505-1.357-1.666-1.943-2.166-.597zM731.511 174.484c2.04.507 4.08 1.015 6.12 1.522 1.403.35 2.002-1.817.598-2.166-2.041-.508-4.081-1.015-6.121-1.523-1.403-.349-2.002 1.817-.597 2.167zM738.737 191.571c1.483-1.573 2.966-3.147 4.45-4.72.991-1.052-.595-2.644-1.589-1.589-1.484 1.573-2.967 3.147-4.45 4.721-.991 1.051.595 2.643 1.589 1.588zM751.229 191.183c.812 2.02 1.625 4.041 2.437 6.061.533 1.325 2.707.746 2.167-.597-.812-2.021-1.625-4.041-2.437-6.061-.533-1.325-2.708-.747-2.167.597zM762.144 184.264c1.79.488 3.581.977 5.371 1.466 1.396.381 1.993-1.786.597-2.167-1.791-.489-3.581-.977-5.371-1.466-1.397-.381-1.993 1.786-.597 2.167zM763.716 170.212c2.309-.984 4.619-1.968 6.929-2.953 1.326-.565.182-2.501-1.134-1.94-2.31.984-4.619 1.969-6.929 2.953-1.326.565-.183 2.501 1.134 1.94z" fill="#305399"/><path d="M267.561 451.195c-1.612-3.611-5.65-5.939-9.469-4.438-1.672.656-.941 3.387.75 2.719 2.867-1.131 5.717.956 6.469 3.745.744 2.756-.34 5.809-1.353 8.338-1.629 4.064-3.629 8.004-5.687 11.863-2.099 3.933-4.35 7.784-6.714 11.563-2.386 3.815-4.787 7.87-8.381 10.675-3.466 2.705-8.654 4.077-12.413 1.122-4.02-3.161-2.855-9.263-1.619-13.498 2.538-8.699 6.939-16.591 12.198-23.916.733-1.019-.95-2.335-1.752-1.352-4.104 5.035-7.448 10.602-10.027 16.565-2.185 5.052-4.552 10.871-4.189 16.487.672 10.404 12.046 12.447 19.342 6.871 4.655-3.559 7.706-9.048 10.701-13.958 3.42-5.607 6.576-11.379 9.339-17.339 2.12-4.573 5.071-10.368 2.805-15.447z" fill="#2f3789"/><path d="M246.365 455.021c1.669 3.585 5.742 5.849 9.538 4.288 1.659-.683.887-3.401-.793-2.707-2.849 1.176-5.731-.866-6.527-3.642-.788-2.744.248-5.814 1.221-8.359 1.565-4.088 3.501-8.059 5.499-11.951 2.035-3.966 4.227-7.851 6.531-11.667 2.326-3.852 4.663-7.944 8.211-10.806 3.424-2.759 8.589-4.213 12.394-1.318 4.07 3.097 3.001 9.217 1.832 13.471-2.401 8.738-6.677 16.699-11.82 24.106-.716 1.031.988 2.32 1.774 1.324 4.024-5.099 7.279-10.718 9.764-16.721 2.105-5.086 4.38-10.942 3.929-16.552-.836-10.391-12.241-12.255-19.448-6.564-4.599 3.631-7.563 9.167-10.481 14.124-3.33 5.66-6.395 11.482-9.063 17.484-2.048 4.606-4.907 10.447-2.561 15.49z" fill="#2f3789"/><path d="M908.487 423.725c-.312.164-.643.348-.799.664-.176.354-.083.777.014 1.161.254 1.007.508 2.014.762 3.022-.016-.058 3.263-.441 3.808.069 1.429 1.329.189 3.17-.883 4.21-1.986 1.927-3.971 3.853-5.956 5.779.998 1.332 1.996 2.663 2.994 3.995.274.366.553.737.92 1.012 4.41 3.307 10.419-3.774 12.357-6.89 1.925-3.092 3.179-6.552 4.233-10.039.088-.295.177-.611.09-.907-.103-.353-.426-.588-.728-.798-2.282-1.588-5.195-5.094-8.112-5.211-2.822-.113-6.313 2.681-8.7 3.933z" fill="#eac5b0"/><path d="M940.653 379.494c.388 3.7.418 7.411-1.177 10.623-3.842 7.73-9.337 14.547-15.295 20.741-2.393 2.487-5.689 4.039-8.271 6.326-1.411 1.251-3.06 2.474-2.465 4.323.583 1.809 4.495 4.389 5.896 5.732.993.952 3.513 4.611 4.791 4.794 1.646.236 4.55-2.728 5.82-3.666 3.972-2.932 7.82-6.033 11.508-9.317 11.655-10.375 18.746-22.891 28.623-34.658 1.455-1.732 2.965-3.583 3.32-5.818.284-1.778-.206-3.578-.69-5.312-4.903-17.543-9.807-35.086-14.71-52.629-2.323-8.313-4.894-17.049-11.127-23.02-2.394-2.292-5.922-4.149-8.927-2.752-3.678 1.711-3.902 6.77-3.574 10.813 1.196 14.751 2.394 29.501 3.591 44.252.598 7.375 1.197 14.751 1.796 22.126.192 2.365.626 4.901.891 7.442z" fill="#2f3789"/></g></svg>