<svg xmlns="http://www.w3.org/2000/svg" xmlns:xlink="http://www.w3.org/1999/xlink" width="800" height="600" fill-rule="evenodd" stroke-linejoin="round" stroke-miterlimit="2" clip-rule="evenodd" preserveAspectRatio="xMidYMin meet" version="1.1" viewBox="0 0 1000 900" xml:space="preserve"><g transform="matrix(2,0,0,2,0,0)"><path fill="#2C3A45" fill-rule="nonzero" d="M245.552,62.737L286.699,124.643L362.691,137.988L320.804,74.6L245.552,62.737Z"/><path fill="#2C3A45" fill-rule="nonzero" d="M245.552,62.737L244.439,63.85L361.579,139.1L362.691,137.988L245.552,62.737Z"/><path fill="#1C252D" fill-rule="nonzero" d="M244.439,63.85L285.587,125.755L361.579,139.1L319.69,75.712L244.439,63.85Z"/><path fill="#2C3A45" fill-rule="nonzero" d="M330.812,120.191L322.571,133.67L311.539,151.708L254.822,114.631C255.279,113.574 262.808,102.999 268.823,94.614C272.928,88.919 276.32,84.238 276.32,84.238C301.52,84.571 319.725,96.481 330.812,120.191Z"/><path fill="#415767" fill-rule="nonzero" d="M288.316,85.375C284.51,84.678 280.515,84.293 276.32,84.238C276.32,84.238 272.928,88.919 268.823,94.614C262.808,102.999 255.279,113.574 254.822,114.631L264.166,120.739C271.858,108.86 279.663,96.58 288.316,85.375Z"/><path fill="#202D38" fill-rule="nonzero" d="M322.571,133.67C322.538,133.569 322.504,133.458 322.471,133.358C314.999,108.447 293.384,99.771 280.005,96.76C282.701,92.883 285.462,89.071 288.316,85.375C284.632,84.7 280.771,84.318 276.723,84.245C301.715,84.698 319.784,96.607 330.812,120.191L323.355,132.388L322.571,133.67ZM276.705,84.244C276.681,84.244 276.656,84.243 276.631,84.243C276.656,84.243 276.681,84.244 276.705,84.244ZM276.589,84.242C276.571,84.242 276.551,84.242 276.533,84.241C276.551,84.242 276.571,84.242 276.589,84.242ZM276.49,84.241C276.475,84.24 276.46,84.24 276.444,84.24C276.46,84.24 276.475,84.24 276.49,84.241ZM276.405,84.239C276.377,84.239 276.348,84.239 276.32,84.238C276.348,84.239 276.377,84.239 276.405,84.239Z"/><path fill="#2F4352" fill-rule="nonzero" d="M280.005,96.76C273.471,95.289 268.902,95.169 268.902,95.169L268.823,94.614C272.928,88.919 276.32,84.238 276.32,84.238C276.348,84.239 276.377,84.239 276.405,84.239C276.419,84.24 276.43,84.24 276.444,84.24C276.46,84.24 276.475,84.24 276.49,84.241L276.533,84.241C276.551,84.242 276.571,84.242 276.589,84.242C276.605,84.242 276.616,84.243 276.631,84.243C276.656,84.243 276.681,84.244 276.705,84.244C276.71,84.244 276.719,84.244 276.723,84.245C280.771,84.318 284.632,84.7 288.316,85.375C285.462,89.071 282.701,92.883 280.005,96.76Z"/><path fill="#788B9C" fill-rule="nonzero" d="M248.254,336.124L230.989,336.124C224.623,336.124 219.463,330.964 219.463,324.6L219.463,308.618C219.463,302.254 224.623,297.093 230.989,297.093L248.254,297.093C254.619,297.093 259.778,302.254 259.778,308.618L259.778,324.6C259.778,330.964 254.619,336.124 248.254,336.124Z"/><path fill="#A5B8C6" fill-rule="nonzero" d="M259.004,329.279L220.238,329.279C215.324,329.279 211.34,325.297 211.34,320.382L211.34,283.418C211.34,278.504 215.324,274.521 220.238,274.521L259.004,274.521C263.917,274.521 267.9,278.504 267.9,283.418L267.9,320.382C267.9,325.297 263.917,329.279 259.004,329.279Z"/><path fill="#FAC40E" fill-rule="nonzero" d="M320.077,186.379C320.077,140.681 281.977,103.881 235.811,106.011C194.812,107.902 161.447,141.027 159.28,182.013C157.468,216.284 177.125,246.167 205.997,259.472L205.997,280.766C205.997,286.07 210.298,290.373 215.604,290.373L263.639,290.373C268.943,290.373 273.243,286.07 273.243,280.766L273.243,259.472C300.882,246.734 320.077,218.807 320.077,186.379Z"/><path fill="#FBD71B" fill-rule="nonzero" d="M260.194,285.802L242.401,285.802C242.401,285.802 262.696,280.798 268.257,262.727L268.257,280.798C268.257,280.798 267.423,285.802 260.194,285.802Z"/><path fill="#FBD71B" fill-rule="nonzero" d="M175.83,155.278C187.986,129.145 213.873,113.784 240.913,113.784C251.039,113.784 261.333,115.941 271.119,120.494C270.012,120.47 268.911,120.458 267.809,120.458C235.205,120.458 204.369,131.032 175.83,155.278Z"/><rect width="50.137" height=".918" x="213.672" y="293.869" fill="#788B9C" fill-rule="nonzero"/><rect width="50.137" height=".919" x="213.672" y="297.206" fill="#788B9C" fill-rule="nonzero"/><rect width="50.137" height=".919" x="213.672" y="300.541" fill="#788B9C" fill-rule="nonzero"/><rect width="50.137" height=".919" x="213.672" y="303.878" fill="#788B9C" fill-rule="nonzero"/><rect width="50.137" height=".919" x="213.672" y="307.214" fill="#788B9C" fill-rule="nonzero"/><rect width="50.137" height=".919" x="213.672" y="310.551" fill="#788B9C" fill-rule="nonzero"/><rect width="50.137" height=".919" x="213.672" y="313.887" fill="#788B9C" fill-rule="nonzero"/><rect width="50.137" height=".919" x="213.672" y="317.223" fill="#788B9C" fill-rule="nonzero"/><rect width="50.137" height=".919" x="213.672" y="320.56" fill="#788B9C" fill-rule="nonzero"/><rect width="50.137" height=".918" x="213.672" y="323.895" fill="#788B9C" fill-rule="nonzero"/><path fill="#798DA0" fill-rule="nonzero" d="M256.302,325.003L246.202,325.003C246.098,325.003 246.015,324.921 246.015,324.817L246.015,324.813L258.338,324.813C257.73,324.935 257.053,325.003 256.302,325.003ZM260.739,323.895L246.015,323.895L246.015,321.479L262.988,321.479C262.534,322.331 261.829,323.222 260.739,323.895ZM263.397,320.56L246.015,320.56L246.015,318.142L263.809,318.142L263.809,317.223L246.015,317.223L246.015,314.806L263.809,314.806L263.809,313.887L246.015,313.887L246.015,311.47L263.809,311.47L263.809,310.551L246.015,310.551L246.015,308.133L263.809,308.133L263.809,307.214L246.015,307.214L246.015,304.797L263.809,304.797L263.809,303.878L246.015,303.878L246.015,301.46L263.809,301.46L263.809,300.541L246.015,300.541L246.015,298.125L263.809,298.125L263.809,297.206L246.015,297.206L246.015,294.877C246.015,294.845 246.023,294.814 246.038,294.787L263.809,294.787L263.809,294.609L263.809,318.725C263.807,318.757 263.766,319.549 263.397,320.56Z"/><path fill="#576B7D" fill-rule="nonzero" d="M263.809,294.787L246.038,294.787C246.07,294.731 246.13,294.692 246.198,294.691L263.62,294.424L263.622,294.424C263.725,294.424 263.809,294.506 263.809,294.609L263.809,294.787Z"/><rect width="17.794" height=".919" x="246.015" y="297.206" fill="#576B7D" fill-rule="nonzero"/><rect width="17.794" height=".919" x="246.015" y="300.541" fill="#576B7D" fill-rule="nonzero"/><rect width="17.794" height=".919" x="246.015" y="303.878" fill="#576B7D" fill-rule="nonzero"/><rect width="17.794" height=".919" x="246.015" y="307.214" fill="#576B7D" fill-rule="nonzero"/><rect width="17.794" height=".919" x="246.015" y="310.551" fill="#576B7D" fill-rule="nonzero"/><rect width="17.794" height=".919" x="246.015" y="313.887" fill="#576B7D" fill-rule="nonzero"/><rect width="17.794" height=".919" x="246.015" y="317.223" fill="#576B7D" fill-rule="nonzero"/><path fill="#576B7D" fill-rule="nonzero" d="M262.988,321.479L246.015,321.479L246.015,320.56L263.397,320.56C263.29,320.852 263.156,321.163 262.988,321.479Z"/><path fill="#576B7D" fill-rule="nonzero" d="M258.338,324.813L246.015,324.813L246.015,323.895L260.739,323.895C260.088,324.297 259.297,324.622 258.338,324.813Z"/><path fill="#E3D9D3" fill-rule="nonzero" d="M312.742,359.538L213.782,359.538C212.709,359.538 211.839,358.667 211.839,357.595L211.839,337.139C211.839,336.067 212.709,335.197 213.782,335.197L312.742,335.197C313.814,335.197 314.685,336.067 314.685,337.139L314.685,357.595C314.685,358.667 313.814,359.538 312.742,359.538Z"/><path fill="#E96C27" fill-rule="nonzero" d="M314.966,339.084L216.006,339.084C214.934,339.084 214.063,338.213 214.063,337.139C214.063,336.067 214.934,335.197 216.006,335.197L314.966,335.197C316.039,335.197 316.908,336.067 316.908,337.139C316.908,338.213 316.039,339.084 314.966,339.084Z"/><path fill="#E96C27" fill-rule="nonzero" d="M314.966,355.764L216.006,355.764C214.934,355.764 214.063,354.894 214.063,353.82C214.063,352.749 214.934,351.879 216.006,351.879L314.966,351.879C316.039,351.879 316.908,352.749 316.908,353.82C316.908,354.894 316.039,355.764 314.966,355.764Z"/><path fill="#D4D4CF" fill-rule="nonzero" d="M332.082,419.53L193.898,419.53C192.825,419.53 191.956,418.66 191.956,417.587L191.956,397.133C191.956,396.061 192.825,395.19 193.898,395.19L332.082,395.19C333.155,395.19 334.025,396.061 334.025,397.133L334.025,417.587C334.025,418.66 333.155,419.53 332.082,419.53Z"/><path fill="#43769D" fill-rule="nonzero" d="M335.387,397.845L192.509,397.845C192.204,397.845 191.956,397.597 191.956,397.292L191.956,395.743C191.956,395.438 192.204,395.19 192.509,395.19L335.387,395.19C335.691,395.19 335.938,395.438 335.938,395.743L335.938,397.292C335.938,397.597 335.691,397.845 335.387,397.845Z"/><path fill="#43769D" fill-rule="nonzero" d="M335.387,419.345L192.509,419.345C192.204,419.345 191.956,419.097 191.956,418.792L191.956,417.244C191.956,416.938 192.204,416.69 192.509,416.69L335.387,416.69C335.691,416.69 335.938,416.938 335.938,417.244L335.938,418.792C335.938,419.097 335.691,419.345 335.387,419.345Z"/><path fill="#E3D9D3" fill-rule="nonzero" d="M322.684,373.594L203.498,373.594C202.424,373.594 201.555,372.724 201.555,371.65L201.555,361.48C201.555,360.408 202.424,359.538 203.498,359.538L322.684,359.538C323.757,359.538 324.626,360.408 324.626,361.48L324.626,371.65C324.626,372.724 323.757,373.594 322.684,373.594Z"/><path fill="#E84F26" fill-rule="nonzero" d="M325.06,361.702L203.346,361.702C202.971,361.702 202.667,361.397 202.667,361.023L202.667,360.217C202.667,359.842 202.971,359.538 203.346,359.538L325.06,359.538C325.435,359.538 325.738,359.842 325.738,360.217L325.738,361.023C325.738,361.397 325.435,361.702 325.06,361.702Z"/><path fill="#E84F26" fill-rule="nonzero" d="M325.06,373.565L203.346,373.565C202.971,373.565 202.667,373.261 202.667,372.886L202.667,372.08C202.667,371.703 202.971,371.399 203.346,371.399L325.06,371.399C325.435,371.399 325.738,371.703 325.738,372.08L325.738,372.886C325.738,373.261 325.435,373.565 325.06,373.565Z"/><path fill="#D4D4CF" fill-rule="nonzero" d="M322.534,355.652L204.674,355.652C204.403,355.652 204.183,355.873 204.183,356.144L204.183,359.046C204.183,359.316 204.403,359.538 204.674,359.538L322.534,359.538C322.808,359.538 323.026,359.316 323.026,359.046L323.026,356.144C323.026,355.873 322.808,355.652 322.534,355.652Z"/><path fill="#E3D9D3" fill-rule="nonzero" d="M324.854,395.19L206.583,395.19C205.51,395.19 204.64,394.321 204.64,393.247L204.64,377.916C204.64,376.844 205.51,375.974 206.583,375.974L324.854,375.974C325.927,375.974 326.797,376.844 326.797,377.916L326.797,393.247C326.797,394.321 325.927,395.19 324.854,395.19Z"/><path fill="#41999C" fill-rule="nonzero" d="M326.455,395.19L206.583,395.19C205.51,395.19 204.64,394.321 204.64,393.247C204.64,392.175 205.51,391.305 206.583,391.305L326.455,391.305C327.527,391.305 328.397,392.175 328.397,393.247C328.397,394.321 327.527,395.19 326.455,395.19Z"/><path fill="#41999C" fill-rule="nonzero" d="M326.455,377.479L206.583,377.479C205.51,377.479 204.64,376.608 204.64,375.536C204.64,374.462 205.51,373.594 206.583,373.594L326.455,373.594C327.527,373.594 328.397,374.462 328.397,375.536C328.397,376.608 327.527,377.479 326.455,377.479Z"/><path fill="#E96C27" fill-rule="nonzero" d="M264.088,359.538L165.129,359.538C164.056,359.538 163.185,358.667 163.185,357.595L163.185,337.139C163.185,336.067 164.056,335.197 165.129,335.197L264.088,335.197C265.161,335.197 266.03,336.067 266.03,337.139L266.03,357.595C266.03,358.667 265.161,359.538 264.088,359.538Z"/><path fill="#43769D" fill-rule="nonzero" d="M285.343,419.53L145.245,419.53C144.172,419.53 143.303,418.66 143.303,417.587L143.303,397.133C143.303,396.061 144.172,395.19 145.245,395.19L285.343,395.19C286.416,395.19 287.285,396.061 287.285,397.133L287.285,417.587C287.285,418.66 286.416,419.53 285.343,419.53Z"/><path fill="#E84F26" fill-rule="nonzero" d="M274.03,373.594L154.843,373.594C153.771,373.594 152.9,372.724 152.9,371.65L152.9,361.48C152.9,360.408 153.771,359.538 154.843,359.538L274.03,359.538C275.104,359.538 275.973,360.408 275.973,361.48L275.973,371.65C275.973,372.724 275.104,373.594 274.03,373.594Z"/><path fill="#41999C" fill-rule="nonzero" d="M273.372,355.652L156.53,355.652C155.978,355.652 155.529,356.101 155.529,356.652L155.529,358.536C155.529,359.09 155.978,359.538 156.53,359.538L273.372,359.538C273.924,359.538 274.373,359.09 274.373,358.536L274.373,356.652C274.373,356.101 273.924,355.652 273.372,355.652Z"/><path fill="#41999C" fill-rule="nonzero" d="M277.801,395.19L157.929,395.19C156.856,395.19 155.986,394.321 155.986,393.247L155.986,375.536C155.986,374.462 156.856,373.594 157.929,373.594L277.801,373.594C278.874,373.594 279.744,374.462 279.744,375.536L279.744,393.247C279.744,394.321 278.874,395.19 277.801,395.19Z"/><rect width="5.699" height="13.762" x="160.679" y="359.616" fill="#E96C27" fill-rule="nonzero"/><rect width="12.234" height="21.686" x="165.543" y="373.378" fill="#fff" fill-rule="nonzero"/><rect width=".919" height="14.458" x="184.175" y="377.271" fill="#fff" fill-rule="nonzero"/><rect width="104.35" height="2.757" x="155.35" y="407.587" fill="#fff" fill-rule="nonzero"/><rect width=".919" height="5.56" x="171.201" y="363.185" fill="#fff" fill-rule="nonzero"/><rect width="2.756" height="3.893" x="166.019" y="355.586" fill="#EFD32F" fill-rule="nonzero"/><rect width="2.757" height="19.832" x="172.506" y="335.383" fill="#EFD32F" fill-rule="nonzero"/><rect width="66.17" height="2.756" x="183.893" y="344.569" fill="#fff" fill-rule="nonzero"/><path fill="#1F2A42" fill-rule="nonzero" d="M353.728,372.239L346.863,373.908L340.373,382.255L350.106,384.759C350.106,384.759 356.947,386.319 357.063,382.996C357.107,381.72 356.322,377.077 353.728,372.239Z"/><path fill="#3B8B8D" fill-rule="nonzero" d="M350.323,365.336C348.735,366.453 347.185,367.297 345.461,368.026C343.763,368.74 341.912,369.262 339.944,369.285C339.455,369.286 338.951,369.236 338.462,369.163C337.972,369.051 337.452,368.942 337.063,368.792C336.227,368.514 335.399,368.201 334.583,367.866C332.948,367.183 331.379,366.435 329.863,365.412C329.608,365.243 329.541,364.896 329.712,364.643C329.87,364.407 330.178,364.332 330.423,364.458L330.465,364.478C331.909,365.211 333.544,365.768 335.152,366.215C335.963,366.437 336.779,366.633 337.604,366.799C338.037,366.906 338.373,366.91 338.728,366.955C339.09,366.958 339.452,366.954 339.819,366.906C341.289,366.702 342.766,366.109 344.146,365.312C345.512,364.531 346.889,363.53 347.999,362.518L348.034,362.484C348.782,361.803 349.941,361.855 350.623,362.604C351.306,363.351 351.251,364.508 350.503,365.19L350.323,365.336Z"/><path fill="#41999C" fill-rule="nonzero" d="M354.895,366.803C354.692,365.334 354.701,363.816 354.764,362.314C354.604,362.334 354.438,362.331 354.265,362.283C353.476,362.064 353.028,361.08 353.483,360.36L353.484,360.366L353.504,360.321L351.871,360.437C351.871,360.437 346.821,363.863 346.37,366.396C346.031,368.295 346.476,371.568 346.718,373.09C348.158,372.803 349.705,372.67 351.131,372.702L351.152,372.706C351.188,372.391 351.276,372.081 351.447,371.774C351.746,371.24 352.265,370.59 352.893,370.469C353.223,370.405 353.576,370.513 353.817,370.727C354.073,370.6 354.347,370.567 354.598,370.627L355.259,367.424C355.07,367.291 354.934,367.088 354.895,366.803Z"/><rect width="2.909" height="11.128" x="351.264" y="352.024" fill="#FECE89" fill-rule="nonzero"/><path fill="#FECE89" fill-rule="nonzero" d="M348.229,351.306C347.484,354.155 348.114,356.789 350.966,357.534C353.816,358.278 356.729,356.573 357.477,353.723C358.222,350.871 356.515,347.956 353.664,347.212C350.813,346.466 348.974,348.455 348.229,351.306Z"/><path fill="#1F2A42" fill-rule="nonzero" d="M350.946,357.089C350.946,357.089 355.114,351.123 354.825,351.047C353.459,350.689 347.991,349.262 347.991,349.262C347.991,349.262 350.661,343.811 357.552,347.646C361.857,350.044 362.513,356.568 360.165,358.809C358.756,360.155 350.946,357.089 350.946,357.089Z"/><path fill="#1F2A42" fill-rule="nonzero" d="M346.454,383.317L329.375,378.872L331.231,377.178L332.246,394.076C332.264,394.36 332.048,394.604 331.765,394.62C331.503,394.637 331.274,394.453 331.229,394.2L328.168,377.55C328.021,376.748 328.551,375.979 329.353,375.831C329.525,375.8 329.698,375.8 329.862,375.826L330.024,375.855L347.42,378.825C348.672,379.039 349.514,380.227 349.3,381.479C349.086,382.73 347.898,383.572 346.646,383.358L346.454,383.317Z"/><path fill="#1F2A42" fill-rule="nonzero" d="M354.227,381.021L354.238,383.529C354.235,384.384 354.266,385.152 354.282,385.957L354.38,390.758L354.604,400.813L354.443,400.166L361.43,417.906C361.542,418.191 361.402,418.513 361.118,418.624C360.855,418.728 360.563,418.616 360.431,418.375L351.292,401.641C351.204,401.479 351.155,401.311 351.142,401.139L351.131,400.992L350.347,390.942L349.975,385.688L349.655,380.565C349.576,379.305 350.534,378.22 351.794,378.141C353.055,378.062 354.141,379.02 354.219,380.281L354.224,380.405L354.227,381.021Z"/><path fill="#41999C" fill-rule="nonzero" d="M356.591,361.408C357.966,363.585 359.234,365.747 360.404,368.052C360.981,369.211 361.535,370.378 361.965,371.727C362.068,372.072 362.167,372.421 362.23,372.839C362.281,373.247 362.379,373.703 362.138,374.459C362.024,374.817 361.684,375.293 361.236,375.525C360.896,375.689 360.711,375.702 360.436,375.778C359.959,375.868 359.651,375.844 359.264,375.868C356.555,375.771 354.144,375.271 351.659,374.809C349.196,374.318 346.761,373.774 344.326,373.184C344.028,373.111 343.844,372.811 343.917,372.512C343.984,372.23 344.264,372.052 344.544,372.092C346.996,372.45 349.466,372.765 351.927,373.02C354.367,373.249 356.902,373.5 359.178,373.362C359.406,373.324 359.732,373.301 359.858,373.249L359.945,373.226C359.763,373.301 359.634,373.521 359.604,373.58C359.555,373.74 359.583,373.551 359.512,373.355C359.464,373.162 359.37,372.914 359.272,372.673C358.851,371.681 358.243,370.633 357.611,369.618C356.33,367.588 354.881,365.573 353.408,363.664L353.392,363.644C352.734,362.791 352.892,361.563 353.746,360.904C354.601,360.246 355.826,360.402 356.485,361.258L356.591,361.408Z"/><path fill="#41999C" fill-rule="nonzero" d="M352.798,360.313C354.703,360.313 356.69,361.354 356.69,364.552C356.69,367.749 353.728,372.239 353.728,372.239L348.142,372.239L349.739,362.745L352.798,360.313Z"/><path fill="#3B8B8D" fill-rule="nonzero" d="M354.779,360.486L354.153,359.165L351.756,360.173C351.756,360.173 350.678,362.502 350.782,362.467C350.887,362.432 354.779,360.486 354.779,360.486Z"/><path fill="#3B8B8D" fill-rule="nonzero" d="M351.199,360.069L350.47,360.173L348.975,362.327L349.67,362.119L351.234,360.868L351.199,360.069Z"/><path fill="#41999C" fill-rule="nonzero" d="M353.728,372.239L346.863,373.908L346.473,371.086L354.431,370.911L353.728,372.239Z"/><path fill="#41999C" fill-rule="nonzero" d="M332.943,394.973C332.943,394.695 332.666,390.709 332.666,390.709L328.959,390.616L330.533,393.953C330.533,393.953 329.236,394.23 329.144,394.973C329.051,395.713 332.943,394.973 332.943,394.973Z"/><path fill="#41999C" fill-rule="nonzero" d="M361.949,417.306C361.949,417.306 361.302,414.526 361.023,414.618C360.745,414.712 357.315,415.916 357.315,415.916L360.374,419.438C360.374,419.438 358.799,419.809 358.707,420.457C358.613,421.106 362.32,420.457 362.32,420.457L361.949,417.306Z"/><path fill="#FECE89" fill-rule="nonzero" d="M344.875,372.128L344.736,373.378L341.886,373.657C341.886,373.657 341.469,370.946 342.721,371.225C343.972,371.503 344.875,372.128 344.875,372.128Z"/><path fill="#FECE89" fill-rule="nonzero" d="M329.863,365.412C329.375,365.456 327.151,363.927 327.151,363.927C327.151,363.927 327.846,361.286 329.167,362.049C330.487,362.814 330.465,364.478 330.465,364.478L329.863,365.412Z"/><path fill="#FECE89" fill-rule="nonzero" d="M348.229,351.306C347.933,351.554 346.334,352.458 346.334,352.458L348.489,353.848L349.184,351.415L348.229,351.306Z"/><path fill="#D06127" fill-rule="nonzero" d="M194.573,304.796C195.773,305.915 196.947,306.758 198.25,307.487C199.534,308.201 200.934,308.722 202.422,308.746C202.792,308.748 203.172,308.696 203.543,308.625C203.914,308.513 204.306,308.404 204.601,308.252C205.234,307.975 205.859,307.664 206.476,307.327C207.713,306.644 208.899,305.896 210.045,304.875C210.238,304.703 210.29,304.358 210.16,304.104C210.04,303.869 209.808,303.793 209.621,303.918L209.591,303.939C208.499,304.672 207.262,305.229 206.046,305.676C205.432,305.897 204.815,306.095 204.192,306.26C203.865,306.366 203.61,306.372 203.341,306.416C203.069,306.42 202.794,306.415 202.518,306.367C201.405,306.163 200.29,305.572 199.245,304.772C198.211,303.992 197.171,302.991 196.332,301.979L196.304,301.945C195.738,301.263 194.862,301.316 194.346,302.063C193.832,302.81 193.872,303.971 194.437,304.652L194.573,304.796Z"/><path fill="#E96C27" fill-rule="nonzero" d="M191.304,307.027C191.505,305.56 191.497,304.043 191.435,302.54C191.592,302.561 191.758,302.556 191.933,302.509C192.724,302.29 193.17,301.305 192.715,300.586L192.714,300.591L192.694,300.547L194.327,300.662C194.327,300.662 197.152,301.864 197.604,304.399C197.943,306.297 199.723,311.794 199.479,313.315C198.04,313.028 196.493,312.896 195.068,312.928L195.046,312.932C195.009,312.615 194.921,312.306 194.751,312.001C194.452,311.465 193.934,310.815 193.305,310.695C192.975,310.631 192.622,310.739 192.381,310.951C192.124,310.824 191.853,310.792 191.601,310.853L190.939,307.649C191.127,307.517 191.265,307.313 191.304,307.027Z"/><rect width="2.91" height="11.128" x="192.025" y="292.25" fill="#FECE89" fill-rule="nonzero"/><path fill="#FECE89" fill-rule="nonzero" d="M197.969,291.53C198.714,294.381 198.083,297.015 195.233,297.76C192.382,298.505 189.467,296.799 188.722,293.947C187.977,291.098 189.684,288.183 192.534,287.438C195.385,286.692 197.223,288.682 197.969,291.53Z"/><path fill="#1F2A42" fill-rule="nonzero" d="M196.041,326.881C196.18,326.672 201.67,322.501 201.67,322.501L200.351,321.806L195.833,318.888L193.608,322.641L196.18,326.603"/><path fill="#1F2A42" fill-rule="nonzero" d="M195.164,319.051L212.56,316.081L212.716,316.054C213.52,315.917 214.283,316.457 214.42,317.26C214.45,317.434 214.446,317.611 214.417,317.776L211.354,334.426C211.303,334.704 211.035,334.89 210.756,334.838C210.498,334.791 210.32,334.558 210.336,334.302L211.353,317.402L213.209,319.098L196.13,323.543C194.901,323.862 193.645,323.126 193.325,321.896C193.006,320.668 193.743,319.413 194.971,319.093L195.164,319.051Z"/><path fill="#1F2A42" fill-rule="nonzero" d="M196.539,320.751C196.539,321.019 196.529,322.048 196.494,322.32L196.41,323.552L196.229,325.996L195.851,330.871L195.068,340.609L195.057,340.754C195.042,340.94 194.983,341.119 194.898,341.273L185.764,357.469C185.614,357.735 185.277,357.829 185.011,357.68C184.766,357.541 184.667,357.244 184.77,356.99L191.763,339.761L191.593,340.424L191.819,330.668L191.918,325.794L191.958,323.363L191.973,322.157C191.961,321.615 192,321.832 191.976,321.287L191.957,320.852C191.9,319.588 192.88,318.518 194.145,318.461C195.41,318.404 196.48,319.384 196.537,320.648L196.539,320.751Z"/><path fill="#E96C27" fill-rule="nonzero" d="M190.998,301.494C189.623,303.671 188.353,305.833 187.184,308.14C186.607,309.298 186.052,310.464 185.623,311.813C185.52,312.159 185.42,312.507 185.357,312.927C185.308,313.334 185.21,313.791 185.45,314.546C185.563,314.904 185.902,315.38 186.352,315.613C186.693,315.775 186.879,315.789 187.152,315.864C187.63,315.955 187.936,315.931 188.324,315.955C191.033,315.856 193.444,315.357 195.928,314.895C198.391,314.404 200.827,313.861 203.262,313.271C203.561,313.197 203.744,312.897 203.672,312.598C203.604,312.316 203.325,312.138 203.045,312.178C200.592,312.536 198.123,312.852 195.661,313.106C193.22,313.335 190.686,313.586 188.41,313.45C188.181,313.41 187.856,313.387 187.73,313.335L187.643,313.313C187.825,313.387 187.955,313.606 187.983,313.667C188.035,313.826 188.005,313.638 188.077,313.441C188.124,313.248 188.217,313.001 188.316,312.759C188.737,311.767 189.345,310.719 189.978,309.704C191.258,307.674 192.708,305.66 194.18,303.751L194.196,303.73C194.854,302.877 194.696,301.649 193.842,300.991C192.988,300.332 191.762,300.49 191.103,301.345L190.998,301.494Z"/><path fill="#E96C27" fill-rule="nonzero" d="M193.4,300.538C191.496,300.538 189.507,301.58 189.507,304.777C189.507,307.975 192.472,312.466 192.472,312.466L198.056,312.466L196.458,302.97L193.4,300.538Z"/><path fill="#E84F26" fill-rule="nonzero" d="M212.05,334.179L212.118,334.036C211.313,334.034 210.51,334.063 209.707,334.073C209.668,334.655 209.641,335.11 209.641,335.197C209.641,335.197 213.533,335.938 213.44,335.197C213.348,334.457 212.05,334.179 212.05,334.179Z"/><path fill="#E84F26" fill-rule="nonzero" d="M185.823,358.487L186.099,358.181C185.438,358.041 184.795,357.87 184.162,357.656L184.1,357.647L183.877,359.478C183.877,359.478 187.585,360.105 187.492,359.478C187.399,358.847 185.823,358.487 185.823,358.487Z"/><path fill="#FECE89" fill-rule="nonzero" d="M202.713,312.215L202.853,313.466L205.702,313.744C205.702,313.744 206.12,311.033 204.868,311.312C203.617,311.589 202.713,312.215 202.713,312.215Z"/><path fill="#FECE89" fill-rule="nonzero" d="M210.045,304.875C210.415,304.917 212.097,303.387 212.097,303.387C212.097,303.387 211.571,300.746 210.572,301.511C209.574,302.275 209.591,303.939 209.591,303.939L210.045,304.875Z"/><path fill="#FECE89" fill-rule="nonzero" d="M197.969,291.6C198.265,291.849 199.863,292.752 199.863,292.752L197.709,294.144L197.014,291.711L197.969,291.6Z"/><path fill="#1F2A42" fill-rule="nonzero" d="M188.372,289.047C188.372,289.047 191.43,285.988 195.323,286.729C199.215,287.471 196.527,290.437 195.138,291.641C193.747,292.845 190.318,296.646 190.318,296.646C190.318,296.646 184.758,292.661 188.372,289.047Z"/><path fill="#1F2A42" fill-rule="nonzero" d="M191.871,297.618C192.066,297.69 192.357,290.46 192.357,290.46L187.77,293.656C187.77,293.656 188.673,296.437 191.871,297.618Z"/><path fill="#E96C27" fill-rule="nonzero" d="M190.063,306.724C190.133,306.892 190.411,319.889 190.411,319.889C190.411,319.889 194.025,320.225 197.223,319.722C200.419,319.217 201.741,317.929 201.741,317.929L198.683,308.853L190.063,306.724Z"/><path fill="#E96C27" fill-rule="nonzero" d="M191.802,300.746L191.94,299.217L195.276,299.773L195.207,302.623L192.148,301.511L191.802,300.746Z"/></g></svg>