<svg width="800" height="600" viewBox="0 0 1000 900" preserveAspectRatio="xMidYMin meet" xmlns="http://www.w3.org/2000/svg" fill-rule="evenodd" clip-rule="evenodd" stroke-linejoin="round" stroke-miterlimit="2"><g fill-rule="nonzero"><path d="M491.104 125.474l82.294 123.812 151.984 26.69L641.608 149.2l-150.504-23.726z" fill="#2c3a45"/><path d="M491.104 125.474l-2.226 2.226 234.28 150.5 2.224-2.224-234.278-150.502z" fill="#2c3a45"/><path d="M488.878 127.7l82.296 123.81 151.984 26.69-83.778-126.776L488.878 127.7z" fill="#1c252d"/><path d="M661.624 240.382l-16.482 26.958-22.064 36.076-113.434-74.154c.914-2.114 15.972-23.264 28.002-40.034 8.21-11.39 14.994-20.752 14.994-20.752 50.4.666 86.81 24.486 108.984 71.906z" fill="#2c3a45"/><path d="M576.632 170.75c-7.612-1.394-15.602-2.164-23.992-2.274 0 0-6.784 9.362-14.994 20.752-12.03 16.77-27.088 37.92-28.002 40.034l18.688 12.216c15.384-23.758 30.994-48.318 48.3-70.728z" fill="#415767"/><path d="M645.142 267.34c-.066-.202-.134-.424-.2-.624-14.944-49.822-58.174-67.174-84.932-73.196 5.392-7.754 10.914-15.378 16.622-22.77-7.368-1.35-15.09-2.114-23.186-2.26 49.984.906 86.122 24.724 108.178 71.892l-14.914 24.394-1.568 2.564zm-91.732-98.852c-.048 0-.098-.002-.148-.002.05 0 .1.002.148.002zm-.232-.004c-.036 0-.076 0-.112-.002.036.002.076.002.112.002zm-.198-.002c-.03-.002-.06-.002-.092-.002.032 0 .062 0 .092.002zm-.17-.004c-.056 0-.114 0-.17-.002.056.002.114.002.17.002z" fill="#202d38"/><path d="M560.01 193.52c-13.068-2.942-22.206-3.182-22.206-3.182l-.158-1.11c8.21-11.39 14.994-20.752 14.994-20.752.056.002.114.002.17.002.028.002.05.002.078.002.032 0 .062 0 .092.002h.086c.036.002.076.002.112.002.032 0 .054.002.084.002.05 0 .1.002.148.002.01 0 .028 0 .036.002 8.096.146 15.818.91 23.186 2.26-5.708 7.392-11.23 15.016-16.622 22.77z" fill="#2f4352"/><path d="M496.508 672.248h-34.53c-12.732 0-23.052-10.32-23.052-23.048v-31.964c0-12.728 10.32-23.05 23.052-23.05h34.53c12.73 0 23.048 10.322 23.048 23.05V649.2c0 12.728-10.318 23.048-23.048 23.048z" fill="#788b9c"/><path d="M518.008 658.558h-77.532c-9.828 0-17.796-7.964-17.796-17.794v-73.928c0-9.828 7.968-17.794 17.796-17.794h77.532c9.826 0 17.792 7.966 17.792 17.794v73.928c0 9.83-7.966 17.794-17.792 17.794z" fill="#a5b8c6"/><path d="M640.154 372.758c0-91.396-76.2-164.996-168.532-160.736-81.998 3.782-148.728 70.032-153.062 152.004-3.624 68.542 35.69 128.308 93.434 154.918v42.588c0 10.608 8.602 19.214 19.214 19.214h96.07c10.608 0 19.208-8.606 19.208-19.214v-42.588c55.278-25.476 93.668-81.33 93.668-146.186z" fill="#fac40e"/><path d="M520.388 571.604h-35.586s40.59-10.008 51.712-46.15v36.142s-1.668 10.008-16.126 10.008zM351.66 310.556c24.312-52.266 76.086-82.988 130.166-82.988 20.252 0 40.84 4.314 60.412 13.42-2.214-.048-4.416-.072-6.62-.072-65.208 0-126.88 21.148-183.958 69.64z" fill="#fbd71b"/><path fill="#788b9c" d="M427.344 587.738h100.274v1.836H427.344zM427.344 594.412h100.274v1.838H427.344zM427.344 601.082h100.274v1.838H427.344zM427.344 607.756h100.274v1.838H427.344zM427.344 614.428h100.274v1.838H427.344zM427.344 621.102h100.274v1.838H427.344zM427.344 627.774h100.274v1.838H427.344zM427.344 634.446h100.274v1.838H427.344zM427.344 641.12h100.274v1.838H427.344zM427.344 647.79h100.274v1.836H427.344z"/><path d="M512.604 650.006h-20.2c-.208 0-.374-.164-.374-.372v-.008h24.646c-1.216.244-2.57.38-4.072.38zm8.874-2.216H492.03v-4.832h33.946c-.908 1.704-2.318 3.486-4.498 4.832zm5.316-6.67H492.03v-4.836h35.588v-1.838H492.03v-4.834h35.588v-1.838H492.03v-4.834h35.588v-1.838H492.03v-4.836h35.588v-1.838H492.03v-4.834h35.588v-1.838H492.03v-4.836h35.588v-1.838H492.03v-4.832h35.588v-1.838H492.03v-4.658c0-.064.016-.126.046-.18h35.542v-.356 48.232c-.004.064-.086 1.648-.824 3.67z" fill="#798da0"/><path d="M527.618 589.574h-35.542c.064-.112.184-.19.32-.192l34.844-.534h.004c.206 0 .374.164.374.37v.356zM492.03 594.412h35.588v1.838H492.03zM492.03 601.082h35.588v1.838H492.03zM492.03 607.756h35.588v1.838H492.03zM492.03 614.428h35.588v1.838H492.03zM492.03 621.102h35.588v1.838H492.03zM492.03 627.774h35.588v1.838H492.03zM492.03 634.446h35.588v1.838H492.03zM525.976 642.958H492.03v-1.838h34.764c-.214.584-.482 1.206-.818 1.838zM516.676 649.626H492.03v-1.836h29.448c-1.302.804-2.884 1.454-4.802 1.836z" fill="#576b7d"/><path d="M625.484 719.076h-197.92c-2.146 0-3.886-1.742-3.886-3.886v-40.912c0-2.144 1.74-3.884 3.886-3.884h197.92c2.144 0 3.886 1.74 3.886 3.884v40.912c0 2.144-1.742 3.886-3.886 3.886z" fill="#e3d9d3"/><path d="M629.932 678.168h-197.92c-2.144 0-3.886-1.742-3.886-3.89 0-2.144 1.742-3.884 3.886-3.884h197.92c2.146 0 3.884 1.74 3.884 3.884 0 2.148-1.738 3.89-3.884 3.89zM629.932 711.528h-197.92c-2.144 0-3.886-1.74-3.886-3.888 0-2.142 1.742-3.882 3.886-3.882h197.92c2.146 0 3.884 1.74 3.884 3.882 0 2.148-1.738 3.888-3.884 3.888z" fill="#e96c27"/><path d="M664.164 839.06H387.796c-2.146 0-3.884-1.74-3.884-3.886v-40.908c0-2.144 1.738-3.886 3.884-3.886h276.368c2.146 0 3.886 1.742 3.886 3.886v40.908c0 2.146-1.74 3.886-3.886 3.886z" fill="#d4d4cf"/><path d="M670.774 795.69H385.018c-.61 0-1.106-.496-1.106-1.106v-3.098c0-.61.496-1.106 1.106-1.106h285.756c.608 0 1.102.496 1.102 1.106v3.098c0 .61-.494 1.106-1.102 1.106zM670.774 838.69H385.018c-.61 0-1.106-.496-1.106-1.106v-3.096c0-.612.496-1.108 1.106-1.108h285.756c.608 0 1.102.496 1.102 1.108v3.096c0 .61-.494 1.106-1.102 1.106z" fill="#43769d"/><path d="M645.368 747.188H406.996c-2.148 0-3.886-1.74-3.886-3.888v-20.34c0-2.144 1.738-3.884 3.886-3.884h238.372c2.146 0 3.884 1.74 3.884 3.884v20.34c0 2.148-1.738 3.888-3.884 3.888z" fill="#e3d9d3"/><path d="M650.12 723.404H406.692c-.75 0-1.358-.61-1.358-1.358v-1.612c0-.75.608-1.358 1.358-1.358H650.12c.75 0 1.356.608 1.356 1.358v1.612c0 .748-.606 1.358-1.356 1.358zM650.12 747.13H406.692c-.75 0-1.358-.608-1.358-1.358v-1.612c0-.754.608-1.362 1.358-1.362H650.12c.75 0 1.356.608 1.356 1.362v1.612c0 .75-.606 1.358-1.356 1.358z" fill="#e84f26"/><path d="M645.068 711.304h-235.72c-.542 0-.982.442-.982.984v5.804c0 .54.44.984.982.984h235.72c.548 0 .984-.444.984-.984v-5.804c0-.542-.436-.984-.984-.984z" fill="#d4d4cf"/><path d="M649.708 790.38H413.166c-2.146 0-3.886-1.738-3.886-3.886v-30.662c0-2.144 1.74-3.884 3.886-3.884h236.542c2.146 0 3.886 1.74 3.886 3.884v30.662c0 2.148-1.74 3.886-3.886 3.886z" fill="#e3d9d3"/><path d="M652.91 790.38H413.166c-2.146 0-3.886-1.738-3.886-3.886 0-2.144 1.74-3.884 3.886-3.884H652.91c2.144 0 3.884 1.74 3.884 3.884 0 2.148-1.74 3.886-3.884 3.886zM652.91 754.958H413.166c-2.146 0-3.886-1.742-3.886-3.886 0-2.148 1.74-3.884 3.886-3.884H652.91c2.144 0 3.884 1.736 3.884 3.884 0 2.144-1.74 3.886-3.884 3.886z" fill="#41999c"/><path d="M528.176 719.076H330.258c-2.146 0-3.888-1.742-3.888-3.886v-40.912c0-2.144 1.742-3.884 3.888-3.884h197.918c2.146 0 3.884 1.74 3.884 3.884v40.912c0 2.144-1.738 3.886-3.884 3.886z" fill="#e96c27"/><path d="M570.686 839.06H290.49c-2.146 0-3.884-1.74-3.884-3.886v-40.908c0-2.144 1.738-3.886 3.884-3.886h280.196c2.146 0 3.884 1.742 3.884 3.886v40.908c0 2.146-1.738 3.886-3.884 3.886z" fill="#43769d"/><path d="M548.06 747.188H309.686c-2.144 0-3.886-1.74-3.886-3.888v-20.34c0-2.144 1.742-3.884 3.886-3.884H548.06c2.148 0 3.886 1.74 3.886 3.884v20.34c0 2.148-1.738 3.888-3.886 3.888z" fill="#e84f26"/><path d="M546.744 711.304H313.06c-1.104 0-2.002.898-2.002 2v3.768c0 1.108.898 2.004 2.002 2.004h233.684c1.104 0 2.002-.896 2.002-2.004v-3.768c0-1.102-.898-2-2.002-2zM555.602 790.38H315.858c-2.146 0-3.886-1.738-3.886-3.886v-35.422c0-2.148 1.74-3.884 3.886-3.884h239.744c2.146 0 3.886 1.736 3.886 3.884v35.422c0 2.148-1.74 3.886-3.886 3.886z" fill="#41999c"/><path fill="#e96c27" d="M321.358 719.232h11.398v27.524h-11.398z"/><path fill="#fff" d="M331.086 746.756h24.468v43.372h-24.468zM368.35 754.542h1.838v28.916h-1.838zM310.7 815.174h208.7v5.514H310.7zM342.402 726.37h1.838v11.12h-1.838z"/><path fill="#efd32f" d="M332.038 711.172h5.512v7.786h-5.512zM345.012 670.766h5.514v39.664h-5.514z"/><path fill="#fff" d="M367.786 689.138h132.34v5.512h-132.34z"/><path d="M707.456 744.478l-13.73 3.338-12.98 16.694 19.466 5.008s13.682 3.12 13.914-3.526c.088-2.552-1.482-11.838-6.67-21.514z" fill="#1f2a42"/><path d="M700.646 730.672c-3.176 2.234-6.276 3.922-9.724 5.38-3.396 1.428-7.098 2.472-11.034 2.518-.978.002-1.986-.098-2.964-.244-.98-.224-2.02-.442-2.798-.742-1.672-.556-3.328-1.182-4.96-1.852-3.27-1.366-6.408-2.862-9.44-4.908-.51-.338-.644-1.032-.302-1.538.316-.472.932-.622 1.422-.37l.084.04c2.888 1.466 6.158 2.58 9.374 3.474 1.622.444 3.254.836 4.904 1.168.866.214 1.538.222 2.248.312.724.006 1.448-.002 2.182-.098 2.94-.408 5.894-1.594 8.654-3.188 2.732-1.562 5.486-3.564 7.706-5.588l.07-.068c1.496-1.362 3.814-1.258 5.178.24 1.366 1.494 1.256 3.808-.24 5.172l-.36.292z" fill="#3b8b8d"/><path d="M709.79 733.606c-.406-2.938-.388-5.974-.262-8.978-.32.04-.652.034-.998-.062-1.578-.438-2.474-2.406-1.564-3.846l.002.012.04-.09-3.266.232s-10.1 6.852-11.002 11.918c-.678 3.798.212 10.344.696 13.388 2.88-.574 5.974-.84 8.826-.776l.042.008c.072-.63.248-1.25.59-1.864.598-1.068 1.636-2.368 2.892-2.61.66-.128 1.366.088 1.848.516.512-.254 1.06-.32 1.562-.2l1.322-6.406c-.378-.266-.65-.672-.728-1.242z" fill="#41999c"/><path fill="#fece89" d="M702.528 704.048h5.818v22.256h-5.818z"/><path d="M696.458 702.612c-1.49 5.698-.23 10.966 5.474 12.456 5.7 1.488 11.526-1.922 13.022-7.622 1.49-5.704-1.924-11.534-7.626-13.022-5.702-1.492-9.38 2.486-10.87 8.188z" fill="#fece89"/><path d="M701.892 714.178s8.336-11.932 7.758-12.084c-2.732-.716-13.668-3.57-13.668-3.57s5.34-10.902 19.122-3.232c8.61 4.796 9.922 17.844 5.226 22.326-2.818 2.692-18.438-3.44-18.438-3.44zM692.908 766.634l-34.158-8.89 3.712-3.388 2.03 33.796c.036.568-.396 1.056-.962 1.088-.524.034-.982-.334-1.072-.84l-6.122-33.3c-.294-1.604.766-3.142 2.37-3.438.344-.062.69-.062 1.018-.01l.324.058 34.792 5.94c2.504.428 4.188 2.804 3.76 5.308-.428 2.502-2.804 4.186-5.308 3.758l-.384-.082zM708.454 762.042l.022 5.016c-.006 1.71.056 3.246.088 4.856l.196 9.602.448 20.11-.322-1.294 13.974 35.48c.224.57-.056 1.214-.624 1.436-.526.208-1.11-.016-1.374-.498l-18.278-33.468c-.176-.324-.274-.66-.3-1.004l-.022-.294-1.568-20.1-.744-10.508-.64-10.246c-.158-2.52 1.758-4.69 4.278-4.848 2.522-.158 4.694 1.758 4.85 4.28l.01.248.006 1.232z" fill="#1f2a42"/><path d="M713.182 722.816c2.75 4.354 5.286 8.678 7.626 13.288 1.154 2.318 2.262 4.652 3.122 7.35.206.69.404 1.388.53 2.224.102.816.298 1.728-.184 3.24-.228.716-.908 1.668-1.804 2.132-.68.328-1.05.354-1.6.506-.954.18-1.57.132-2.344.18-5.418-.194-10.24-1.194-15.21-2.118-4.926-.982-9.796-2.07-14.666-3.25-.596-.146-.964-.746-.818-1.344.134-.564.694-.92 1.254-.84 4.904.716 9.844 1.346 14.766 1.856 4.88.458 9.95.96 14.502.684.456-.076 1.108-.122 1.36-.226l.174-.046c-.364.15-.622.59-.682.708-.098.32-.042-.058-.184-.45-.096-.386-.284-.882-.48-1.364-.842-1.984-2.058-4.08-3.322-6.11-2.562-4.06-5.46-8.09-8.406-11.908l-.032-.04c-1.316-1.706-1-4.162.708-5.48 1.71-1.316 4.16-1.004 5.478.708l.212.3z" fill="#41999c"/><path d="M705.596 720.626c3.81 0 7.784 2.082 7.784 8.478 0 6.394-5.924 15.374-5.924 15.374h-11.172l3.194-18.988 6.118-4.864z" fill="#41999c"/><path d="M709.558 720.972l-1.252-2.642-4.794 2.016s-2.156 4.658-1.948 4.588c.21-.07 7.994-3.962 7.994-3.962zM702.398 720.138l-1.458.208-2.99 4.308 1.39-.416 3.128-2.502-.07-1.598z" fill="#3b8b8d"/><path d="M707.456 744.478l-13.73 3.338-.78-5.644 15.916-.35-1.406 2.656zM665.886 789.946c0-.556-.554-8.528-.554-8.528l-7.414-.186 3.148 6.674s-2.594.554-2.778 2.04c-.186 1.48 7.598 0 7.598 0zM723.898 834.612s-1.294-5.56-1.852-5.376c-.556.188-7.416 2.596-7.416 2.596l6.118 7.044s-3.15.742-3.334 2.038c-.188 1.298 7.226 0 7.226 0l-.742-6.302z" fill="#41999c"/><path d="M689.75 744.256l-.278 2.5-5.7.558s-.834-5.422 1.67-4.864c2.502.556 4.308 1.806 4.308 1.806zM659.726 730.824c-.976.088-5.424-2.97-5.424-2.97s1.39-5.282 4.032-3.756c2.64 1.53 2.596 4.858 2.596 4.858l-1.204 1.868zM696.458 702.612c-.592.496-3.79 2.304-3.79 2.304l4.31 2.78 1.39-4.866-1.91-.218z" fill="#fece89"/><path d="M389.146 609.592c2.4 2.238 4.748 3.924 7.354 5.382 2.568 1.428 5.368 2.47 8.344 2.518.74.004 1.5-.1 2.242-.242.742-.224 1.526-.442 2.116-.746 1.266-.554 2.516-1.176 3.75-1.85 2.474-1.366 4.846-2.862 7.138-4.904.386-.344.49-1.034.23-1.542-.24-.47-.704-.622-1.078-.372l-.06.042c-2.184 1.466-4.658 2.58-7.09 3.474-1.228.442-2.462.838-3.708 1.168-.654.212-1.164.224-1.702.312-.544.008-1.094-.002-1.646-.098-2.226-.408-4.456-1.59-6.546-3.19-2.068-1.56-4.148-3.562-5.826-5.586l-.056-.068c-1.132-1.364-2.884-1.258-3.916.236-1.028 1.494-.948 3.816.182 5.178l.272.288z" fill="#d06127"/><path d="M382.608 614.054c.402-2.934.386-5.968.262-8.974.314.042.646.032.996-.062 1.582-.438 2.474-2.408 1.564-3.846l-.002.01-.04-.088 3.266.23s5.65 2.404 6.554 7.474c.678 3.796 4.238 14.79 3.75 17.832-2.878-.574-5.972-.838-8.822-.774l-.044.008c-.074-.634-.25-1.252-.59-1.862-.598-1.072-1.634-2.372-2.892-2.612-.66-.128-1.366.088-1.848.512-.514-.254-1.056-.318-1.56-.196l-1.324-6.408c.376-.264.652-.672.73-1.244z" fill="#e96c27"/><path fill="#fece89" d="M384.05 584.5h5.82v22.256h-5.82z"/><path d="M395.938 583.06c1.49 5.702.228 10.97-5.472 12.46-5.702 1.49-11.532-1.922-13.022-7.626-1.49-5.698 1.924-11.528 7.624-13.018 5.702-1.492 9.378 2.488 10.87 8.184z" fill="#fece89"/><path d="M392.082 653.762c.278-.418 11.258-8.76 11.258-8.76l-2.638-1.39-9.036-5.836-4.45 7.506 5.144 7.924" fill="#1f2a42"/><path d="M390.328 638.102l34.792-5.94.312-.054c1.608-.274 3.134.806 3.408 2.412.06.348.052.702-.006 1.032l-6.126 33.3c-.102.556-.638.928-1.196.824-.516-.094-.872-.56-.84-1.072l2.034-33.8 3.712 3.392-34.158 8.89c-2.458.638-4.97-.834-5.61-3.294-.638-2.456.836-4.966 3.292-5.606l.386-.084z" fill="#1f2a42"/><path d="M393.078 641.502c0 .536-.02 2.594-.09 3.138l-.168 2.464-.362 4.888-.756 9.75-1.566 19.476-.022.29c-.03.372-.148.73-.318 1.038l-18.268 32.392c-.3.532-.974.72-1.506.422-.49-.278-.688-.872-.482-1.38l13.986-34.458-.34 1.326.452-19.512.198-9.748.08-4.862.03-2.412c-.024-1.084.054-.65.006-1.74l-.038-.87c-.114-2.528 1.846-4.668 4.376-4.782 2.53-.114 4.67 1.846 4.784 4.374l.004.206z" fill="#1f2a42"/><path d="M381.996 602.988c-2.75 4.354-5.29 8.678-7.628 13.292-1.154 2.316-2.264 4.648-3.122 7.346-.206.692-.406 1.388-.532 2.228-.098.814-.294 1.728.186 3.238.226.716.904 1.668 1.804 2.134.682.324 1.054.352 1.6.502.956.182 1.568.134 2.344.182 5.418-.198 10.24-1.196 15.208-2.12 4.926-.982 9.798-2.068 14.668-3.248.598-.148.964-.748.82-1.346-.136-.564-.694-.92-1.254-.84-4.906.716-9.844 1.348-14.768 1.856-4.882.458-9.95.96-14.502.688-.458-.08-1.108-.126-1.36-.23l-.174-.044c.364.148.624.586.68.708.104.318.044-.058.188-.452.094-.386.28-.88.478-1.364.842-1.984 2.058-4.08 3.324-6.11 2.56-4.06 5.46-8.088 8.404-11.906l.032-.042c1.316-1.706 1-4.162-.708-5.478-1.708-1.318-4.16-1.002-5.478.708l-.21.298z" fill="#e96c27"/><path d="M386.8 601.076c-3.808 0-7.786 2.084-7.786 8.478 0 6.396 5.93 15.378 5.93 15.378h11.168l-3.196-18.992-6.116-4.864z" fill="#e96c27"/><path d="M424.1 668.358l.136-.286c-1.61-.004-3.216.054-4.822.074-.078 1.164-.132 2.074-.132 2.248 0 0 7.784 1.482 7.598 0-.184-1.48-2.78-2.036-2.78-2.036zM371.646 716.974l.552-.612c-1.322-.28-2.608-.622-3.874-1.05l-.124-.018-.446 3.662s7.416 1.254 7.23 0c-.186-1.262-3.338-1.982-3.338-1.982z" fill="#e84f26"/><path d="M405.426 624.43l.28 2.502 5.698.556s.836-5.422-1.668-4.864c-2.502.554-4.31 1.806-4.31 1.806zM420.09 609.75c.74.084 4.104-2.976 4.104-2.976s-1.052-5.282-3.05-3.752c-1.996 1.528-1.962 4.856-1.962 4.856l.908 1.872zM395.938 583.2c.592.498 3.788 2.304 3.788 2.304l-4.308 2.784-1.39-4.866 1.91-.222z" fill="#fece89"/><path d="M376.744 578.094s6.116-6.118 13.902-4.636c7.784 1.484 2.408 7.416-.37 9.824-2.782 2.408-9.64 10.01-9.64 10.01s-11.12-7.97-3.892-15.198z" fill="#1f2a42"/><path d="M383.742 595.236c.39.144.972-14.316.972-14.316l-9.174 6.392s1.806 5.562 8.202 7.924z" fill="#1f2a42"/><path d="M380.126 613.448c.14.336.696 26.33.696 26.33s7.228.672 13.624-.334c6.392-1.01 9.036-3.586 9.036-3.586l-6.116-18.152-17.24-4.258zM383.604 601.492l.276-3.058 6.672 1.112-.138 5.7-6.118-2.224-.692-1.53z" fill="#e96c27"/></g></svg>