<svg width="800" height="600" viewBox="0 0 1000 800" preserveAspectRatio="xMidYMin meet" xmlns="http://www.w3.org/2000/svg" fill-rule="evenodd" clip-rule="evenodd" stroke-linejoin="round" stroke-miterlimit="2"><g fill-rule="nonzero"><path d="M191.812 559.103c-1.017-1.491-2.204-2.969-3.843-3.667-1.023-.436-2.15-.535-3.256-.594-5.468-.295-10.44 1.009-15.796 1.389-4.224.301-7.113-.244-9.562 4.204-1.325 2.408-1.785 5.182-2.218 7.896-5.021 31.441-9.129 63.021-13.238 94.594-.98 7.54-1.961 15.079-2.942 22.618-.385 2.955-.769 5.91-1.153 8.865-1.704 13.097-3.408 26.195-5.113 39.292-.31 2.39-1.46 4.393-2.25 6.556l-.048.003-14.048 10.031-2.566 4.575 6.129 2.963 14.205-2.63 9.803-6.65.138-5.962c.023-2.189.241-4.268.743-6.407.98-4.176 2.524-8.247 3.879-12.312 2.039-6.937 4.158-13.85 6.22-20.781 4.494-15.107 8.884-30.247 13.226-45.4 4.467-15.592 9.49-31.026 14.131-46.565 4.225-14.147 16.656-38.672 7.559-52.018zM245.336 568.359c2.955.672 5.767 2.005 7.963 4.079 7.004 6.609 2.694 16.475 1.484 24.583-1.557 10.434-2.39 20.952-2.674 31.495-.558 20.728-1.395 41.449-2.51 62.155-.892 16.558-6.301 37.929-2.179 54.069l5.925 10.279-2.66 3.265-9.916-.846c-1.334-.115-5.807-7.896-6.175-9.419-1.317-5.445.027-10.857-.707-16.257-.594-4.369-2.272-8.85-3.07-13.331-1.251-7.016-2.464-14.038-3.625-21.071-2.277-13.791-4.35-27.617-6.106-41.485-2.233-17.648-4.468-35.296-6.702-52.944-.956-7.559-2.852-13.12 1.739-19.519 4.18-5.826 9.725-11.629 16.571-14.176 3.384-1.258 7.075-1.683 10.657-1.227.665.085 1.329.201 1.985.35z" fill="#3b455a"/><path d="M258.93 603.677c-5.161.082-10.322.025-15.461-.423-11.561-1.009-22.855-3.524-34.53-3.494-1.236-6.445-3.221-13.158-3.788-19.645-.638-7.302.776-14.952 1.093-22.256.752-17.31 1.989-34.601 3.711-51.842 15.388-.599 30.675 1.114 45.988 1.035 3.891-.02 9.245-1.069 11.06 2.503 2.627 5.171 1.521 12.097 2.186 17.704 1.014 8.552 1.801 17.091 2.028 25.704.444 16.906-.852 33.859-3.881 50.498-2.801.086-5.604.171-8.406.216z" fill="#c5ccd3"/><path d="M152.151 600.105c-3.566-.364-7.125-.789-10.675-1.276-1.237-.169-2.548-.38-3.484-1.205-1.733-1.529-1.357-4.279-.835-6.531 4.997-21.556 9.888-43.139 14.991-64.668.814-3.43 8.706-38.128 10.736-38.15 14.368.149 28.735.297 43.103.446 1.302.013 2.717.067 3.716.902.99.827 1.298 2.195 1.538 3.463 3.614 19.114 6.087 38.745 7.43 58.117 1.145 16.537-8.02 31.725-16.139 45.743-.824 1.423-1.727 2.901-3.16 3.708-1.289.726-2.83.807-4.309.861-14.314.516-28.663.044-42.912-1.41z" fill="#c5ccd3"/><path d="M395.482 319.684c-.129-.772-.228-1.551-.32-2.322-1.824-15.326-.514-29.6.191-44.756.568-12.233 2.164-26.396 11.798-35.122 1.476-1.336 8.697-7.441 1.971-8.025-1.641-.143-3.245 1.298-3.278 2.945 2.326-3.973 4.03-8.309 5.031-12.802.148-.666.276-1.387.001-2.012-.218-.491-.653-.845-1.073-1.18-1.611-1.284-3.221-2.567-4.831-3.85-.224-.178-.469-.365-.754-.375-.337-.013-.627.221-.882.442-2.871 2.486-5.741 4.972-8.614 7.46-4.859 4.212-3.057 11.035-3.98 16.576-1.033 6.205-3.355 8.965-6.098 14.171-7.726 14.665-12.294 31.198-15.833 47.388-1.447 6.619-2.649 13.419-1.819 20.143.926 7.505 4.329 14.472 8.135 21.008 4.799 8.798 10.763 17.331 17.412 24.821 3.602 4.057 7.518 7.705 11.832 10.99 4.259 3.242 5.741 6.363 8.369 11.145.336.611.695 1.247 1.278 1.629 1.655 1.087 3.748-.442 5.104-1.885 8.004-8.516 15.302-17.696 21.793-27.415.974-1.457 1.949-2.976 2.275-4.699.664-3.497-1.577-7.013-4.519-9.016-2.943-2.003-6.496-2.844-9.919-3.822-9.043-2.585-17.736-6.389-25.773-11.276-2.117-1.287-4.25-2.709-5.611-4.78-1.055-1.605-1.564-3.472-1.886-5.381zM532.975 332.92c10.54-5.725 9.94-17.913 12.385-32.638 2.467-14.862 6.786-35.112-3.157-48.262-1.2-1.587-7.156-8.932-.44-8.252 1.638.166 2.946 1.88 2.672 3.504-1.545-4.336-2.411-8.914-2.556-13.515-.022-.682-.014-1.415.374-1.977.305-.442.799-.709 1.274-.959 1.822-.961 3.643-1.922 5.464-2.882.253-.133.529-.271.811-.228.333.051.575.334.784.599 2.356 2.977 4.713 5.955 7.072 8.935 3.988 5.044.946 11.411.82 17.027-.142 6.289 1.626 9.434 3.349 15.06 4.857 15.848 6.263 32.943 6.722 49.509.187 6.772.1 13.677-1.968 20.129-2.31 7.2-6.952 13.411-11.909 19.122-10.609 12.223-25.575 27.041-41.419 32.126-28.473 9.137-28.312-48.219-2.294-53.232 3.153-.608 6.395-.518 9.595-.802 5.323-.473 9.345-1.593 12.421-3.264zM494.199 623.883l-1.882 41.765c-.993 11.56-.66 23.165-.666 34.746-.005 10.757-2.845 21.67 1.627 31.917 1.404 3.212 4.663 5.591 7.466 2.152 2.159-2.65 1.54-7.504 2.23-10.692 5.181-23.96 13.507-47.125 18.427-71.147 5.157-25.163-4.706-25.098-27.202-28.741z" fill="#efbfa5"/><path d="M490.356 724.972l-3.111 6.795 12.485 12.431 12.062 1.242 4.304-6.139-15.393-15.142-10.347.813z" fill="#3b455a"/><path d="M423.889 622.1l4.371 41.581c1.189 18.54 5.771 36.865 6.961 55.406.273 4.263-.396 8.85 1.052 12.966 1.417 4.025 4.779 4.445 7.964 2.041 4.268-3.222 2.925-9.685 3.233-14.52 2.048-32.211 7.079-63.728 10.228-95.906.041-.422.061-.907-.245-1.201-.248-.239-.627-.265-.972-.269-3.145-.038-32.498.8-32.592-.098z" fill="#efbfa5"/><path d="M447.004 726.683l3.692 6.497-11.35 13.475-11.907 2.292-4.823-5.74 14.01-16.43 10.378-.094z" fill="#3b455a"/><path d="M530 651.269l8.613-58.904c-2.395-33.822-17.11-68.032-19.455-101.973-.15-2.164-.396-4.545-1.971-6.038-1.221-1.155-2.972-1.508-4.63-1.785-15.748-2.623-31.802-2.613-47.769-2.596-15.563.015-46.131-3.305-53.921 12.008-8.011 15.747-5.665 51.145-6.293 68.965-.983 27.885-1.213 60.169 1.757 87.919l60.432-1 5.082-65.696 9.185 42.83-.389 26.27H530z" fill="#c4c9ce"/><path d="M508.982 349.649c-.83-2.281-1.974-4.624-3.522-7.106-6.634-10.629-27.262-17.977-39.699-16.317-10.743 1.433-21.299 1.599-31.412 6.051-7.594 3.344-14.474 14.199-18.376 20.97-13.413 23.272-7.965 51.743-7.941 77.406.014 13.528-1.298 27.128-1.849 40.642-.362 8.829-.69 17.666-.742 26.503-.018 3.139-1.536 13.068.787 15.7 2.037 2.309 15.032-.082 18.943-.203 9.574-.298 19.153-.437 28.732-.415 11.352.022 22.702.271 34.045.741 11.646.487 22.371 2.881 34.044.241 1.511-.341 3.102-.821 4.094-1.998 1.329-1.577 1.172-3.87.938-5.91-2.456-21.456-5.486-42.848-9.085-64.145-1.668-9.873-5.1-20.555-5.195-30.546-.081-8.436.057-16.857-.516-25.408-.765-11.339.664-25.467-3.246-36.206z" fill="#ebb044"/><path d="M487.703 268.393c2.612 4.577 3.871 9.849 4.103 15.114.061 1.4.158 3.017 1.289 3.843 1.212.885.147 2.826 1.068 1.643.922-1.184 4.052-5.295 4.192-6.789.33-3.499.325-7.029-.015-10.528-.295-3.042-.917-6.22-2.907-8.54-1.181-1.375-2.756-2.342-4.308-3.279-2.249-1.359-4.567-2.73-7.151-3.211-4.454-.83-7.185.768-3.255 3.873 2.814 2.225 5.195 4.738 6.984 7.874z" fill="#32376b"/><path d="M459.878 328.116c.029 2.154-.412 4.389 1.489 6.06.913.803 2.149 1.126 3.351 1.316 3.106.492 6.325.264 9.331-.662 1.236-.381 2.469-.898 3.402-1.794 1.103-1.058 1.158-2.062 1.211-3.449.063-1.624.391-3.275.603-4.922.464-3.602.674-7.234.778-10.863 5.336-.916 11.612-2.641 13.436-8.231.575-1.761.595-3.675.609-5.549.057-7.744.113-15.488.17-23.232.019-2.678.026-5.438-.892-7.924-1.609-4.362-5.698-6.961-9.709-8.596-10.233-4.175-22.161-4.008-31.606 1.929-2.515 1.58-4.887 3.613-6.335 6.371-2.233 4.254-1.951 9.507-1.605 14.415l.96 13.593c.368 5.211 1.151 11.21 5.198 13.962 2.149 1.461 4.925 1.73 6.777 3.621 3.232 3.301 1.692 8.232 2.647 12.232.134.56.176 1.138.185 1.723z" fill="#efbfa5"/><path d="M476.651 307.839c-2.781 1.869-5.844 1.97-8.943 1.037-1.317-.396-.759-2.607.561-2.209 2.568.772 4.992.752 7.306-.804 1.165-.783 2.234 1.198 1.076 1.976zm19.315-10.904c-.087-1.436-.714-5.644-2.873-2.999-.566.691-.704 1.668-.739 2.589-.036.921.006 1.869-.284 2.736-.666 1.989-2.868 2.895-4.83 2.86-.78-.014-1.575-.142-2.264-.535-.67-.381-1.203-.987-1.721-1.582l-3.777-4.335c-2.165-2.483-6.457-1.409-9.374-1.028-3.361.439-6.723 1.453-9.469 3.664-.278.223-.548.458-.82.692-.662.57-1.327 1.136-2.096 1.511-2.596 1.263-5.81-.055-7.63-2.42-.834-1.083-1.611-2.477-2.906-2.659-1.013-.141-1.999.585-2.52 1.533-.519.948-.659 2.079-.729 3.177-.256 4 .295 8.125 2.028 11.673 3.761 7.693 11.029 8.638 18.335 8.465 2.888-.068 5.775-.136 8.663-.204 5.279-.125 10.859-.344 15.307-3.412 3.922-2.708 6.254-7.311 7.211-12.131.493-2.489.641-5.057.488-7.595zM497.068 254.972c.51-1.877.887-3.789 1.127-5.719-1.787.626-3.732.793-5.599.479-.005-1.113-.009-2.227-.014-3.34-.008-.926-12.537-1.575-13.556-1.659-9.53-.781-18.246-1.525-26.865 3.59-7.361 4.369-12.081 10.894-13.211 19.387-1.079 8.114 1.576 18.711 6.269 25.445-.027-2.16-1.27-7.256-.76-9.308.312-2.058 1.022-4.041 2.003-5.873 1.958-3.656 4.991-6.734 8.495-8.93 5.586-3.501 12.081-5.352 18.567-6.255 5.944-.828 13.187-1.592 19.058-.018 2.822.757 3.29 1.465 5-1.383.301-.503 2.69-6.367 2.457-6.371-.99-.015-1.98-.03-2.971-.045z" fill="#3b455a"/><path d="M525.33 326.119c1.644-.429 3.377-.897 5.014-.44 1.9.531 3.242 2.187 4.405 3.78 7.762 10.63 13.544 22.699 16.964 35.408.47 1.743.885 3.647.174 5.307-.566 1.322-1.751 2.254-2.866 3.163-16.288 13.272-26.441 32.984-43.042 45.862-3.169-16.47-5.397-33.122-6.669-49.846-.532-6.973-.917-14.066-3.255-20.657-2.371-6.682-14.973-14.783-8.376-19.498 2.434-1.74 14.805.383 18.111.144 6.59-.475 13.145-1.556 19.54-3.223zM448.242 331.104c-.243-.744-.572-1.478-1.111-2.044-1.154-1.214-2.984-1.418-4.652-1.576-7.075-.668-14.104-1.82-21.024-3.442-4.052-.949-9.711-3.795-14.671-5.325-.281-.35-.57-.694-.846-1.049-.337-.435-.67-.874-1-1.316-1.644-2.213-3.973-.558-6.156 1.864-3.704 1.482-5.753 5.996-8.209 9.008-4.044 4.962-9.89 8.817-14.641 13.093-.97.863-2.009 1.859-2.108 3.153-.081 1.067.506 2.057 1.072 2.965 13.318 21.395 26.635 42.79 39.953 64.184-.526-.846 14.564-25.029 15.84-27.962 3.209-7.372 4.565-15.899 7.974-23.039.706-1.48 7.696-10.145 6.436-13.696.553-.877 1.075-1.774 1.545-2.701 1.888-3.73 2.892-8.141 1.598-12.117z" fill="#ebb044"/><path d="M362.111 157.319l50.157 6.252c1.771-2.499 4.729-3.97 7.868-3.579l132.383 16.502c3.139.391 5.645 2.544 6.75 5.401l50.156 6.252-6.626 53.192-49.611-6.184c-1.605 3.198-4.965 5.202-8.568 4.754l-132.384-16.502c-3.602-.449-6.368-3.218-7.139-6.711l-49.612-6.184 6.626-53.193z" fill="#474ebb"/><path d="M700.311 201.267l-4.922-2.262c-.758-.348-1.531-.51-2.299-.54l5.296-42.521c1.6-12.846-7.592-24.568-20.533-26.181l-2.922-.365c-12.005-1.496-23.011 6.235-25.819 17.617.071-11.723-8.703-21.919-20.707-23.416l-2.923-.364c-12.941-1.613-24.728 7.494-26.329 20.339l-17.401 139.695c-1.6 12.847 7.593 24.568 20.534 26.182l2.922.364c12.005 1.496 23.011-6.235 25.819-17.616-.07 11.722 8.703 21.919 20.707 23.415l2.923.365c12.94 1.612 24.728-7.494 26.328-20.34l5.297-42.522c.752.16 1.541.192 2.362.041l5.326-.984c3.875-.715 7.093-4.992 7.755-10.306l3.575-28.706c.662-5.314-1.408-10.25-4.989-11.895zM369.292 91.301l-2.922-.365c-12.005-1.496-23.012 6.236-25.819 17.617.07-11.722-8.703-21.919-20.707-23.416l-2.923-.364c-12.941-1.613-24.729 7.493-26.328 20.34l-5.297 42.521c-.753-.16-1.541-.192-2.361-.041l-5.327.984c-3.875.715-7.092 4.993-7.754 10.306l-3.577 28.707c-.661 5.312 1.41 10.249 4.99 11.894l4.921 2.262c.759.348 1.532.51 2.3.54l-5.297 42.521c-1.6 12.847 7.593 24.568 20.535 26.181l2.921.365c12.005 1.496 23.011-6.236 25.819-17.617-.07 11.722 8.702 21.919 20.707 23.416l2.923.364c12.941 1.613 24.728-7.494 26.329-20.34l17.401-139.694c1.6-12.846-7.593-24.568-20.534-26.181zM267.711 363.087c3.165 6.883 3.751 14.496 4.797 22.789 1.812 14.375 2.708 28.83 2.911 43.279.236 16.797-.473 33.585-1.799 50.319-.663 8.368-1.482 16.723-2.416 25.067-.483 4.321 1.422 15.418-3.255 17.691-2.597 1.263-5.743.988-8.681.679-17.744-1.863-35.487-3.726-53.23-5.59-14.932-1.566-30.694-2.575-44.944-7.573-.76-.267-1.544-.575-2.075-1.18-.579-.655-.769-1.557-.923-2.418-2.385-13.341 1.036-23.8 3.326-36.504 2.699-14.98 3.07-31.362 4.171-46.571 1.259-17.417 4.051-40.777 10.655-57.337 2.972-6.994 7.157-13.485 12.875-18.826 6.81-6.36 16.013-11.8 25.398-11.798 8.841.002 17.951.862 25.794 4.941 7.201 3.744 13.27 6.978 19.488 12.489 3.718 3.295 6.191 6.811 7.908 10.543z" fill="#474ebb"/><path d="M260.505 315.587c-4.366 4.368-9.317 8.15-14.678 11.216 4.998-9.616 8.667-19.922 10.869-30.533.168-.81.388-1.711 1.09-2.148.655-.408 1.502-.261 2.25-.07 13.363 3.405 8.079 13.921.469 21.535z" fill="#3b455a"/><path d="M221.923 328.98c-.805-.921-1.502-1.897-2.086-2.871-8.068-13.454-7.701-63.923 28.373-57.284 32.756 6.029 11.628 44.693-2.15 58.338-2.613 2.587-5.908 5.203-9.8 6.329-1.042.301-.73 10.445-1.653 11.973-1.847 3.059-6.214 3.96-9.335 2.537-2.705-1.233-5.333-4.975-5.928-7.808-.431-2.05 3.334-10.348 2.579-11.214z" fill="#efbfa5"/><path d="M221.528 314.407c-3.293 1.758-7.167-1.088-9.404-4.075-9.189-12.274-9.013-30.708.411-42.803 7.885-10.121 26.278-11.491 22.197 3.883-1.446 5.451-7.872 10.801-9.916 16.63-2.92 8.329-3.003 17.646-3.288 26.365z" fill="#3b455a"/><path d="M283.944 269.48c9.965 15.241 7.189 35.726 14.966 52.191-14.382-.814-28.316-7.748-37.639-18.729-9.144-10.769-35.156-28.122-23.062-42.288 12.309-14.42 37.004-4.528 45.735 8.826z" fill="#3b455a"/><path d="M328.371 390.646c-12.371-12.642-27.661-12.892-38.9-10.566-8.133 1.682-16.6-.05-23.517-4.646-9.625-6.393-24.183-12.044-40.594-4.634-22.004 9.935-30.353 33.425-30.565 56.204-.156 16.857 2.341 34.79 9.277 50.414 6.712 15.119 21.657 32.619 40.141 30.09 5.636-.772 11.391.283 16.24 3.26 23.206 14.249 46.945-10.527 59.261-27.835 12.859-18.075 23.91-41.163 21.684-63.936-1.046-10.706-5.502-20.662-13.027-28.351z" fill="#d34e4e"/><path d="M273.653 359.889c3.475-5.797 9.213-10.298 14.831-12.814 5.619-2.515 11.176-3.28 16.5-3.607 4.723-.289 9.348-.258 13.845.093-1.755 3.909-4.179 7.668-6.666 11.347-3.589 5.308-7.404 10.585-11.946 15.105-4.543 4.519-9.916 8.265-15.153 9.611-10.788 2.772-18.723-7.537-11.411-19.735z" fill="#7fc5a3"/><path d="M120.652 263.57c-.365-3.069-.303-6.115-.306-9.328-.001-.76.001-1.536.24-2.258.289-.87.899-1.591 1.496-2.288.867-1.012 1.734-2.024 2.602-3.036.541-.632 1.092-1.273 1.794-1.719 1.806-1.15 4.15-.773 6.251-.356.428.085.875.179 1.213.457.565.466.648 1.333.392 2.02-.811 2.174-1.478 2.701-1.478 5.318-.001 2.229.063 4.492.641 6.659.908-.327 1.446-1.243 2.103-2.059.55-.684 1.268-1.438 2.137-1.319 1.158.16 1.512 1.695 1.301 2.845-.423 2.307-1.923 4.246-2.928 6.365-1.496 3.15-1.824 9.312-5.56 9.995-2.271.416-5.097-.142-7.422-.207-.617-2.528-1.233-5.056-1.85-7.584-.288-1.179-.487-2.344-.626-3.505z" fill="#efbfa5"/><path d="M216.29 336.753c-21.785-1.134-43.549-2.685-65.274-4.653-1.566-.142-3.256-.341-4.4-1.418-1.119-1.055-1.43-2.686-1.678-4.203-2.74-16.812-4.75-33.743-6.026-50.729-.111-1.477-.337-3.17-1.58-3.976-.829-.537-1.888-.515-2.875-.473-4.597.194-10.176-.868-13.583 3.095-3.274 3.809-1.793 10.532-1.895 15.319-.302 14.184-1.184 28.357-2.643 42.469-.468 4.518-1.343 11.233 1.613 15.169 2.603 3.464 8.303 5.739 11.976 8.147 14.745 9.668 29.489 19.337 44.232 29.005 3.11 2.038 6.448 4.15 10.166 4.179 5.958.045 5.98-4.106 7.641-8.054 2.058-4.891 5.943-8.731 9.008-13.139 6.558-9.432 11.748-19.818 15.318-30.738zM307.156 515.029c-2.635.053-5.5-1.041-6.674-3.4-.883-1.778-.653-3.893-.269-5.841.635-3.214 1.631-6.355 2.966-9.347 3.344-7.496 13.899-10.042 16.949-.828 2.71 8.187-4.295 19.244-12.972 19.416z" fill="#474ebb"/><path d="M290.463 502.627c-1.219-1.746-2.396-4.109-1.599-6.376.793-2.253 3.206-4.593 5.124-5.91 2.043-1.403 3.74.459 4.783 2.07.97 1.499 2.004 3.008 3.583 3.869 1.358-1.949-.277-3.946.888-5.923.494-.837 1.272-1.478 2.075-2 .274-.177.607-.35.871-.232.179.08.272.276.357.459 1.98 4.243 5.869 6.385 6.879 11.335 1.077 5.283-2.032 9.373-7.393 10.178-5.789.868-11.788-2.52-15.018-6.722-.18-.233-.366-.483-.55-.748z" fill="#efbfa5"/><path d="M85.721 124.8l13.702 127.706c.421 3.919 18.595 7.067 40.598 7.104 22.004.038 40.188-3.047 40.622-6.965l14.145-127.658-109.067-.187z" fill="#8ec3cb"/><path d="M140.497 254.912h-.342c-18.218-.032-33.263-2.499-33.611-5.569L95.189 149.302l.356.001c-.082-.06-.142-.12-.179-.18 3.044 1.424 21.96 2.549 44.843 2.588.41.001.819.001 1.227.001 23.25 0 42.136-1.136 43.916-2.61.002.011.002.022.002.033 0 .109-.076.216-.223.321l.357.001-11.702 100.002c-.356 3.049-15.224 5.453-33.289 5.453zm22.647-108.59c-6.724-.266-14.559-.426-22.925-.44-.414-.001-.823-.001-1.233-.001-6.921 0-13.457.101-19.267.281 5.874-.207 12.501-.323 19.527-.323.364 0 .733.001 1.099.001 8.32.015 16.112.189 22.799.482z" fill="#d6e9ec"/><path d="M194.627 124.576c-.004 2.268-24.35 4.065-54.378 4.014-30.029-.051-54.37-1.932-54.366-4.2.004-2.269 24.351-4.066 54.38-4.015 30.028.052 54.368 1.933 54.364 4.201z" fill="#7bb1b7"/><path d="M95.366 149.123c-.283-.133-.428-.267-.428-.404.002-1.135 10.077-2.101 24.781-2.557-14.49.51-24.394 1.573-24.396 2.819 0 .047.014.095.043.142zm89.986-.021c-.161-1.169-9.039-2.203-22.208-2.78 13.371.529 22.346 1.481 22.345 2.552 0 .077-.046.153-.137.228z" fill="#c8e2e6"/><path d="M141.436 151.712c-.408 0-.817 0-1.227-.001-22.883-.039-41.799-1.164-44.843-2.588-.029-.047-.043-.095-.043-.142.002-1.246 9.906-2.309 24.396-2.819 5.81-.18 12.346-.281 19.267-.281.41 0 .819 0 1.233.001 8.366.014 16.201.174 22.925.44 13.169.577 22.047 1.611 22.208 2.78-1.78 1.474-20.666 2.61-43.916 2.61z" fill="#ebf4f6"/><path d="M133.49 196.367c.228-3.532.382-7.069.456-10.61.041-1.97-3.041-2.067-3.083-.093-.067 3.234-.203 6.465-.399 9.692l-7.629-.229c.04-2.298.08-4.595.12-6.893.034-1.969-3.048-2.067-3.082-.092-.104 5.955-.208 11.911-.312 17.866-.035 1.97 3.047 2.068 3.082.093.045-2.637.092-5.274.138-7.911l7.478.225c-.233 3.15-.522 6.296-.875 9.438-.222 1.959 2.862 2.041 3.082.092.385-3.41.693-6.826.933-10.246.207-.405.241-.902.091-1.332zM140.679 218.947c-.246-.022-2.238-.169-2.987-.251.412-.262 1.125-1.099 1.121-1.095.286-.309.594-.598.874-.913 1.171-1.324 2.042-2.964 1.555-4.76-.87-3.211-5.412-3.364-6.196-.023-.448 1.912 2.496 2.825 2.947.904.539-.005.566.308.081.939-.255.434-.566.825-.932 1.173-.43.462-.888.895-1.29 1.383-.734.889-1.457 2.003-1.295 3.213.36 2.7 4.068 2.315 6.028 2.492 1.978.179 2.063-2.883.094-3.062zM158.436 199.405c-.472 3.038-2.685 6.593-6.256 6.167-3.516-.42-4.312-4.895-4.127-7.729.092-1.413.434-2.816.998-4.117.426-.985 1.37-2.947 2.553-3.76.304.526.876.915 1.635.814 1.661-.222 3.609 2.419 4.349 3.622.934 1.517 1.116 3.269.848 5.003zm-4.267-11.582c-.072-.677-.541-1.289-1.43-1.289-5.17-.004-7.707 7.64-7.794 11.799-.096 4.653 2.245 10.314 7.687 10.321 5.349.008 8.563-5.014 8.96-9.824.345-4.194-2.841-10.296-7.423-11.007z" fill="#fff"/><path d="M835.739 131.751c-2.574-2.716-9.301-3.589-9.301-3.589l-30.486-.712c-3.228-.075-6.486-1.306-9.224-3.428.949-.977.977-2.529.036-3.522-.966-1.019-2.58-1.058-3.605-.087l-.075.071-3.075-3.244-19.295 18.286 3.075 3.245-.687.651c-1.026.972-1.074 2.585-.107 3.605.966 1.019 2.579 1.058 3.604.087l.564-.534c2.147 3.002 3.257 6.552 3.064 9.967l-1.733 30.532s.511 6.763 3.085 9.479l13.178 13.904s26.092.688 26.033 27.177l78.647 83.275s44.676-8.357 64.16-60.808l-78.94-82.997c-25.475-1.206-25.74-27.454-25.74-27.454l-13.178-13.904z" fill="#8ec3cb"/><path d="M915.204 215.597l-39.767-41.96-14.257 15.875c-11.716 12.125-20.961 20.518-34.168 32.382l-15.736 12.551 39.768 41.96-.202.191c44.065-19.795 64.564-61.191 64.564-61.191l-.202.192z" fill="#ebb044"/><path d="M849.954 213.757l11.565-10.96-.471 19.911 13.979-5.658-2.987 31.832-6.446-18.623-10.459 6.616-5.181-23.118z" fill="#fff"/><path d="M783.907 118.055l-23.201 21.988c-.745.707-1.922.675-2.629-.07l-11.609-12.25c-.707-.745-.675-1.922.07-2.629l23.201-21.989c.745-.706 1.923-.674 2.629.071l11.61 12.25c.707.745.674 1.923-.071 2.629z" fill="#3b455a"/><path d="M767.337 142.826l19.32-18.721s1.32.899 2.372 1.427l-21.692 17.294z" fill="#79a7ae"/><path d="M804.322 215.091c-7.713-7.943-19.203-8.246-19.203-8.246l-.183-.194.179-.17c2.035.13 12.289 1.148 19.207 8.61zm52.615-49.347c-7.103-7.324-7.917-17.722-8.009-19.742l.168-.159.183.194s.117 11.577 7.658 19.707z" fill="#f0f1f1"/><path d="M811.423 234.307l-.271-.286c.02-8.912-2.919-14.903-6.83-18.93-6.918-7.462-17.172-8.48-19.207-8.61l63.813-60.479c.092 2.02.906 12.418 8.009 19.742 3.813 4.112 9.526 7.343 18.083 7.748l.27.284-28.853 29.936c-1.734 1.799-3.55 3.516-5.443 5.145l-29.571 25.45z" fill="#86b8c0"/><path d="M915.412 215.415l-.011-.02h.001l.01.02z" fill="#a4a6a9"/><path d="M744.634 479.912c-.152-1.157-.11-1.271-1.102-1.908-1.101-.707-2.298-1.305-3.454-1.907-4.285-4.6-6.147-9.256-7.744-15.461-1.12-4.351-3.292-8.624-4.899-12.809-3.213-8.369-6.354-16.768-9.417-25.199-.468-1.285-.941-2.666-.652-4.006.221-1.02.859-1.877 1.488-2.686 3.008-3.87 6.254-7.534 9.71-10.966 3.09-3.069 5.759-4.668 9.368-6.661 3.824-2.114 2.406-6.233 1.013-9.774-.564-1.434-6.469-13.79-5.86-14.407-11.819 11.953-23.577 23.973-35.272 36.059-.764.79-1.557 1.629-1.853 2.711-.381 1.395.142 2.871.668 4.215 4.429 11.326 9.584 22.341 15.336 32.994 2.868 5.314 5.889 10.538 9.054 15.663 1.844 2.987 8.067 9.067 6.705 12.954-.155.44-.406.835-.499 1.299-.108.526-.007 1.094.108 1.642.42 2.007 1 4.046 1.839 5.946.766 1.735 2.128 1.943 3.657 2.633 1.596.721 2.626 2.278 4.136 3.132 1.518.858 2.844.26 4.239-.677.647-.434 1.284-.886 1.91-1.352.37-.277.737-.558 1.099-.845.218-.172.439-.353.576-.601.134-.242.174-.526.207-.804.383-3.141.046-6.077-.361-9.185zM839.321 331.085c2.219-1.058 4.525-2.221 5.926-4.24.944-1.36 1.393-2.994 1.825-4.593 3.098-11.463 6.197-22.926 9.295-34.389-3.076-3.332-3.179-10.634 2.813-6.609.533.358 1.115.81 1.742.676.47-.1.803-.505 1.098-.884 1.213-1.559 2.426-3.119 3.64-4.679.42-.539.874-1.104 1.517-1.336.488-.176 1.025-.135 1.541-.073 3.947.48 7.742 2.151 10.761 4.737-2.125 3.108-4.609 5.969-7.388 8.509-1.043.954-2.135 1.871-3.005 2.985-3.621 4.639-2.873 13.641-3.503 19.241-.86 7.645-1.721 15.29-2.581 22.935-.125 1.115-.262 2.264-.809 3.243-.664 1.19-1.848 1.982-2.994 2.72-19.396 12.505-40.125 22.943-61.721 31.077-1.837-5.14-4.918-12.218-4.767-17.745.143-5.218 7.759-5.652 12.027-7.18 11.761-4.21 23.309-9.016 34.583-14.395z" fill="#d8a38b"/><path d="M758.402 353.782c-8.041 2.649-12.09 7.31-12.328 18.292-.288 13.301-.571 26.683 1.46 39.831 1.142 7.392 3.008 14.658 4.094 22.059 2.208 15.05 1.104 30.488-2.614 45.21-1.252 4.956-6.34 13.115-2.564 17.466 3.614 4.166 10.538 1.527 15.126 1.305 15.175-.733 30.349-1.466 45.523-2.199 9.291-.448 28.42-.928 26.028-15.283-1.106-6.639-7.547-13.604-10.005-20.022-2.72-7.098-4.541-14.755-4.18-22.4.532-11.213-1.353-22.139-2.244-33.46-1.223-15.556-1.747-31.657-8.312-46.102-5.517-12.138-33.012-8.355-43.546-6.308-2.374.461-4.52.979-6.438 1.611zM836.979 721.824c2.924.394 5.682-.456 8.551-.584.546-10.066.11-19.784-1.384-29.862-4.761 4.616-8.296 1.506-8.771 10.752-.154 2.993 2.488 15.183 1.604 19.694z" fill="#d8a38b"/><path d="M846.512 716.282c3.423-.969 3.635 7.06 3.534 8.938-.062 1.128-.273 2.268-.06 3.379.234 1.22.957 2.283 1.663 3.306 1.481 2.144 2.96 4.286 4.44 6.43.665.963 1.342 1.949 1.657 3.077.78 2.795-1.034 5.923-3.707 7.054-9.274 3.922-16.722-7.601-18.173-14.974-.222-1.13-.363-2.274-.504-3.417-.29-2.365-1.713-7.574-.632-9.792 1.262-2.588 4.407-.437 6.62-1.296 2.053-.795 3.778-2.311 5.162-2.705z" fill="#3b455a"/><path d="M775.64 722.619c-2.82.873-5.68.493-8.53.843-2.209-9.836-3.39-19.492-3.589-29.678 5.461 3.762 8.431.109 10.433 9.148.649 2.925.066 15.385 1.686 19.687z" fill="#d8a38b"/><path d="M764.431 720.364c-.376 5.453-5.067 11.034-7.774 15.778-.318.557-.644 1.138-.699 1.778-.082.951.442 1.837.948 2.646.701 1.125 1.467 2.307 2.665 2.873 1.178.556 2.553.411 3.841.217 2.154-.321 4.295-.742 6.411-1.26.528-.128 1.067-.27 1.51-.582.526-.37.866-.943 1.19-1.498 1.665-2.849 3.052-4.857 3.196-8.148.148-3.398-.042-6.942.806-10.263.417-1.61.965-3.669-.372-4.658-1.033-.766-3.075.054-4.264.166-2.098.198-4.007-.059-5.992.9-.404.196-.801.437-1.066.799-.27.368-.369.798-.4 1.252z" fill="#3b455a"/><path d="M770.172 352.208c.196.346.453.674.793.98 1.337 1.21 3.145 1.851 4.92 2.027 2.339.233 4.685-.255 6.973-.795 3.091-.729 2.903-2.549 3.232-5.398.181-1.556.267-3.121.316-4.686.028-.858-.436-3.907.083-4.53.353-.423 1.865-.351 2.511-.724 1.022-.591 1.854-1.636 2.439-2.64.946-1.62 1.425-3.463 1.894-5.279.815-3.16 1.632-6.319 2.447-9.479.833-3.228 1.671-6.484 1.84-9.814.254-5.019-.858-12.041-4.789-15.534-3.586-3.186-8.658-4.137-13.289-4.526-6.132-.517-12.405.872-17.532 4.336-2.071 1.399-4.014 3.182-5.169 5.566-1.781 3.676-1.441 8.156-1.052 12.341.359 3.862.719 7.725 1.078 11.588.413 4.442 1.189 9.549 4.629 11.819 1.826 1.206 4.153 1.38 5.741 2.958 1.988 1.978 1.998 5.072 2.19 7.68.11 1.49.059 2.907.745 4.11z" fill="#d8a38b"/><path d="M787.316 301.334c.226.355.417.724.571 1.109.799 2.022.419 4.36 1.201 6.388 1.242 3.215 5.134 5.012 5.854 8.382.589 2.757-1.195 5.478-1.233 8.297-.043 3.079 2.05 5.901 1.875 8.946-.151 2.646-1.662 6.419-3.144 8.597.459-.675 4.878-.632 5.992-1.38 1.707-1.146 1.877-1.829 2.319-3.677.439-1.836-.038-3.605.688-5.497.891-2.322 2.853-4.082 3.46-6.542.83-3.358-1.086-6.781-1.097-10.239-.017-5.235 4.287-10.353 2.433-15.249-1.087-2.872-3.997-4.612-5.701-7.167-1.294-1.94-1.841-4.269-2.772-6.406-.932-2.138-2.467-4.251-4.73-4.814-1.258-.312-2.587-.105-3.869-.287-2.218-.314-4.11-1.753-6.261-2.379-3.076-.895-8.293 2.402-9.951 5.048-1.646 2.626-.667 4.756 1.227 6.934 3.152 3.626 10.485 5.772 13.138 9.936z" fill="#3b455a"/><path d="M745.819 287.661c-1.758 1.411-3.961 2.47-5.552 4.1-3.105 3.177-3.51 8.06-3.435 12.501.065 3.953-1.511 7.537-.905 11.635.407 2.752 1.702 5.497 4.022 7.032 2.89 1.912 7.302 2.055 8.691 5.229 1.508 3.447-1.933 8.019.404 10.97 1.288 1.628 3.683 1.771 5.472 2.825 1.996 1.176 3.089 3.382 4.361 5.319 1.271 1.936 3.139 3.85 5.454 3.8-.059-3.524-.074-6.316-1.717-9.47-.956-1.837-3.683-5.185-1.791-7.3 1.177-1.741 4.101-2.417 4.086-4.519-.007-.987-.73-1.796-1.307-2.595-2.238-3.096-2.634-7.332-1.364-10.934 1.271-3.601 4.081-6.555 7.445-8.367 3.94-2.123 3.249-3.078 4.253-6.982.922-3.592 2.899-4.51 6.036-5.941 2.816-1.284 3.706-2.047 4.648-4.775.689-1.996 1.541-4.388.323-6.531-.966-1.702-2.627-2.878-4.233-3.997-3.357-2.338-7.121-4.786-11.185-4.316-2.256.261-4.34 1.416-6.6 1.643-1.508.151-3.026-.119-4.541-.104-2.583.025-5.27.926-7.292 2.552-2.04 1.64-1.91 3.259-2.987 5.508-.526 1.101-1.342 1.96-2.286 2.717z" fill="#3b455a"/><path d="M754.322 272.798c.29-2.469-.102-5.653-2.479-6.38-1.303-.398-2.719.161-4.064-.053-2.867-.455-3.983-3.855-5.581-6.278-.238-.363-.52-.729-.925-.888-.578-.229-1.218.024-1.831.126-2.813.467-5.083-2.232-7.79-3.128-3.35-1.11-7.409 1.13-8.256 4.556-.347 1.408-.211 2.898-.535 4.312-1.307 5.729-9.494 8.495-9.451 14.371.029 3.97 4.073 7.601 2.724 11.335-.863 2.388-3.814 4.118-3.36 6.616.292 1.607 2.062 2.634 3.692 2.54 1.631-.093 3.092-1.053 4.274-2.179 1.878-1.789 3.254-4.038 5.034-5.923 1.782-1.884 4.197-3.454 6.782-3.244 2.503.203 4.839 2.044 7.296 1.523 1.964-.417 3.357-2.246 5.28-2.828 1.799-.544 3.721.089 5.599.121 1.879.032 4.139-1.043 4.108-2.921-.008-.455-.155-.92-.031-1.358.347-1.227 2.418-1.247 2.757-2.477-1.043-1.466-2.399-.866-3.185-2.805-.609-1.501-.24-3.487-.058-5.038z" fill="#3b455a"/><path d="M741.37 430.865c.033 2.254-.418 11.954 3.2 12.19 17.973 1.153 35.627-5.902 53.136-8.753 4.557-.742 9.159-1.263 13.78-1.331 4.156-.062 7.992 1.853 9.115-2.552 1.114-4.372.33-10.183.358-14.693.053-9.7-1.132-18.543 1.114-28.036 2.264-9.564 5.891-18.806 10.759-27.345.487-.855 1-1.741 1.08-2.724.127-1.571-.827-3.282-1.237-4.769-.636-2.309-.994-4.723-1.558-7.055-1.084-4.484-2.337-8.927-3.756-13.316-2.753 2.188-5.833 3.962-9.106 5.245-5.095 1.996-10.566 2.806-15.662 4.793-2.622 1.023-4.613 2.789-7.054 4.005-2.31 1.15-4.833 1.101-6.179 3.81-1.081 2.181-.212 6.845-.232 9.257-.027 3.173-.056 6.346-.602 9.481-.695 4.001-2.606 8.744-6.648 9.145-2.598.257-4.967-1.516-6.66-3.504-4.625-5.431-3.905-12.453-7.27-18.235-.666-1.145-3.404-5.416-4.366-5.812-2.124-.875-8.56 3.205-10.698 4.126-5.573 2.402-10.692 4.312-15.738 7.928-4.97 3.56-9.482 7.728-13.68 12.163-3.673 3.881-7.205 7.951-10.495 12.164-3.609 4.622.459 6.877 3.657 10.493 2.209 2.498 4.535 4.891 6.969 7.168 2.001 1.873 4.587 5.001 7.111 6.116 3.383 1.494 7.029-2.218 9.255-4.355-.948.911 1.4 8.881 1.582 10.601.473 4.489-.241 9.272-.175 13.795z" fill="#7fc5a3"/><path d="M850.079 699.885c-.256-7.641-.64-15.295-1.036-22.946-.688-13.26-1.331-26.295-2.684-39.471-4.167-40.602-5.844-81.622-8.74-122.338 0-12.048-.146-24.696-2.689-36.533-.148-.664-.307-1.337-.66-1.916-1.168-1.912-3.839-2.056-6.076-1.961-8.763.373-17.929 2.266-26.617 2.054-9.763-.239-20.094-1.079-30.183-.512-3 .168-6.015-.227-9.044-.622-3.964-.518-7.951-1.035-11.959-.289-3.445.642-3.348 3.533-3.929 6.903-.629 3.648-.838 7.357-1.012 11.051-.311 6.626-.497 13.257-.557 19.89-.149 16.425 2.407 32.995 3.222 49.412.856 17.208 1.587 34.422 2.236 51.639.823 21.795 3.946 43.472 6.64 65.006.952 7.611 1.917 15.224 3.018 22.801.343 2.366.405 6.217 1.4 8.29 1.947 4.055 7.133 3.608 10.362 3.117 2.817-.43 5.608-1.13 8.344-2.095-1.041-30.062 2.108-60.595 1.968-90.868-.093-20.118 2.157-40.133 4.213-60.116.384-3.725.666-7.641 1.475-11.299.769-3.475 2.175-6.794 2.757-10.367.635-3.902 3.754-4.146 5.162-.757 1.802 4.336 2.458 9.589 3.634 14.141 6.065 23.456 13.072 46.566 17.043 70.748 4.906 29.872 12.858 59.498 16.905 89.3 2.659.533 5.324.796 7.965.787 3.031-.009 7.839-.363 8.942-4.661.564-2.196-.02-6.003-.1-8.388z" fill="#3b455a"/><path d="M834.568 478.524c0-1.694-3.4-4.611-4.145-6.242-.839-1.834-1.569-3.668-2.543-5.479-.05-.092-.102-.188-.187-.249-.317-.234-.707.145-1.001.407-1.027.916-3.76.312-5.044.325-2.206.022-4.412.042-6.617.064-4.274.041-8.548.082-12.821.122-17.153.164-34.128 1.114-51.264.05-.68 1.713-3.109 7.577-2.073 9.314.379.636 1.026.512 1.79.587 1.757.173 3.539.202 5.303.276 5.723.241 11.452.393 17.18.533 14.147.346 28.299.582 42.451.657 1.087.006 18.971.248 18.971-.365z" fill="#343f51"/><path d="M618.734 662.804c7.239 5.048 56.737 70.678 56.737 70.678l-28.369 21.794-117.377-24.45V709.04l45-3.513s-32.791-4.793-41.707-26.556c-8.914-21.765 85.716-16.167 85.716-16.167z" fill="#474ebb"/><path d="M515.537 718.297c-2.469 6.562-4.999 15.267-3.004 22.58 2.211 8.102 14.846 13.754 18.283 3.594.663-1.959.488-4.344-.973-5.808-3.11-3.115-5.713-6.536.165-8.616 2.178-.771 4.566-.673 6.811-1.221.778-.189 1.575-.481 2.097-1.088.66-.767.745-1.86.776-2.872.12-3.849-.076-7.708-.582-11.525-.155-1.17-11.22-2.128-12.369-2.006-4.176.443-9.612 2.729-11.204 6.962z" fill="#3b455a"/><path d="M638.946 701.954l43.268 24.554 11.399-9.279v-10.798l-54.667-43.627-32.966 35.728 32.966 3.422z" fill="#474ebb"/><path d="M581.505 521.789c1.246-.774 2.548-1.451 3.919-1.992 22.78-8.996 39.469 1.159 46.811 23.175 16.463 49.356 18.864 94.515 7.634 144.416-25.631 1.5-56.125 2.62-81.714.516-9.09-.747-19.042-2.148-25.136-8.933-2.717-3.026-4.373-6.847-5.733-10.679-8.677-24.44-6.89-51.9 2.166-76.203 9.055-24.304 25.002-45.62 43.766-63.526 2.581-2.462 5.272-4.902 8.287-6.774z" fill="#7fc5a3"/><path d="M635.235 472.208c-11.854 3.058-24.394-4.853-35.847-.252-7.447 2.991-12.569 10.955-13.862 19.119-.602 3.806-.457 7.808 1.095 11.202 1.007 2.203 2.567 4.072 4.322 5.663 2.347 2.129 5.084 3.756 8.028 4.854.239.089-3.744 7.103-4.131 7.711 1.824 1.148.981 4.846 2.663 6.724 1.739 1.943 4.812 2.401 7.389 1.753 2.576-.648 4.765-2.203 6.843-3.77 1.884-1.42.895-11.026 2.834-11.488 1.649-.395 3.272-.933 4.835-1.651 9.459-4.347 16.415-14.497 17.22-25.123.377-4.978-.49-9.899-1.389-14.742z" fill="#efbfa5"/><path d="M606.87 472.241c.453-.022.906-.035 1.357-.039 6.527-.066 13.003 1.362 18.88 4.028 2.169.985 4.3 2.167 5.882 3.94 2.342 2.623 3.247 6.32 3.132 9.898-.116 3.579-1.163 7.087-2.333 10.503 1.491.074 2.898-.744 4.153-1.598 3.691-2.512 7.703-5.802 9.965-9.735 4.11-7.144 4.289-12.228 11.288-17.345 5.806-4.245 13.195-1.705 17.865-8.896 3.821-5.886 1.567-15.441-5.188-17.344-3.023-.851-6.461-.038-8.782 2.079-2.496 2.276-5.215 6.256-8.139 4.568-1.169-.676-1.682-2.057-2.285-3.265-4.994-10.009-15.666-8.266-24.197-4.536-4.811 2.105-9.484 4.94-14.659 5.483-4.152.435-8.274-.655-12.437-.534-6.944.203-13.725 3.946-18.034 9.544-4.83 6.273-7.311 15.301-4.058 22.464 1.631 3.591 2.669 7.365 3.74 11.158.372 1.317 3.276 6.672 4.399 2.381.871-3.331.659-6.844 1.553-10.169 2.177-8.104 10.116-12.199 17.898-12.585z" fill="#3b455a"/><path d="M728.26 548.147c-17.358-1.517-39.254 7.796-44.544 22.832-5.138-15.085-31.731-24.475-49.102-23.119-45.841 3.58-61.616 55.416-42.364 90.413 10.361 18.835 25.305 35.332 41.624 50.158 13.666 12.415 48.943 38.776 49.053 38.687.107.09 35.649-25.943 49.44-38.232 16.469-14.674 31.578-31.032 42.13-49.771 19.605-34.816-.434-86.965-46.237-90.968z" fill="#d34e4e"/><path d="M682.677 726.986h-.001c-.027 0-.553-.375-1.482-1.057l.308.175c.562.412.97.707 1.202.87-.015.008-.024.012-.027.012z" fill="#d4d5d5"/><path d="M681.502 726.104l-.308-.175c-4.27-3.136-17.048-12.756-28.973-22.198.039.01.078.019.118.028 12.018 9.52 24.936 19.243 29.163 22.345z" fill="#3e45a4"/><path d="M682.704 726.974c-.232-.163-.64-.458-1.202-.87-4.227-3.102-17.145-12.825-29.163-22.345 4.479 1.059 9.101 1.596 13.822 1.596 3.632 0 7.323-.318 11.048-.962 17.921-3.098 34.235-12.539 48.175-23.399 14.413-11.23 27.704-24.325 39.195-38.287 6.023-7.318 11.579-15.033 16.374-23.144-1.083 6.768-3.291 13.358-6.705 19.421-10.552 18.74-25.661 35.097-42.13 49.771-13.59 12.109-48.302 37.564-49.414 38.219z" fill="#b94545"/><path d="M764.878 628.729c-12.001.253-24.001.507-36.002.761-4.262-16.021-8.522-32.043-12.784-48.064-.616-2.316-4.001-2.158-4.725-.022-9.43 27.811-18.861 55.621-28.292 83.432-.547 1.61-1.093 3.222-1.638 4.832-6.225-18.365-12.45-36.73-18.673-55.095-.998-2.945-1.996-5.89-2.995-8.836-.602-1.775-3.478-2.492-4.475-.58-4.638 8.887-9.274 17.774-13.911 26.661l-40.284-.186c-3.153-.015-3.182 4.67-.024 4.684 13.935.065 27.868.129 41.802.194.815.004 1.744-.427 2.121-1.151 3.974-7.615 7.947-15.231 11.921-22.847 6.386 18.842 12.771 37.682 19.157 56.523.998 2.945 1.996 5.891 2.994 8.836.749 2.21 3.967 2.26 4.726.023 9.431-27.811 18.861-55.622 28.292-83.432.451-1.33.902-2.661 1.352-3.991 3.726 14.005 7.451 28.008 11.175 42.013.259.973 1.295 1.753 2.355 1.732 12.628-.268 25.256-.534 37.884-.802 3.147-.066 3.184-4.752.024-4.685z" fill="#fff"/><path d="M579.101 630.308c2.821 7.569 6.917 14.266 13.233 18.847 5.237 3.798 10.475 7.597 15.712 11.395 1.433 1.04 2.902 2.117 3.839 3.619 1.324 2.123 1.394 4.758 1.755 7.234.784 5.381 3.495 10.875 8.405 13.213 4.91 2.337 11.998.014 13.177-5.295-2.261-3.029-4.396-6.232-6.818-9.133-1.307-1.567-4.202-5.348.485-4.101.723.193 1.462.45 2.204.348 1.148-.158 2.034-1.165 2.399-2.266.355-1.071.396-2.273.167-3.357-10.654-.198-22.39-10.534-28.167-18.776-15.45-22.048-9.252-50.025-14.429-74.783-1.043-4.995-2.984-10.076-6.919-13.323-3.937-3.247-10.28-3.975-14-.484-3.992 3.745-3.413 10.123-2.526 15.524 1.272 7.75 2.543 15.5 3.816 23.25 1.886 11.496 3.129 25.919 7.667 38.088z" fill="#efbfa5"/><path d="M561.952 554.771c-1.322 10.481-1.455 21.111-.397 31.622 12.625-1.89 25.36-3.043 38.119-3.455-1.168-11.097-3.114-22.112-5.82-32.937-1.981-7.929-8.888-12.136-17.104-11.807-9.049.363-13.794 8.623-14.798 16.577z" fill="#7fc5a3"/><path d="M657.19 551.526c.664-.072 1.409-.118 1.921.309.512.426.605 1.167.608 1.832.011 2.618-.809 5.234-2.313 7.378-.348.497-.755 1.063-.611 1.654.151.618.825.93 1.42 1.157 1.554.593 3.108 1.186 4.663 1.779.313.12.646.241.976.181.424-.076.736-.426 1.012-.756 2.161-2.58 4.38-5.265 5.286-8.505.908-3.241.127-7.21-2.706-9.025-4.622-2.96-19.139-4.879-19.511 3.454 2.738 1.459 6.285.839 9.255.542z" fill="#efbfa5"/></g></svg>