<svg viewBox="0 0 1605 799" xmlns="http://www.w3.org/2000/svg" fill-rule="evenodd" clip-rule="evenodd" stroke-linejoin="round" stroke-miterlimit="2"><clipPath id="a"><path d="M0 0h1604.74v798.403H0z"/></clipPath><g clip-path="url(#a)"><path fill="url(#_Linear2)" fill-rule="nonzero" d="M-4.434-37.429h1609.66v841.145H-4.434z"/><clipPath id="b"><path d="M-152-25.888h653.158V627.27H-152z"/></clipPath><g clip-path="url(#b)" fill-rule="nonzero"><path d="M99.672 447.791V331.458l-71.848-97.292h-96.37L-152 201.072l40.518-55.956L-152 121.615l33.512-46.593L-152 44.415l26.506-30.721H60.245l29.959-25.549 119.018 26.426 137.517 132.294 67.462 194.504v106.422H99.672z" fill="#ff7f5a"/><path d="M445.386 395.905c0 28.479-2.307 56.615-6.901 84.276h-75.606c5.342-27.263 8.143-55.448 8.143-84.276 0-186.182-116.637-345.131-280.823-407.76h152.012c18.827 14.217 36.721 29.795 53.614 46.688 46.862 46.877 83.673 101.483 109.402 162.288 26.65 63.007 40.159 129.887 40.159 198.784z" fill="#ff7f5a"/><path d="M371.022 395.905c0 28.828-2.801 57.013-8.143 84.276h-76.038c6.483-27.288 9.817-55.522 9.817-84.276 0-96.674-37.653-187.542-106.003-255.897C122.3 71.653 31.427 34-65.242 34c-29.621 0-58.713 3.534-86.758 10.415v-56.27H90.204c164.181 62.629 280.818 221.578 280.818 407.76z" fill="#ffb44d"/><path d="M-152 44.415C-123.955 37.534-94.863 34-65.242 34 31.432 34 122.3 71.653 190.655 140.008c68.35 68.355 106.003 159.223 106.003 255.897 0 28.754-3.334 56.988-9.817 84.276h-77.026c8.218-26.954 12.478-55.288 12.478-84.276 0-76.806-29.904-149.012-84.216-203.319-54.307-54.312-126.513-84.221-203.319-84.221-29.87 0-59.056 4.524-86.758 13.25v-77.2z" fill="#ffe76c"/><path d="M-152 121.615c27.702-8.726 56.888-13.25 86.758-13.25 76.806 0 149.012 29.909 203.319 84.221 54.312 54.307 84.216 126.513 84.216 203.319 0 28.988-4.26 57.322-12.478 84.276h-79.138c11.317-26.271 17.257-54.815 17.257-84.276 0-56.938-22.175-110.467-62.44-150.736-40.269-40.27-93.798-62.44-150.736-62.44-30.393 0-59.814 6.324-86.758 18.343v-79.457z" fill="#1fd7c3"/><path d="M-152 287.531c24.542-19.729 54.82-30.438 86.758-30.438 37.08 0 71.932 14.437 98.149 40.663 26.221 26.212 40.663 61.064 40.663 98.149 0 30.871-10.002 60.198-28.509 84.276h85.616c11.317-26.276 17.257-54.815 17.257-84.276 0-56.938-22.175-110.467-62.44-150.736-40.269-40.27-93.798-62.44-150.736-62.44-30.393 0-59.814 6.319-86.758 18.343v86.459z" fill="#5bd6fd"/><path d="M404.28 614.862c53.505 0 96.878-43.373 96.878-96.878 0-49.872-37.688-90.924-86.134-96.271-11.188-69.899-71.753-123.304-144.807-123.304-60.721 0-112.825 36.906-135.105 89.508a116.88 116.88 0 00-7.838-.274c-62.744 0-113.607 50.864-113.607 113.612 0 62.744 50.863 113.607 113.607 113.607H404.28z" fill="#ececee"/><g fill="#444f5c"><path d="M176.946 464.928c-5.441 0-9.857-4.415-9.857-9.857V440.51c0-5.447 4.416-9.857 9.857-9.857 5.442 0 9.857 4.41 9.857 9.857v14.561c0 5.442-4.415 9.857-9.857 9.857zM337.879 464.928c-5.447 0-9.857-4.415-9.857-9.857V440.51a9.853 9.853 0 019.857-9.857c5.441 0 9.856 4.41 9.856 9.857v14.561c0 5.442-4.415 9.857-9.856 9.857zM257.41 472.702c-10.584 0-20.526-4.43-27.278-12.154-3.583-4.102-3.164-10.331.932-13.909 4.101-3.582 10.325-3.169 13.908.932 3.01 3.444 7.544 5.417 12.438 5.417 4.898 0 9.433-1.973 12.443-5.417 3.583-4.101 9.807-4.514 13.908-.932 4.096 3.578 4.515 9.807.932 13.909-6.752 7.724-16.699 12.154-27.283 12.154z"/></g></g><g fill-rule="nonzero"><path d="M1143.7 377.811c-3.86 0-3.86-6 0-6 3.87 0 3.86 6 0 6zM912.71 121.819c-3.867 0-3.86-6 0-6 3.867 0 3.861 6 0 6zM1092.7 29.829c-3.87 0-3.86-6 0-6 3.87 0 3.86 6 0 6zM720.721 386.811c-3.867 0-3.86-6 0-6 3.867 0 3.862 6 0 6zM579.729 203.82c-3.868 0-3.861-6 0-6 3.866 0 3.86 6 0 6z" fill="#c5e4f0"/><path d="M481.72 624.849c-3.867 0-3.86-6 0-6 3.867 0 3.861 6 0 6z" fill="#cfe9f3"/></g><g fill="#aed9ea" fill-rule="nonzero"><path d="M1556.78 131.385c-13.188 0-25.268-8.181-29.075-19.355-5.031 2.555-10.788 3.946-16.436 3.946-5.802 0-11.354-1.439-16.054-4.162-10.83-6.271-16.685-19.654-13.622-31.132 2.756-10.321 12.831-18.103 23.435-18.103.941 0 1.876.064 2.799.189.011-.34.027-.683.05-1.03a20.6 20.6 0 01-.498-4.858c.274-14.63 15.708-26.09 35.135-26.09.302 0 .604.003.909.008 10.85.205 20.917 4.087 27.513 10.506 2.872-5.225 8.904-8.324 16.276-8.324 4.405 0 8.983 1.116 13.244 3.227 9.694 4.806 15.731 13.848 14.979 22.062a32.38 32.38 0 018.228 2.967c1.785.598 3.414 1.654 4.844 3.14 6.726 5.302 10.699 13.021 10.905 21.195.401 15.91-13.294 29.207-30.529 29.641-.291.008-.581.011-.87.011-6.21 0-12.135-1.658-17.251-4.815-7.331 11.615-18.574 19.329-30.382 20.762-1.18.143-2.39.215-3.6.215zM1556.78 449.499c-13.188 0-25.268-8.181-29.075-19.355-5.031 2.555-10.788 3.946-16.436 3.946-5.802 0-11.354-1.439-16.054-4.162-10.83-6.271-16.685-19.654-13.622-31.132 2.756-10.321 12.831-18.103 23.435-18.103.941 0 1.876.064 2.799.189.011-.34.027-.683.05-1.03a20.6 20.6 0 01-.498-4.858c.274-14.63 15.708-26.09 35.135-26.09.302 0 .604.003.909.008 10.85.205 20.917 4.087 27.513 10.506 2.872-5.225 8.904-8.324 16.276-8.324 4.405 0 8.983 1.116 13.244 3.227 9.694 4.806 15.731 13.848 14.979 22.062a32.38 32.38 0 018.228 2.967c1.785.598 3.414 1.654 4.844 3.14 6.726 5.302 10.699 13.021 10.905 21.195.401 15.91-13.294 29.207-30.529 29.641-.291.008-.581.011-.87.011-6.21 0-12.135-1.658-17.251-4.815-7.331 11.615-18.574 19.329-30.382 20.762-1.18.143-2.39.215-3.6.215z"/></g><g fill-rule="nonzero"><path d="M1393.7 121.869a38.95 38.95 0 006.876-6.78c.045.023.09.048.135.073a38.647 38.647 0 01-7.011 6.707zm39.8-11.992c5.777-4.446 9.391-11.189 9.203-18.638-.167-6.641-3.394-12.913-8.86-17.221-1.162-1.207-2.485-2.065-3.935-2.55a26.345 26.345 0 00-6.686-2.413c.611-6.674-4.293-14.021-12.17-17.923-3.462-1.716-7.182-2.624-10.761-2.624-3.786 0-7.138 1.007-9.68 2.82 2.594-2.043 6.134-3.185 10.167-3.185 3.579 0 7.3.908 10.761 2.622 7.875 3.904 12.781 11.251 12.17 17.925a26.266 26.266 0 016.684 2.413c1.452.484 2.775 1.343 3.937 2.55 5.464 4.307 8.693 10.58 8.86 17.221.194 7.656-3.63 14.565-9.69 19.003zM1322.081 76.41c2.762-2.135 6.05-3.582 9.494-4.052.007.101.016.202.025.303-3.428.371-6.721 1.713-9.519 3.749zm64.22-21.853c-5.356-4.788-13.182-7.663-21.588-7.82a36.494 36.494 0 00-.739-.008c-7.816 0-14.837 2.284-19.961 6.033 5.16-3.964 12.381-6.398 20.448-6.398.246 0 .492.003.739.008 8.405.157 16.232 3.032 21.589 7.82-.028.02-.054.042-.08.062-.138.099-.275.2-.408.303z" fill="#8bc8e1"/><path d="M1393.21 122.231c2.64-2.014 5.076-4.441 7.217-7.219l.142.077a38.95 38.95 0 01-7.359 7.142zm39.8-11.992c5.774-4.445 9.388-11.189 9.2-18.635-.167-6.641-3.395-12.913-8.861-17.221-1.162-1.207-2.484-2.065-3.935-2.551a26.406 26.406 0 00-6.686-2.412c.611-6.674-4.294-14.02-12.17-17.923-3.462-1.716-7.182-2.624-10.761-2.624-3.792 0-7.147 1.01-9.691 2.828.163-.128.328-.252.498-.373 2.542-1.813 5.894-2.82 9.68-2.82 3.579 0 7.299.908 10.761 2.624 7.877 3.902 12.781 11.249 12.17 17.923a26.345 26.345 0 016.686 2.413c1.45.485 2.773 1.343 3.935 2.55 5.466 4.308 8.693 10.58 8.86 17.221.188 7.449-3.426 14.192-9.203 18.638-.159.122-.32.242-.483.362zM1321.6 76.766c.157-.12.316-.238.474-.356 2.798-2.036 6.091-3.378 9.519-3.749.01.106.02.212.032.317-3.61.285-7.09 1.655-10.025 3.788zm64.226-21.827c-5.356-4.798-13.191-7.679-21.607-7.837a36.552 36.552 0 00-.739-.007c-7.82 0-14.843 2.286-19.969 6.038.163-.125.328-.249.495-.371 5.124-3.749 12.145-6.033 19.961-6.033.246 0 .492.003.739.008 8.406.157 16.232 3.032 21.588 7.82-.159.125-.317.251-.468.382z" fill="#86c1d9"/><path d="M1392.73 122.592c2.779-2.12 5.33-4.699 7.551-7.662.049.028.099.054.147.082-2.141 2.778-4.577 5.205-7.217 7.219-.16.121-.32.242-.481.361zm39.771-11.969c5.787-4.446 9.411-11.198 9.223-18.654-.167-6.641-3.396-12.913-8.86-17.221-1.163-1.207-2.487-2.065-3.937-2.551a26.365 26.365 0 00-6.684-2.411c.611-6.675-4.296-14.021-12.17-17.924-3.463-1.716-7.183-2.622-10.762-2.622-3.79 0-7.144 1.009-9.688 2.824.157-.124.32-.246.484-.363 2.544-1.818 5.899-2.828 9.691-2.828 3.579 0 7.299.908 10.761 2.624 7.876 3.903 12.781 11.249 12.17 17.923a26.406 26.406 0 016.686 2.412c1.451.486 2.773 1.344 3.935 2.551 5.466 4.308 8.694 10.58 8.861 17.221.188 7.446-3.426 14.19-9.2 18.635-.169.131-.339.257-.51.384zm-111.389-33.489c.162-.125.325-.247.489-.368 2.935-2.133 6.415-3.503 10.025-3.788.013.11.026.221.041.331-3.799.187-7.477 1.586-10.555 3.825zm64.269-21.793c-5.358-4.82-13.212-7.716-21.649-7.876a60.684 60.684 0 00-.737-.004c-7.827 0-14.858 2.289-19.983 6.047.166-.126.332-.251.5-.375 5.126-3.752 12.149-6.038 19.969-6.038.246 0 .491.002.739.007 8.416.158 16.251 3.039 21.607 7.837-.153.13-.302.264-.446.402z" fill="#81bad2"/><path d="M1392.24 122.961c2.921-2.228 5.592-4.962 7.891-8.116l.153.085c-2.221 2.963-4.772 5.542-7.551 7.662-.163.125-.328.249-.493.369zm39.788-11.983c5.783-4.445 9.4-11.192 9.212-18.644-.167-6.641-3.396-12.912-8.86-17.221-1.162-1.207-2.485-2.065-3.937-2.551a26.339 26.339 0 00-6.684-2.41c.611-6.676-4.295-14.022-12.172-17.925-3.461-1.716-7.181-2.622-10.759-2.622-3.789 0-7.143 1.008-9.685 2.821.157-.123.319-.244.483-.362 2.544-1.815 5.898-2.824 9.688-2.824 3.579 0 7.299.906 10.762 2.622 7.874 3.903 12.781 11.249 12.17 17.924a26.365 26.365 0 016.684 2.411c1.45.486 2.774 1.344 3.937 2.551 5.464 4.308 8.693 10.58 8.86 17.221.188 7.456-3.436 14.208-9.223 18.654-.157.12-.316.238-.476.355zm-111.401-33.479a25.8 25.8 0 01.488-.365c3.078-2.239 6.756-3.638 10.555-3.825l.049.347c-3.988.075-7.869 1.498-11.092 3.843zm64.332-21.736c-5.359-4.854-13.241-7.771-21.711-7.93a30.297 30.297 0 00-.739-.007c-7.811 0-14.828 2.281-19.951 6.026.15-.115.303-.23.457-.344 5.125-3.758 12.156-6.047 19.983-6.047.244 0 .49.001.737.004 8.437.16 16.291 3.056 21.649 7.876a9.951 9.951 0 00-.425.422z" fill="#7db4ca"/><path d="M1391.76 123.319c3.057-2.333 5.839-5.221 8.208-8.566l.16.092c-2.299 3.154-4.97 5.888-7.891 8.116-.158.121-.317.24-.477.358zm39.774-11.972c5.784-4.445 9.405-11.193 9.216-18.648-.167-6.641-3.396-12.912-8.86-17.22-1.162-1.208-2.486-2.066-3.937-2.552a26.3 26.3 0 00-6.684-2.41c.61-6.674-4.295-14.021-12.171-17.925-3.461-1.716-7.181-2.622-10.76-2.622-3.79 0-7.144 1.008-9.688 2.824.16-.126.323-.249.49-.368 2.542-1.813 5.896-2.821 9.685-2.821 3.578 0 7.298.906 10.759 2.622 7.877 3.903 12.783 11.249 12.172 17.925a26.339 26.339 0 016.684 2.41c1.452.486 2.775 1.344 3.937 2.551 5.464 4.309 8.693 10.58 8.86 17.221.188 7.452-3.429 14.199-9.212 18.644-.161.125-.326.248-.491.369zm-111.387-33.49c.157-.12.317-.24.477-.358 3.223-2.345 7.104-3.768 11.092-3.843.019.122.039.242.06.363l-.213-.001c-4.101 0-8.105 1.432-11.416 3.839zm64.405-21.652c-5.36-4.9-13.28-7.847-21.793-8.007a36.592 36.592 0 00-.738-.007c-7.815 0-14.832 2.281-19.956 6.027.162-.124.325-.246.49-.366 5.123-3.745 12.14-6.026 19.951-6.026.248 0 .492.001.739.007 8.47.159 16.352 3.076 21.711 7.93-.138.143-.275.29-.404.442z" fill="#78adc3"/><path d="M1391.27 123.69c3.2-2.44 6.098-5.49 8.539-9.033l.164.096c-2.369 3.345-5.151 6.233-8.208 8.566-.165.125-.329.249-.495.371zm39.781-11.978c5.784-4.445 9.406-11.193 9.217-18.647-.168-6.64-3.396-12.913-8.86-17.221-1.162-1.208-2.486-2.065-3.936-2.552a26.263 26.263 0 00-6.686-2.41c.611-6.674-4.294-14.021-12.17-17.925-3.461-1.715-7.181-2.622-10.761-2.622-3.788 0-7.142 1.008-9.686 2.823.159-.125.32-.246.486-.364 2.544-1.816 5.898-2.824 9.688-2.824 3.579 0 7.299.906 10.76 2.622 7.876 3.904 12.781 11.251 12.171 17.925a26.3 26.3 0 016.684 2.41c1.451.486 2.775 1.344 3.937 2.552 5.464 4.308 8.693 10.579 8.86 17.22.189 7.455-3.432 14.203-9.216 18.648-.162.124-.323.246-.488.365zm-111.397-33.481c.163-.127.33-.252.498-.374 3.311-2.407 7.315-3.839 11.416-3.839l.213.001c.023.128.046.255.071.381a17.957 17.957 0 00-.771-.017c-4.106 0-8.114 1.437-11.427 3.848zm64.523-21.564c-5.361-4.958-13.331-7.944-21.9-8.105a45.733 45.733 0 00-.739-.007c-7.818 0-14.841 2.286-19.965 6.037.163-.125.33-.25.497-.374 5.124-3.746 12.141-6.027 19.956-6.027.244 0 .49.002.738.007 8.513.16 16.433 3.107 21.793 8.007-.131.151-.259.305-.38.462z" fill="#74a6bb"/><path d="M1390.8 124.045c3.334-2.547 6.34-5.751 8.84-9.488.057.033.113.067.172.1-2.441 3.543-5.339 6.593-8.539 9.033-.156.119-.314.239-.473.355zm39.767-11.968c5.784-4.446 9.404-11.193 9.216-18.646-.167-6.641-3.394-12.914-8.86-17.222-1.162-1.207-2.485-2.065-3.937-2.551a26.313 26.313 0 00-6.684-2.411c.611-6.674-4.293-14.021-12.17-17.925-3.461-1.715-7.182-2.622-10.761-2.622-3.786 0-7.138 1.006-9.68 2.82.157-.124.317-.244.481-.362 2.544-1.815 5.898-2.823 9.686-2.823 3.58 0 7.3.907 10.761 2.622 7.876 3.904 12.781 11.251 12.17 17.925a26.263 26.263 0 016.686 2.41c1.45.487 2.774 1.344 3.936 2.552 5.464 4.308 8.692 10.581 8.86 17.221.189 7.454-3.433 14.202-9.217 18.647-.16.124-.323.246-.487.365zm-111.396-33.482c.16-.124.323-.246.486-.364 3.313-2.411 7.321-3.848 11.427-3.848.258 0 .515.006.771.017.026.133.054.265.084.397l-.001.005a17.07 17.07 0 00-1.34-.054c-4.105 0-8.114 1.435-11.427 3.847zm64.65-21.444c-5.361-5.029-13.389-8.061-22.028-8.224a45.625 45.625 0 00-.739-.007c-7.817 0-14.837 2.285-19.961 6.034.159-.122.32-.243.483-.362 5.124-3.751 12.147-6.037 19.965-6.037.245 0 .492.003.739.007 8.569.161 16.539 3.147 21.9 8.105-.123.159-.243.32-.359.484z" fill="#6fa0b4"/><path d="M1390.3 124.42c3.477-2.653 6.6-6.024 9.164-9.969l.176.106c-2.5 3.737-5.506 6.941-8.84 9.488a36.17 36.17 0 01-.5.375zm39.799-11.991c5.774-4.446 9.385-11.187 9.197-18.633-.166-6.641-3.394-12.914-8.858-17.222-1.164-1.207-2.486-2.065-3.937-2.55a26.253 26.253 0 00-6.686-2.412c.611-6.674-4.293-14.02-12.17-17.923-3.462-1.717-7.182-2.624-10.761-2.624-3.787 0-7.139 1.006-9.682 2.82.159-.125.323-.247.489-.365 2.542-1.814 5.894-2.82 9.68-2.82 3.579 0 7.3.907 10.761 2.622 7.877 3.904 12.781 11.251 12.17 17.925a26.313 26.313 0 016.684 2.411c1.452.486 2.775 1.344 3.937 2.551 5.466 4.308 8.693 10.581 8.86 17.222.188 7.453-3.432 14.2-9.216 18.646-.154.119-.311.237-.468.352zm-111.431-33.456c.166-.13.333-.255.503-.378 3.313-2.412 7.322-3.847 11.427-3.847.448 0 .896.019 1.34.054-.009.136-.016.273-.023.408a16.922 16.922 0 00-1.804-.096c-4.113 0-8.127 1.44-11.443 3.859zm64.817-21.313c-5.361-5.115-13.459-8.204-22.179-8.368a45.625 45.625 0 00-.739-.007c-7.813 0-14.83 2.282-19.952 6.028.157-.122.317-.241.478-.359 5.124-3.749 12.144-6.034 19.961-6.034.246 0 .492.003.739.007 8.639.163 16.667 3.195 22.028 8.224-.116.168-.228.336-.336.509z" fill="#6a99ac"/><path d="M1389.81 124.787c3.615-2.761 6.85-6.298 9.469-10.447l.182.111c-2.564 3.945-5.687 7.316-9.164 9.969-.161.124-.324.246-.487.367zm39.797-11.992c5.774-4.446 9.388-11.188 9.2-18.634-.167-6.641-3.396-12.914-8.86-17.221-1.163-1.208-2.485-2.066-3.937-2.551a26.274 26.274 0 00-6.685-2.412c.612-6.674-4.294-14.02-12.17-17.923-3.46-1.717-7.182-2.624-10.761-2.624-3.789 0-7.144 1.009-9.686 2.824.026-.02.052-.042.08-.062.134-.105.272-.207.411-.307 2.543-1.814 5.895-2.82 9.682-2.82 3.579 0 7.299.907 10.761 2.624 7.877 3.903 12.781 11.249 12.17 17.923a26.253 26.253 0 016.686 2.412c1.451.485 2.773 1.343 3.937 2.55 5.464 4.308 8.692 10.581 8.858 17.222.188 7.446-3.423 14.187-9.197 18.633a28.26 28.26 0 01-.489.366zm-111.41-33.472c.154-.119.311-.235.468-.35 3.316-2.419 7.33-3.859 11.443-3.859.605 0 1.207.032 1.804.096-.006.143-.012.284-.016.424a16.572 16.572 0 00-2.275-.155c-4.104 0-8.111 1.436-11.424 3.844zm64.972-21.13c-5.358-5.216-13.537-8.37-22.353-8.536a45.719 45.719 0 00-.738-.007c-7.818 0-14.842 2.286-19.965 6.037.163-.127.33-.252.499-.374 5.122-3.746 12.139-6.028 19.952-6.028.246 0 .492.003.739.007 8.72.164 16.818 3.253 22.179 8.368-.108.175-.212.352-.313.533z" fill="#6692a5"/><path d="M1371.67 131.385c-10.718 0-20.532-6.648-23.624-15.727-4.088 2.076-8.765 3.206-13.354 3.206-4.715 0-9.225-1.17-13.044-3.381-8.799-5.096-13.556-15.969-11.068-25.296 1.173-4.39 3.977-8.215 7.617-10.864 3.313-2.408 7.32-3.844 11.424-3.844.765 0 1.524.051 2.275.155.004-.14.01-.281.016-.424.007-.135.014-.272.023-.408l.001-.005a13.322 13.322 0 01-.155-.778 21.122 21.122 0 01-.06-.363l-.049-.347c-.015-.11-.028-.221-.041-.331a16.188 16.188 0 01-.032-.317c-.009-.101-.018-.202-.025-.303a16.196 16.196 0 01-.043-1.508c.113-5.999 3.362-11.342 8.582-15.163 5.123-3.751 12.147-6.037 19.965-6.037.245 0 .49.003.738.007 8.816.166 16.995 3.32 22.353 8.536.101-.181.205-.358.313-.533.108-.173.22-.341.336-.509.116-.164.236-.325.359-.484.121-.157.249-.311.38-.462.129-.152.266-.299.404-.442.137-.144.279-.286.425-.422a12.534 12.534 0 011.322-1.087c2.542-1.815 5.897-2.824 9.686-2.824 3.579 0 7.301.907 10.761 2.624 7.876 3.903 12.782 11.249 12.17 17.923a26.274 26.274 0 016.685 2.412c1.452.485 2.774 1.343 3.937 2.551 5.464 4.307 8.693 10.58 8.86 17.221.188 7.446-3.426 14.188-9.2 18.634-4.25 3.273-9.669 5.3-15.605 5.448-.236.006-.471.009-.706.009-4.478 0-8.771-1.06-12.586-3.09-.045-.025-.09-.05-.135-.073l-.142-.077c-.048-.028-.098-.054-.147-.082l-.153-.085-.16-.092-.164-.096c-.059-.033-.115-.067-.172-.1l-.176-.106-.182-.111c-2.619 4.149-5.854 7.686-9.469 10.447-4.61 3.516-9.84 5.771-15.216 6.424-.96.113-1.943.174-2.924.174z" fill="#618c9d"/><path d="M1371.67 131.385c-10.718 0-20.532-6.648-23.624-15.727-4.088 2.076-8.765 3.206-13.354 3.206-4.715 0-9.225-1.169-13.044-3.381-8.799-5.096-13.556-15.969-11.068-25.296 2.239-8.384 10.425-14.708 19.041-14.708.765 0 1.524.051 2.275.155.008-.277.021-.556.04-.838a16.728 16.728 0 01-.405-3.946c.224-11.888 12.763-21.2 28.547-21.2.245 0 .492.003.738.007 8.816.167 16.995 3.322 22.353 8.536 2.334-4.244 7.236-6.763 13.225-6.763 3.579 0 7.299.907 10.761 2.624 7.876 3.903 12.782 11.249 12.17 17.923a26.284 26.284 0 016.685 2.412c1.452.485 2.774 1.343 3.937 2.551 5.464 4.307 8.693 10.58 8.86 17.221.326 12.928-10.801 23.731-24.805 24.082-.236.006-.471.009-.707.009-5.045 0-9.859-1.347-14.016-3.912-5.957 9.437-15.092 15.706-24.685 16.871-.96.114-1.941.174-2.924.174z" fill="#fff"/></g><path d="M431.995 674.939c-16.23 0-31.092-10.067-35.774-23.818-6.191 3.146-13.274 4.857-20.223 4.857-7.141 0-13.971-1.771-19.754-5.121-13.325-7.717-20.529-24.183-16.761-38.307 3.39-12.697 15.787-22.274 28.835-22.274 1.158 0 2.308.077 3.444.234.014-.419.033-.842.062-1.269a25.28 25.28 0 01-.614-5.975c.339-18.003 19.328-32.106 43.232-32.106.37 0 .744.005 1.116.011 13.352.254 25.738 5.031 33.852 12.927 3.535-6.427 10.958-10.242 20.027-10.242 5.421 0 11.055 1.375 16.296 3.973 11.929 5.912 19.358 17.036 18.431 27.144a39.869 39.869 0 0110.124 3.651c2.198.736 4.2 2.035 5.962 3.863 8.275 6.524 13.165 16.023 13.418 26.08.493 19.578-16.358 35.937-37.565 36.47-.357.009-.714.014-1.071.014-7.64 0-14.93-2.04-21.225-5.925-9.021 14.292-22.855 23.784-37.382 25.549a37.38 37.38 0 01-4.43.264z" fill="#a7d5e8" fill-rule="nonzero"/><g fill="#fff" fill-rule="nonzero"><path d="M259.184 132.713a38.992 38.992 0 006.876-6.781c.045.023.09.048.135.073a38.72 38.72 0 01-7.011 6.708zm39.8-11.993c5.777-4.446 9.391-11.189 9.203-18.638-.167-6.641-3.394-12.913-8.86-17.221-1.162-1.207-2.485-2.065-3.935-2.55a26.343 26.343 0 00-6.686-2.412c.611-6.674-4.293-14.022-12.17-17.924-3.462-1.716-7.182-2.624-10.761-2.624-3.786 0-7.138 1.007-9.68 2.82 2.594-2.043 6.134-3.185 10.167-3.185 3.579 0 7.3.908 10.761 2.623 7.875 3.903 12.781 11.25 12.17 17.925a26.226 26.226 0 016.684 2.412c1.452.485 2.775 1.343 3.937 2.55 5.464 4.308 8.693 10.58 8.86 17.221.194 7.656-3.63 14.565-9.69 19.003zM187.565 87.253c2.762-2.135 6.05-3.582 9.494-4.051.007.1.016.202.025.302-3.428.371-6.721 1.713-9.519 3.749zm64.22-21.853c-5.356-4.788-13.182-7.663-21.588-7.82a45.625 45.625 0 00-.739-.007c-7.816 0-14.837 2.283-19.961 6.032 5.16-3.964 12.381-6.397 20.448-6.397.246 0 .492.003.739.007 8.405.157 16.232 3.032 21.589 7.82-.028.02-.054.042-.08.063a11.32 11.32 0 00-.408.302z" fill-opacity=".52"/><path d="M258.701 133.075a39.054 39.054 0 007.216-7.22l.143.077a38.992 38.992 0 01-6.876 6.781c-.16.122-.322.242-.483.362zm39.8-11.993c5.774-4.445 9.388-11.188 9.2-18.635-.167-6.641-3.396-12.913-8.861-17.221-1.162-1.207-2.484-2.065-3.936-2.551a26.358 26.358 0 00-6.685-2.411c.611-6.674-4.294-14.02-12.17-17.924-3.462-1.716-7.182-2.624-10.761-2.624-3.792 0-7.147 1.01-9.691 2.828.163-.128.328-.252.498-.373 2.542-1.813 5.894-2.82 9.68-2.82 3.579 0 7.299.908 10.761 2.624 7.877 3.902 12.781 11.25 12.17 17.924a26.343 26.343 0 016.686 2.412c1.45.485 2.773 1.343 3.935 2.55 5.466 4.308 8.693 10.58 8.86 17.221.188 7.449-3.426 14.192-9.203 18.638-.159.122-.32.243-.483.362zM187.091 87.61c.157-.121.315-.239.474-.357 2.798-2.036 6.091-3.378 9.519-3.749.01.106.02.212.032.317-3.61.285-7.09 1.655-10.025 3.789zm64.226-21.827c-5.356-4.798-13.191-7.679-21.607-7.838a45.733 45.733 0 00-.739-.007c-7.82 0-14.843 2.286-19.969 6.038.163-.125.328-.248.495-.371 5.124-3.749 12.145-6.032 19.961-6.032.246 0 .492.003.739.007 8.406.157 16.232 3.032 21.588 7.82-.16.125-.317.252-.468.383z" fill-opacity=".52"/><path d="M258.22 133.435c2.779-2.12 5.33-4.699 7.551-7.661l.146.081a39.054 39.054 0 01-7.216 7.22c-.16.12-.32.241-.481.36zm39.771-11.969c5.786-4.446 9.411-11.197 9.223-18.654-.167-6.64-3.396-12.913-8.86-17.221-1.163-1.207-2.487-2.065-3.937-2.551a26.365 26.365 0 00-6.684-2.411c.611-6.674-4.296-14.02-12.17-17.924-3.463-1.716-7.183-2.622-10.762-2.622-3.791 0-7.144 1.009-9.688 2.824.157-.123.32-.245.484-.363 2.544-1.818 5.899-2.828 9.691-2.828 3.579 0 7.299.908 10.761 2.624 7.876 3.904 12.781 11.25 12.17 17.924a26.358 26.358 0 016.685 2.411c1.452.486 2.774 1.344 3.936 2.551 5.465 4.308 8.694 10.58 8.861 17.221.188 7.447-3.426 14.19-9.2 18.635-.169.131-.339.257-.51.384zM186.602 87.978c.162-.125.325-.248.489-.368 2.935-2.134 6.415-3.504 10.025-3.789.013.111.026.221.041.332-3.799.186-7.477 1.585-10.555 3.825zm64.269-21.794c-5.358-4.82-13.212-7.715-21.649-7.875a60.769 60.769 0 00-.737-.005c-7.827 0-14.858 2.289-19.983 6.047.166-.126.332-.251.5-.375 5.126-3.752 12.149-6.038 19.969-6.038.246 0 .491.003.739.007 8.416.159 16.251 3.04 21.607 7.838a9.436 9.436 0 00-.446.401z" fill-opacity=".52"/><path d="M257.726 133.805c2.922-2.228 5.593-4.963 7.892-8.117l.153.086c-2.221 2.962-4.772 5.541-7.551 7.661-.163.125-.328.249-.494.37zm39.789-11.984c5.783-4.445 9.4-11.192 9.212-18.644-.167-6.64-3.396-12.912-8.86-17.221-1.162-1.207-2.486-2.065-3.937-2.551a26.339 26.339 0 00-6.684-2.41c.611-6.675-4.295-14.021-12.172-17.925-3.461-1.716-7.181-2.622-10.759-2.622-3.789 0-7.143 1.008-9.685 2.821.157-.123.319-.244.483-.362 2.544-1.815 5.897-2.824 9.688-2.824 3.579 0 7.299.906 10.762 2.622 7.874 3.904 12.781 11.25 12.17 17.924a26.365 26.365 0 016.684 2.411c1.45.486 2.774 1.344 3.937 2.551 5.464 4.308 8.693 10.581 8.86 17.221.188 7.457-3.437 14.208-9.223 18.654a26.7 26.7 0 01-.476.355zM186.114 88.343c.161-.124.322-.246.488-.365 3.078-2.24 6.756-3.639 10.555-3.825l.049.346c-3.988.075-7.87 1.498-11.092 3.844zm64.332-21.737c-5.359-4.853-13.241-7.771-21.711-7.929a30.292 30.292 0 00-.739-.008c-7.811 0-14.828 2.281-19.951 6.026.15-.115.303-.23.457-.344 5.125-3.758 12.156-6.047 19.983-6.047.244 0 .49.002.737.005 8.437.16 16.291 3.055 21.649 7.875-.146.137-.288.278-.425.422z" fill-opacity=".52"/><path d="M257.249 134.162c3.058-2.332 5.84-5.221 8.209-8.566l.16.092c-2.299 3.154-4.97 5.889-7.892 8.117-.157.12-.317.24-.477.357zm39.774-11.972c5.784-4.444 9.406-11.193 9.217-18.648-.168-6.64-3.396-12.912-8.86-17.219-1.162-1.209-2.486-2.067-3.937-2.553a26.3 26.3 0 00-6.684-2.41c.61-6.674-4.295-14.021-12.171-17.925-3.461-1.716-7.181-2.622-10.76-2.622-3.791 0-7.144 1.008-9.688 2.824.16-.126.323-.248.49-.368 2.542-1.813 5.896-2.821 9.685-2.821 3.578 0 7.298.906 10.759 2.622 7.877 3.904 12.783 11.25 12.172 17.925a26.339 26.339 0 016.684 2.41c1.451.486 2.775 1.344 3.937 2.551 5.464 4.309 8.693 10.581 8.86 17.221.188 7.452-3.429 14.199-9.212 18.644-.161.125-.326.248-.492.369zM185.637 88.7c.157-.12.317-.239.477-.357 3.222-2.346 7.104-3.769 11.092-3.844.019.122.039.243.06.363l-.213-.001c-4.101 0-8.105 1.432-11.416 3.839zm64.405-21.652c-5.36-4.9-13.28-7.846-21.793-8.006a30.484 30.484 0 00-.738-.008c-7.815 0-14.832 2.281-19.956 6.027.162-.123.325-.246.49-.366 5.123-3.745 12.14-6.026 19.951-6.026.248 0 .492.002.739.008 8.47.158 16.352 3.076 21.711 7.929-.138.144-.275.291-.404.442z" fill-opacity=".52"/><path d="M256.755 134.533c3.2-2.44 6.098-5.49 8.539-9.033l.164.096c-2.369 3.345-5.151 6.234-8.209 8.566a28.92 28.92 0 01-.494.371zm39.781-11.978c5.784-4.444 9.406-11.193 9.217-18.646-.168-6.641-3.396-12.914-8.86-17.221-1.163-1.209-2.486-2.066-3.936-2.553a26.3 26.3 0 00-6.686-2.41c.611-6.674-4.294-14.021-12.17-17.925-3.461-1.714-7.181-2.622-10.761-2.622-3.788 0-7.142 1.008-9.686 2.823.159-.125.32-.246.486-.364 2.544-1.816 5.897-2.824 9.688-2.824 3.579 0 7.299.906 10.76 2.622 7.876 3.904 12.781 11.251 12.171 17.925a26.3 26.3 0 016.684 2.41c1.451.486 2.775 1.344 3.937 2.553 5.464 4.307 8.692 10.579 8.86 17.219.189 7.455-3.433 14.204-9.217 18.648-.161.124-.322.246-.487.365zM185.139 89.074c.163-.126.33-.251.498-.374 3.311-2.407 7.315-3.839 11.416-3.839l.213.001c.023.128.046.255.071.381a17.992 17.992 0 00-.771-.017c-4.106 0-8.114 1.437-11.427 3.848zm64.523-21.564c-5.361-4.958-13.331-7.943-21.9-8.105a45.733 45.733 0 00-.739-.007c-7.818 0-14.841 2.286-19.965 6.037.163-.125.33-.25.497-.374 5.124-3.746 12.141-6.027 19.956-6.027.244 0 .49.002.738.008 8.513.16 16.433 3.106 21.793 8.006-.131.151-.259.305-.38.462z" fill-opacity=".52"/><path d="M256.282 134.888c3.334-2.546 6.34-5.75 8.84-9.488.057.033.113.067.172.1-2.441 3.543-5.339 6.593-8.539 9.033-.156.12-.314.239-.473.355zm39.767-11.968c5.784-4.446 9.404-11.193 9.216-18.646-.167-6.641-3.394-12.914-8.86-17.221-1.162-1.207-2.485-2.065-3.937-2.551a26.315 26.315 0 00-6.684-2.412c.611-6.674-4.293-14.021-12.17-17.925-3.461-1.714-7.182-2.622-10.761-2.622-3.786 0-7.138 1.007-9.68 2.82.157-.124.317-.244.481-.362 2.544-1.815 5.898-2.823 9.686-2.823 3.58 0 7.3.908 10.761 2.622 7.876 3.904 12.781 11.251 12.17 17.925a26.3 26.3 0 016.686 2.41c1.45.487 2.773 1.344 3.936 2.553 5.464 4.307 8.692 10.58 8.86 17.221.189 7.453-3.433 14.202-9.217 18.646-.16.124-.323.246-.487.365zM184.653 89.438c.16-.124.323-.246.486-.364 3.313-2.411 7.321-3.848 11.427-3.848.257 0 .515.006.771.017.026.133.054.265.084.397l-.001.005a17.07 17.07 0 00-1.34-.054c-4.105 0-8.114 1.435-11.427 3.847zm64.65-21.443c-5.361-5.03-13.389-8.062-22.028-8.225a45.625 45.625 0 00-.739-.007c-7.817 0-14.837 2.285-19.961 6.034.159-.122.32-.243.483-.362 5.124-3.751 12.147-6.037 19.965-6.037.245 0 .492.003.739.007 8.569.162 16.539 3.147 21.9 8.105-.124.159-.243.32-.359.485z" fill-opacity=".52"/><path d="M255.782 135.263c3.477-2.652 6.6-6.024 9.164-9.969l.176.106c-2.5 3.738-5.506 6.942-8.84 9.488-.166.127-.333.252-.5.375zm39.799-11.991c5.774-4.446 9.385-11.187 9.197-18.633-.166-6.641-3.394-12.913-8.858-17.221-1.164-1.207-2.486-2.065-3.937-2.551a26.291 26.291 0 00-6.686-2.412c.611-6.674-4.293-14.02-12.17-17.923-3.462-1.716-7.182-2.624-10.761-2.624-3.787 0-7.14 1.007-9.682 2.82.159-.125.323-.247.489-.365 2.542-1.813 5.894-2.82 9.68-2.82 3.579 0 7.3.908 10.761 2.622 7.877 3.904 12.781 11.251 12.17 17.925a26.315 26.315 0 016.684 2.412c1.452.486 2.775 1.344 3.937 2.551 5.466 4.307 8.693 10.58 8.86 17.221.188 7.453-3.432 14.2-9.216 18.646-.154.12-.311.237-.468.352zM184.15 89.816c.166-.129.333-.255.503-.378 3.313-2.412 7.322-3.847 11.427-3.847.448 0 .896.019 1.34.054-.009.137-.016.273-.023.409a16.922 16.922 0 00-1.804-.096c-4.113 0-8.127 1.439-11.443 3.858zm64.817-21.312c-5.361-5.115-13.459-8.204-22.179-8.369a45.625 45.625 0 00-.739-.007c-7.813 0-14.83 2.282-19.952 6.028.157-.122.317-.241.478-.359 5.124-3.749 12.144-6.034 19.961-6.034.246 0 .492.003.739.007 8.639.163 16.667 3.195 22.028 8.225-.117.167-.229.336-.336.509z" fill-opacity=".52"/><path d="M255.295 135.63c3.615-2.76 6.85-6.297 9.469-10.447l.182.111c-2.564 3.945-5.687 7.317-9.164 9.969-.161.124-.324.246-.487.367zm39.797-11.991c5.774-4.446 9.388-11.189 9.2-18.635-.167-6.641-3.396-12.913-8.86-17.221-1.163-1.207-2.485-2.065-3.937-2.551a26.312 26.312 0 00-6.685-2.412c.612-6.674-4.294-14.02-12.17-17.923-3.46-1.716-7.182-2.624-10.761-2.624-3.789 0-7.144 1.01-9.686 2.825.026-.021.052-.043.08-.063.133-.105.272-.206.411-.307 2.542-1.813 5.895-2.82 9.682-2.82 3.579 0 7.299.908 10.761 2.624 7.877 3.903 12.781 11.249 12.17 17.923a26.291 26.291 0 016.686 2.412c1.451.486 2.773 1.344 3.937 2.551 5.464 4.308 8.692 10.58 8.858 17.221.188 7.446-3.423 14.187-9.197 18.633-.162.124-.325.246-.489.367zm-111.41-33.473c.154-.119.311-.235.468-.35 3.316-2.419 7.33-3.858 11.443-3.858.605 0 1.207.032 1.804.096-.006.142-.012.283-.016.423a16.571 16.571 0 00-2.275-.154c-4.104 0-8.111 1.435-11.424 3.843zm64.972-21.13c-5.358-5.215-13.537-8.37-22.353-8.536a45.719 45.719 0 00-.738-.007c-7.818 0-14.842 2.286-19.965 6.037.163-.126.33-.251.499-.374 5.122-3.746 12.139-6.028 19.952-6.028.246 0 .492.003.739.007 8.72.165 16.818 3.254 22.179 8.369-.108.174-.212.352-.313.532z" fill-opacity=".52"/><path d="M237.154 142.228c-10.717 0-20.531-6.648-23.623-15.727-4.088 2.077-8.765 3.207-13.354 3.207-4.715 0-9.225-1.17-13.044-3.382-8.799-5.096-13.556-15.969-11.068-25.295 2.239-8.385 10.425-14.708 19.041-14.708.765 0 1.524.05 2.275.154.008-.277.021-.556.04-.838a16.73 16.73 0 01-.406-3.946c.224-11.888 12.764-21.2 28.548-21.2.245 0 .492.003.738.007 8.816.168 16.995 3.322 22.353 8.536 2.334-4.244 7.236-6.763 13.225-6.763 3.579 0 7.299.908 10.761 2.624 7.876 3.903 12.782 11.249 12.17 17.923a26.36 26.36 0 016.685 2.412c1.452.486 2.774 1.344 3.937 2.551 5.464 4.308 8.693 10.58 8.86 17.221.326 12.928-10.801 23.731-24.805 24.083-.236.006-.472.008-.707.008-5.045 0-9.859-1.346-14.016-3.912-5.957 9.438-15.092 15.706-24.685 16.871-.96.115-1.941.174-2.925.174z"/></g><g fill="#fff" fill-rule="nonzero"><path d="M133.545 244.391a39.025 39.025 0 006.877-6.78l.135.072a38.656 38.656 0 01-7.012 6.708zm39.801-11.993c5.776-4.446 9.39-11.188 9.203-18.637-.167-6.641-3.395-12.914-8.86-17.222-1.162-1.207-2.486-2.065-3.936-2.549a26.352 26.352 0 00-6.685-2.413c.61-6.674-4.294-14.021-12.171-17.923-3.461-1.717-7.181-2.624-10.76-2.624-3.786 0-7.138 1.006-9.681 2.82 2.595-2.043 6.135-3.185 10.168-3.185 3.579 0 7.299.907 10.761 2.622 7.875 3.904 12.781 11.251 12.17 17.925a26.293 26.293 0 016.684 2.413c1.451.484 2.775 1.342 3.937 2.549 5.464 4.308 8.693 10.581 8.86 17.222.193 7.655-3.63 14.565-9.69 19.002zM61.927 198.932c2.761-2.135 6.05-3.582 9.494-4.052l.024.303c-3.427.37-6.72 1.713-9.518 3.749zm64.22-21.853c-5.356-4.788-13.182-7.663-21.589-7.82a36.475 36.475 0 00-.738-.008c-7.816 0-14.838 2.284-19.962 6.033 5.161-3.965 12.381-6.398 20.449-6.398.246 0 .491.003.739.007 8.404.158 16.232 3.033 21.588 7.821l-.08.062c-.138.099-.275.199-.407.303z" fill-opacity=".52"/><path d="M133.063 244.753c2.639-2.014 5.075-4.442 7.216-7.219.048.024.095.051.143.077a39.025 39.025 0 01-7.359 7.142zm39.8-11.993c5.774-4.444 9.388-11.188 9.2-18.634-.167-6.641-3.396-12.914-8.861-17.221-1.162-1.208-2.485-2.066-3.936-2.551a26.368 26.368 0 00-6.686-2.412c.611-6.674-4.293-14.02-12.17-17.923-3.461-1.716-7.181-2.624-10.761-2.624-3.791 0-7.146 1.009-9.69 2.827.163-.128.327-.251.497-.372 2.543-1.814 5.895-2.82 9.681-2.82 3.579 0 7.299.907 10.76 2.624 7.877 3.902 12.781 11.249 12.171 17.923a26.352 26.352 0 016.685 2.413c1.45.484 2.774 1.342 3.936 2.549 5.465 4.308 8.693 10.581 8.86 17.222.187 7.449-3.427 14.191-9.203 18.637-.159.122-.32.243-.483.362zm-111.41-33.472c.157-.12.315-.238.474-.356 2.798-2.036 6.091-3.379 9.518-3.749l.032.317c-3.609.285-7.09 1.655-10.024 3.788zm64.226-21.827c-5.357-4.798-13.191-7.679-21.608-7.837a36.494 36.494 0 00-.739-.008c-7.82 0-14.843 2.287-19.968 6.039.163-.125.327-.249.494-.371 5.124-3.749 12.146-6.033 19.962-6.033.245 0 .491.003.738.008 8.407.157 16.233 3.032 21.589 7.82-.16.125-.317.251-.468.382z" fill-opacity=".52"/><path d="M132.581 245.114c2.779-2.121 5.33-4.699 7.551-7.662.05.028.099.054.147.082-2.141 2.777-4.577 5.205-7.216 7.219-.16.121-.32.242-.482.361zm39.771-11.97c5.787-4.446 9.411-11.197 9.224-18.653-.167-6.641-3.396-12.914-8.86-17.221-1.164-1.208-2.487-2.066-3.937-2.551a26.381 26.381 0 00-6.684-2.412c.61-6.674-4.297-14.02-12.171-17.923-3.462-1.716-7.183-2.623-10.762-2.623-3.79 0-7.144 1.01-9.687 2.825.157-.124.32-.246.484-.364 2.544-1.818 5.899-2.827 9.69-2.827 3.58 0 7.3.908 10.761 2.624 7.877 3.903 12.781 11.249 12.17 17.923a26.368 26.368 0 016.686 2.412c1.451.485 2.774 1.343 3.936 2.551 5.465 4.307 8.694 10.58 8.861 17.221.188 7.446-3.426 14.19-9.2 18.634-.169.131-.339.258-.511.384zM60.964 199.656c.161-.125.324-.247.489-.368 2.934-2.133 6.415-3.503 10.024-3.788l.041.331c-3.799.186-7.477 1.586-10.554 3.825zm64.268-21.793c-5.358-4.82-13.211-7.716-21.648-7.876a60.684 60.684 0 00-.737-.004c-7.828 0-14.858 2.289-19.983 6.047.165-.126.331-.252.5-.375 5.125-3.752 12.148-6.039 19.968-6.039.246 0 .492.003.739.008 8.417.158 16.251 3.039 21.608 7.837a9.48 9.48 0 00-.447.402z" fill-opacity=".52"/><path d="M132.088 245.483c2.922-2.228 5.592-4.962 7.892-8.117l.152.086c-2.221 2.963-4.772 5.541-7.551 7.662-.163.125-.327.249-.493.369zm39.789-11.984c5.782-4.444 9.399-11.191 9.212-18.643-.168-6.641-3.396-12.912-8.86-17.221-1.162-1.207-2.486-2.066-3.937-2.551a26.294 26.294 0 00-6.685-2.41c.611-6.676-4.294-14.022-12.171-17.925-3.462-1.716-7.182-2.623-10.76-2.623-3.788 0-7.142 1.008-9.684 2.822.157-.124.318-.244.483-.362 2.543-1.815 5.897-2.825 9.687-2.825 3.579 0 7.3.907 10.762 2.623 7.874 3.903 12.781 11.249 12.171 17.923a26.381 26.381 0 016.684 2.412c1.45.485 2.773 1.343 3.937 2.551 5.464 4.307 8.693 10.58 8.86 17.221.187 7.456-3.437 14.207-9.224 18.653-.157.121-.315.239-.475.355zM60.475 200.021c.162-.123.323-.246.489-.365 3.077-2.239 6.755-3.639 10.554-3.825.016.115.032.231.05.346-3.988.076-7.87 1.498-11.093 3.844zm64.333-21.737c-5.36-4.853-13.241-7.77-21.711-7.929a30.345 30.345 0 00-.739-.007c-7.811 0-14.829 2.28-19.951 6.025.15-.115.303-.23.457-.343 5.125-3.758 12.155-6.047 19.983-6.047.244 0 .49.001.737.004 8.437.16 16.29 3.056 21.648 7.876a9.904 9.904 0 00-.424.421z" fill-opacity=".52"/><path d="M131.611 245.841c3.057-2.333 5.839-5.221 8.209-8.566l.16.091c-2.3 3.155-4.97 5.889-7.892 8.117-.157.121-.317.24-.477.358zm39.774-11.972c5.784-4.445 9.405-11.193 9.216-18.648-.167-6.641-3.396-12.912-8.86-17.22-1.162-1.208-2.485-2.067-3.937-2.552a26.249 26.249 0 00-6.684-2.41c.611-6.674-4.295-14.022-12.17-17.925-3.461-1.716-7.182-2.622-10.761-2.622-3.79 0-7.144 1.007-9.687 2.824.16-.127.323-.249.49-.368 2.542-1.814 5.896-2.822 9.684-2.822 3.578 0 7.298.907 10.76 2.623 7.877 3.903 12.782 11.249 12.171 17.925a26.294 26.294 0 016.685 2.41c1.451.485 2.775 1.344 3.937 2.551 5.464 4.309 8.692 10.58 8.86 17.221.187 7.452-3.43 14.199-9.212 18.643-.162.125-.326.249-.492.37zm-111.387-33.49c.157-.121.317-.24.477-.358 3.223-2.346 7.105-3.768 11.093-3.844l.059.364c-.07-.002-.141-.002-.212-.002-4.101 0-8.105 1.433-11.417 3.84zm64.405-21.653c-5.359-4.899-13.28-7.846-21.792-8.006a30.538 30.538 0 00-.739-.007c-7.814 0-14.831 2.28-19.955 6.027.161-.124.324-.246.49-.367 5.122-3.745 12.14-6.025 19.951-6.025.247 0 .492.001.739.007 8.47.159 16.351 3.076 21.711 7.929-.139.144-.275.291-.405.442z" fill-opacity=".52"/><path d="M131.117 246.212c3.199-2.441 6.098-5.49 8.538-9.033l.165.096c-2.37 3.345-5.152 6.233-8.209 8.566-.164.125-.329.249-.494.371zm39.781-11.978c5.784-4.445 9.405-11.193 9.216-18.647-.167-6.64-3.396-12.913-8.86-17.221-1.162-1.208-2.485-2.065-3.935-2.552a26.263 26.263 0 00-6.686-2.41c.611-6.674-4.295-14.022-12.17-17.925-3.462-1.715-7.182-2.622-10.761-2.622-3.789 0-7.142 1.007-9.686 2.822a11.8 11.8 0 01.486-.363c2.543-1.817 5.897-2.824 9.687-2.824 3.579 0 7.3.906 10.761 2.622 7.875 3.903 12.781 11.251 12.17 17.925a26.249 26.249 0 016.684 2.41c1.452.485 2.775 1.344 3.937 2.552 5.464 4.308 8.693 10.579 8.86 17.22.189 7.455-3.432 14.203-9.216 18.648-.161.123-.323.245-.487.365zM59.501 200.753c.163-.127.33-.252.497-.374 3.312-2.407 7.316-3.84 11.417-3.84.071 0 .142 0 .212.002l.072.381a16.496 16.496 0 00-.771-.017c-4.106 0-8.114 1.436-11.427 3.848zm64.523-21.564c-5.361-4.958-13.331-7.944-21.9-8.105a36.653 36.653 0 00-.739-.008c-7.819 0-14.842 2.287-19.966 6.038.163-.126.331-.251.498-.374 5.124-3.747 12.141-6.027 19.955-6.027.245 0 .49.001.739.007 8.512.16 16.433 3.107 21.792 8.006a10.22 10.22 0 00-.379.463z" fill-opacity=".52"/><path d="M130.644 246.567c3.333-2.547 6.339-5.751 8.84-9.489l.171.101c-2.44 3.543-5.339 6.592-8.538 9.033-.156.119-.315.238-.473.355zm39.767-11.968c5.784-4.446 9.404-11.193 9.216-18.647-.167-6.64-3.395-12.913-8.86-17.221-1.162-1.207-2.486-2.065-3.937-2.551a26.313 26.313 0 00-6.684-2.411c.611-6.674-4.294-14.022-12.17-17.925-3.462-1.715-7.182-2.622-10.761-2.622-3.786 0-7.138 1.006-9.68 2.82.157-.124.317-.245.481-.363 2.544-1.815 5.897-2.822 9.686-2.822 3.579 0 7.299.907 10.761 2.622 7.875 3.903 12.781 11.251 12.17 17.925a26.263 26.263 0 016.686 2.41c1.45.487 2.773 1.344 3.935 2.552 5.464 4.308 8.693 10.581 8.86 17.221.189 7.454-3.432 14.202-9.216 18.647-.16.123-.323.246-.487.365zM59.015 201.116c.16-.123.323-.245.486-.363 3.313-2.412 7.321-3.848 11.427-3.848.257 0 .515.005.771.017.026.132.053.265.084.397l-.002.004a17.523 17.523 0 00-1.339-.053c-4.106 0-8.114 1.435-11.427 3.846zm64.649-21.443c-5.36-5.029-13.388-8.061-22.027-8.224a36.574 36.574 0 00-.739-.008c-7.817 0-14.838 2.285-19.961 6.035.158-.123.32-.243.482-.362 5.124-3.751 12.147-6.038 19.966-6.038.244 0 .492.003.739.008 8.569.161 16.539 3.147 21.9 8.105-.124.158-.243.32-.36.484z" fill-opacity=".52"/><path d="M130.144 246.942c3.477-2.653 6.6-6.024 9.164-9.97.058.037.117.072.176.106-2.501 3.738-5.507 6.942-8.84 9.489-.166.126-.333.251-.5.375zm39.798-11.991c5.774-4.446 9.385-11.187 9.198-18.634-.166-6.64-3.395-12.913-8.859-17.221-1.163-1.207-2.485-2.065-3.937-2.551a26.275 26.275 0 00-6.686-2.411c.611-6.674-4.293-14.02-12.17-17.924-3.461-1.716-7.181-2.623-10.76-2.623-3.788 0-7.14 1.006-9.682 2.82.158-.125.323-.248.489-.365 2.542-1.814 5.894-2.82 9.68-2.82 3.579 0 7.299.907 10.761 2.622 7.876 3.903 12.781 11.251 12.17 17.925a26.313 26.313 0 016.684 2.411c1.451.486 2.775 1.344 3.937 2.551 5.465 4.308 8.693 10.581 8.86 17.221.188 7.454-3.432 14.201-9.216 18.647-.155.119-.312.237-.469.352zm-111.43-33.457c.166-.129.333-.254.503-.378 3.313-2.411 7.321-3.846 11.427-3.846.448 0 .896.019 1.339.053l-.023.409a16.889 16.889 0 00-1.803-.096c-4.113 0-8.127 1.44-11.443 3.858zm64.816-21.312c-5.36-5.115-13.458-8.204-22.179-8.368a45.61 45.61 0 00-.738-.007c-7.813 0-14.831 2.281-19.953 6.028.157-.122.317-.241.479-.359 5.123-3.75 12.144-6.035 19.961-6.035.246 0 .491.003.739.008 8.639.163 16.667 3.195 22.027 8.224-.116.167-.228.336-.336.509z" fill-opacity=".52"/><path d="M129.656 247.308c3.616-2.76 6.85-6.297 9.47-10.446.059.036.12.074.182.11-2.564 3.946-5.687 7.317-9.164 9.97a32.64 32.64 0 01-.488.366zm39.798-11.991c5.773-4.446 9.388-11.188 9.2-18.635-.167-6.64-3.396-12.913-8.86-17.221-1.164-1.207-2.486-2.065-3.937-2.551a26.303 26.303 0 00-6.686-2.411c.613-6.674-4.293-14.02-12.17-17.924-3.46-1.716-7.181-2.623-10.761-2.623-3.788 0-7.143 1.009-9.686 2.824l.08-.062c.134-.105.272-.207.412-.307 2.542-1.814 5.894-2.82 9.682-2.82 3.579 0 7.299.907 10.76 2.623 7.877 3.904 12.781 11.25 12.17 17.924a26.275 26.275 0 016.686 2.411c1.452.486 2.774 1.344 3.937 2.551 5.464 4.308 8.693 10.581 8.859 17.221.187 7.447-3.424 14.188-9.198 18.634-.161.123-.324.246-.488.366zM58.043 201.845c.155-.119.312-.236.469-.351 3.316-2.418 7.33-3.858 11.443-3.858.605 0 1.207.032 1.803.096l-.016.423a16.705 16.705 0 00-2.274-.154c-4.105 0-8.111 1.436-11.425 3.844zm64.973-21.13c-5.358-5.216-13.537-8.37-22.354-8.536a45.595 45.595 0 00-.737-.007c-7.819 0-14.842 2.286-19.966 6.037.163-.127.33-.252.499-.374 5.122-3.747 12.14-6.028 19.953-6.028.245 0 .491.003.738.007 8.721.164 16.819 3.253 22.179 8.368-.107.175-.212.352-.312.533z" fill-opacity=".52"/><path d="M111.516 253.907c-10.717 0-20.531-6.648-23.623-15.728-4.088 2.077-8.766 3.207-13.354 3.207-4.715 0-9.225-1.169-13.044-3.381-8.799-5.096-13.556-15.969-11.068-25.296 2.238-8.384 10.425-14.708 19.041-14.708.765 0 1.524.051 2.274.154.009-.276.022-.555.041-.837a16.735 16.735 0 01-.406-3.946c.224-11.888 12.764-21.2 28.548-21.2.244 0 .491.003.737.007 8.817.167 16.996 3.322 22.354 8.536 2.334-4.244 7.235-6.763 13.224-6.763 3.58 0 7.3.907 10.761 2.623 7.877 3.904 12.783 11.25 12.17 17.924a26.327 26.327 0 016.686 2.411c1.451.486 2.773 1.344 3.937 2.551 5.464 4.308 8.693 10.581 8.86 17.221.326 12.928-10.802 23.731-24.806 24.083-.235.006-.471.009-.706.009-5.046 0-9.86-1.347-14.016-3.912-5.957 9.437-15.092 15.705-24.685 16.87-.96.115-1.942.175-2.925.175z"/></g><path d="M168.626 558.209c1.742-2.47 5.934-6.188 7.63-7.3 2.101-.561 12.657 25.825 8.744 39.091 39.954-3.179 57.448 18.394 61.837 50.546-2.231.364-4.822.925-6.803 1.387-.715.166-1.474.396-1.474.396s-29.766-46.451-63.304-42.562c0 0 .631-27.495-6.63-41.558z" fill="#a7d5e8"/><path d="M545.153 701.989a77.02 77.02 0 00-8.301-2.27c1.781-19.47-12.523-40.89-35.49-52.27-10.093-5.01-20.942-7.65-31.378-7.65-15.73 0-28.885 5.961-36.315 16.18-.075.11-.149.21-.223.31l-.146.211c-.027.039-.054.069-.081.109-.053.08-.107.151-.16.23a.131.131 0 00-.029.041l-.021.029-.087.12c-.013.02-.025.03-.037.05-.017.02-.034.051-.051.07-.002 0-.005.01-.007.01l-.039.06-.071.09c-.037.061-.075.11-.112.16l-.043.06a.98.98 0 01-.071.101c-.032.039-.064.089-.095.13-.009.019-.019.029-.028.039-.019.03-.037.06-.056.081-.033.049-.066.089-.098.139-.025.03-.05.07-.075.101l-.105.149-.109.15c-.011.02-.022.03-.032.05-.006.01-.011.01-.016.021l-.085.119c-.038.05-.077.11-.115.16-.03.04-.061.09-.091.13-.011.01-.021.03-.031.04-.019.03-.036.051-.054.08-.047.06-.094.13-.14.19-.011.02-.022.031-.033.051-.018.019-.035.049-.053.069l-.019.03c-15.63-15.109-39.403-24.25-65.018-24.73-.722-.01-1.439-.02-2.154-.02-.262 0-.52.01-.78.01-.261 0-.519-.01-.781-.01-.715 0-1.432.01-2.154.02-25.356.48-48.908 9.44-64.543 24.27-.362-.05-.723-.11-1.088-.159-6.968-11.911-21.022-18.941-38.115-18.941-3.235 0-6.511.25-9.789.75-.317-2.28-.77-4.55-1.368-6.79-6.529-24.451-30.398-42.891-55.522-42.891-2.23 0-4.446.152-6.631.449a76.28 76.28 0 00-.118-2.441 48.953 48.953 0 001.18-11.509c-.179-9.522-3.068-18.476-8.119-26.458 6.222-4.493 13.809-7.131 21.997-7.131a37.336 37.336 0 0118.203 4.72c1.828-19.931 18.165-35.529 38.073-35.529 18.458 0 33.861 13.413 37.46 31.256 9.233-17.736 27.448-29.808 48.418-29.808 30.304 0 54.867 25.198 54.867 56.287a57.89 57.89 0 01-1.317 12.243c5.979-3.969 13.091-6.301 20.746-6.301 21.129 0 38.258 17.572 38.258 39.253 0 1.37-.07 2.72-.203 4.05 6.5-5.24 14.674-8.384 23.582-8.384 4.028 0 7.907.647 11.552 1.834a59.446 59.446 0 01-.127-3.667c0-31.089 24.564-56.288 54.866-56.288 26.33 0 48.318 19.03 53.633 44.411 6.597-5.55 15.035-8.884 24.236-8.884 21.128 0 38.257 17.571 38.257 39.248 0 .75-.068 1.49-.109 2.23 6.992-7.8 16.992-12.73 28.14-12.73 17.769 0 32.666 12.45 36.968 29.3a53.957 53.957 0 0118.43-9.37c11.574-3.688 10.923 1.588 5.258 4.991-.341.206-.526.6-.785.899-.259.29-.515.581-.769.88-.267.3-.531.6-.793.9-.261.29-.521.59-.777.89-.266.301-.53.6-.791.9-.263.3-.525.6-.783.901-.267.299-.533.599-.795.909-.256.28-.512.581-.763.87-3.191 3.581-15.523 14.781-17.913 18.931-1.067.49-10.107 4.06-11.134 4.61-10.534-11.249-18.361-22.078-34.389-28.379-.407-.16-4.657-.83-5.096-.82-1.843.05-3.475-.84-5.265-.57-13.988 2.081-24.983 7.03-35.235 18.939-.261.29-.986-.69-1.243-.401-.263.3-.688.201-.947.501-.266.301.372 1.08.11 1.38-.262.3-.191 3.131-1.023.235-.107-.374-.271.754-.526 1.045-.267.299-.941-.293-1.204.007-.258.29-.267.171-.522.471-.27.3.119 1.347-1.048.018-.926-1.055-2.332.573-3.215 1.683-7.261-3.97-15.453-6.04-23.974-6.04-.476 0-.952.01-1.43.02-.442.01-.882.03-1.325.05-14.283.75-26.811 7.26-35.062 16.94-.264.29-.524.59-.779.89-.266.29-.526.59-.784.89-.267.3-.53.6-.79.9-.262.3-.521.59-.775.89-.266.3-.53.6-.787.9-.263.29-.522.59-.777.89-.265.29-.526.59-.782.89-.268.3-.533.6-.793.91-4.275 4.76-7.49 10.34-9.327 16.42zm-63.433-83.14c-3.86 0-3.867 6 0 6 3.861 0 3.867-6 0-6zM778.057 619.489c5.58-14.188 16.633-25.511 30.477-31.209a69.57 69.57 0 00-7.276 30.949c0 .01 2.113 15.02 2.113 15.03-3.58-.57-24.248 14.352-27.237 14.193-.117-.006-7.507-4.99 1.923-28.963z" fill="#a7d5e8" fill-rule="nonzero"/><g fill="#a7d5e8"><path d="M942.162 583.493c-5.153-11.93-13.42-21.887-23.575-29.115a57.88 57.88 0 01-.351-6.267c0-31.089 24.562-56.289 54.866-56.289a53.501 53.501 0 0121.952 4.687c-.2.231-.4.46-.6.693-.02.016-.03.032-.05.048-.23.269-.47.539-.7.811-.03.028-.05.055-.08.084-.25.28-.49.563-.74.846-.01.016-.03.032-.04.048-.24.269-.48.541-.71.813-.03.026-.05.055-.07.081-.25.281-.5.562-.74.845-.02.016-.03.034-.05.05-.24.269-.47.541-.71.813a.505.505 0 01-.07.081c-11.783 13.276-17.581 29.791-17.594 46.246-.005 5.266 1.757 15.672 1.757 15.672l2.306 7.858s-25.016 2.631-31.06 9.723a47.16 47.16 0 00-.782.894 47.16 47.16 0 00-.782.894c-.262.292-.52.587-.774.885-.269.299-.533.601-.794.907-.206.229-.408-1.541-.609-1.308z" fill-rule="nonzero"/><path d="M943.172 583.493c-5.804-13.363-15.59-23.182-24.469-29.059-10.308-6.823-22.089-8.333-35.516-3.906L936.03 593"/></g><path d="M389.41 724.319c-4.72-4.69-8.986-9.94-12.919-15.35-3.422 1.48-6.579 3.7-9.406 6.63l-.103.09c-5.919-2.91-12.442-4.65-19.073-4.88-4.799-.16-9.399.45-13.734 1.82-.064-.25-.129-.51-.197-.76a38.74 38.74 0 00-.873-9.04c-4.603-21.06-26.359-35.86-54.136-36.82-7.071-.25-14.276.42-21.417 1.98-7.052 1.54-13.746 3.91-19.889 6.96 3.183-10.87 3.638-22.36.76-33.14-6.53-24.45-30.4-42.89-55.523-42.89-2.23 0-4.446.151-6.632.448-.026-.805 1.132-10.137 1.063-13.949-.652-34.663-37.218-61.815-83.243-61.815-.716 0-1.433.008-2.154.02-25.708.484-49.559 9.684-65.187 24.891-6.803-12.378-21.096-19.721-38.559-19.721-2.242 0-4.503.129-6.771.37v313.546h453.836v-86.58c-4.245-2.14-8.442-4.37-12.555-6.77-11.909-6.96-23.5-15.31-33.288-25.04zM1188.96 514.085c-25.96-13.849-58.48-9.966-80.47 10.628-3.81-10.763-10.31-20.741-19.45-28.856-28.83-25.593-72.95-22.968-98.55 5.865-17.487 19.702-21.791 46.538-13.571 69.727a45.49 45.49 0 00-14.004 1.1c-11.834 2.806-21.448 10.019-27.601 19.463-13.036-30.797-46.736-48.621-80.363-40.643-35.375 8.392-58.009 42.331-53.007 77.63a69.435 69.435 0 00-34.792-.65c-22.036 5.22-39.12 20.37-47.671 39.57a55.68 55.68 0 00-6.876 3.11c-6.262-16.87-25.006-28.84-45.107-28.3a45.05 45.05 0 00-5.475.48c-17.938 2.671-34.754 14.89-45.449 32.89-7.926-4.6-17.025-6.88-26.489-6.63-.441.01-.881.03-1.325.05-26.247 1.37-46.572 22.2-45.307 46.43.651 12.45 7.024 24.05 17.491 31.85 2.242 2.21 4.767 3.75 7.513 4.59a49.125 49.125 0 0012.661 4.18c-.808 12.55 8.765 26.08 23.735 33.01 6.58 3.04 13.604 4.55 20.317 4.37 11.234-.3 20.3-5.27 24.461-13.35 4.162 3.84 9.179 7.01 14.757 9.43l-79.201 83.88 574.593-49.31v-65.54a69.585 69.585 0 0023.45-17.26c1.3-1.47 2.52-2.99 3.67-4.53.06 4.4.75 8.79 2.06 13.02V514.085z" fill="#e7f4f9" fill-rule="nonzero"/><path d="M1623.32 505.484c-25.96-13.849-58.48-9.966-80.47 10.628-3.81-10.763-10.31-20.741-19.45-28.856-28.83-25.593-72.95-22.968-98.55 5.865-17.487 19.702-21.791 46.538-13.571 69.727a45.49 45.49 0 00-14.004 1.1c-11.834 2.806-21.448 10.019-27.601 19.463-13.036-30.797-46.736-48.621-80.363-40.643-35.375 8.392-58.009 42.331-53.007 77.63a69.435 69.435 0 00-34.792-.65c-22.036 5.22-39.12 20.37-47.671 39.57a55.68 55.68 0 00-6.876 3.11c-6.262-16.87-25.006-28.84-45.107-28.3a45.05 45.05 0 00-5.475.48c-17.938 2.671-34.754 14.89-45.449 32.89-7.926-4.6-17.025-6.88-26.489-6.63-.441.01-.881.03-1.325.05-26.247 1.37-46.572 22.2-45.307 46.43.651 12.45 7.024 24.05 17.491 31.85 2.242 2.21 4.767 3.75 7.513 4.59a49.125 49.125 0 0012.661 4.18c-.808 12.55 8.765 26.08 23.735 33.01 6.58 3.04 13.604 4.55 20.317 4.37 11.234-.3 20.3-5.27 24.461-13.35 4.162 3.84 9.179 7.01 14.757 9.43l-79.201 83.88 574.593-49.31v-65.54a69.585 69.585 0 0023.45-17.26c1.3-1.47 2.52-2.99 3.67-4.53.06 4.4.75 8.79 2.06 13.02V505.484z" fill="#e7f4f9" fill-rule="nonzero"/><clipPath id="c"><path d="M792.371 635.42h227.698v281.084H792.371z"/></clipPath><g clip-path="url(#c)"><clipPath id="d"><path d="M856.71 635.42h746.359v192.084H856.71z"/></clipPath><g clip-path="url(#d)"><path d="M2057.49 640.61c-17.47 0-31.76 7.34-38.56 19.72-15.63-15.21-39.48-24.4-65.19-24.89-.72-.01-1.44-.02-2.15-.02-46.03 0-82.59 27.15-83.24 61.81-.07 3.82.32 7.69 1.18 11.51-.06.83-.1 1.64-.12 2.45-2.19-.3-4.4-.45-6.633-.45-25.123 0-48.994 18.44-55.524 42.89-2.877 10.78-2.422 22.27.762 33.14-6.145-3.05-12.839-5.42-19.891-6.96-7.14-1.57-14.345-2.23-21.416-1.99-27.777.97-49.533 15.77-54.136 36.83-.64 2.92-.933 5.95-.874 9.04-.067.25-.132.5-.197.76-4.335-1.38-8.934-1.99-13.733-1.82-6.631.23-13.154 1.97-19.072 4.87l-.104-.08c-3.39-3.52-7.248-6.02-11.478-7.44-6.086-3.19-12.627-5.55-19.494-7.03 1.782-19.46-12.522-40.88-35.49-52.27-10.093-5-20.941-7.65-31.378-7.65-17.465 0-31.757 7.35-38.56 19.73-15.627-15.21-39.48-24.41-65.186-24.89-.722-.02-1.439-.02-2.155-.02-6.154 0-12.138.49-17.891 1.41-4.412-8.69-10.805-16.52-18.871-22.88-3.39-3.52-7.248-6.02-11.479-7.44-6.086-3.19-12.626-5.55-19.493-7.03 1.781-19.46-12.523-40.88-35.49-52.269-10.094-5-20.942-7.651-31.378-7.651-17.465 0-31.757 7.35-38.561 19.73-15.627-15.21-39.479-24.41-65.186-24.89-.721-.02-1.439-.02-2.154-.02-.261 0-.52 0-.78.01-.26-.01-.518-.01-.78-.01-.715 0-1.432 0-2.154.02-25.707.48-49.559 9.68-65.186 24.89-6.803-12.38-21.095-19.73-38.56-19.73-10.437 0-21.285 2.651-31.378 7.651-22.967 11.389-37.272 32.809-35.49 52.269-6.867 1.48-13.407 3.84-19.493 7.03-4.231 1.42-8.089 3.92-11.479 7.44-8.067 6.36-14.459 14.19-18.871 22.88a113.341 113.341 0 00-17.893-1.41c-.714 0-1.432 0-2.153.02-25.707.48-44.559 9.68-60.186 24.89-6.804-12.38-26.096-19.73-43.561-19.73-9.851 0-20.068 2.36-29.671 6.83v147.38h1207.55V640.98c-2.27-.24-4.53-.37-6.77-.37z" fill="#fff" fill-rule="nonzero"/></g></g><clipPath id="e"><path d="M171.579 624.405H330.06V727.76H171.579z"/></clipPath><g clip-path="url(#e)"><path d="M545.217 839.705c-4.72-4.69-8.986-9.94-12.919-15.35-3.422 1.48-6.579 3.7-9.406 6.63l-.103.09c-5.919-2.91-12.442-4.65-19.073-4.88-4.799-.16-9.399.45-13.734 1.82-.064-.25-.129-.51-.197-.76a38.74 38.74 0 00-.873-9.04c-4.603-21.06-26.359-35.86-54.136-36.82-7.071-.25-14.276.42-21.417 1.98-7.052 1.54-13.746 3.91-19.889 6.96 3.183-10.87 3.638-22.36.76-33.14-6.53-24.45-30.4-42.89-55.523-42.89-2.23 0-4.446.151-6.632.448a73.444 73.444 0 00-.117-2.441 48.95 48.95 0 001.18-11.508c-.652-34.663-37.218-61.815-83.243-61.815-.716 0-1.433.008-2.154.02-25.708.484-49.559 9.684-65.187 24.891-6.803-12.378-21.096-19.721-38.559-19.721-2.242 0-4.503.129-6.771.37v313.546H591.06v-86.58c-4.245-2.14-8.442-4.37-12.555-6.77-11.909-6.96-23.5-15.31-33.288-25.04z" fill="#e7f4f9" fill-rule="nonzero"/></g><g fill="#f4516d" fill-rule="nonzero"><path d="M1224.33 175.777a43.25 43.25 0 01-.397 2.702 48.879 48.879 0 01-2.283 8.304c-6.662-9.749-18.022-12.043-18.022-12.043 0-5.845-2.816-9.539-5.257-11.642-1.87-1.609-3.516-2.289-3.516-2.289s16.912-.451 29.475 14.968z"/><path d="M1224.59 170.448v.924a38.58 38.58 0 01-.255 4.405c-12.564-15.419-29.476-14.967-29.476-14.967.225-.675.376-1.349.462-2.015 1.114-8.502-8.204-16.047-8.204-16.047 11.669 1.372 19.913 5.598 25.721 10.621 6.524 5.646 9.976 12.305 11.752 17.079z"/></g><path d="M1227.16 176.064l-3.124 2.547-.107-.132-1.166-1.431c-8.462-10.385-19.037-13.195-24.397-13.95-1.869-1.609-3.516-2.289-3.516-2.289.226-.674.376-1.348.462-2.014 2.961.045 17.493.967 29.237 14.14a43.93 43.93 0 011.338 1.569l1.273 1.56z" fill="#d64766" fill-rule="nonzero"/><path d="M1244.94 132.058c11.683 0 16.69 18.776 16.69 18.776l-.07.172a57.55 57.55 0 00-9.109-2.815h-.003v-.003c.038-8.91-7.508-16.13-7.508-16.13z" fill="#46ba43" fill-rule="nonzero"/><path d="M1281.35 172.575c0 9.609-10.253 12.228-24.039 8.019-.002-.003-.002-.003-.005-.003a85.52 85.52 0 011.399 5.361c.54 2.378 1 4.906 1.301 7.498l-2.625-1.698-15.846 10.259-7.003-4.532v-.003l-8.843-5.724-10.232 6.624c1.424-1.679 4.105-5.942 6.197-11.591v-.002c1.215-3.278 2.227-7.025 2.681-11.006.164-1.443.256-2.915.256-4.406v-.924c-.008-6.71-.014-14.051 3.075-18.776 1.65-2.528 4.21-4.306 8.174-4.841-1.603-7.043-7.064-12.268-7.064-12.268 7.048 0 11.666 6.839 14.22 12.26.691.048 1.378.107 2.058.177 2.539.255 5.01.658 7.395 1.193h.003a57.382 57.382 0 019.109 2.815c4.626 1.867 8.669 4.252 11.873 6.984 4.962 4.234 7.916 9.303 7.916 14.584z" fill="#56d353" fill-rule="nonzero"/><g fill="#46ba43" fill-rule="nonzero"><path d="M1243.87 148.804s-13.915 16.498-9.335 48.671l-8.843-5.724-10.232 6.624c1.424-1.679 4.105-5.942 6.197-11.591v-.003c1.214-3.277 2.227-7.024 2.681-11.005.164-1.443.255-2.915.255-4.406v-.924c-.008-6.71-.013-14.052 3.076-18.777 1.649-2.527 4.209-4.305 8.174-4.84-1.603-7.043-7.065-12.268-7.065-12.268 7.049 0 11.667 6.839 14.221 12.26.691.048 1.378.107 2.058.177l-1.187 1.806z"/><path d="M1258.7 185.952c-13.852-4.023-20.232-14.317-20.232-14.317 6.57 4.193 13.017 7.183 18.83 8.953l.003.003c.491 1.66.969 3.465 1.399 5.361z"/></g><g fill="#4d4d4d" fill-rule="nonzero"><path d="M1255.23 159.963c-.309 0-.619-.118-.855-.354a3.603 3.603 0 00-2.564-1.062 3.6 3.6 0 00-2.565 1.063 1.208 1.208 0 11-1.709-1.71 6.005 6.005 0 014.274-1.77c1.614 0 3.132.629 4.273 1.77a1.21 1.21 0 01-.854 2.063zM1271.73 159.963c-.309 0-.619-.118-.855-.354a3.601 3.601 0 00-2.564-1.062c-.969 0-1.88.377-2.565 1.062a1.207 1.207 0 11-1.709-1.709 6.004 6.004 0 014.274-1.771c1.614 0 3.132.629 4.273 1.771a1.207 1.207 0 01-.854 2.063z"/></g><g fill="#46ba43" fill-rule="nonzero"><path d="M1271.34 173.87a1.358 1.358 0 01-1.343-1.343 1.353 1.353 0 011.368-1.343 1.357 1.357 0 011.316 1.298 1.36 1.36 0 01-1.341 1.388zM1278.6 172.258a1.356 1.356 0 01-1.342-1.384 1.356 1.356 0 011.34-1.304c.7.002 1.3.564 1.342 1.263a1.361 1.361 0 01-1.34 1.425z"/></g><path d="M1282.43 207.53c0 20.38-14.914 37.282-34.424 40.385a41.42 41.42 0 01-6.471.507c-22.586 0-40.895-18.309-40.895-40.892 0-3.498.438-7.237 1.265-11.062l7.938 5.139 5.611-3.635 10.232-6.624 5.152 3.336 10.694 6.923 15.846-10.259 2.625 1.698v.002l13.221 8.559 7.941-5.139c.827 3.825 1.265 7.564 1.265 11.062z" fill="#e6e6e6" fill-rule="nonzero"/><path d="M1248.01 247.915a41.429 41.429 0 01-6.471.507c-22.586 0-40.896-18.309-40.896-40.892 0-3.498.438-7.237 1.266-11.062l7.938 5.139 5.611-3.635 10.232-6.624 5.152 3.336s-14.508 36.847 17.165 53.228c.001 0 .003 0 .003.003z" fill="#ccc" fill-rule="nonzero"/><g fill-rule="nonzero"><path d="M1208.03 277.918v261.439h364.814V277.918h-67.734v95.615h-229.346v-95.615h-67.734z" fill="#de9252"/><path fill="#de9252" d="M1333.74 178.298h114.712v181.005H1333.74z"/><path d="M1524.93 539.357V315.782h-38.236v35.167h-38.239v-35.167h-38.237v35.167h-38.237v-35.167h-38.237v35.167h-38.239v-35.167h-38.237v223.575h267.662z" fill="#f1c395"/><path d="M1486.69 315.782v35.167h-8.919v188.408h47.155V315.782h-38.236z" fill="#ebb27a"/><path d="M1539.38 683.048l-51.778-179.32-172.468-37.527-117.688 17.196-37.558 102.621-38.356 12.06-23.739 84.97h441.587z" fill="#d4d4d4"/><path d="M1586.11 506.154l-98.499-2.426v179.32h139.612l-41.113-176.894z" fill="#bfbfbf"/><path d="M1190.08 277.918v-67.029h34.548v31.773h34.546v-31.773h34.547v67.029H1190.08zM1487.16 277.918v-67.029h34.546v31.773h34.547v-31.773h34.547v67.029h-103.64z" fill="#f1c395"/><path d="M1556.25 210.889v31.773h-12.608v35.256h47.155v-67.029h-34.547z" fill="#ebb27a"/><path d="M1429.77 492.953l-77.342-16.698v-24.346c0-21.357 17.314-38.669 38.671-38.669s38.67 17.314 38.67 38.669v41.044h.001z" fill="#ab632e"/><path d="M1391.1 97.142l-97.56 81.156h195.121L1391.1 97.142z" fill="#f1c395"/><path d="M1391.09 97.142l-23.577 19.613 73.983 61.543h47.156l-97.562-81.156z" fill="#ebb27a"/><path d="M1391.09 219.563a8.841 8.841 0 00-8.841 8.841v33.328c0 11.431 17.684 11.431 17.684 0v-33.328a8.842 8.842 0 00-8.843-8.841z" fill="#ab632e"/></g><g><path d="M1273.21 591.238c-17.47 0-31.76 7.34-38.56 19.72-15.63-15.21-39.48-24.4-65.19-24.89-.72-.01-1.44-.02-2.15-.02-46.03 0-82.59 27.15-83.24 61.81-.07 3.82.32 7.69 1.18 11.51-.06.83-.1 1.64-.12 2.45-2.19-.3-4.4-.45-6.633-.45-25.123 0-48.994 18.44-55.524 42.89-2.877 10.78-2.422 22.27.762 33.14-6.145-3.05-12.839-5.42-19.891-6.96-7.14-1.57-14.345-2.23-21.416-1.99-27.777.97-49.533 15.77-54.136 36.83-.64 2.92-.933 5.95-.874 9.04-.067.25-.132.5-.197.76-4.335-1.38-8.934-1.99-13.733-1.82-6.631.23-13.154 1.97-19.072 4.87l-.104-.08c-3.39-3.52-7.248-6.02-11.478-7.44-6.086-3.19-12.627-5.55-19.494-7.03 1.782-19.46-12.522-40.88-35.49-52.27-10.093-5-20.941-7.65-31.378-7.65-17.465 0-31.757 7.35-38.56 19.73-15.627-15.21-39.48-24.41-65.186-24.89-.722-.02-1.439-.02-2.155-.02-6.154 0-12.138.49-17.891 1.41-4.412-8.69-10.805-16.52-18.871-22.88-3.39-3.52-7.248-6.02-11.479-7.44-6.086-3.19-12.626-5.55-19.493-7.03 1.781-19.46-12.523-40.88-35.49-52.269-10.094-5-20.942-7.651-31.378-7.651-17.465 0-31.757 7.35-38.561 19.73-15.627-15.21-39.479-24.41-65.186-24.89-.721-.02-1.439-.02-2.154-.02-.261 0-.52 0-.78.01-.26-.01-.518-.01-.78-.01-.715 0-1.432 0-2.154.02-25.707.48-49.559 9.68-65.186 24.89-6.803-12.38-21.095-19.73-38.56-19.73-10.437 0-21.285 2.651-31.378 7.651-22.967 11.389-37.272 32.809-35.49 52.269-6.867 1.48-13.407 3.84-19.493 7.03-4.231 1.42-8.089 3.92-11.479 7.44-8.067 6.36-14.459 14.19-18.871 22.88a113.341 113.341 0 00-17.893-1.41c-.714 0-1.432 0-2.153.02-25.707.48-49.559 9.68-65.186 24.89-6.804-12.38-21.096-19.73-38.561-19.73-9.851 0-20.068 2.36-29.671 6.83v147.38h1207.55v-266.26c-2.27-.24-4.53-.37-6.77-.37z" fill="#fff" fill-rule="nonzero"/></g><g><clipPath id="f"><path d="M-12.718 685.185h92.845v132.262h-92.845z"/></clipPath><g clip-path="url(#f)"><clipPath id="g"><path d="M-8.297 690.135H85.25v117.37H-8.297z"/></clipPath><g clip-path="url(#g)"><path d="M1023.48 695.325c-17.47 0-31.76 7.34-38.56 19.72-15.63-15.21-39.48-24.4-65.19-24.89-.72-.01-1.44-.02-2.15-.02-46.03 0-82.59 27.15-83.24 61.81-.07 3.82.32 7.69 1.18 11.51-.06.83-.1 1.64-.12 2.45-2.19-.3-4.4-.45-6.633-.45-25.123 0-48.994 18.44-55.524 42.89-2.877 10.78-2.422 22.27.762 33.14-6.145-3.05-12.839-5.42-19.891-6.96-7.14-1.57-14.345-2.23-21.416-1.99-27.777.97-49.533 15.77-54.136 36.83-.64 2.92-.933 5.95-.874 9.04-.067.25-.132.5-.197.76-4.335-1.38-8.934-1.99-13.733-1.82-6.631.23-13.154 1.97-19.072 4.87l-.104-.08c-3.39-3.52-7.248-6.02-11.478-7.44-6.086-3.19-12.627-5.55-19.494-7.03 1.782-19.46-12.522-40.88-35.49-52.27-10.093-5-20.941-7.65-31.378-7.65-17.465 0-31.757 7.35-38.56 19.73-15.627-15.21-39.48-24.41-65.186-24.89-.722-.02-1.439-.02-2.155-.02-6.154 0-12.138.49-17.891 1.41-4.412-8.69-10.805-16.52-18.871-22.88-3.39-3.52-7.248-6.02-11.479-7.44-6.086-3.19-12.626-5.55-19.493-7.03 1.781-19.46-12.523-40.88-35.49-52.269-10.094-5-20.942-7.651-31.378-7.651-17.465 0-31.757 7.35-38.561 19.73-15.627-15.21-39.479-24.41-65.186-24.89-.721-.02-1.439-.02-2.154-.02-.261 0-.52 0-.78.01-.26-.01-.518-.01-.78-.01-.715 0-1.432 0-2.154.02-25.707.48-49.559 9.68-65.186 24.89-6.803-12.38-21.095-19.73-38.56-19.73-10.437 0-21.285 2.651-31.378 7.651-22.967 11.389-37.272 32.809-35.49 52.269-6.867 1.48-13.407 3.84-19.493 7.03-4.231 1.42-8.089 3.92-11.479 7.44-8.067 6.36-14.459 14.19-18.871 22.88a113.341 113.341 0 00-17.893-1.41c-.714 0-1.432 0-2.153.02-25.707.48-49.559 9.68-65.186 24.89-6.804-12.38-21.096-19.73-38.561-19.73-9.851 0-20.068 2.36-29.671 6.83v147.38h1207.55v-266.26c-2.27-.24-4.53-.37-6.77-.37z" fill="#fff" fill-rule="nonzero"/></g></g></g><g><clipPath id="h"><path d="M1247.56 475.998h365.514v331.506H1247.56z"/></clipPath><g clip-path="url(#h)"><path d="M1651.62 475.998s.009 0 0 0c-27.779.519-53.554 10.461-70.441 26.897-7.351-13.378-22.795-21.321-41.668-21.321-11.279 0-23.001 2.865-33.908 8.268-24.818 12.307-40.276 35.454-38.351 56.483-7.42 1.599-14.488 4.149-21.064 7.596-4.572 1.535-8.741 4.236-12.405 8.04-8.717 6.873-15.624 15.334-20.392 24.725a122.496 122.496 0 00-19.335-1.524c-.772 0-1.548 0-2.327.022-27.779.518-53.554 10.46-70.441 26.896-7.352-13.378-22.796-21.32-41.669-21.32-10.646 0-21.686 2.55-32.063 7.38l1.716 297.365s269.416-3.661 404.798-2.684l-2.45-416.823z" fill="#fff" fill-rule="nonzero"/></g></g></g><defs><linearGradient id="_Linear2" x1="0" y1="0" x2="1" y2="0" gradientUnits="userSpaceOnUse" gradientTransform="matrix(0 713.466 -685.344 0 745.403 19.386)"><stop offset="0" stop-color="#5d28e3"/><stop offset="1" stop-color="#baa9e4"/></linearGradient></defs></svg>