<?xml version="1.0" encoding="UTF-8" standalone="no"?><!DOCTYPE svg PUBLIC "-//W3C//DTD SVG 1.1//EN" "http://www.w3.org/Graphics/SVG/1.1/DTD/svg11.dtd"><svg width="100%" height="100%" viewBox="0 0 1605 799" version="1.1" xmlns="http://www.w3.org/2000/svg" xmlns:xlink="http://www.w3.org/1999/xlink" xml:space="preserve" xmlns:serif="http://www.serif.com/" style="fill-rule:evenodd;clip-rule:evenodd;stroke-linejoin:round;stroke-miterlimit:2;"><g id="Landing-Background" serif:id="Landing Background"><clipPath id="_clip1"><rect x="0" y="0" width="1604.74" height="799.403"/></clipPath><g clip-path="url(#_clip1)"><rect id="Background" x="-4.434" y="-37.429" width="1609.66" height="841.145" style="fill:url(#_Linear2);fill-rule:nonzero;"/><clipPath id="_clip3"><rect id="Rainbow-Cloud" serif:id="Rainbow Cloud" x="-152" y="-25.888" width="653.158" height="653.158"/></clipPath><g clip-path="url(#_clip3)"><path d="M99.672,447.791l0,-116.333l-71.848,-97.292l-96.37,0l-83.454,-33.094l40.518,-55.956l-40.518,-23.501l33.512,-46.593l-33.512,-30.607l26.506,-30.721l185.739,0l29.959,-25.549l119.018,26.426l137.517,132.294l67.462,194.504l0,106.422l-314.529,0Z" style="fill:#ff7f5a;fill-rule:nonzero;"/><path d="M445.386,395.905c0,28.479 -2.307,56.615 -6.901,84.276l-75.606,0c5.342,-27.263 8.143,-55.448 8.143,-84.276c0,-186.182 -116.637,-345.131 -280.823,-407.76l152.012,0c18.827,14.217 36.721,29.795 53.614,46.688c46.862,46.877 83.673,101.483 109.402,162.288c26.65,63.007 40.159,129.887 40.159,198.784Z" style="fill:#ff7f5a;fill-rule:nonzero;"/><path d="M371.022,395.905c0,28.828 -2.801,57.013 -8.143,84.276l-76.038,0c6.483,-27.288 9.817,-55.522 9.817,-84.276c0,-96.674 -37.653,-187.542 -106.003,-255.897c-68.355,-68.355 -159.228,-106.008 -255.897,-106.008c-29.621,0 -58.713,3.534 -86.758,10.415l0,-56.27l242.204,0c164.181,62.629 280.818,221.578 280.818,407.76Z" style="fill:#ffb44d;fill-rule:nonzero;"/><path d="M-152,44.415c28.045,-6.881 57.137,-10.415 86.758,-10.415c96.674,0 187.542,37.653 255.897,106.008c68.35,68.355 106.003,159.223 106.003,255.897c0,28.754 -3.334,56.988 -9.817,84.276l-77.026,0c8.218,-26.954 12.478,-55.288 12.478,-84.276c0,-76.806 -29.904,-149.012 -84.216,-203.319c-54.307,-54.312 -126.513,-84.221 -203.319,-84.221c-29.87,0 -59.056,4.524 -86.758,13.25l0,-77.2Z" style="fill:#ffe76c;fill-rule:nonzero;"/><path d="M-152,121.615c27.702,-8.726 56.888,-13.25 86.758,-13.25c76.806,0 149.012,29.909 203.319,84.221c54.312,54.307 84.216,126.513 84.216,203.319c0,28.988 -4.26,57.322 -12.478,84.276l-79.138,0c11.317,-26.271 17.257,-54.815 17.257,-84.276c0,-56.938 -22.175,-110.467 -62.44,-150.736c-40.269,-40.27 -93.798,-62.44 -150.736,-62.44c-30.393,0 -59.814,6.324 -86.758,18.343l0,-79.457Z" style="fill:#1fd7c3;fill-rule:nonzero;"/><path d="M-152,287.531c24.542,-19.729 54.82,-30.438 86.758,-30.438c37.08,0 71.932,14.437 98.149,40.663c26.221,26.212 40.663,61.064 40.663,98.149c0,30.871 -10.002,60.198 -28.509,84.276l85.616,0c11.317,-26.276 17.257,-54.815 17.257,-84.276c0,-56.938 -22.175,-110.467 -62.44,-150.736c-40.269,-40.27 -93.798,-62.44 -150.736,-62.44c-30.393,0 -59.814,6.319 -86.758,18.343l0,86.459Z" style="fill:#5bd6fd;fill-rule:nonzero;"/><path d="M404.28,614.862c53.505,0 96.878,-43.373 96.878,-96.878c0,-49.872 -37.688,-90.924 -86.134,-96.271c-11.188,-69.899 -71.753,-123.304 -144.807,-123.304c-60.721,0 -112.825,36.906 -135.105,89.508c-2.591,-0.174 -5.202,-0.274 -7.838,-0.274c-62.744,0 -113.607,50.864 -113.607,113.612c0,62.744 50.863,113.607 113.607,113.607l277.006,0Z" style="fill:#ececee;fill-rule:nonzero;"/><g><path d="M176.946,464.928c-5.441,0 -9.857,-4.415 -9.857,-9.857l0,-14.561c0,-5.447 4.416,-9.857 9.857,-9.857c5.442,0 9.857,4.41 9.857,9.857l0,14.561c0,5.442 -4.415,9.857 -9.857,9.857Z" style="fill:#444f5c;fill-rule:nonzero;"/><path d="M337.879,464.928c-5.447,0 -9.857,-4.415 -9.857,-9.857l0,-14.561c0,-5.447 4.41,-9.857 9.857,-9.857c5.441,0 9.856,4.41 9.856,9.857l0,14.561c0,5.442 -4.415,9.857 -9.856,9.857Z" style="fill:#444f5c;fill-rule:nonzero;"/><path d="M257.41,472.702c-10.584,0 -20.526,-4.43 -27.278,-12.154c-3.583,-4.102 -3.164,-10.331 0.932,-13.909c4.101,-3.582 10.325,-3.169 13.908,0.932c3.01,3.444 7.544,5.417 12.438,5.417c4.898,0 9.433,-1.973 12.443,-5.417c3.583,-4.101 9.807,-4.514 13.908,-0.932c4.096,3.578 4.515,9.807 0.932,13.909c-6.752,7.724 -16.699,12.154 -27.283,12.154Z" style="fill:#444f5c;fill-rule:nonzero;"/></g></g><g id="Stars"><path d="M1143.7,377.811c-3.86,0 -3.86,-6 0,-6c3.87,0 3.86,6 0,6Z" style="fill:#c5e4f0;fill-rule:nonzero;"/><path d="M912.71,121.819c-3.867,0 -3.86,-6 0,-6c3.867,0 3.861,6 0,6Z" style="fill:#c5e4f0;fill-rule:nonzero;"/><path d="M1092.7,29.829c-3.87,0 -3.86,-6 0,-6c3.87,0 3.86,6 0,6Z" style="fill:#c5e4f0;fill-rule:nonzero;"/><path d="M720.721,386.811c-3.867,0 -3.86,-6 0,-6c3.867,0 3.862,6 0,6Z" style="fill:#c5e4f0;fill-rule:nonzero;"/><path d="M579.729,203.82c-3.868,0 -3.861,-6 0,-6c3.866,0 3.86,6 0,6Z" style="fill:#c5e4f0;fill-rule:nonzero;"/><path d="M481.72,624.849c-3.867,0 -3.86,-6 0,-6c3.867,0 3.861,6 0,6Z" style="fill:#cfe9f3;fill-rule:nonzero;"/></g><g id="Background-Clouds" serif:id="Background Clouds"><path d="M1556.78,131.385c-13.188,0 -25.268,-8.181 -29.075,-19.355c-5.031,2.555 -10.788,3.946 -16.436,3.946c-5.802,0 -11.354,-1.439 -16.054,-4.162c-10.83,-6.271 -16.685,-19.654 -13.622,-31.132c2.756,-10.321 12.831,-18.103 23.435,-18.103c0.941,0 1.876,0.064 2.799,0.189c0.011,-0.34 0.027,-0.683 0.05,-1.03c-0.36,-1.616 -0.528,-3.249 -0.498,-4.858c0.274,-14.63 15.708,-26.09 35.135,-26.09c0.302,0 0.604,0.003 0.909,0.008c10.85,0.205 20.917,4.087 27.513,10.506c2.872,-5.225 8.904,-8.324 16.276,-8.324c4.405,0 8.983,1.116 13.244,3.227c9.694,4.806 15.731,13.848 14.979,22.062c2.899,0.625 5.659,1.62 8.228,2.967c1.785,0.598 3.414,1.654 4.844,3.14c6.726,5.302 10.699,13.021 10.905,21.195c0.401,15.91 -13.294,29.207 -30.529,29.641c-0.291,0.008 -0.581,0.011 -0.87,0.011c-6.21,0 -12.135,-1.658 -17.251,-4.815c-7.331,11.615 -18.574,19.329 -30.382,20.762c-1.18,0.143 -2.39,0.215 -3.6,0.215Z" style="fill:#aed9ea;fill-rule:nonzero;"/><path d="M1556.78,449.499c-13.188,0 -25.268,-8.181 -29.075,-19.355c-5.031,2.555 -10.788,3.946 -16.436,3.946c-5.802,0 -11.354,-1.439 -16.054,-4.162c-10.83,-6.271 -16.685,-19.654 -13.622,-31.132c2.756,-10.321 12.831,-18.103 23.435,-18.103c0.941,0 1.876,0.064 2.799,0.189c0.011,-0.34 0.027,-0.683 0.05,-1.03c-0.36,-1.616 -0.528,-3.249 -0.498,-4.858c0.274,-14.63 15.708,-26.09 35.135,-26.09c0.302,0 0.604,0.003 0.909,0.008c10.85,0.205 20.917,4.087 27.513,10.506c2.872,-5.225 8.904,-8.324 16.276,-8.324c4.405,0 8.983,1.116 13.244,3.227c9.694,4.806 15.731,13.848 14.979,22.062c2.899,0.625 5.659,1.62 8.228,2.967c1.785,0.598 3.414,1.654 4.844,3.14c6.726,5.302 10.699,13.021 10.905,21.195c0.401,15.91 -13.294,29.207 -30.529,29.641c-0.291,0.008 -0.581,0.011 -0.87,0.011c-6.21,0 -12.135,-1.658 -17.251,-4.815c-7.331,11.615 -18.574,19.329 -30.382,20.762c-1.18,0.143 -2.39,0.215 -3.6,0.215Z" style="fill:#aed9ea;fill-rule:nonzero;"/></g><g id="Clouds"><g id="Cloud"><path d="M1393.7,121.869c2.5,-1.906 4.818,-4.185 6.876,-6.78c0.045,0.023 0.09,0.048 0.135,0.073c-2.104,2.58 -4.467,4.834 -7.011,6.707Zm39.8,-11.992c5.777,-4.446 9.391,-11.189 9.203,-18.638c-0.167,-6.641 -3.394,-12.913 -8.86,-17.221c-1.162,-1.207 -2.485,-2.065 -3.935,-2.55c-2.087,-1.095 -4.331,-1.904 -6.686,-2.413c0.611,-6.674 -4.293,-14.021 -12.17,-17.923c-3.462,-1.716 -7.182,-2.624 -10.761,-2.624c-3.786,0 -7.138,1.007 -9.68,2.82c2.594,-2.043 6.134,-3.185 10.167,-3.185c3.579,0 7.3,0.908 10.761,2.622c7.875,3.904 12.781,11.251 12.17,17.925c2.355,0.508 4.599,1.318 6.684,2.413c1.452,0.484 2.775,1.343 3.937,2.55c5.464,4.307 8.693,10.58 8.86,17.221c0.194,7.656 -3.63,14.565 -9.69,19.003Zm-111.419,-33.467c2.762,-2.135 6.05,-3.582 9.494,-4.052c0.007,0.101 0.016,0.202 0.025,0.303c-3.428,0.371 -6.721,1.713 -9.519,3.749Zm64.22,-21.853c-5.356,-4.788 -13.182,-7.663 -21.588,-7.82c-0.247,-0.005 -0.493,-0.008 -0.739,-0.008c-7.816,0 -14.837,2.284 -19.961,6.033c5.16,-3.964 12.381,-6.398 20.448,-6.398c0.246,0 0.492,0.003 0.739,0.008c8.405,0.157 16.232,3.032 21.589,7.82c-0.028,0.02 -0.054,0.042 -0.08,0.062c-0.138,0.099 -0.275,0.2 -0.408,0.303Z" style="fill:#8bc8e1;fill-rule:nonzero;"/><path d="M1393.21,122.231c2.64,-2.014 5.076,-4.441 7.217,-7.219c0.048,0.025 0.094,0.051 0.142,0.077c-2.058,2.595 -4.376,4.874 -6.876,6.78c-0.16,0.122 -0.322,0.243 -0.483,0.362Zm39.8,-11.992c5.774,-4.445 9.388,-11.189 9.2,-18.635c-0.167,-6.641 -3.395,-12.913 -8.861,-17.221c-1.162,-1.207 -2.484,-2.065 -3.935,-2.551c-2.087,-1.094 -4.33,-1.902 -6.686,-2.412c0.611,-6.674 -4.294,-14.02 -12.17,-17.923c-3.462,-1.716 -7.182,-2.624 -10.761,-2.624c-3.792,0 -7.147,1.01 -9.691,2.828c0.163,-0.128 0.328,-0.252 0.498,-0.373c2.542,-1.813 5.894,-2.82 9.68,-2.82c3.579,0 7.299,0.908 10.761,2.624c7.877,3.902 12.781,11.249 12.17,17.923c2.355,0.509 4.599,1.318 6.686,2.413c1.45,0.485 2.773,1.343 3.935,2.55c5.466,4.308 8.693,10.58 8.86,17.221c0.188,7.449 -3.426,14.192 -9.203,18.638c-0.159,0.122 -0.32,0.242 -0.483,0.362Zm-111.41,-33.473c0.157,-0.12 0.316,-0.238 0.474,-0.356c2.798,-2.036 6.091,-3.378 9.519,-3.749c0.01,0.106 0.02,0.212 0.032,0.317c-3.61,0.285 -7.09,1.655 -10.025,3.788Zm64.226,-21.827c-5.356,-4.798 -13.191,-7.679 -21.607,-7.837c-0.248,-0.005 -0.493,-0.007 -0.739,-0.007c-7.82,0 -14.843,2.286 -19.969,6.038c0.163,-0.125 0.328,-0.249 0.495,-0.371c5.124,-3.749 12.145,-6.033 19.961,-6.033c0.246,0 0.492,0.003 0.739,0.008c8.406,0.157 16.232,3.032 21.588,7.82c-0.159,0.125 -0.317,0.251 -0.468,0.382Z" style="fill:#86c1d9;fill-rule:nonzero;"/><path d="M1392.73,122.592c2.779,-2.12 5.33,-4.699 7.551,-7.662c0.049,0.028 0.099,0.054 0.147,0.082c-2.141,2.778 -4.577,5.205 -7.217,7.219c-0.16,0.121 -0.32,0.242 -0.481,0.361Zm39.771,-11.969c5.787,-4.446 9.411,-11.198 9.223,-18.654c-0.167,-6.641 -3.396,-12.913 -8.86,-17.221c-1.163,-1.207 -2.487,-2.065 -3.937,-2.551c-2.087,-1.094 -4.329,-1.902 -6.684,-2.411c0.611,-6.675 -4.296,-14.021 -12.17,-17.924c-3.463,-1.716 -7.183,-2.622 -10.762,-2.622c-3.79,0 -7.144,1.009 -9.688,2.824c0.157,-0.124 0.32,-0.246 0.484,-0.363c2.544,-1.818 5.899,-2.828 9.691,-2.828c3.579,0 7.299,0.908 10.761,2.624c7.876,3.903 12.781,11.249 12.17,17.923c2.356,0.51 4.599,1.318 6.686,2.412c1.451,0.486 2.773,1.344 3.935,2.551c5.466,4.308 8.694,10.58 8.861,17.221c0.188,7.446 -3.426,14.19 -9.2,18.635c-0.169,0.131 -0.339,0.257 -0.51,0.384Zm-111.389,-33.489c0.162,-0.125 0.325,-0.247 0.489,-0.368c2.935,-2.133 6.415,-3.503 10.025,-3.788c0.013,0.11 0.026,0.221 0.041,0.331c-3.799,0.187 -7.477,1.586 -10.555,3.825Zm64.269,-21.793c-5.358,-4.82 -13.212,-7.716 -21.649,-7.876c-0.247,-0.003 -0.493,-0.004 -0.737,-0.004c-7.827,0 -14.858,2.289 -19.983,6.047c0.166,-0.126 0.332,-0.251 0.5,-0.375c5.126,-3.752 12.149,-6.038 19.969,-6.038c0.246,0 0.491,0.002 0.739,0.007c8.416,0.158 16.251,3.039 21.607,7.837c-0.153,0.13 -0.302,0.264 -0.446,0.402Z" style="fill:#81bad2;fill-rule:nonzero;"/><path d="M1392.24,122.961c2.921,-2.228 5.592,-4.962 7.891,-8.116c0.051,0.029 0.102,0.056 0.153,0.085c-2.221,2.963 -4.772,5.542 -7.551,7.662c-0.163,0.125 -0.328,0.249 -0.493,0.369Zm39.788,-11.983c5.783,-4.445 9.4,-11.192 9.212,-18.644c-0.167,-6.641 -3.396,-12.912 -8.86,-17.221c-1.162,-1.207 -2.485,-2.065 -3.937,-2.551c-2.087,-1.094 -4.33,-1.902 -6.684,-2.41c0.611,-6.676 -4.295,-14.022 -12.172,-17.925c-3.461,-1.716 -7.181,-2.622 -10.759,-2.622c-3.789,0 -7.143,1.008 -9.685,2.821c0.157,-0.123 0.319,-0.244 0.483,-0.362c2.544,-1.815 5.898,-2.824 9.688,-2.824c3.579,0 7.299,0.906 10.762,2.622c7.874,3.903 12.781,11.249 12.17,17.924c2.355,0.509 4.597,1.317 6.684,2.411c1.45,0.486 2.774,1.344 3.937,2.551c5.464,4.308 8.693,10.58 8.86,17.221c0.188,7.456 -3.436,14.208 -9.223,18.654c-0.157,0.12 -0.316,0.238 -0.476,0.355Zm-111.401,-33.479c0.161,-0.123 0.323,-0.245 0.488,-0.365c3.078,-2.239 6.756,-3.638 10.555,-3.825c0.016,0.115 0.032,0.232 0.049,0.347c-3.988,0.075 -7.869,1.498 -11.092,3.843Zm64.332,-21.736c-5.359,-4.854 -13.241,-7.771 -21.711,-7.93c-0.247,-0.006 -0.491,-0.007 -0.739,-0.007c-7.811,0 -14.828,2.281 -19.951,6.026c0.15,-0.115 0.303,-0.23 0.457,-0.344c5.125,-3.758 12.156,-6.047 19.983,-6.047c0.244,0 0.49,0.001 0.737,0.004c8.437,0.16 16.291,3.056 21.649,7.876c-0.146,0.136 -0.288,0.278 -0.425,0.422Z" style="fill:#7db4ca;fill-rule:nonzero;"/><path d="M1391.76,123.319c3.057,-2.333 5.839,-5.221 8.208,-8.566c0.054,0.031 0.106,0.061 0.16,0.092c-2.299,3.154 -4.97,5.888 -7.891,8.116c-0.158,0.121 -0.317,0.24 -0.477,0.358Zm39.774,-11.972c5.784,-4.445 9.405,-11.193 9.216,-18.648c-0.167,-6.641 -3.396,-12.912 -8.86,-17.22c-1.162,-1.208 -2.486,-2.066 -3.937,-2.552c-2.087,-1.095 -4.33,-1.902 -6.684,-2.41c0.61,-6.674 -4.295,-14.021 -12.171,-17.925c-3.461,-1.716 -7.181,-2.622 -10.76,-2.622c-3.79,0 -7.144,1.008 -9.688,2.824c0.16,-0.126 0.323,-0.249 0.49,-0.368c2.542,-1.813 5.896,-2.821 9.685,-2.821c3.578,0 7.298,0.906 10.759,2.622c7.877,3.903 12.783,11.249 12.172,17.925c2.354,0.508 4.597,1.316 6.684,2.41c1.452,0.486 2.775,1.344 3.937,2.551c5.464,4.309 8.693,10.58 8.86,17.221c0.188,7.452 -3.429,14.199 -9.212,18.644c-0.161,0.125 -0.326,0.248 -0.491,0.369Zm-111.387,-33.49c0.157,-0.12 0.317,-0.24 0.477,-0.358c3.223,-2.345 7.104,-3.768 11.092,-3.843c0.019,0.122 0.039,0.242 0.06,0.363c-0.07,-0.001 -0.141,-0.001 -0.213,-0.001c-4.101,0 -8.105,1.432 -11.416,3.839Zm64.405,-21.652c-5.36,-4.9 -13.28,-7.847 -21.793,-8.007c-0.248,-0.005 -0.494,-0.007 -0.738,-0.007c-7.815,0 -14.832,2.281 -19.956,6.027c0.162,-0.124 0.325,-0.246 0.49,-0.366c5.123,-3.745 12.14,-6.026 19.951,-6.026c0.248,0 0.492,0.001 0.739,0.007c8.47,0.159 16.352,3.076 21.711,7.93c-0.138,0.143 -0.275,0.29 -0.404,0.442Z" style="fill:#78adc3;fill-rule:nonzero;"/><path d="M1391.27,123.69c3.2,-2.44 6.098,-5.49 8.539,-9.033c0.053,0.032 0.109,0.064 0.164,0.096c-2.369,3.345 -5.151,6.233 -8.208,8.566c-0.165,0.125 -0.329,0.249 -0.495,0.371Zm39.781,-11.978c5.784,-4.445 9.406,-11.193 9.217,-18.647c-0.168,-6.64 -3.396,-12.913 -8.86,-17.221c-1.162,-1.208 -2.486,-2.065 -3.936,-2.552c-2.087,-1.094 -4.331,-1.904 -6.686,-2.41c0.611,-6.674 -4.294,-14.021 -12.17,-17.925c-3.461,-1.715 -7.181,-2.622 -10.761,-2.622c-3.788,0 -7.142,1.008 -9.686,2.823c0.159,-0.125 0.32,-0.246 0.486,-0.364c2.544,-1.816 5.898,-2.824 9.688,-2.824c3.579,0 7.299,0.906 10.76,2.622c7.876,3.904 12.781,11.251 12.171,17.925c2.354,0.508 4.597,1.315 6.684,2.41c1.451,0.486 2.775,1.344 3.937,2.552c5.464,4.308 8.693,10.579 8.86,17.22c0.189,7.455 -3.432,14.203 -9.216,18.648c-0.162,0.124 -0.323,0.246 -0.488,0.365Zm-111.397,-33.481c0.163,-0.127 0.33,-0.252 0.498,-0.374c3.311,-2.407 7.315,-3.839 11.416,-3.839c0.072,0 0.143,0 0.213,0.001c0.023,0.128 0.046,0.255 0.071,0.381c-0.256,-0.011 -0.513,-0.017 -0.771,-0.017c-4.106,0 -8.114,1.437 -11.427,3.848Zm64.523,-21.564c-5.361,-4.958 -13.331,-7.944 -21.9,-8.105c-0.247,-0.004 -0.494,-0.007 -0.739,-0.007c-7.818,0 -14.841,2.286 -19.965,6.037c0.163,-0.125 0.33,-0.25 0.497,-0.374c5.124,-3.746 12.141,-6.027 19.956,-6.027c0.244,0 0.49,0.002 0.738,0.007c8.513,0.16 16.433,3.107 21.793,8.007c-0.131,0.151 -0.259,0.305 -0.38,0.462Z" style="fill:#74a6bb;fill-rule:nonzero;"/><path d="M1390.8,124.045c3.334,-2.547 6.34,-5.751 8.84,-9.488c0.057,0.033 0.113,0.067 0.172,0.1c-2.441,3.543 -5.339,6.593 -8.539,9.033c-0.156,0.119 -0.314,0.239 -0.473,0.355Zm39.767,-11.968c5.784,-4.446 9.404,-11.193 9.216,-18.646c-0.167,-6.641 -3.394,-12.914 -8.86,-17.222c-1.162,-1.207 -2.485,-2.065 -3.937,-2.551c-2.087,-1.095 -4.328,-1.902 -6.684,-2.411c0.611,-6.674 -4.293,-14.021 -12.17,-17.925c-3.461,-1.715 -7.182,-2.622 -10.761,-2.622c-3.786,0 -7.138,1.006 -9.68,2.82c0.157,-0.124 0.317,-0.244 0.481,-0.362c2.544,-1.815 5.898,-2.823 9.686,-2.823c3.58,0 7.3,0.907 10.761,2.622c7.876,3.904 12.781,11.251 12.17,17.925c2.355,0.506 4.599,1.316 6.686,2.41c1.45,0.487 2.774,1.344 3.936,2.552c5.464,4.308 8.692,10.581 8.86,17.221c0.189,7.454 -3.433,14.202 -9.217,18.647c-0.16,0.124 -0.323,0.246 -0.487,0.365Zm-111.396,-33.482c0.16,-0.124 0.323,-0.246 0.486,-0.364c3.313,-2.411 7.321,-3.848 11.427,-3.848c0.258,0 0.515,0.006 0.771,0.017c0.026,0.133 0.054,0.265 0.084,0.397c0,0.002 -0.001,0.003 -0.001,0.005c-0.444,-0.035 -0.892,-0.054 -1.34,-0.054c-4.105,0 -8.114,1.435 -11.427,3.847Zm64.65,-21.444c-5.361,-5.029 -13.389,-8.061 -22.028,-8.224c-0.247,-0.004 -0.493,-0.007 -0.739,-0.007c-7.817,0 -14.837,2.285 -19.961,6.034c0.159,-0.122 0.32,-0.243 0.483,-0.362c5.124,-3.751 12.147,-6.037 19.965,-6.037c0.245,0 0.492,0.003 0.739,0.007c8.569,0.161 16.539,3.147 21.9,8.105c-0.123,0.159 -0.243,0.32 -0.359,0.484Z" style="fill:#6fa0b4;fill-rule:nonzero;"/><path d="M1390.3,124.42c3.477,-2.653 6.6,-6.024 9.164,-9.969c0.058,0.036 0.118,0.071 0.176,0.106c-2.5,3.737 -5.506,6.941 -8.84,9.488c-0.165,0.126 -0.333,0.252 -0.5,0.375Zm39.799,-11.991c5.774,-4.446 9.385,-11.187 9.197,-18.633c-0.166,-6.641 -3.394,-12.914 -8.858,-17.222c-1.164,-1.207 -2.486,-2.065 -3.937,-2.55c-2.087,-1.096 -4.33,-1.904 -6.686,-2.412c0.611,-6.674 -4.293,-14.02 -12.17,-17.923c-3.462,-1.717 -7.182,-2.624 -10.761,-2.624c-3.787,0 -7.139,1.006 -9.682,2.82c0.159,-0.125 0.323,-0.247 0.489,-0.365c2.542,-1.814 5.894,-2.82 9.68,-2.82c3.579,0 7.3,0.907 10.761,2.622c7.877,3.904 12.781,11.251 12.17,17.925c2.356,0.509 4.597,1.316 6.684,2.411c1.452,0.486 2.775,1.344 3.937,2.551c5.466,4.308 8.693,10.581 8.86,17.222c0.188,7.453 -3.432,14.2 -9.216,18.646c-0.154,0.119 -0.311,0.237 -0.468,0.352Zm-111.431,-33.456c0.166,-0.13 0.333,-0.255 0.503,-0.378c3.313,-2.412 7.322,-3.847 11.427,-3.847c0.448,0 0.896,0.019 1.34,0.054c-0.009,0.136 -0.016,0.273 -0.023,0.408c-0.597,-0.064 -1.199,-0.096 -1.804,-0.096c-4.113,0 -8.127,1.44 -11.443,3.859Zm64.817,-21.313c-5.361,-5.115 -13.459,-8.204 -22.179,-8.368c-0.247,-0.004 -0.493,-0.007 -0.739,-0.007c-7.813,0 -14.83,2.282 -19.952,6.028c0.157,-0.122 0.317,-0.241 0.478,-0.359c5.124,-3.749 12.144,-6.034 19.961,-6.034c0.246,0 0.492,0.003 0.739,0.007c8.639,0.163 16.667,3.195 22.028,8.224c-0.116,0.168 -0.228,0.336 -0.336,0.509Z" style="fill:#6a99ac;fill-rule:nonzero;"/><path d="M1389.81,124.787c3.615,-2.761 6.85,-6.298 9.469,-10.447c0.06,0.036 0.121,0.074 0.182,0.111c-2.564,3.945 -5.687,7.316 -9.164,9.969c-0.161,0.124 -0.324,0.246 -0.487,0.367Zm39.797,-11.992c5.774,-4.446 9.388,-11.188 9.2,-18.634c-0.167,-6.641 -3.396,-12.914 -8.86,-17.221c-1.163,-1.208 -2.485,-2.066 -3.937,-2.551c-2.087,-1.096 -4.331,-1.904 -6.685,-2.412c0.612,-6.674 -4.294,-14.02 -12.17,-17.923c-3.46,-1.717 -7.182,-2.624 -10.761,-2.624c-3.789,0 -7.144,1.009 -9.686,2.824c0.026,-0.02 0.052,-0.042 0.08,-0.062c0.134,-0.105 0.272,-0.207 0.411,-0.307c2.543,-1.814 5.895,-2.82 9.682,-2.82c3.579,0 7.299,0.907 10.761,2.624c7.877,3.903 12.781,11.249 12.17,17.923c2.356,0.508 4.599,1.316 6.686,2.412c1.451,0.485 2.773,1.343 3.937,2.55c5.464,4.308 8.692,10.581 8.858,17.222c0.188,7.446 -3.423,14.187 -9.197,18.633c-0.162,0.124 -0.325,0.246 -0.489,0.366Zm-111.41,-33.472c0.154,-0.119 0.311,-0.235 0.468,-0.35c3.316,-2.419 7.33,-3.859 11.443,-3.859c0.605,0 1.207,0.032 1.804,0.096c-0.006,0.143 -0.012,0.284 -0.016,0.424c-0.751,-0.104 -1.51,-0.155 -2.275,-0.155c-4.104,0 -8.111,1.436 -11.424,3.844Zm64.972,-21.13c-5.358,-5.216 -13.537,-8.37 -22.353,-8.536c-0.248,-0.004 -0.493,-0.007 -0.738,-0.007c-7.818,0 -14.842,2.286 -19.965,6.037c0.163,-0.127 0.33,-0.252 0.499,-0.374c5.122,-3.746 12.139,-6.028 19.952,-6.028c0.246,0 0.492,0.003 0.739,0.007c8.72,0.164 16.818,3.253 22.179,8.368c-0.108,0.175 -0.212,0.352 -0.313,0.533Z" style="fill:#6692a5;fill-rule:nonzero;"/><path d="M1371.67,131.385c-10.718,0 -20.532,-6.648 -23.624,-15.727c-4.088,2.076 -8.765,3.206 -13.354,3.206c-4.715,0 -9.225,-1.17 -13.044,-3.381c-8.799,-5.096 -13.556,-15.969 -11.068,-25.296c1.173,-4.39 3.977,-8.215 7.617,-10.864c3.313,-2.408 7.32,-3.844 11.424,-3.844c0.765,0 1.524,0.051 2.275,0.155c0.004,-0.14 0.01,-0.281 0.016,-0.424c0.007,-0.135 0.014,-0.272 0.023,-0.408c0,-0.002 0.001,-0.003 0.001,-0.005c-0.03,-0.132 -0.058,-0.264 -0.084,-0.397c-0.025,-0.126 -0.048,-0.253 -0.071,-0.381c-0.021,-0.121 -0.041,-0.241 -0.06,-0.363c-0.017,-0.115 -0.033,-0.232 -0.049,-0.347c-0.015,-0.11 -0.028,-0.221 -0.041,-0.331c-0.012,-0.105 -0.022,-0.211 -0.032,-0.317c-0.009,-0.101 -0.018,-0.202 -0.025,-0.303c-0.038,-0.504 -0.052,-1.008 -0.043,-1.508c0.113,-5.999 3.362,-11.342 8.582,-15.163c5.123,-3.751 12.147,-6.037 19.965,-6.037c0.245,0 0.49,0.003 0.738,0.007c8.816,0.166 16.995,3.32 22.353,8.536c0.101,-0.181 0.205,-0.358 0.313,-0.533c0.108,-0.173 0.22,-0.341 0.336,-0.509c0.116,-0.164 0.236,-0.325 0.359,-0.484c0.121,-0.157 0.249,-0.311 0.38,-0.462c0.129,-0.152 0.266,-0.299 0.404,-0.442c0.137,-0.144 0.279,-0.286 0.425,-0.422c0.144,-0.138 0.293,-0.272 0.446,-0.402c0.151,-0.131 0.309,-0.257 0.468,-0.382c0.133,-0.103 0.27,-0.204 0.408,-0.303c2.542,-1.815 5.897,-2.824 9.686,-2.824c3.579,0 7.301,0.907 10.761,2.624c7.876,3.903 12.782,11.249 12.17,17.923c2.354,0.508 4.598,1.316 6.685,2.412c1.452,0.485 2.774,1.343 3.937,2.551c5.464,4.307 8.693,10.58 8.86,17.221c0.188,7.446 -3.426,14.188 -9.2,18.634c-4.25,3.273 -9.669,5.3 -15.605,5.448c-0.236,0.006 -0.471,0.009 -0.706,0.009c-4.478,0 -8.771,-1.06 -12.586,-3.09c-0.045,-0.025 -0.09,-0.05 -0.135,-0.073c-0.048,-0.026 -0.094,-0.052 -0.142,-0.077c-0.048,-0.028 -0.098,-0.054 -0.147,-0.082c-0.051,-0.029 -0.102,-0.056 -0.153,-0.085c-0.054,-0.031 -0.106,-0.061 -0.16,-0.092c-0.055,-0.032 -0.111,-0.064 -0.164,-0.096c-0.059,-0.033 -0.115,-0.067 -0.172,-0.1c-0.058,-0.035 -0.118,-0.07 -0.176,-0.106c-0.061,-0.037 -0.122,-0.075 -0.182,-0.111c-2.619,4.149 -5.854,7.686 -9.469,10.447c-4.61,3.516 -9.84,5.771 -15.216,6.424c-0.96,0.113 -1.943,0.174 -2.924,0.174Z" style="fill:#618c9d;fill-rule:nonzero;"/><path d="M1371.67,131.385c-10.718,0 -20.532,-6.648 -23.624,-15.727c-4.088,2.076 -8.765,3.206 -13.354,3.206c-4.715,0 -9.225,-1.169 -13.044,-3.381c-8.799,-5.096 -13.556,-15.969 -11.068,-25.296c2.239,-8.384 10.425,-14.708 19.041,-14.708c0.765,0 1.524,0.051 2.275,0.155c0.008,-0.277 0.021,-0.556 0.04,-0.838c-0.293,-1.313 -0.429,-2.64 -0.405,-3.946c0.224,-11.888 12.763,-21.2 28.547,-21.2c0.245,0 0.492,0.003 0.738,0.007c8.816,0.167 16.995,3.322 22.353,8.536c2.334,-4.244 7.236,-6.763 13.225,-6.763c3.579,0 7.299,0.907 10.761,2.624c7.876,3.903 12.782,11.249 12.17,17.923c2.356,0.509 4.598,1.316 6.685,2.412c1.452,0.485 2.774,1.343 3.937,2.551c5.464,4.307 8.693,10.58 8.86,17.221c0.326,12.928 -10.801,23.731 -24.805,24.082c-0.236,0.006 -0.471,0.009 -0.707,0.009c-5.045,0 -9.859,-1.347 -14.016,-3.912c-5.957,9.437 -15.092,15.706 -24.685,16.871c-0.96,0.114 -1.941,0.174 -2.924,0.174Z" style="fill:#fff;fill-rule:nonzero;"/></g><g id="Cloud1" serif:id="Cloud"><path d="M431.995,674.939c-16.23,0 -31.092,-10.067 -35.774,-23.818c-6.191,3.146 -13.274,4.857 -20.223,4.857c-7.141,0 -13.971,-1.771 -19.754,-5.121c-13.325,-7.717 -20.529,-24.183 -16.761,-38.307c3.39,-12.697 15.787,-22.274 28.835,-22.274c1.158,0 2.308,0.077 3.444,0.234c0.014,-0.419 0.033,-0.842 0.062,-1.269c-0.445,-1.989 -0.65,-3.997 -0.614,-5.975c0.339,-18.003 19.328,-32.106 43.232,-32.106c0.37,0 0.744,0.005 1.116,0.011c13.352,0.254 25.738,5.031 33.852,12.927c3.535,-6.427 10.958,-10.242 20.027,-10.242c5.421,0 11.055,1.375 16.296,3.973c11.929,5.912 19.358,17.036 18.431,27.144c3.568,0.771 6.964,1.993 10.124,3.651c2.198,0.736 4.2,2.035 5.962,3.863c8.275,6.524 13.165,16.023 13.418,26.08c0.493,19.578 -16.358,35.937 -37.565,36.47c-0.357,0.009 -0.714,0.014 -1.071,0.014c-7.64,0 -14.93,-2.04 -21.225,-5.925c-9.021,14.292 -22.855,23.784 -37.382,25.549c-1.454,0.174 -2.941,0.264 -4.43,0.264Z" style="fill:#a7d5e8;fill-rule:nonzero;"/></g><g id="Cloud2" serif:id="Cloud"><path d="M259.184,132.713c2.5,-1.907 4.818,-4.186 6.876,-6.781c0.045,0.023 0.09,0.048 0.135,0.073c-2.104,2.58 -4.468,4.834 -7.011,6.708Zm39.8,-11.993c5.777,-4.446 9.391,-11.189 9.203,-18.638c-0.167,-6.641 -3.394,-12.913 -8.86,-17.221c-1.162,-1.207 -2.485,-2.065 -3.935,-2.55c-2.087,-1.095 -4.331,-1.903 -6.686,-2.412c0.611,-6.674 -4.293,-14.022 -12.17,-17.924c-3.462,-1.716 -7.182,-2.624 -10.761,-2.624c-3.786,0 -7.138,1.007 -9.68,2.82c2.594,-2.043 6.134,-3.185 10.167,-3.185c3.579,0 7.3,0.908 10.761,2.623c7.875,3.903 12.781,11.25 12.17,17.925c2.355,0.507 4.599,1.317 6.684,2.412c1.452,0.485 2.775,1.343 3.937,2.55c5.464,4.308 8.693,10.58 8.86,17.221c0.194,7.656 -3.63,14.565 -9.69,19.003Zm-111.419,-33.467c2.762,-2.135 6.05,-3.582 9.494,-4.051c0.007,0.1 0.016,0.202 0.025,0.302c-3.428,0.371 -6.721,1.713 -9.519,3.749Zm64.22,-21.853c-5.356,-4.788 -13.182,-7.663 -21.588,-7.82c-0.247,-0.004 -0.493,-0.007 -0.739,-0.007c-7.816,0 -14.837,2.283 -19.961,6.032c5.16,-3.964 12.381,-6.397 20.448,-6.397c0.246,0 0.492,0.003 0.739,0.007c8.405,0.157 16.232,3.032 21.589,7.82c-0.028,0.02 -0.054,0.042 -0.08,0.063c-0.139,0.098 -0.275,0.199 -0.408,0.302Z" style="fill:#fff;fill-opacity:0.52;fill-rule:nonzero;"/><path d="M258.701,133.075c2.64,-2.015 5.076,-4.442 7.216,-7.22c0.048,0.025 0.095,0.051 0.143,0.077c-2.058,2.595 -4.376,4.874 -6.876,6.781c-0.16,0.122 -0.322,0.242 -0.483,0.362Zm39.8,-11.993c5.774,-4.445 9.388,-11.188 9.2,-18.635c-0.167,-6.641 -3.396,-12.913 -8.861,-17.221c-1.162,-1.207 -2.484,-2.065 -3.936,-2.551c-2.087,-1.094 -4.329,-1.902 -6.685,-2.411c0.611,-6.674 -4.294,-14.02 -12.17,-17.924c-3.462,-1.716 -7.182,-2.624 -10.761,-2.624c-3.792,0 -7.147,1.01 -9.691,2.828c0.163,-0.128 0.328,-0.252 0.498,-0.373c2.542,-1.813 5.894,-2.82 9.68,-2.82c3.579,0 7.299,0.908 10.761,2.624c7.877,3.902 12.781,11.25 12.17,17.924c2.355,0.509 4.599,1.317 6.686,2.412c1.45,0.485 2.773,1.343 3.935,2.55c5.466,4.308 8.693,10.58 8.86,17.221c0.188,7.449 -3.426,14.192 -9.203,18.638c-0.159,0.122 -0.32,0.243 -0.483,0.362Zm-111.41,-33.472c0.157,-0.121 0.315,-0.239 0.474,-0.357c2.798,-2.036 6.091,-3.378 9.519,-3.749c0.01,0.106 0.02,0.212 0.032,0.317c-3.61,0.285 -7.09,1.655 -10.025,3.789Zm64.226,-21.827c-5.356,-4.798 -13.191,-7.679 -21.607,-7.838c-0.248,-0.004 -0.493,-0.007 -0.739,-0.007c-7.82,0 -14.843,2.286 -19.969,6.038c0.163,-0.125 0.328,-0.248 0.495,-0.371c5.124,-3.749 12.145,-6.032 19.961,-6.032c0.246,0 0.492,0.003 0.739,0.007c8.406,0.157 16.232,3.032 21.588,7.82c-0.16,0.125 -0.317,0.252 -0.468,0.383Z" style="fill:#fff;fill-opacity:0.52;fill-rule:nonzero;"/><path d="M258.22,133.435c2.779,-2.12 5.33,-4.699 7.551,-7.661c0.049,0.027 0.098,0.054 0.146,0.081c-2.14,2.778 -4.576,5.205 -7.216,7.22c-0.16,0.12 -0.32,0.241 -0.481,0.36Zm39.771,-11.969c5.786,-4.446 9.411,-11.197 9.223,-18.654c-0.167,-6.64 -3.396,-12.913 -8.86,-17.221c-1.163,-1.207 -2.487,-2.065 -3.937,-2.551c-2.087,-1.094 -4.329,-1.902 -6.684,-2.411c0.611,-6.674 -4.296,-14.02 -12.17,-17.924c-3.463,-1.716 -7.183,-2.622 -10.762,-2.622c-3.791,0 -7.144,1.009 -9.688,2.824c0.157,-0.123 0.32,-0.245 0.484,-0.363c2.544,-1.818 5.899,-2.828 9.691,-2.828c3.579,0 7.299,0.908 10.761,2.624c7.876,3.904 12.781,11.25 12.17,17.924c2.356,0.509 4.598,1.317 6.685,2.411c1.452,0.486 2.774,1.344 3.936,2.551c5.465,4.308 8.694,10.58 8.861,17.221c0.188,7.447 -3.426,14.19 -9.2,18.635c-0.169,0.131 -0.339,0.257 -0.51,0.384Zm-111.389,-33.488c0.162,-0.125 0.325,-0.248 0.489,-0.368c2.935,-2.134 6.415,-3.504 10.025,-3.789c0.013,0.111 0.026,0.221 0.041,0.332c-3.799,0.186 -7.477,1.585 -10.555,3.825Zm64.269,-21.794c-5.358,-4.82 -13.212,-7.715 -21.649,-7.875c-0.247,-0.003 -0.493,-0.005 -0.737,-0.005c-7.827,0 -14.858,2.289 -19.983,6.047c0.166,-0.126 0.332,-0.251 0.5,-0.375c5.126,-3.752 12.149,-6.038 19.969,-6.038c0.246,0 0.491,0.003 0.739,0.007c8.416,0.159 16.251,3.04 21.607,7.838c-0.153,0.129 -0.302,0.263 -0.446,0.401Z" style="fill:#fff;fill-opacity:0.52;fill-rule:nonzero;"/><path d="M257.726,133.805c2.922,-2.228 5.593,-4.963 7.892,-8.117c0.051,0.029 0.102,0.057 0.153,0.086c-2.221,2.962 -4.772,5.541 -7.551,7.661c-0.163,0.125 -0.328,0.249 -0.494,0.37Zm39.789,-11.984c5.783,-4.445 9.4,-11.192 9.212,-18.644c-0.167,-6.64 -3.396,-12.912 -8.86,-17.221c-1.162,-1.207 -2.486,-2.065 -3.937,-2.551c-2.087,-1.094 -4.33,-1.902 -6.684,-2.41c0.611,-6.675 -4.295,-14.021 -12.172,-17.925c-3.461,-1.716 -7.181,-2.622 -10.759,-2.622c-3.789,0 -7.143,1.008 -9.685,2.821c0.157,-0.123 0.319,-0.244 0.483,-0.362c2.544,-1.815 5.897,-2.824 9.688,-2.824c3.579,0 7.299,0.906 10.762,2.622c7.874,3.904 12.781,11.25 12.17,17.924c2.355,0.509 4.597,1.317 6.684,2.411c1.45,0.486 2.774,1.344 3.937,2.551c5.464,4.308 8.693,10.581 8.86,17.221c0.188,7.457 -3.437,14.208 -9.223,18.654c-0.158,0.121 -0.316,0.238 -0.476,0.355Zm-111.401,-33.478c0.161,-0.124 0.322,-0.246 0.488,-0.365c3.078,-2.24 6.756,-3.639 10.555,-3.825c0.016,0.115 0.032,0.231 0.049,0.346c-3.988,0.075 -7.87,1.498 -11.092,3.844Zm64.332,-21.737c-5.359,-4.853 -13.241,-7.771 -21.711,-7.929c-0.247,-0.006 -0.491,-0.008 -0.739,-0.008c-7.811,0 -14.828,2.281 -19.951,6.026c0.15,-0.115 0.303,-0.23 0.457,-0.344c5.125,-3.758 12.156,-6.047 19.983,-6.047c0.244,0 0.49,0.002 0.737,0.005c8.437,0.16 16.291,3.055 21.649,7.875c-0.146,0.137 -0.288,0.278 -0.425,0.422Z" style="fill:#fff;fill-opacity:0.52;fill-rule:nonzero;"/><path d="M257.249,134.162c3.058,-2.332 5.84,-5.221 8.209,-8.566c0.054,0.031 0.106,0.061 0.16,0.092c-2.299,3.154 -4.97,5.889 -7.892,8.117c-0.157,0.12 -0.317,0.24 -0.477,0.357Zm39.774,-11.972c5.784,-4.444 9.406,-11.193 9.217,-18.648c-0.168,-6.64 -3.396,-12.912 -8.86,-17.219c-1.162,-1.209 -2.486,-2.067 -3.937,-2.553c-2.087,-1.095 -4.33,-1.902 -6.684,-2.41c0.61,-6.674 -4.295,-14.021 -12.171,-17.925c-3.461,-1.716 -7.181,-2.622 -10.76,-2.622c-3.791,0 -7.144,1.008 -9.688,2.824c0.16,-0.126 0.323,-0.248 0.49,-0.368c2.542,-1.813 5.896,-2.821 9.685,-2.821c3.578,0 7.298,0.906 10.759,2.622c7.877,3.904 12.783,11.25 12.172,17.925c2.354,0.508 4.597,1.316 6.684,2.41c1.451,0.486 2.775,1.344 3.937,2.551c5.464,4.309 8.693,10.581 8.86,17.221c0.188,7.452 -3.429,14.199 -9.212,18.644c-0.161,0.125 -0.326,0.248 -0.492,0.369Zm-111.386,-33.49c0.157,-0.12 0.317,-0.239 0.477,-0.357c3.222,-2.346 7.104,-3.769 11.092,-3.844c0.019,0.122 0.039,0.243 0.06,0.363c-0.07,-0.001 -0.141,-0.001 -0.213,-0.001c-4.101,0 -8.105,1.432 -11.416,3.839Zm64.405,-21.652c-5.36,-4.9 -13.28,-7.846 -21.793,-8.006c-0.248,-0.006 -0.494,-0.008 -0.738,-0.008c-7.815,0 -14.832,2.281 -19.956,6.027c0.162,-0.123 0.325,-0.246 0.49,-0.366c5.123,-3.745 12.14,-6.026 19.951,-6.026c0.248,0 0.492,0.002 0.739,0.008c8.47,0.158 16.352,3.076 21.711,7.929c-0.138,0.144 -0.275,0.291 -0.404,0.442Z" style="fill:#fff;fill-opacity:0.52;fill-rule:nonzero;"/><path d="M256.755,134.533c3.2,-2.44 6.098,-5.49 8.539,-9.033c0.053,0.032 0.109,0.064 0.164,0.096c-2.369,3.345 -5.151,6.234 -8.209,8.566c-0.164,0.126 -0.328,0.249 -0.494,0.371Zm39.781,-11.978c5.784,-4.444 9.406,-11.193 9.217,-18.646c-0.168,-6.641 -3.396,-12.914 -8.86,-17.221c-1.163,-1.209 -2.486,-2.066 -3.936,-2.553c-2.087,-1.093 -4.331,-1.904 -6.686,-2.41c0.611,-6.674 -4.294,-14.021 -12.17,-17.925c-3.461,-1.714 -7.181,-2.622 -10.761,-2.622c-3.788,0 -7.142,1.008 -9.686,2.823c0.159,-0.125 0.32,-0.246 0.486,-0.364c2.544,-1.816 5.897,-2.824 9.688,-2.824c3.579,0 7.299,0.906 10.76,2.622c7.876,3.904 12.781,11.251 12.171,17.925c2.354,0.508 4.597,1.315 6.684,2.41c1.451,0.486 2.775,1.344 3.937,2.553c5.464,4.307 8.692,10.579 8.86,17.219c0.189,7.455 -3.433,14.204 -9.217,18.648c-0.161,0.124 -0.322,0.246 -0.487,0.365Zm-111.397,-33.481c0.163,-0.126 0.33,-0.251 0.498,-0.374c3.311,-2.407 7.315,-3.839 11.416,-3.839c0.072,0 0.143,0 0.213,0.001c0.023,0.128 0.046,0.255 0.071,0.381c-0.256,-0.011 -0.514,-0.017 -0.771,-0.017c-4.106,0 -8.114,1.437 -11.427,3.848Zm64.523,-21.564c-5.361,-4.958 -13.331,-7.943 -21.9,-8.105c-0.247,-0.004 -0.494,-0.007 -0.739,-0.007c-7.818,0 -14.841,2.286 -19.965,6.037c0.163,-0.125 0.33,-0.25 0.497,-0.374c5.124,-3.746 12.141,-6.027 19.956,-6.027c0.244,0 0.49,0.002 0.738,0.008c8.513,0.16 16.433,3.106 21.793,8.006c-0.131,0.151 -0.259,0.305 -0.38,0.462Z" style="fill:#fff;fill-opacity:0.52;fill-rule:nonzero;"/><path d="M256.282,134.888c3.334,-2.546 6.34,-5.75 8.84,-9.488c0.057,0.033 0.113,0.067 0.172,0.1c-2.441,3.543 -5.339,6.593 -8.539,9.033c-0.156,0.12 -0.314,0.239 -0.473,0.355Zm39.767,-11.968c5.784,-4.446 9.404,-11.193 9.216,-18.646c-0.167,-6.641 -3.394,-12.914 -8.86,-17.221c-1.162,-1.207 -2.485,-2.065 -3.937,-2.551c-2.087,-1.095 -4.328,-1.903 -6.684,-2.412c0.611,-6.674 -4.293,-14.021 -12.17,-17.925c-3.461,-1.714 -7.182,-2.622 -10.761,-2.622c-3.786,0 -7.138,1.007 -9.68,2.82c0.157,-0.124 0.317,-0.244 0.481,-0.362c2.544,-1.815 5.898,-2.823 9.686,-2.823c3.58,0 7.3,0.908 10.761,2.622c7.876,3.904 12.781,11.251 12.17,17.925c2.355,0.506 4.599,1.317 6.686,2.41c1.45,0.487 2.773,1.344 3.936,2.553c5.464,4.307 8.692,10.58 8.86,17.221c0.189,7.453 -3.433,14.202 -9.217,18.646c-0.16,0.124 -0.323,0.246 -0.487,0.365Zm-111.396,-33.482c0.16,-0.124 0.323,-0.246 0.486,-0.364c3.313,-2.411 7.321,-3.848 11.427,-3.848c0.257,0 0.515,0.006 0.771,0.017c0.026,0.133 0.054,0.265 0.084,0.397c0,0.002 -0.001,0.003 -0.001,0.005c-0.444,-0.035 -0.892,-0.054 -1.34,-0.054c-4.105,0 -8.114,1.435 -11.427,3.847Zm64.65,-21.443c-5.361,-5.03 -13.389,-8.062 -22.028,-8.225c-0.247,-0.004 -0.493,-0.007 -0.739,-0.007c-7.817,0 -14.837,2.285 -19.961,6.034c0.159,-0.122 0.32,-0.243 0.483,-0.362c5.124,-3.751 12.147,-6.037 19.965,-6.037c0.245,0 0.492,0.003 0.739,0.007c8.569,0.162 16.539,3.147 21.9,8.105c-0.124,0.159 -0.243,0.32 -0.359,0.485Z" style="fill:#fff;fill-opacity:0.52;fill-rule:nonzero;"/><path d="M255.782,135.263c3.477,-2.652 6.6,-6.024 9.164,-9.969c0.058,0.036 0.118,0.071 0.176,0.106c-2.5,3.738 -5.506,6.942 -8.84,9.488c-0.166,0.127 -0.333,0.252 -0.5,0.375Zm39.799,-11.991c5.774,-4.446 9.385,-11.187 9.197,-18.633c-0.166,-6.641 -3.394,-12.913 -8.858,-17.221c-1.164,-1.207 -2.486,-2.065 -3.937,-2.551c-2.087,-1.095 -4.33,-1.904 -6.686,-2.412c0.611,-6.674 -4.293,-14.02 -12.17,-17.923c-3.462,-1.716 -7.182,-2.624 -10.761,-2.624c-3.787,0 -7.14,1.007 -9.682,2.82c0.159,-0.125 0.323,-0.247 0.489,-0.365c2.542,-1.813 5.894,-2.82 9.68,-2.82c3.579,0 7.3,0.908 10.761,2.622c7.877,3.904 12.781,11.251 12.17,17.925c2.356,0.509 4.597,1.317 6.684,2.412c1.452,0.486 2.775,1.344 3.937,2.551c5.466,4.307 8.693,10.58 8.86,17.221c0.188,7.453 -3.432,14.2 -9.216,18.646c-0.154,0.12 -0.311,0.237 -0.468,0.352Zm-111.431,-33.456c0.166,-0.129 0.333,-0.255 0.503,-0.378c3.313,-2.412 7.322,-3.847 11.427,-3.847c0.448,0 0.896,0.019 1.34,0.054c-0.009,0.137 -0.016,0.273 -0.023,0.409c-0.597,-0.064 -1.199,-0.096 -1.804,-0.096c-4.113,0 -8.127,1.439 -11.443,3.858Zm64.817,-21.312c-5.361,-5.115 -13.459,-8.204 -22.179,-8.369c-0.247,-0.004 -0.493,-0.007 -0.739,-0.007c-7.813,0 -14.83,2.282 -19.952,6.028c0.157,-0.122 0.317,-0.241 0.478,-0.359c5.124,-3.749 12.144,-6.034 19.961,-6.034c0.246,0 0.492,0.003 0.739,0.007c8.639,0.163 16.667,3.195 22.028,8.225c-0.117,0.167 -0.229,0.336 -0.336,0.509Z" style="fill:#fff;fill-opacity:0.52;fill-rule:nonzero;"/><path d="M255.295,135.63c3.615,-2.76 6.85,-6.297 9.469,-10.447c0.06,0.037 0.121,0.074 0.182,0.111c-2.564,3.945 -5.687,7.317 -9.164,9.969c-0.161,0.124 -0.324,0.246 -0.487,0.367Zm39.797,-11.991c5.774,-4.446 9.388,-11.189 9.2,-18.635c-0.167,-6.641 -3.396,-12.913 -8.86,-17.221c-1.163,-1.207 -2.485,-2.065 -3.937,-2.551c-2.087,-1.095 -4.331,-1.904 -6.685,-2.412c0.612,-6.674 -4.294,-14.02 -12.17,-17.923c-3.46,-1.716 -7.182,-2.624 -10.761,-2.624c-3.789,0 -7.144,1.01 -9.686,2.825c0.026,-0.021 0.052,-0.043 0.08,-0.063c0.133,-0.105 0.272,-0.206 0.411,-0.307c2.542,-1.813 5.895,-2.82 9.682,-2.82c3.579,0 7.299,0.908 10.761,2.624c7.877,3.903 12.781,11.249 12.17,17.923c2.356,0.508 4.599,1.317 6.686,2.412c1.451,0.486 2.773,1.344 3.937,2.551c5.464,4.308 8.692,10.58 8.858,17.221c0.188,7.446 -3.423,14.187 -9.197,18.633c-0.162,0.124 -0.325,0.246 -0.489,0.367Zm-111.41,-33.473c0.154,-0.119 0.311,-0.235 0.468,-0.35c3.316,-2.419 7.33,-3.858 11.443,-3.858c0.605,0 1.207,0.032 1.804,0.096c-0.006,0.142 -0.012,0.283 -0.016,0.423c-0.751,-0.104 -1.51,-0.154 -2.275,-0.154c-4.104,0 -8.111,1.435 -11.424,3.843Zm64.972,-21.13c-5.358,-5.215 -13.537,-8.37 -22.353,-8.536c-0.248,-0.004 -0.493,-0.007 -0.738,-0.007c-7.818,0 -14.842,2.286 -19.965,6.037c0.163,-0.126 0.33,-0.251 0.499,-0.374c5.122,-3.746 12.139,-6.028 19.952,-6.028c0.246,0 0.492,0.003 0.739,0.007c8.72,0.165 16.818,3.254 22.179,8.369c-0.108,0.174 -0.212,0.352 -0.313,0.532Z" style="fill:#fff;fill-opacity:0.52;fill-rule:nonzero;"/><path d="M237.154,142.228c-10.717,0 -20.531,-6.648 -23.623,-15.727c-4.088,2.077 -8.765,3.207 -13.354,3.207c-4.715,0 -9.225,-1.17 -13.044,-3.382c-8.799,-5.096 -13.556,-15.969 -11.068,-25.295c2.239,-8.385 10.425,-14.708 19.041,-14.708c0.765,0 1.524,0.05 2.275,0.154c0.008,-0.277 0.021,-0.556 0.04,-0.838c-0.294,-1.313 -0.429,-2.64 -0.406,-3.946c0.224,-11.888 12.764,-21.2 28.548,-21.2c0.245,0 0.492,0.003 0.738,0.007c8.816,0.168 16.995,3.322 22.353,8.536c2.334,-4.244 7.236,-6.763 13.225,-6.763c3.579,0 7.299,0.908 10.761,2.624c7.876,3.903 12.782,11.249 12.17,17.923c2.356,0.51 4.598,1.317 6.685,2.412c1.452,0.486 2.774,1.344 3.937,2.551c5.464,4.308 8.693,10.58 8.86,17.221c0.326,12.928 -10.801,23.731 -24.805,24.083c-0.236,0.006 -0.472,0.008 -0.707,0.008c-5.045,0 -9.859,-1.346 -14.016,-3.912c-5.957,9.438 -15.092,15.706 -24.685,16.871c-0.96,0.115 -1.941,0.174 -2.925,0.174Z" style="fill:#fff;fill-rule:nonzero;"/></g><g id="Cloud3" serif:id="Cloud"><path d="M133.545,244.391c2.5,-1.907 4.819,-4.186 6.877,-6.78c0.045,0.023 0.09,0.048 0.135,0.072c-2.105,2.581 -4.468,4.835 -7.012,6.708Zm39.801,-11.993c5.776,-4.446 9.39,-11.188 9.203,-18.637c-0.167,-6.641 -3.395,-12.914 -8.86,-17.222c-1.162,-1.207 -2.486,-2.065 -3.936,-2.549c-2.087,-1.095 -4.331,-1.904 -6.685,-2.413c0.61,-6.674 -4.294,-14.021 -12.171,-17.923c-3.461,-1.717 -7.181,-2.624 -10.76,-2.624c-3.786,0 -7.138,1.006 -9.681,2.82c2.595,-2.043 6.135,-3.185 10.168,-3.185c3.579,0 7.299,0.907 10.761,2.622c7.875,3.904 12.781,11.251 12.17,17.925c2.354,0.508 4.598,1.318 6.684,2.413c1.451,0.484 2.775,1.342 3.937,2.549c5.464,4.308 8.693,10.581 8.86,17.222c0.193,7.655 -3.63,14.565 -9.69,19.002Zm-111.419,-33.466c2.761,-2.135 6.05,-3.582 9.494,-4.052c0.007,0.1 0.016,0.202 0.024,0.303c-3.427,0.37 -6.72,1.713 -9.518,3.749Zm64.22,-21.853c-5.356,-4.788 -13.182,-7.663 -21.589,-7.82c-0.247,-0.005 -0.493,-0.008 -0.738,-0.008c-7.816,0 -14.838,2.284 -19.962,6.033c5.161,-3.965 12.381,-6.398 20.449,-6.398c0.246,0 0.491,0.003 0.739,0.007c8.404,0.158 16.232,3.033 21.588,7.821c-0.027,0.02 -0.054,0.042 -0.08,0.062c-0.138,0.099 -0.275,0.199 -0.407,0.303Z" style="fill:#fff;fill-opacity:0.52;fill-rule:nonzero;"/><path d="M133.063,244.753c2.639,-2.014 5.075,-4.442 7.216,-7.219c0.048,0.024 0.095,0.051 0.143,0.077c-2.058,2.594 -4.377,4.873 -6.877,6.78c-0.16,0.122 -0.321,0.243 -0.482,0.362Zm39.8,-11.993c5.774,-4.444 9.388,-11.188 9.2,-18.634c-0.167,-6.641 -3.396,-12.914 -8.861,-17.221c-1.162,-1.208 -2.485,-2.066 -3.936,-2.551c-2.087,-1.094 -4.33,-1.903 -6.686,-2.412c0.611,-6.674 -4.293,-14.02 -12.17,-17.923c-3.461,-1.716 -7.181,-2.624 -10.761,-2.624c-3.791,0 -7.146,1.009 -9.69,2.827c0.163,-0.128 0.327,-0.251 0.497,-0.372c2.543,-1.814 5.895,-2.82 9.681,-2.82c3.579,0 7.299,0.907 10.76,2.624c7.877,3.902 12.781,11.249 12.171,17.923c2.354,0.509 4.598,1.318 6.685,2.413c1.45,0.484 2.774,1.342 3.936,2.549c5.465,4.308 8.693,10.581 8.86,17.222c0.187,7.449 -3.427,14.191 -9.203,18.637c-0.159,0.122 -0.32,0.243 -0.483,0.362Zm-111.41,-33.472c0.157,-0.12 0.315,-0.238 0.474,-0.356c2.798,-2.036 6.091,-3.379 9.518,-3.749c0.011,0.106 0.021,0.212 0.032,0.317c-3.609,0.285 -7.09,1.655 -10.024,3.788Zm64.226,-21.827c-5.357,-4.798 -13.191,-7.679 -21.608,-7.837c-0.247,-0.005 -0.493,-0.008 -0.739,-0.008c-7.82,0 -14.843,2.287 -19.968,6.039c0.163,-0.125 0.327,-0.249 0.494,-0.371c5.124,-3.749 12.146,-6.033 19.962,-6.033c0.245,0 0.491,0.003 0.738,0.008c8.407,0.157 16.233,3.032 21.589,7.82c-0.16,0.125 -0.317,0.251 -0.468,0.382Z" style="fill:#fff;fill-opacity:0.52;fill-rule:nonzero;"/><path d="M132.581,245.114c2.779,-2.121 5.33,-4.699 7.551,-7.662c0.05,0.028 0.099,0.054 0.147,0.082c-2.141,2.777 -4.577,5.205 -7.216,7.219c-0.16,0.121 -0.32,0.242 -0.482,0.361Zm39.771,-11.97c5.787,-4.446 9.411,-11.197 9.224,-18.653c-0.167,-6.641 -3.396,-12.914 -8.86,-17.221c-1.164,-1.208 -2.487,-2.066 -3.937,-2.551c-2.087,-1.094 -4.33,-1.903 -6.684,-2.412c0.61,-6.674 -4.297,-14.02 -12.171,-17.923c-3.462,-1.716 -7.183,-2.623 -10.762,-2.623c-3.79,0 -7.144,1.01 -9.687,2.825c0.157,-0.124 0.32,-0.246 0.484,-0.364c2.544,-1.818 5.899,-2.827 9.69,-2.827c3.58,0 7.3,0.908 10.761,2.624c7.877,3.903 12.781,11.249 12.17,17.923c2.356,0.509 4.599,1.318 6.686,2.412c1.451,0.485 2.774,1.343 3.936,2.551c5.465,4.307 8.694,10.58 8.861,17.221c0.188,7.446 -3.426,14.19 -9.2,18.634c-0.169,0.131 -0.339,0.258 -0.511,0.384Zm-111.388,-33.488c0.161,-0.125 0.324,-0.247 0.489,-0.368c2.934,-2.133 6.415,-3.503 10.024,-3.788c0.014,0.11 0.027,0.221 0.041,0.331c-3.799,0.186 -7.477,1.586 -10.554,3.825Zm64.268,-21.793c-5.358,-4.82 -13.211,-7.716 -21.648,-7.876c-0.247,-0.003 -0.493,-0.004 -0.737,-0.004c-7.828,0 -14.858,2.289 -19.983,6.047c0.165,-0.126 0.331,-0.252 0.5,-0.375c5.125,-3.752 12.148,-6.039 19.968,-6.039c0.246,0 0.492,0.003 0.739,0.008c8.417,0.158 16.251,3.039 21.608,7.837c-0.153,0.13 -0.303,0.263 -0.447,0.402Z" style="fill:#fff;fill-opacity:0.52;fill-rule:nonzero;"/><path d="M132.088,245.483c2.922,-2.228 5.592,-4.962 7.892,-8.117c0.05,0.029 0.101,0.057 0.152,0.086c-2.221,2.963 -4.772,5.541 -7.551,7.662c-0.163,0.125 -0.327,0.249 -0.493,0.369Zm39.789,-11.984c5.782,-4.444 9.399,-11.191 9.212,-18.643c-0.168,-6.641 -3.396,-12.912 -8.86,-17.221c-1.162,-1.207 -2.486,-2.066 -3.937,-2.551c-2.087,-1.094 -4.33,-1.903 -6.685,-2.41c0.611,-6.676 -4.294,-14.022 -12.171,-17.925c-3.462,-1.716 -7.182,-2.623 -10.76,-2.623c-3.788,0 -7.142,1.008 -9.684,2.822c0.157,-0.124 0.318,-0.244 0.483,-0.362c2.543,-1.815 5.897,-2.825 9.687,-2.825c3.579,0 7.3,0.907 10.762,2.623c7.874,3.903 12.781,11.249 12.171,17.923c2.354,0.509 4.597,1.318 6.684,2.412c1.45,0.485 2.773,1.343 3.937,2.551c5.464,4.307 8.693,10.58 8.86,17.221c0.187,7.456 -3.437,14.207 -9.224,18.653c-0.157,0.121 -0.315,0.239 -0.475,0.355Zm-111.402,-33.478c0.162,-0.123 0.323,-0.246 0.489,-0.365c3.077,-2.239 6.755,-3.639 10.554,-3.825c0.016,0.115 0.032,0.231 0.05,0.346c-3.988,0.076 -7.87,1.498 -11.093,3.844Zm64.333,-21.737c-5.36,-4.853 -13.241,-7.77 -21.711,-7.929c-0.247,-0.006 -0.492,-0.007 -0.739,-0.007c-7.811,0 -14.829,2.28 -19.951,6.025c0.15,-0.115 0.303,-0.23 0.457,-0.343c5.125,-3.758 12.155,-6.047 19.983,-6.047c0.244,0 0.49,0.001 0.737,0.004c8.437,0.16 16.29,3.056 21.648,7.876c-0.145,0.136 -0.288,0.277 -0.424,0.421Z" style="fill:#fff;fill-opacity:0.52;fill-rule:nonzero;"/><path d="M131.611,245.841c3.057,-2.333 5.839,-5.221 8.209,-8.566c0.053,0.03 0.106,0.061 0.16,0.091c-2.3,3.155 -4.97,5.889 -7.892,8.117c-0.157,0.121 -0.317,0.24 -0.477,0.358Zm39.774,-11.972c5.784,-4.445 9.405,-11.193 9.216,-18.648c-0.167,-6.641 -3.396,-12.912 -8.86,-17.22c-1.162,-1.208 -2.485,-2.067 -3.937,-2.552c-2.087,-1.095 -4.329,-1.903 -6.684,-2.41c0.611,-6.674 -4.295,-14.022 -12.17,-17.925c-3.461,-1.716 -7.182,-2.622 -10.761,-2.622c-3.79,0 -7.144,1.007 -9.687,2.824c0.16,-0.127 0.323,-0.249 0.49,-0.368c2.542,-1.814 5.896,-2.822 9.684,-2.822c3.578,0 7.298,0.907 10.76,2.623c7.877,3.903 12.782,11.249 12.171,17.925c2.355,0.507 4.598,1.316 6.685,2.41c1.451,0.485 2.775,1.344 3.937,2.551c5.464,4.309 8.692,10.58 8.86,17.221c0.187,7.452 -3.43,14.199 -9.212,18.643c-0.162,0.125 -0.326,0.249 -0.492,0.37Zm-111.387,-33.49c0.157,-0.121 0.317,-0.24 0.477,-0.358c3.223,-2.346 7.105,-3.768 11.093,-3.844c0.019,0.123 0.039,0.243 0.059,0.364c-0.07,-0.002 -0.141,-0.002 -0.212,-0.002c-4.101,0 -8.105,1.433 -11.417,3.84Zm64.405,-21.653c-5.359,-4.899 -13.28,-7.846 -21.792,-8.006c-0.249,-0.006 -0.494,-0.007 -0.739,-0.007c-7.814,0 -14.831,2.28 -19.955,6.027c0.161,-0.124 0.324,-0.246 0.49,-0.367c5.122,-3.745 12.14,-6.025 19.951,-6.025c0.247,0 0.492,0.001 0.739,0.007c8.47,0.159 16.351,3.076 21.711,7.929c-0.139,0.144 -0.275,0.291 -0.405,0.442Z" style="fill:#fff;fill-opacity:0.52;fill-rule:nonzero;"/><path d="M131.117,246.212c3.199,-2.441 6.098,-5.49 8.538,-9.033c0.054,0.032 0.109,0.064 0.165,0.096c-2.37,3.345 -5.152,6.233 -8.209,8.566c-0.164,0.125 -0.329,0.249 -0.494,0.371Zm39.781,-11.978c5.784,-4.445 9.405,-11.193 9.216,-18.647c-0.167,-6.64 -3.396,-12.913 -8.86,-17.221c-1.162,-1.208 -2.485,-2.065 -3.935,-2.552c-2.087,-1.094 -4.331,-1.904 -6.686,-2.41c0.611,-6.674 -4.295,-14.022 -12.17,-17.925c-3.462,-1.715 -7.182,-2.622 -10.761,-2.622c-3.789,0 -7.142,1.007 -9.686,2.822c0.158,-0.125 0.32,-0.245 0.486,-0.363c2.543,-1.817 5.897,-2.824 9.687,-2.824c3.579,0 7.3,0.906 10.761,2.622c7.875,3.903 12.781,11.251 12.17,17.925c2.355,0.507 4.597,1.315 6.684,2.41c1.452,0.485 2.775,1.344 3.937,2.552c5.464,4.308 8.693,10.579 8.86,17.22c0.189,7.455 -3.432,14.203 -9.216,18.648c-0.161,0.123 -0.323,0.245 -0.487,0.365Zm-111.397,-33.481c0.163,-0.127 0.33,-0.252 0.497,-0.374c3.312,-2.407 7.316,-3.84 11.417,-3.84c0.071,0 0.142,0 0.212,0.002c0.024,0.128 0.047,0.254 0.072,0.381c-0.256,-0.012 -0.514,-0.017 -0.771,-0.017c-4.106,0 -8.114,1.436 -11.427,3.848Zm64.523,-21.564c-5.361,-4.958 -13.331,-7.944 -21.9,-8.105c-0.247,-0.005 -0.495,-0.008 -0.739,-0.008c-7.819,0 -14.842,2.287 -19.966,6.038c0.163,-0.126 0.331,-0.251 0.498,-0.374c5.124,-3.747 12.141,-6.027 19.955,-6.027c0.245,0 0.49,0.001 0.739,0.007c8.512,0.16 16.433,3.107 21.792,8.006c-0.131,0.152 -0.259,0.306 -0.379,0.463Z" style="fill:#fff;fill-opacity:0.52;fill-rule:nonzero;"/><path d="M130.644,246.567c3.333,-2.547 6.339,-5.751 8.84,-9.489c0.056,0.034 0.113,0.067 0.171,0.101c-2.44,3.543 -5.339,6.592 -8.538,9.033c-0.156,0.119 -0.315,0.238 -0.473,0.355Zm39.767,-11.968c5.784,-4.446 9.404,-11.193 9.216,-18.647c-0.167,-6.64 -3.395,-12.913 -8.86,-17.221c-1.162,-1.207 -2.486,-2.065 -3.937,-2.551c-2.087,-1.095 -4.328,-1.902 -6.684,-2.411c0.611,-6.674 -4.294,-14.022 -12.17,-17.925c-3.462,-1.715 -7.182,-2.622 -10.761,-2.622c-3.786,0 -7.138,1.006 -9.68,2.82c0.157,-0.124 0.317,-0.245 0.481,-0.363c2.544,-1.815 5.897,-2.822 9.686,-2.822c3.579,0 7.299,0.907 10.761,2.622c7.875,3.903 12.781,11.251 12.17,17.925c2.355,0.506 4.599,1.316 6.686,2.41c1.45,0.487 2.773,1.344 3.935,2.552c5.464,4.308 8.693,10.581 8.86,17.221c0.189,7.454 -3.432,14.202 -9.216,18.647c-0.16,0.123 -0.323,0.246 -0.487,0.365Zm-111.396,-33.483c0.16,-0.123 0.323,-0.245 0.486,-0.363c3.313,-2.412 7.321,-3.848 11.427,-3.848c0.257,0 0.515,0.005 0.771,0.017c0.026,0.132 0.053,0.265 0.084,0.397c0,0.001 -0.002,0.003 -0.002,0.004c-0.443,-0.034 -0.891,-0.053 -1.339,-0.053c-4.106,0 -8.114,1.435 -11.427,3.846Zm64.649,-21.443c-5.36,-5.029 -13.388,-8.061 -22.027,-8.224c-0.248,-0.005 -0.493,-0.008 -0.739,-0.008c-7.817,0 -14.838,2.285 -19.961,6.035c0.158,-0.123 0.32,-0.243 0.482,-0.362c5.124,-3.751 12.147,-6.038 19.966,-6.038c0.244,0 0.492,0.003 0.739,0.008c8.569,0.161 16.539,3.147 21.9,8.105c-0.124,0.158 -0.243,0.32 -0.36,0.484Z" style="fill:#fff;fill-opacity:0.52;fill-rule:nonzero;"/><path d="M130.144,246.942c3.477,-2.653 6.6,-6.024 9.164,-9.97c0.058,0.037 0.117,0.072 0.176,0.106c-2.501,3.738 -5.507,6.942 -8.84,9.489c-0.166,0.126 -0.333,0.251 -0.5,0.375Zm39.798,-11.991c5.774,-4.446 9.385,-11.187 9.198,-18.634c-0.166,-6.64 -3.395,-12.913 -8.859,-17.221c-1.163,-1.207 -2.485,-2.065 -3.937,-2.551c-2.087,-1.095 -4.329,-1.903 -6.686,-2.411c0.611,-6.674 -4.293,-14.02 -12.17,-17.924c-3.461,-1.716 -7.181,-2.623 -10.76,-2.623c-3.788,0 -7.14,1.006 -9.682,2.82c0.158,-0.125 0.323,-0.248 0.489,-0.365c2.542,-1.814 5.894,-2.82 9.68,-2.82c3.579,0 7.299,0.907 10.761,2.622c7.876,3.903 12.781,11.251 12.17,17.925c2.356,0.509 4.597,1.316 6.684,2.411c1.451,0.486 2.775,1.344 3.937,2.551c5.465,4.308 8.693,10.581 8.86,17.221c0.188,7.454 -3.432,14.201 -9.216,18.647c-0.155,0.119 -0.312,0.237 -0.469,0.352Zm-111.43,-33.457c0.166,-0.129 0.333,-0.254 0.503,-0.378c3.313,-2.411 7.321,-3.846 11.427,-3.846c0.448,0 0.896,0.019 1.339,0.053c-0.008,0.137 -0.016,0.274 -0.023,0.409c-0.596,-0.064 -1.198,-0.096 -1.803,-0.096c-4.113,0 -8.127,1.44 -11.443,3.858Zm64.816,-21.312c-5.36,-5.115 -13.458,-8.204 -22.179,-8.368c-0.247,-0.004 -0.493,-0.007 -0.738,-0.007c-7.813,0 -14.831,2.281 -19.953,6.028c0.157,-0.122 0.317,-0.241 0.479,-0.359c5.123,-3.75 12.144,-6.035 19.961,-6.035c0.246,0 0.491,0.003 0.739,0.008c8.639,0.163 16.667,3.195 22.027,8.224c-0.116,0.167 -0.228,0.336 -0.336,0.509Z" style="fill:#fff;fill-opacity:0.52;fill-rule:nonzero;"/><path d="M129.656,247.308c3.616,-2.76 6.85,-6.297 9.47,-10.446c0.059,0.036 0.12,0.074 0.182,0.11c-2.564,3.946 -5.687,7.317 -9.164,9.97c-0.162,0.124 -0.325,0.246 -0.488,0.366Zm39.798,-11.991c5.773,-4.446 9.388,-11.188 9.2,-18.635c-0.167,-6.64 -3.396,-12.913 -8.86,-17.221c-1.164,-1.207 -2.486,-2.065 -3.937,-2.551c-2.087,-1.095 -4.331,-1.903 -6.686,-2.411c0.613,-6.674 -4.293,-14.02 -12.17,-17.924c-3.46,-1.716 -7.181,-2.623 -10.761,-2.623c-3.788,0 -7.143,1.009 -9.686,2.824c0.026,-0.02 0.053,-0.042 0.08,-0.062c0.134,-0.105 0.272,-0.207 0.412,-0.307c2.542,-1.814 5.894,-2.82 9.682,-2.82c3.579,0 7.299,0.907 10.76,2.623c7.877,3.904 12.781,11.25 12.17,17.924c2.357,0.508 4.599,1.316 6.686,2.411c1.452,0.486 2.774,1.344 3.937,2.551c5.464,4.308 8.693,10.581 8.859,17.221c0.187,7.447 -3.424,14.188 -9.198,18.634c-0.161,0.123 -0.324,0.246 -0.488,0.366Zm-111.411,-33.472c0.155,-0.119 0.312,-0.236 0.469,-0.351c3.316,-2.418 7.33,-3.858 11.443,-3.858c0.605,0 1.207,0.032 1.803,0.096c-0.006,0.143 -0.011,0.284 -0.016,0.423c-0.75,-0.103 -1.509,-0.154 -2.274,-0.154c-4.105,0 -8.111,1.436 -11.425,3.844Zm64.973,-21.13c-5.358,-5.216 -13.537,-8.37 -22.354,-8.536c-0.247,-0.004 -0.493,-0.007 -0.737,-0.007c-7.819,0 -14.842,2.286 -19.966,6.037c0.163,-0.127 0.33,-0.252 0.499,-0.374c5.122,-3.747 12.14,-6.028 19.953,-6.028c0.245,0 0.491,0.003 0.738,0.007c8.721,0.164 16.819,3.253 22.179,8.368c-0.107,0.175 -0.212,0.352 -0.312,0.533Z" style="fill:#fff;fill-opacity:0.52;fill-rule:nonzero;"/><path d="M111.516,253.907c-10.717,0 -20.531,-6.648 -23.623,-15.728c-4.088,2.077 -8.766,3.207 -13.354,3.207c-4.715,0 -9.225,-1.169 -13.044,-3.381c-8.799,-5.096 -13.556,-15.969 -11.068,-25.296c2.238,-8.384 10.425,-14.708 19.041,-14.708c0.765,0 1.524,0.051 2.274,0.154c0.009,-0.276 0.022,-0.555 0.041,-0.837c-0.294,-1.314 -0.429,-2.64 -0.406,-3.946c0.224,-11.888 12.764,-21.2 28.548,-21.2c0.244,0 0.491,0.003 0.737,0.007c8.817,0.167 16.996,3.322 22.354,8.536c2.334,-4.244 7.235,-6.763 13.224,-6.763c3.58,0 7.3,0.907 10.761,2.623c7.877,3.904 12.783,11.25 12.17,17.924c2.356,0.509 4.599,1.316 6.686,2.411c1.451,0.486 2.773,1.344 3.937,2.551c5.464,4.308 8.693,10.581 8.86,17.221c0.326,12.928 -10.802,23.731 -24.806,24.083c-0.235,0.006 -0.471,0.009 -0.706,0.009c-5.046,0 -9.86,-1.347 -14.016,-3.912c-5.957,9.437 -15.092,15.705 -24.685,16.87c-0.96,0.115 -1.942,0.175 -2.925,0.175Z" style="fill:#fff;fill-rule:nonzero;"/></g></g><g id="Lower-Back-Clouds" serif:id="Lower Back Clouds"><path d="M168.626,558.209c1.742,-2.47 5.934,-6.188 7.63,-7.3c2.101,-0.561 12.657,25.825 8.744,39.091c39.954,-3.179 57.448,18.394 61.837,50.546c-2.231,0.364 -4.822,0.925 -6.803,1.387c-0.715,0.166 -1.474,0.396 -1.474,0.396c0,0 -29.766,-46.451 -63.304,-42.562c0,0 0.631,-27.495 -6.63,-41.558Z" style="fill:#a7d5e8;"/><path d="M545.153,701.989c-2.706,-0.91 -5.476,-1.66 -8.301,-2.27c1.781,-19.47 -12.523,-40.89 -35.49,-52.27c-10.093,-5.01 -20.942,-7.65 -31.378,-7.65c-15.73,0 -28.885,5.961 -36.315,16.18c-0.075,0.11 -0.149,0.21 -0.223,0.31c-0.049,0.07 -0.098,0.14 -0.146,0.211c-0.027,0.039 -0.054,0.069 -0.081,0.109c-0.053,0.08 -0.107,0.151 -0.16,0.23c-0.01,0.01 -0.019,0.02 -0.029,0.041c-0.007,0.01 -0.014,0.019 -0.021,0.029c-0.029,0.04 -0.059,0.081 -0.087,0.12c-0.013,0.02 -0.025,0.03 -0.037,0.05c-0.017,0.02 -0.034,0.051 -0.051,0.07c-0.002,0 -0.005,0.01 -0.007,0.01c-0.013,0.02 -0.026,0.04 -0.039,0.06c-0.024,0.031 -0.047,0.06 -0.071,0.09c-0.037,0.061 -0.075,0.11 -0.112,0.16c-0.014,0.021 -0.029,0.041 -0.043,0.06c-0.024,0.04 -0.047,0.07 -0.071,0.101c-0.032,0.039 -0.064,0.089 -0.095,0.13c-0.009,0.019 -0.019,0.029 -0.028,0.039c-0.019,0.03 -0.037,0.06 -0.056,0.081c-0.033,0.049 -0.066,0.089 -0.098,0.139c-0.025,0.03 -0.05,0.07 -0.075,0.101c-0.035,0.049 -0.07,0.099 -0.105,0.149c-0.036,0.05 -0.073,0.101 -0.109,0.15c-0.011,0.02 -0.022,0.03 -0.032,0.05c-0.006,0.01 -0.011,0.01 -0.016,0.021c-0.028,0.039 -0.057,0.079 -0.085,0.119c-0.038,0.05 -0.077,0.11 -0.115,0.16c-0.03,0.04 -0.061,0.09 -0.091,0.13c-0.011,0.01 -0.021,0.03 -0.031,0.04c-0.019,0.03 -0.036,0.051 -0.054,0.08c-0.047,0.06 -0.094,0.13 -0.14,0.19c-0.011,0.02 -0.022,0.031 -0.033,0.051c-0.018,0.019 -0.035,0.049 -0.053,0.069c-0.006,0.01 -0.013,0.02 -0.019,0.03c-15.63,-15.109 -39.403,-24.25 -65.018,-24.73c-0.722,-0.01 -1.439,-0.02 -2.154,-0.02c-0.262,0 -0.52,0.01 -0.78,0.01c-0.261,0 -0.519,-0.01 -0.781,-0.01c-0.715,0 -1.432,0.01 -2.154,0.02c-25.356,0.48 -48.908,9.44 -64.543,24.27c-0.362,-0.05 -0.723,-0.11 -1.088,-0.159c-6.968,-11.911 -21.022,-18.941 -38.115,-18.941c-3.235,0 -6.511,0.25 -9.789,0.75c-0.317,-2.28 -0.77,-4.55 -1.368,-6.79c-6.529,-24.451 -30.398,-42.891 -55.522,-42.891c-2.23,0 -4.446,0.152 -6.631,0.449c-0.027,-0.805 -0.064,-1.618 -0.118,-2.441c0.852,-3.828 1.249,-7.697 1.18,-11.509c-0.179,-9.522 -3.068,-18.476 -8.119,-26.458c6.222,-4.493 13.809,-7.131 21.997,-7.131c6.591,0 12.789,1.711 18.203,4.72c1.828,-19.931 18.165,-35.529 38.073,-35.529c18.458,0 33.861,13.413 37.46,31.256c9.233,-17.736 27.448,-29.808 48.418,-29.808c30.304,0 54.867,25.198 54.867,56.287c0,4.207 -0.465,8.301 -1.317,12.243c5.979,-3.969 13.091,-6.301 20.746,-6.301c21.129,0 38.258,17.572 38.258,39.253c0,1.37 -0.07,2.72 -0.203,4.05c6.5,-5.24 14.674,-8.384 23.582,-8.384c4.028,0 7.907,0.647 11.552,1.834c-0.075,-1.217 -0.127,-2.434 -0.127,-3.667c0,-31.089 24.564,-56.288 54.866,-56.288c26.33,0 48.318,19.03 53.633,44.411c6.597,-5.55 15.035,-8.884 24.236,-8.884c21.128,0 38.257,17.571 38.257,39.248c0,0.75 -0.068,1.49 -0.109,2.23c6.992,-7.8 16.992,-12.73 28.14,-12.73c17.769,0 32.666,12.45 36.968,29.3c5.44,-4.24 11.672,-7.45 18.43,-9.37c11.574,-3.688 10.923,1.588 5.258,4.991c-0.341,0.206 -0.526,0.6 -0.785,0.899c-0.259,0.29 -0.515,0.581 -0.769,0.88c-0.267,0.3 -0.531,0.6 -0.793,0.9c-0.261,0.29 -0.521,0.59 -0.777,0.89c-0.266,0.301 -0.53,0.6 -0.791,0.9c-0.263,0.3 -0.525,0.6 -0.783,0.901c-0.267,0.299 -0.533,0.599 -0.795,0.909c-0.256,0.28 -0.512,0.581 -0.763,0.87c-3.191,3.581 -15.523,14.781 -17.913,18.931c-1.067,0.49 -10.107,4.06 -11.134,4.61c-10.534,-11.249 -18.361,-22.078 -34.389,-28.379c-0.407,-0.16 -4.657,-0.83 -5.096,-0.82c-1.843,0.05 -3.475,-0.84 -5.265,-0.57c-13.988,2.081 -24.983,7.03 -35.235,18.939c-0.261,0.29 -0.986,-0.69 -1.243,-0.401c-0.263,0.3 -0.688,0.201 -0.947,0.501c-0.266,0.301 0.372,1.08 0.11,1.38c-0.262,0.3 -0.191,3.131 -1.023,0.235c-0.107,-0.374 -0.271,0.754 -0.526,1.045c-0.267,0.299 -0.941,-0.293 -1.204,0.007c-0.258,0.29 -0.267,0.171 -0.522,0.471c-0.27,0.3 0.119,1.347 -1.048,0.018c-0.926,-1.055 -2.332,0.573 -3.215,1.683c-7.261,-3.97 -15.453,-6.04 -23.974,-6.04c-0.476,0 -0.952,0.01 -1.43,0.02c-0.442,0.01 -0.882,0.03 -1.325,0.05c-14.283,0.75 -26.811,7.26 -35.062,16.94c-0.264,0.29 -0.524,0.59 -0.779,0.89c-0.266,0.29 -0.526,0.59 -0.784,0.89c-0.267,0.3 -0.53,0.6 -0.79,0.9c-0.262,0.3 -0.521,0.59 -0.775,0.89c-0.266,0.3 -0.53,0.6 -0.787,0.9c-0.263,0.29 -0.522,0.59 -0.777,0.89c-0.265,0.29 -0.526,0.59 -0.782,0.89c-0.268,0.3 -0.533,0.6 -0.793,0.91c-4.275,4.76 -7.49,10.34 -9.327,16.42Zm-63.433,-83.14c-3.86,0 -3.867,6 0,6c3.861,0 3.867,-6 0,-6Z" style="fill:#a7d5e8;fill-rule:nonzero;"/><path d="M778.057,619.489c5.58,-14.188 16.633,-25.511 30.477,-31.209c-4.699,9.466 -7.277,20.031 -7.276,30.949c0,0.01 2.113,15.02 2.113,15.03c-3.58,-0.57 -24.248,14.352 -27.237,14.193c-0.117,-0.006 -7.507,-4.99 1.923,-28.963Z" style="fill:#a7d5e8;fill-rule:nonzero;"/><g><path d="M942.162,583.493c-5.153,-11.93 -13.42,-21.887 -23.575,-29.115c-0.224,-2.059 -0.351,-4.147 -0.351,-6.267c0,-31.089 24.562,-56.289 54.866,-56.289c7.805,0 15.231,1.673 21.952,4.687c-0.2,0.231 -0.4,0.46 -0.6,0.693c-0.02,0.016 -0.03,0.032 -0.05,0.048c-0.23,0.269 -0.47,0.539 -0.7,0.811c-0.03,0.028 -0.05,0.055 -0.08,0.084c-0.25,0.28 -0.49,0.563 -0.74,0.846c-0.01,0.016 -0.03,0.032 -0.04,0.048c-0.24,0.269 -0.48,0.541 -0.71,0.813c-0.03,0.026 -0.05,0.055 -0.07,0.081c-0.25,0.281 -0.5,0.562 -0.74,0.845c-0.02,0.016 -0.03,0.034 -0.05,0.05c-0.24,0.269 -0.47,0.541 -0.71,0.813c-0.02,0.028 -0.04,0.053 -0.07,0.081c-11.783,13.276 -17.581,29.791 -17.594,46.246c-0.005,5.266 1.757,15.672 1.757,15.672l2.306,7.858c0,0 -25.016,2.631 -31.06,9.723c-0.265,0.295 -0.525,0.593 -0.782,0.894c-0.265,0.295 -0.525,0.593 -0.782,0.894c-0.262,0.292 -0.52,0.587 -0.774,0.885c-0.269,0.299 -0.533,0.601 -0.794,0.907c-0.206,0.229 -0.408,-1.541 -0.609,-1.308Z" style="fill:#a7d5e8;fill-rule:nonzero;"/><path d="M943.172,583.493c-5.804,-13.363 -15.59,-23.182 -24.469,-29.059c-10.308,-6.823 -22.089,-8.333 -35.516,-3.906l52.843,42.472" style="fill:#a7d5e8;"/></g><path d="M389.41,724.319c-4.72,-4.69 -8.986,-9.94 -12.919,-15.35c-3.422,1.48 -6.579,3.7 -9.406,6.63l-0.103,0.09c-5.919,-2.91 -12.442,-4.65 -19.073,-4.88c-4.799,-0.16 -9.399,0.45 -13.734,1.82c-0.064,-0.25 -0.129,-0.51 -0.197,-0.76c0.06,-3.08 -0.233,-6.12 -0.873,-9.04c-4.603,-21.06 -26.359,-35.86 -54.136,-36.82c-7.071,-0.25 -14.276,0.42 -21.417,1.98c-7.052,1.54 -13.746,3.91 -19.889,6.96c3.183,-10.87 3.638,-22.36 0.76,-33.14c-6.53,-24.45 -30.4,-42.89 -55.523,-42.89c-2.23,0 -4.446,0.151 -6.632,0.448c-0.026,-0.805 1.132,-10.137 1.063,-13.949c-0.652,-34.663 -37.218,-61.815 -83.243,-61.815c-0.716,0 -1.433,0.008 -2.154,0.02c-25.708,0.484 -49.559,9.684 -65.187,24.891c-6.803,-12.378 -21.096,-19.721 -38.559,-19.721c-2.242,0 -4.503,0.129 -6.771,0.37l0,313.546l453.836,0l0,-86.58c-4.245,-2.14 -8.442,-4.37 -12.555,-6.77c-11.909,-6.96 -23.5,-15.31 -33.288,-25.04Z" style="fill:#e7f4f9;fill-rule:nonzero;"/><path d="M1188.96,514.085c-25.96,-13.849 -58.48,-9.966 -80.47,10.628c-3.81,-10.763 -10.31,-20.741 -19.45,-28.856c-28.83,-25.593 -72.95,-22.968 -98.55,5.865c-17.487,19.702 -21.791,46.538 -13.571,69.727c-4.581,-0.352 -9.294,-0.017 -14.004,1.1c-11.834,2.806 -21.448,10.019 -27.601,19.463c-13.036,-30.797 -46.736,-48.621 -80.363,-40.643c-35.375,8.392 -58.009,42.331 -53.007,77.63c-10.999,-3.06 -22.898,-3.48 -34.792,-0.65c-22.036,5.22 -39.12,20.37 -47.671,39.57c-2.367,0.89 -4.674,1.92 -6.876,3.11c-6.262,-16.87 -25.006,-28.84 -45.107,-28.3c-1.843,0.05 -3.684,0.21 -5.475,0.48c-17.938,2.671 -34.754,14.89 -45.449,32.89c-7.926,-4.6 -17.025,-6.88 -26.489,-6.63c-0.441,0.01 -0.881,0.03 -1.325,0.05c-26.247,1.37 -46.572,22.2 -45.307,46.43c0.651,12.45 7.024,24.05 17.491,31.85c2.242,2.21 4.767,3.75 7.513,4.59c3.97,1.95 8.218,3.35 12.661,4.18c-0.808,12.55 8.765,26.08 23.735,33.01c6.58,3.04 13.604,4.55 20.317,4.37c11.234,-0.3 20.3,-5.27 24.461,-13.35c4.162,3.84 9.179,7.01 14.757,9.43l-79.201,83.88l574.593,-49.31l0,-65.54c8.68,-3.92 16.71,-9.67 23.45,-17.26c1.3,-1.47 2.52,-2.99 3.67,-4.53c0.06,4.4 0.75,8.79 2.06,13.02l0,-236.204Z" style="fill:#e7f4f9;fill-rule:nonzero;"/><path d="M1623.32,505.484c-25.96,-13.849 -58.48,-9.966 -80.47,10.628c-3.81,-10.763 -10.31,-20.741 -19.45,-28.856c-28.83,-25.593 -72.95,-22.968 -98.55,5.865c-17.487,19.702 -21.791,46.538 -13.571,69.727c-4.581,-0.352 -9.294,-0.017 -14.004,1.1c-11.834,2.806 -21.448,10.019 -27.601,19.463c-13.036,-30.797 -46.736,-48.621 -80.363,-40.643c-35.375,8.392 -58.009,42.331 -53.007,77.63c-10.999,-3.06 -22.898,-3.48 -34.792,-0.65c-22.036,5.22 -39.12,20.37 -47.671,39.57c-2.367,0.89 -4.674,1.92 -6.876,3.11c-6.262,-16.87 -25.006,-28.84 -45.107,-28.3c-1.843,0.05 -3.684,0.21 -5.475,0.48c-17.938,2.671 -34.754,14.89 -45.449,32.89c-7.926,-4.6 -17.025,-6.88 -26.489,-6.63c-0.441,0.01 -0.881,0.03 -1.325,0.05c-26.247,1.37 -46.572,22.2 -45.307,46.43c0.651,12.45 7.024,24.05 17.491,31.85c2.242,2.21 4.767,3.75 7.513,4.59c3.97,1.95 8.218,3.35 12.661,4.18c-0.808,12.55 8.765,26.08 23.735,33.01c6.58,3.04 13.604,4.55 20.317,4.37c11.234,-0.3 20.3,-5.27 24.461,-13.35c4.162,3.84 9.179,7.01 14.757,9.43l-79.201,83.88l574.593,-49.31l0,-65.54c8.68,-3.92 16.71,-9.67 23.45,-17.26c1.3,-1.47 2.52,-2.99 3.67,-4.53c0.06,4.4 0.75,8.79 2.06,13.02l0,-236.204Z" style="fill:#e7f4f9;fill-rule:nonzero;"/></g><g id="Hacked-Cloud-Right" serif:id="Hacked Cloud Right"><clipPath id="_clip4"><rect x="792.371" y="635.42" width="227.698" height="281.084"/></clipPath><g clip-path="url(#_clip4)"><clipPath id="_clip5"><rect x="856.71" y="635.42" width="746.359" height="192.084"/></clipPath><g clip-path="url(#_clip5)"><path d="M2057.49,640.61c-17.47,0 -31.76,7.34 -38.56,19.72c-15.63,-15.21 -39.48,-24.4 -65.19,-24.89c-0.72,-0.01 -1.44,-0.02 -2.15,-0.02c-46.03,0 -82.59,27.15 -83.24,61.81c-0.07,3.82 0.32,7.69 1.18,11.51c-0.06,0.83 -0.1,1.64 -0.12,2.45c-2.19,-0.3 -4.4,-0.45 -6.633,-0.45c-25.123,0 -48.994,18.44 -55.524,42.89c-2.877,10.78 -2.422,22.27 0.762,33.14c-6.145,-3.05 -12.839,-5.42 -19.891,-6.96c-7.14,-1.57 -14.345,-2.23 -21.416,-1.99c-27.777,0.97 -49.533,15.77 -54.136,36.83c-0.64,2.92 -0.933,5.95 -0.874,9.04c-0.067,0.25 -0.132,0.5 -0.197,0.76c-4.335,-1.38 -8.934,-1.99 -13.733,-1.82c-6.631,0.23 -13.154,1.97 -19.072,4.87l-0.104,-0.08c-3.39,-3.52 -7.248,-6.02 -11.478,-7.44c-6.086,-3.19 -12.627,-5.55 -19.494,-7.03c1.782,-19.46 -12.522,-40.88 -35.49,-52.27c-10.093,-5 -20.941,-7.65 -31.378,-7.65c-17.465,0 -31.757,7.35 -38.56,19.73c-15.627,-15.21 -39.48,-24.41 -65.186,-24.89c-0.722,-0.02 -1.439,-0.02 -2.155,-0.02c-6.154,0 -12.138,0.49 -17.891,1.41c-4.412,-8.69 -10.805,-16.52 -18.871,-22.88c-3.39,-3.52 -7.248,-6.02 -11.479,-7.44c-6.086,-3.19 -12.626,-5.55 -19.493,-7.03c1.781,-19.46 -12.523,-40.88 -35.49,-52.269c-10.094,-5 -20.942,-7.651 -31.378,-7.651c-17.465,0 -31.757,7.35 -38.561,19.73c-15.627,-15.21 -39.479,-24.41 -65.186,-24.89c-0.721,-0.02 -1.439,-0.02 -2.154,-0.02c-0.261,0 -0.52,0 -0.78,0.01c-0.26,-0.01 -0.518,-0.01 -0.78,-0.01c-0.715,0 -1.432,0 -2.154,0.02c-25.707,0.48 -49.559,9.68 -65.186,24.89c-6.803,-12.38 -21.095,-19.73 -38.56,-19.73c-10.437,0 -21.285,2.651 -31.378,7.651c-22.967,11.389 -37.272,32.809 -35.49,52.269c-6.867,1.48 -13.407,3.84 -19.493,7.03c-4.231,1.42 -8.089,3.92 -11.479,7.44c-8.067,6.36 -14.459,14.19 -18.871,22.88c-5.754,-0.92 -11.737,-1.41 -17.893,-1.41c-0.714,0 -1.432,0 -2.153,0.02c-25.707,0.48 -44.559,9.68 -60.186,24.89c-6.804,-12.38 -26.096,-19.73 -43.561,-19.73c-9.851,0 -20.068,2.36 -29.671,6.83l0,147.38l1207.55,0l0,-266.26c-2.27,-0.24 -4.53,-0.37 -6.77,-0.37Z" style="fill:#fff;fill-rule:nonzero;"/></g></g></g><clipPath id="_clip6"><rect id="Hacked-Cloud-Part" serif:id="Hacked Cloud Part" x="171.579" y="624.405" width="158.481" height="103.355"/></clipPath><g clip-path="url(#_clip6)"><path d="M545.217,839.705c-4.72,-4.69 -8.986,-9.94 -12.919,-15.35c-3.422,1.48 -6.579,3.7 -9.406,6.63l-0.103,0.09c-5.919,-2.91 -12.442,-4.65 -19.073,-4.88c-4.799,-0.16 -9.399,0.45 -13.734,1.82c-0.064,-0.25 -0.129,-0.51 -0.197,-0.76c0.06,-3.08 -0.233,-6.12 -0.873,-9.04c-4.603,-21.06 -26.359,-35.86 -54.136,-36.82c-7.071,-0.25 -14.276,0.42 -21.417,1.98c-7.052,1.54 -13.746,3.91 -19.889,6.96c3.183,-10.87 3.638,-22.36 0.76,-33.14c-6.53,-24.45 -30.4,-42.89 -55.523,-42.89c-2.23,0 -4.446,0.151 -6.632,0.448c-0.026,-0.805 -0.063,-1.618 -0.117,-2.441c0.852,-3.829 1.249,-7.696 1.18,-11.508c-0.652,-34.663 -37.218,-61.815 -83.243,-61.815c-0.716,0 -1.433,0.008 -2.154,0.02c-25.708,0.484 -49.559,9.684 -65.187,24.891c-6.803,-12.378 -21.096,-19.721 -38.559,-19.721c-2.242,0 -4.503,0.129 -6.771,0.37l0,313.546l453.836,0l0,-86.58c-4.245,-2.14 -8.442,-4.37 -12.555,-6.77c-11.909,-6.96 -23.5,-15.31 -33.288,-25.04Z" style="fill:#e7f4f9;fill-rule:nonzero;"/></g><g><path d="M1224.33,175.777c-0.104,0.914 -0.239,1.816 -0.397,2.702c-0.532,2.974 -1.349,5.778 -2.283,8.304c-6.662,-9.749 -18.022,-12.043 -18.022,-12.043c0,-5.845 -2.816,-9.539 -5.257,-11.642c-1.87,-1.609 -3.516,-2.289 -3.516,-2.289c0,0 16.912,-0.451 29.475,14.968Z" style="fill:#f4516d;fill-rule:nonzero;"/><path d="M1224.59,170.448l0,0.924c0,0.524 -0.011,1.045 -0.032,1.563c-0.041,0.959 -0.116,1.907 -0.223,2.842c-12.564,-15.419 -29.476,-14.967 -29.476,-14.967c0.225,-0.675 0.376,-1.349 0.462,-2.015c1.114,-8.502 -8.204,-16.047 -8.204,-16.047c11.669,1.372 19.913,5.598 25.721,10.621c6.524,5.646 9.976,12.305 11.752,17.079Z" style="fill:#f4516d;fill-rule:nonzero;"/></g><path d="M1227.16,176.064l-3.124,2.547l-0.107,-0.132l-1.166,-1.431c-8.462,-10.385 -19.037,-13.195 -24.397,-13.95c-1.869,-1.609 -3.516,-2.289 -3.516,-2.289c0.226,-0.674 0.376,-1.348 0.462,-2.014c2.961,0.045 17.493,0.967 29.237,14.14c0.451,0.505 0.897,1.026 1.338,1.569l1.273,1.56Z" style="fill:#d64766;fill-rule:nonzero;"/><path d="M1244.94,132.058c11.683,0 16.69,18.776 16.69,18.776l-0.07,0.172c-2.837,-1.15 -5.894,-2.1 -9.109,-2.815l-0.003,0l0,-0.003c0.038,-8.91 -7.508,-16.13 -7.508,-16.13Z" style="fill:#46ba43;fill-rule:nonzero;"/><path d="M1281.35,172.575c0,9.609 -10.253,12.228 -24.039,8.019c-0.002,-0.003 -0.002,-0.003 -0.005,-0.003c0.491,1.66 0.97,3.465 1.399,5.361c0.54,2.378 1,4.906 1.301,7.498l-2.625,-1.698l-15.846,10.259l-7.003,-4.532l0,-0.003l-8.843,-5.724l-10.232,6.624c1.424,-1.679 4.105,-5.942 6.197,-11.591l0,-0.002c1.215,-3.278 2.227,-7.025 2.681,-11.006c0.164,-1.443 0.256,-2.915 0.256,-4.406l0,-0.924c-0.008,-6.71 -0.014,-14.051 3.075,-18.776c1.65,-2.528 4.21,-4.306 8.174,-4.841c-1.603,-7.043 -7.064,-12.268 -7.064,-12.268c7.048,0 11.666,6.839 14.22,12.26c0.691,0.048 1.378,0.107 2.058,0.177c2.539,0.255 5.01,0.658 7.395,1.193l0.003,0c3.216,0.714 6.273,1.665 9.109,2.815c4.626,1.867 8.669,4.252 11.873,6.984c4.962,4.234 7.916,9.303 7.916,14.584Z" style="fill:#56d353;fill-rule:nonzero;"/><g><path d="M1243.87,148.804c0,0 -13.915,16.498 -9.335,48.671l-8.843,-5.724l-10.232,6.624c1.424,-1.679 4.105,-5.942 6.197,-11.591l0,-0.003c1.214,-3.277 2.227,-7.024 2.681,-11.005c0.164,-1.443 0.255,-2.915 0.255,-4.406l0,-0.924c-0.008,-6.71 -0.013,-14.052 3.076,-18.777c1.649,-2.527 4.209,-4.305 8.174,-4.84c-1.603,-7.043 -7.065,-12.268 -7.065,-12.268c7.049,0 11.667,6.839 14.221,12.26c0.691,0.048 1.378,0.107 2.058,0.177l-1.187,1.806Z" style="fill:#46ba43;fill-rule:nonzero;"/><path d="M1258.7,185.952c-13.852,-4.023 -20.232,-14.317 -20.232,-14.317c6.57,4.193 13.017,7.183 18.83,8.953l0.003,0.003c0.491,1.66 0.969,3.465 1.399,5.361Z" style="fill:#46ba43;fill-rule:nonzero;"/></g><g><path d="M1255.23,159.963c-0.309,0 -0.619,-0.118 -0.855,-0.354c-0.685,-0.685 -1.596,-1.062 -2.564,-1.062c-0.969,0 -1.88,0.377 -2.565,1.063c-0.472,0.472 -1.237,0.472 -1.709,0c-0.472,-0.472 -0.472,-1.238 0,-1.71c1.141,-1.141 2.659,-1.77 4.274,-1.77c1.614,0 3.132,0.629 4.273,1.77c0.472,0.472 0.472,1.238 0,1.71c-0.235,0.235 -0.545,0.353 -0.854,0.353Z" style="fill:#4d4d4d;fill-rule:nonzero;"/><path d="M1271.73,159.963c-0.309,0 -0.619,-0.118 -0.855,-0.354c-0.685,-0.685 -1.595,-1.062 -2.564,-1.062c-0.969,0 -1.88,0.377 -2.565,1.062c-0.471,0.473 -1.237,0.472 -1.709,0c-0.472,-0.472 -0.472,-1.237 0,-1.709c1.142,-1.142 2.659,-1.771 4.274,-1.771c1.614,0 3.132,0.629 4.273,1.771c0.473,0.472 0.473,1.237 0,1.709c-0.235,0.236 -0.544,0.354 -0.854,0.354Z" style="fill:#4d4d4d;fill-rule:nonzero;"/></g><g><path d="M1271.34,173.87c-0.731,0 -1.343,-0.614 -1.343,-1.343c-0.001,-0.74 0.626,-1.361 1.368,-1.343c0.705,0.018 1.292,0.591 1.316,1.298c0.026,0.744 -0.596,1.388 -1.341,1.388Z" style="fill:#46ba43;fill-rule:nonzero;"/><path d="M1278.6,172.258c-0.747,0 -1.366,-0.639 -1.342,-1.384c0.023,-0.713 0.622,-1.306 1.34,-1.304c0.7,0.002 1.3,0.564 1.342,1.263c0.046,0.757 -0.581,1.425 -1.34,1.425Z" style="fill:#46ba43;fill-rule:nonzero;"/></g><path d="M1282.43,207.53c0,20.38 -14.914,37.282 -34.424,40.385c-2.106,0.333 -4.268,0.507 -6.471,0.507c-22.586,0 -40.895,-18.309 -40.895,-40.892c0,-3.498 0.438,-7.237 1.265,-11.062l7.938,5.139l5.611,-3.635l10.232,-6.624l5.152,3.336l10.694,6.923l15.846,-10.259l2.625,1.698l0,0.002l13.221,8.559l7.941,-5.139c0.827,3.825 1.265,7.564 1.265,11.062Z" style="fill:#e6e6e6;fill-rule:nonzero;"/><path d="M1248.01,247.915c-2.106,0.333 -4.269,0.507 -6.471,0.507c-22.586,0 -40.896,-18.309 -40.896,-40.892c0,-3.498 0.438,-7.237 1.266,-11.062l7.938,5.139l5.611,-3.635l10.232,-6.624l5.152,3.336c0,0 -14.508,36.847 17.165,53.228c0.001,0 0.003,0 0.003,0.003Z" style="fill:#ccc;fill-rule:nonzero;"/><g id="Castle"><path d="M1208.03,277.918l0,261.439l364.814,0l0,-261.439l-67.734,0l0,95.615l-229.346,0l0,-95.615l-67.734,0Z" style="fill:#de9252;fill-rule:nonzero;"/><rect x="1333.74" y="178.298" width="114.712" height="181.005" style="fill:#de9252;fill-rule:nonzero;"/><path d="M1524.93,539.357l0,-223.575l-38.236,0l0,35.167l-38.239,0l0,-35.167l-38.237,0l0,35.167l-38.237,0l0,-35.167l-38.237,0l0,35.167l-38.239,0l0,-35.167l-38.237,0l0,223.575l267.662,0Z" style="fill:#f1c395;fill-rule:nonzero;"/><path d="M1486.69,315.782l0,35.167l-8.919,0l0,188.408l47.155,0l0,-223.575l-38.236,0Z" style="fill:#ebb27a;fill-rule:nonzero;"/><path d="M1539.38,683.048l-51.778,-179.32l-172.468,-37.527l-117.688,17.196l-37.558,102.621l-38.356,12.06l-23.739,84.97l441.587,0Z" style="fill:#d4d4d4;fill-rule:nonzero;"/><path d="M1586.11,506.154l-98.499,-2.426l0,179.32l139.612,0l-41.113,-176.894Z" style="fill:#bfbfbf;fill-rule:nonzero;"/><path d="M1190.08,277.918l0,-67.029l34.548,0l0,31.773l34.546,0l0,-31.773l34.547,0l0,67.029l-103.641,0Z" style="fill:#f1c395;fill-rule:nonzero;"/><path d="M1487.16,277.918l0,-67.029l34.546,0l0,31.773l34.547,0l0,-31.773l34.547,0l0,67.029l-103.64,0Z" style="fill:#f1c395;fill-rule:nonzero;"/><path d="M1556.25,210.889l0,31.773l-12.608,0l0,35.256l47.155,0l0,-67.029l-34.547,0Z" style="fill:#ebb27a;fill-rule:nonzero;"/><path d="M1429.77,492.953l-77.342,-16.698l0,-24.346c0,-21.357 17.314,-38.669 38.671,-38.669c21.357,0 38.67,17.314 38.67,38.669l0,41.044l0.001,0Z" style="fill:#ab632e;fill-rule:nonzero;"/><path d="M1391.1,97.142l-97.56,81.156l195.121,0l-97.561,-81.156Z" style="fill:#f1c395;fill-rule:nonzero;"/><path d="M1391.09,97.142l-23.577,19.613l73.983,61.543l47.156,0l-97.562,-81.156Z" style="fill:#ebb27a;fill-rule:nonzero;"/><path d="M1391.09,219.563c-4.883,0 -8.841,3.959 -8.841,8.841l0,33.328c0,11.431 17.684,11.431 17.684,0l0,-33.328c0,-4.882 -3.959,-8.841 -8.843,-8.841Z" style="fill:#ab632e;fill-rule:nonzero;"/></g><g id="Lower-Front-Cloud-Left" serif:id="Lower Front Cloud Left"><path d="M1273.21,591.238c-17.47,0 -31.76,7.34 -38.56,19.72c-15.63,-15.21 -39.48,-24.4 -65.19,-24.89c-0.72,-0.01 -1.44,-0.02 -2.15,-0.02c-46.03,0 -82.59,27.15 -83.24,61.81c-0.07,3.82 0.32,7.69 1.18,11.51c-0.06,0.83 -0.1,1.64 -0.12,2.45c-2.19,-0.3 -4.4,-0.45 -6.633,-0.45c-25.123,0 -48.994,18.44 -55.524,42.89c-2.877,10.78 -2.422,22.27 0.762,33.14c-6.145,-3.05 -12.839,-5.42 -19.891,-6.96c-7.14,-1.57 -14.345,-2.23 -21.416,-1.99c-27.777,0.97 -49.533,15.77 -54.136,36.83c-0.64,2.92 -0.933,5.95 -0.874,9.04c-0.067,0.25 -0.132,0.5 -0.197,0.76c-4.335,-1.38 -8.934,-1.99 -13.733,-1.82c-6.631,0.23 -13.154,1.97 -19.072,4.87l-0.104,-0.08c-3.39,-3.52 -7.248,-6.02 -11.478,-7.44c-6.086,-3.19 -12.627,-5.55 -19.494,-7.03c1.782,-19.46 -12.522,-40.88 -35.49,-52.27c-10.093,-5 -20.941,-7.65 -31.378,-7.65c-17.465,0 -31.757,7.35 -38.56,19.73c-15.627,-15.21 -39.48,-24.41 -65.186,-24.89c-0.722,-0.02 -1.439,-0.02 -2.155,-0.02c-6.154,0 -12.138,0.49 -17.891,1.41c-4.412,-8.69 -10.805,-16.52 -18.871,-22.88c-3.39,-3.52 -7.248,-6.02 -11.479,-7.44c-6.086,-3.19 -12.626,-5.55 -19.493,-7.03c1.781,-19.46 -12.523,-40.88 -35.49,-52.269c-10.094,-5 -20.942,-7.651 -31.378,-7.651c-17.465,0 -31.757,7.35 -38.561,19.73c-15.627,-15.21 -39.479,-24.41 -65.186,-24.89c-0.721,-0.02 -1.439,-0.02 -2.154,-0.02c-0.261,0 -0.52,0 -0.78,0.01c-0.26,-0.01 -0.518,-0.01 -0.78,-0.01c-0.715,0 -1.432,0 -2.154,0.02c-25.707,0.48 -49.559,9.68 -65.186,24.89c-6.803,-12.38 -21.095,-19.73 -38.56,-19.73c-10.437,0 -21.285,2.651 -31.378,7.651c-22.967,11.389 -37.272,32.809 -35.49,52.269c-6.867,1.48 -13.407,3.84 -19.493,7.03c-4.231,1.42 -8.089,3.92 -11.479,7.44c-8.067,6.36 -14.459,14.19 -18.871,22.88c-5.754,-0.92 -11.737,-1.41 -17.893,-1.41c-0.714,0 -1.432,0 -2.153,0.02c-25.707,0.48 -49.559,9.68 -65.186,24.89c-6.804,-12.38 -21.096,-19.73 -38.561,-19.73c-9.851,0 -20.068,2.36 -29.671,6.83l0,147.38l1207.55,0l0,-266.26c-2.27,-0.24 -4.53,-0.37 -6.77,-0.37Z" style="fill:#fff;fill-rule:nonzero;"/></g><g id="Hacked-Cloud-Left" serif:id="Hacked Cloud Left"><clipPath id="_clip7"><rect x="-12.718" y="685.185" width="92.845" height="132.262"/></clipPath><g clip-path="url(#_clip7)"><g id="Shadows"></g><clipPath id="_clip8"><rect x="-8.297" y="690.135" width="93.547" height="117.37"/></clipPath><g clip-path="url(#_clip8)"><path d="M1023.48,695.325c-17.47,0 -31.76,7.34 -38.56,19.72c-15.63,-15.21 -39.48,-24.4 -65.19,-24.89c-0.72,-0.01 -1.44,-0.02 -2.15,-0.02c-46.03,0 -82.59,27.15 -83.24,61.81c-0.07,3.82 0.32,7.69 1.18,11.51c-0.06,0.83 -0.1,1.64 -0.12,2.45c-2.19,-0.3 -4.4,-0.45 -6.633,-0.45c-25.123,0 -48.994,18.44 -55.524,42.89c-2.877,10.78 -2.422,22.27 0.762,33.14c-6.145,-3.05 -12.839,-5.42 -19.891,-6.96c-7.14,-1.57 -14.345,-2.23 -21.416,-1.99c-27.777,0.97 -49.533,15.77 -54.136,36.83c-0.64,2.92 -0.933,5.95 -0.874,9.04c-0.067,0.25 -0.132,0.5 -0.197,0.76c-4.335,-1.38 -8.934,-1.99 -13.733,-1.82c-6.631,0.23 -13.154,1.97 -19.072,4.87l-0.104,-0.08c-3.39,-3.52 -7.248,-6.02 -11.478,-7.44c-6.086,-3.19 -12.627,-5.55 -19.494,-7.03c1.782,-19.46 -12.522,-40.88 -35.49,-52.27c-10.093,-5 -20.941,-7.65 -31.378,-7.65c-17.465,0 -31.757,7.35 -38.56,19.73c-15.627,-15.21 -39.48,-24.41 -65.186,-24.89c-0.722,-0.02 -1.439,-0.02 -2.155,-0.02c-6.154,0 -12.138,0.49 -17.891,1.41c-4.412,-8.69 -10.805,-16.52 -18.871,-22.88c-3.39,-3.52 -7.248,-6.02 -11.479,-7.44c-6.086,-3.19 -12.626,-5.55 -19.493,-7.03c1.781,-19.46 -12.523,-40.88 -35.49,-52.269c-10.094,-5 -20.942,-7.651 -31.378,-7.651c-17.465,0 -31.757,7.35 -38.561,19.73c-15.627,-15.21 -39.479,-24.41 -65.186,-24.89c-0.721,-0.02 -1.439,-0.02 -2.154,-0.02c-0.261,0 -0.52,0 -0.78,0.01c-0.26,-0.01 -0.518,-0.01 -0.78,-0.01c-0.715,0 -1.432,0 -2.154,0.02c-25.707,0.48 -49.559,9.68 -65.186,24.89c-6.803,-12.38 -21.095,-19.73 -38.56,-19.73c-10.437,0 -21.285,2.651 -31.378,7.651c-22.967,11.389 -37.272,32.809 -35.49,52.269c-6.867,1.48 -13.407,3.84 -19.493,7.03c-4.231,1.42 -8.089,3.92 -11.479,7.44c-8.067,6.36 -14.459,14.19 -18.871,22.88c-5.754,-0.92 -11.737,-1.41 -17.893,-1.41c-0.714,0 -1.432,0 -2.153,0.02c-25.707,0.48 -49.559,9.68 -65.186,24.89c-6.804,-12.38 -21.096,-19.73 -38.561,-19.73c-9.851,0 -20.068,2.36 -29.671,6.83l0,147.38l1207.55,0l0,-266.26c-2.27,-0.24 -4.53,-0.37 -6.77,-0.37Z" style="fill:#fff;fill-rule:nonzero;"/></g></g></g><g id="Lower-Front-Cloud-Right" serif:id="Lower Front Cloud Right"><clipPath id="_clip9"><rect x="1247.56" y="475.998" width="365.514" height="331.506"/></clipPath><g clip-path="url(#_clip9)"><path d="M1651.62,475.998c0,0 0.009,0 0,0c-27.779,0.519 -53.554,10.461 -70.441,26.897c-7.351,-13.378 -22.795,-21.321 -41.668,-21.321c-11.279,0 -23.001,2.865 -33.908,8.268c-24.818,12.307 -40.276,35.454 -38.351,56.483c-7.42,1.599 -14.488,4.149 -21.064,7.596c-4.572,1.535 -8.741,4.236 -12.405,8.04c-8.717,6.873 -15.624,15.334 -20.392,24.725c-6.218,-0.994 -12.683,-1.524 -19.335,-1.524c-0.772,0 -1.548,0 -2.327,0.022c-27.779,0.518 -53.554,10.46 -70.441,26.896c-7.352,-13.378 -22.796,-21.32 -41.669,-21.32c-10.646,0 -21.686,2.55 -32.063,7.38l1.716,297.365c0,0 269.416,-3.661 404.798,-2.684l-2.45,-416.823Z" style="fill:#fff;fill-rule:nonzero;"/></g></g><g id="Hidden-Characters" serif:id="Hidden Characters"></g></g></g><defs><linearGradient id="_Linear2" x1="0" y1="0" x2="1" y2="0" gradientUnits="userSpaceOnUse" gradientTransform="matrix(4.19652e-14,713.466,-685.344,4.36872e-14,745.403,19.3861)"><stop offset="0" style="stop-color:#5d28e3;stop-opacity:1"/><stop offset="1" style="stop-color:#baa9e4;stop-opacity:1"/></linearGradient></defs></svg>