<svg viewBox="0 0 1604 1200" xmlns="http://www.w3.org/2000/svg" fill-rule="evenodd" clip-rule="evenodd" stroke-linejoin="round" stroke-miterlimit="2"><path fill="none" d="M0 0h1604.74v1200H0z"/><clipPath id="a"><path d="M0 0h1604.74v1200H0z"/></clipPath><g clip-path="url(#a)"><path fill="url(#_Linear2)" fill-rule="nonzero" d="M-4.434 303.627h1609.66v930.914H-4.434z"/><clipPath id="b"><path clip-rule="nonzero" d="M-4.434 303.627h1609.66v930.914H-4.434z"/></clipPath><g clip-path="url(#b)"><path fill="#fff" d="M-37.531 1094.6h1701.23v632.755H-37.531z"/></g><path fill="#5d28e3" d="M-9.11-8.697h1623.85v315.846H-9.11z"/><path d="M366.723 560.142c-10.717 0-20.531-6.647-23.623-15.727-4.089 2.077-8.766 3.207-13.354 3.207-4.715 0-9.225-1.17-13.045-3.382-8.798-5.096-13.556-15.968-11.067-25.295 2.238-8.385 10.425-14.708 19.04-14.708.765 0 1.524.051 2.275.154.009-.276.022-.556.041-.838-.294-1.313-.429-2.64-.406-3.946.224-11.888 12.763-21.2 28.548-21.2.244 0 .491.003.737.007 8.816.168 16.996 3.322 22.354 8.536 2.334-4.244 7.235-6.763 13.224-6.763 3.579 0 7.3.908 10.761 2.624 7.877 3.904 12.782 11.249 12.17 17.924 2.356.509 4.599 1.316 6.686 2.411 1.451.486 2.773 1.344 3.937 2.551 5.464 4.308 8.692 10.58 8.86 17.221.325 12.928-10.802 23.731-24.806 24.083-.236.006-.471.009-.707.009-5.045 0-9.859-1.347-14.015-3.913-5.958 9.438-15.092 15.706-24.685 16.871-.96.115-1.942.174-2.925.174zM1355.24 531.774c-10.717 0-20.531-6.647-23.623-15.727-4.088 2.077-8.766 3.207-13.354 3.207-4.715 0-9.225-1.169-13.044-3.382-8.799-5.096-13.556-15.968-11.068-25.295 2.238-8.385 10.425-14.708 19.041-14.708.765 0 1.524.051 2.274.154.009-.276.022-.556.041-.838-.294-1.313-.429-2.64-.406-3.946.224-11.888 12.764-21.2 28.548-21.2.244 0 .491.003.737.007 8.817.168 16.996 3.322 22.354 8.536 2.334-4.244 7.235-6.763 13.224-6.763 3.58 0 7.3.908 10.761 2.624 7.877 3.904 12.783 11.249 12.17 17.924 2.356.509 4.599 1.316 6.686 2.411 1.452.486 2.774 1.344 3.937 2.551 5.464 4.308 8.693 10.58 8.86 17.221.326 12.928-10.802 23.731-24.806 24.083-.235.006-.471.009-.706.009-5.046 0-9.86-1.347-14.016-3.913-5.957 9.438-15.092 15.706-24.685 16.871-.96.115-1.942.174-2.925.174zM84.923 382.86c-13.188 0-25.268-8.181-29.075-19.355-5.031 2.555-10.788 3.946-16.436 3.946-5.802 0-11.354-1.439-16.054-4.162-10.83-6.271-16.685-19.654-13.622-31.132 2.756-10.321 12.831-18.103 23.435-18.103.941 0 1.876.064 2.799.189.011-.34.027-.683.05-1.03-.36-1.616-.528-3.249-.498-4.858.274-14.63 15.708-26.09 35.135-26.09.302 0 .604.003.909.008 10.85.205 20.917 4.087 27.513 10.506 2.872-5.225 8.904-8.324 16.276-8.324 4.405 0 8.983 1.116 13.244 3.227 9.694 4.806 15.731 13.848 14.979 22.062 2.899.625 5.659 1.62 8.228 2.967 1.785.598 3.414 1.654 4.844 3.14 6.726 5.302 10.699 13.021 10.905 21.195.401 15.91-13.294 29.207-30.529 29.641-.291.008-.581.011-.87.011-6.21 0-12.135-1.658-17.251-4.815-7.331 11.615-18.574 19.329-30.382 20.762-1.18.143-2.39.215-3.6.215zM322.778 194.104c-13.188 0-25.268-8.181-29.075-19.355-5.031 2.555-10.788 3.946-16.436 3.946-5.802 0-11.354-1.439-16.054-4.162-10.83-6.271-16.685-19.654-13.622-31.132 2.756-10.321 12.831-18.103 23.435-18.103.941 0 1.876.064 2.799.189.011-.34.027-.683.05-1.03-.36-1.616-.528-3.249-.498-4.858.274-14.63 15.708-26.09 35.135-26.09.302 0 .604.003.909.008 10.85.205 20.917 4.087 27.513 10.506 2.872-5.225 8.904-8.324 16.276-8.324 4.405 0 8.983 1.116 13.244 3.227 9.694 4.806 15.731 13.848 14.979 22.062 2.899.625 5.659 1.62 8.228 2.967 1.785.598 3.414 1.654 4.844 3.14 6.726 5.302 10.699 13.021 10.905 21.195.401 15.91-13.294 29.207-30.529 29.641-.291.008-.581.011-.87.011-6.21 0-12.135-1.658-17.251-4.815-7.331 11.615-18.574 19.329-30.382 20.762-1.18.143-2.39.215-3.6.215zM1584.25 592.014c-13.188 0-25.268-8.181-29.075-19.355-5.031 2.555-10.788 3.946-16.436 3.946-5.802 0-11.354-1.439-16.054-4.162-10.83-6.271-16.685-19.654-13.622-31.132 2.756-10.321 12.831-18.103 23.435-18.103.941 0 1.876.064 2.799.189.011-.34.027-.683.05-1.03-.36-1.616-.528-3.249-.498-4.858.274-14.63 15.708-26.09 35.135-26.09.302 0 .604.003.909.008 10.85.205 20.917 4.087 27.513 10.506 2.872-5.225 8.904-8.324 16.276-8.324 4.405 0 8.983 1.116 13.244 3.227 9.694 4.806 15.731 13.848 14.979 22.062 2.899.625 5.659 1.62 8.228 2.967 1.785.598 3.414 1.654 4.844 3.14 6.726 5.302 10.699 13.021 10.905 21.195.401 15.91-13.294 29.207-30.529 29.641-.291.008-.581.011-.87.011-6.21 0-12.135-1.658-17.251-4.815-7.331 11.615-18.574 19.329-30.382 20.762-1.18.143-2.39.215-3.6.215z" fill="#937aff" fill-rule="nonzero"/><path d="M431.995 1076.54c-16.23 0-31.092-10.068-35.774-23.818-6.191 3.145-13.274 4.857-20.223 4.857-7.141 0-13.971-1.771-19.754-5.121-13.325-7.718-20.529-24.183-16.761-38.308 3.39-12.697 15.787-22.273 28.835-22.273 1.158 0 2.308.077 3.444.233.014-.418.033-.841.062-1.268-.445-1.989-.65-3.998-.614-5.976.339-18.003 19.328-32.105 43.232-32.105.37 0 .744.004 1.116.011 13.352.253 25.738 5.03 33.852 12.926 3.535-6.427 10.958-10.241 20.027-10.241 5.421 0 11.055 1.374 16.296 3.973 11.929 5.912 19.358 17.036 18.431 27.143 3.568.771 6.964 1.994 10.124 3.652 2.198.736 4.2 2.035 5.962 3.863 8.275 6.524 13.165 16.023 13.418 26.08.493 19.577-16.358 35.937-37.565 36.47-.357.009-.714.013-1.071.013-7.64 0-14.93-2.039-21.225-5.924-9.021 14.291-22.855 23.784-37.382 25.548-1.454.174-2.941.265-4.43.265z" fill="#a7d5e8" fill-rule="nonzero"/><clipPath id="c"><path d="M-135.072 307.36h650.476v726.801h-650.476z"/></clipPath><g clip-path="url(#c)"><path d="M-47.317 381.682c92.285.421 184.805 30.774 259.208 86.739 83.948 63.147 143.926 156.911 164.994 259.812 12.607 61.576 11.847 125.491-2.556 187.369l-.347 1.471-2.6 8.615c-3.216 7.302-3.714 9.336-8.227 15.97-10.136 14.899-25.868 25.857-43.356 30.199-7.788 1.933-9.868 1.695-17.832 2.18h-76.709c-3.061-.19-6.138-.191-9.181-.571-33.381-4.174-61.91-33.422-64.597-67.639-.481-6.125-.197-12.286.845-18.341 1.104-6.421 3.294-12.57 4.886-18.88 17.962-71.183-2.92-150.493-56.679-203.606-52.291-51.662-131.685-73.586-204.708-54-2.934.787-5.849 1.642-8.747 2.551l-8.975 2.211c-3.06.358-6.104.907-9.181 1.074-30.749 1.661-61.436-17.778-72.856-46.795-2.261-5.745-3.794-11.751-4.564-17.877-.384-3.057-.385-6.15-.577-9.225v-76.883c.543-8.969 1.646-17.914 4.823-26.279 6.364-16.753 19.015-31.001 34.896-39.304 7.678-4.014 9.288-4.524 19.023-6.864 33.72-8.038 68.401-11.98 103.017-11.927zm-2.045 74.003c-28.811.081-57.589 3.5-85.71 10.371v76.883c.647-.203 1.295-.404 1.942-.604 77.818-23.796 166.13-13.032 235.895 30.603 81.535 50.996 134.882 144.146 134.919 243.165.011 27.956-4.046 55.872-12.046 82.671l-.38 1.259h76.709c23.959-101.26 2.398-211.534-58.804-295.554C178.158 515.24 71.476 457.818-41.911 455.746c-1.877-.034-3.754-.051-5.632-.06-.606-.001-1.212-.002-1.819-.001z" fill="#ffb44d"/><clipPath id="d"><path d="M-283.398 307.36h743.417v598.314h-743.417z"/></clipPath><g clip-path="url(#d)"><path d="M-47.078 307.36c112.502.656 225.278 39.256 313.935 109.618 100.301 79.603 169.114 197.833 187.764 324.335 9.364 63.516 6.433 129.311-7.921 191.206l-.903 3.834c-2.923 9.682-2.856 9.707-6.356 19.196-8.6 19.601-20.314 37.884-35.809 52.439-24.036 22.577-55.652 37.305-88.624 39.743-2.487.183-4.978.293-7.467.429l-3.363.199h-81.163c-13.303-.803-26.643-2.23-39.406-6.055-51.413-15.412-92.983-60.375-103.78-113.316-4.845-23.752-3.234-48.493 3.445-71.935 4.86-17.059 27.802-34.82 26.212-52.371-3.253-35.915-23.006-88.933-50.559-112.094C24.451 663.606-42.97 655.86-86.306 668.013c-2.225.624-4.427 1.318-6.632 2.007l-11.188 2.755-8.994 1.636c-10.478 1.247-21.23 17.243-31.909 16.477-57.763-4.145-111.741-44.444-130.645-100.708-4.598-13.683-6.888-28.123-7.567-42.368l-.157-2.62v-81.459c1.073-17.152 3.587-34.319 9.656-50.322 12.502-32.96 37.074-61.13 68.437-77.999 21.497-11.563 45.967-16.604 70.378-20.752 28.988-4.925 58.241-7.318 87.849-7.3zm-1.862 74.322c-35.823.108-71.247 4.152-106.106 13.085-27.602 7.074-49.266 32.283-53.103 61.238-.442 3.338-.717 6.692-.927 10.051v76.883c.023.385.044.769.064 1.154.693 14.535 4.607 28.805 13.197 40.89 14.933 21.013 41.259 34.243 66.751 31.695 2.3-.23 4.581-.601 6.879-.882l9.262-2.245c76.021-23.748 165.048-.949 219.604 57.791 48.148 51.841 68.212 128.812 50.379 197.855-.764 2.956-1.643 5.875-2.475 8.807-4.14 14.716-4.562 30.536.594 45.297 9.572 27.409 35.472 48.897 64.907 50.493 1.341.066 2.682.116 4.023.179.547.029 1.149.064 1.149.064h76.709c7.607-.453 15.173-1.13 22.701-3.574 19.561-6.349 36.4-20.837 44.706-40.132 1.053-2.447 2.008-4.643 2.008-4.643l2.6-8.615c16.603-70.466 15.688-145.368-3.381-215.153-28.321-103.646-96.122-195.815-187.425-253.277-68.601-43.173-149.07-66.486-230.493-66.961h-1.623zm1.397 74.004c81.453.472 162.319 29.701 225.74 80.759 30.487 24.544 57.034 53.996 77.936 87.161 51.051 81.004 67.764 183.381 45.834 276.427h-76.709c20.544-67.956 14.824-145.432-17.872-211.037-27.56-55.302-72.965-101.842-128.141-129.194-63.142-31.302-137.928-38.361-205.968-19.341-2.798.782-5.583 1.614-8.349 2.478v-76.883c28.584-6.956 57.832-10.406 87.529-10.37zm-86.889 86.721s.009-.002 0 0z" fill="#ff7f5a"/></g><path d="M-135.072 466.056c27.93-6.853 56.903-10.372 86.401-10.372 96.277 0 186.773 37.499 254.847 105.573 68.069 68.073 105.567 158.569 105.567 254.846 0 28.635-3.32 56.754-9.776 83.93h-76.709c8.183-26.844 12.426-55.062 12.426-83.93 0-76.491-29.781-148.401-83.87-202.485C99.73 559.53 27.82 529.743-48.671 529.743c-29.746 0-58.813 4.506-86.401 13.196v-76.883z" fill="#ffe76c" fill-rule="nonzero"/><path d="M-135.072 542.939c27.588-8.69 56.655-13.196 86.401-13.196 76.491 0 148.401 29.787 202.485 83.875 54.089 54.084 83.87 125.994 83.87 202.485 0 28.868-4.243 57.086-12.426 83.93h-78.814c11.271-26.164 17.186-54.59 17.186-83.93 0-56.704-22.084-110.014-62.183-150.118-40.104-40.104-93.413-62.183-150.118-62.183-30.267 0-59.567 6.298-86.401 18.268v-79.131z" fill="#1fd7c3" fill-rule="nonzero"/><path d="M-135.072 708.173c24.442-19.647 54.595-30.312 86.401-30.312 36.928 0 71.638 14.377 97.746 40.496 26.114 26.104 40.496 60.813 40.496 97.746 0 30.744-9.96 59.95-28.391 83.93h85.264c11.271-26.169 17.186-54.59 17.186-83.93 0-56.704-22.084-110.014-62.183-150.118-40.104-40.104-93.413-62.183-150.118-62.183-30.267 0-59.567 6.293-86.401 18.268v86.103z" fill="#5bd6fd" fill-rule="nonzero"/><path d="M418.923 1034.16c53.285 0 96.481-43.196 96.481-96.481 0-49.667-37.533-90.55-85.781-95.875-11.141-69.612-71.458-122.798-144.212-122.798-60.471 0-112.361 36.754-134.55 89.141-2.58-.174-5.181-.273-7.806-.273-62.486 0-113.141 50.654-113.141 113.145 0 62.486 50.655 113.141 113.141 113.141h275.868z" fill="#ececee" fill-rule="nonzero"/><g fill="#444f5c" fill-rule="nonzero"><path d="M192.523 884.842c-5.419 0-9.816-4.397-9.816-9.816v-14.502c0-5.424 4.397-9.816 9.816-9.816 5.42 0 9.817 4.392 9.817 9.816v14.502c0 5.419-4.397 9.816-9.817 9.816zM352.795 884.842c-5.424 0-9.816-4.397-9.816-9.816v-14.502c0-5.424 4.392-9.816 9.816-9.816 5.419 0 9.816 4.392 9.816 9.816v14.502c0 5.419-4.397 9.816-9.816 9.816zM272.657 892.584c-10.541 0-20.442-4.412-27.166-12.104-3.569-4.085-3.152-10.288.928-13.851 4.084-3.569 10.282-3.157 13.851.928 2.997 3.429 7.513 5.394 12.387 5.394 4.878 0 9.394-1.965 12.392-5.394 3.568-4.085 9.766-4.497 13.851-.928 4.079 3.563 4.496 9.766.928 13.851-6.725 7.692-16.631 12.104-27.171 12.104z"/></g></g><g fill="#fff" fill-rule="nonzero"><path d="M246.501 508.854c2.5-1.907 4.819-4.186 6.877-6.781.045.024.09.048.135.073-2.105 2.58-4.468 4.834-7.012 6.708zm39.801-11.993c5.776-4.446 9.39-11.189 9.203-18.638-.167-6.64-3.395-12.913-8.86-17.221-1.162-1.207-2.486-2.065-3.936-2.549-2.087-1.096-4.331-1.904-6.685-2.413.61-6.674-4.294-14.022-12.171-17.924-3.461-1.716-7.181-2.623-10.76-2.623-3.786 0-7.138 1.006-9.681 2.82 2.595-2.044 6.135-3.186 10.168-3.186 3.579 0 7.299.908 10.761 2.623 7.875 3.903 12.781 11.251 12.17 17.925 2.354.507 4.598 1.317 6.684 2.413 1.452.484 2.775 1.342 3.937 2.549 5.464 4.308 8.693 10.581 8.86 17.221.193 7.656-3.63 14.566-9.69 19.003zm-111.419-33.466c2.762-2.136 6.05-3.583 9.494-4.052.007.1.016.202.025.302-3.428.371-6.721 1.713-9.519 3.75zm64.22-21.854c-5.356-4.788-13.182-7.663-21.589-7.82-.247-.004-.493-.007-.738-.007-7.816 0-14.838 2.283-19.961 6.033 5.16-3.965 12.381-6.398 20.448-6.398.246 0 .491.003.739.007 8.404.157 16.232 3.032 21.588 7.82-.027.021-.054.042-.08.063-.138.099-.275.199-.407.302z" fill-opacity=".52"/><path d="M246.019 509.216c2.639-2.015 5.075-4.442 7.216-7.22.048.025.095.051.143.077-2.058 2.595-4.377 4.874-6.877 6.781-.16.122-.321.243-.482.362zm39.8-11.993c5.774-4.445 9.388-11.188 9.2-18.635-.167-6.64-3.396-12.913-8.861-17.221-1.162-1.207-2.484-2.065-3.936-2.551-2.087-1.094-4.33-1.902-6.686-2.411.611-6.674-4.293-14.02-12.17-17.924-3.461-1.716-7.181-2.623-10.761-2.623-3.791 0-7.146 1.009-9.69 2.827.163-.128.327-.252.497-.372 2.543-1.814 5.895-2.82 9.681-2.82 3.579 0 7.299.907 10.76 2.623 7.877 3.902 12.781 11.25 12.171 17.924 2.354.509 4.598 1.317 6.685 2.413 1.45.484 2.774 1.342 3.936 2.549 5.465 4.308 8.693 10.581 8.86 17.221.187 7.449-3.427 14.192-9.203 18.638-.159.122-.32.243-.483.362zm-111.41-33.472c.157-.121.315-.239.474-.356 2.798-2.037 6.091-3.379 9.519-3.75.01.106.02.213.032.317-3.61.285-7.091 1.655-10.025 3.789zm64.226-21.827c-5.357-4.798-13.191-7.679-21.608-7.838-.247-.004-.493-.007-.739-.007-7.82 0-14.843 2.286-19.968 6.038.163-.125.327-.248.495-.37 5.123-3.75 12.145-6.033 19.961-6.033.245 0 .491.003.738.007 8.407.157 16.233 3.032 21.589 7.82-.16.125-.317.252-.468.383z" fill-opacity=".52"/><path d="M245.537 509.576c2.779-2.12 5.33-4.699 7.551-7.661.05.027.099.054.147.081-2.141 2.778-4.577 5.205-7.216 7.22-.16.12-.32.241-.482.36zm39.771-11.969c5.787-4.446 9.411-11.197 9.224-18.654-.167-6.64-3.396-12.913-8.86-17.221-1.164-1.207-2.487-2.065-3.937-2.551-2.087-1.093-4.33-1.902-6.684-2.411.61-6.674-4.297-14.02-12.171-17.924-3.462-1.716-7.183-2.622-10.762-2.622-3.79 0-7.144 1.009-9.687 2.824.157-.123.32-.245.484-.363 2.544-1.818 5.899-2.827 9.69-2.827 3.58 0 7.3.907 10.761 2.623 7.877 3.904 12.781 11.25 12.17 17.924 2.356.509 4.599 1.317 6.686 2.411 1.452.486 2.774 1.344 3.936 2.551 5.465 4.308 8.694 10.581 8.861 17.221.188 7.447-3.426 14.19-9.2 18.635-.169.131-.339.257-.511.384zM173.92 464.119c.161-.125.324-.247.489-.368 2.934-2.134 6.415-3.504 10.025-3.789.013.111.026.221.04.332-3.799.186-7.477 1.585-10.554 3.825zm64.268-21.794c-5.358-4.82-13.211-7.715-21.648-7.875-.247-.003-.493-.005-.737-.005-7.828 0-14.858 2.29-19.983 6.048.166-.127.331-.252.5-.376 5.125-3.752 12.148-6.038 19.968-6.038.246 0 .492.003.739.007 8.417.159 16.251 3.04 21.608 7.838-.153.129-.303.263-.447.401z" fill-opacity=".52"/><path d="M245.044 509.946c2.922-2.228 5.592-4.962 7.892-8.117.05.029.101.057.152.086-2.221 2.962-4.772 5.541-7.551 7.661-.163.125-.327.249-.493.37zm39.789-11.984c5.782-4.445 9.399-11.191 9.212-18.644-.168-6.64-3.396-12.912-8.86-17.221-1.162-1.207-2.486-2.065-3.937-2.551-2.087-1.093-4.33-1.902-6.685-2.41.611-6.675-4.294-14.021-12.171-17.925-3.462-1.716-7.182-2.622-10.76-2.622-3.788 0-7.142 1.008-9.684 2.822.157-.124.318-.245.483-.363 2.543-1.815 5.897-2.824 9.687-2.824 3.579 0 7.3.906 10.762 2.622 7.874 3.904 12.781 11.25 12.171 17.924 2.354.509 4.597 1.318 6.684 2.411 1.45.486 2.773 1.344 3.937 2.551 5.464 4.308 8.693 10.581 8.86 17.221.187 7.457-3.437 14.208-9.224 18.654-.157.121-.315.239-.475.355zm-111.402-33.478c.162-.124.323-.246.489-.365 3.077-2.24 6.755-3.639 10.554-3.825.016.115.032.231.05.346-3.988.076-7.87 1.498-11.093 3.844zm64.333-21.737c-5.36-4.853-13.241-7.771-21.711-7.929-.247-.006-.492-.008-.739-.008-7.811 0-14.829 2.281-19.951 6.026.15-.115.303-.23.457-.343 5.125-3.758 12.155-6.048 19.983-6.048.244 0 .49.002.737.005 8.437.16 16.29 3.055 21.648 7.875-.145.137-.288.278-.424.422z" fill-opacity=".52"/><path d="M244.567 510.304c3.057-2.333 5.839-5.222 8.209-8.567.053.031.106.061.16.092-2.3 3.155-4.97 5.889-7.892 8.117-.157.121-.317.24-.477.358zm39.774-11.973c5.784-4.444 9.405-11.193 9.216-18.648-.167-6.64-3.396-12.911-8.86-17.219-1.162-1.209-2.485-2.067-3.937-2.553-2.087-1.095-4.329-1.902-6.684-2.41.611-6.674-4.295-14.021-12.17-17.925-3.461-1.716-7.182-2.622-10.761-2.622-3.79 0-7.144 1.008-9.687 2.824.16-.126.323-.248.49-.367 2.542-1.814 5.896-2.822 9.684-2.822 3.578 0 7.298.906 10.76 2.622 7.877 3.904 12.782 11.25 12.171 17.925 2.355.508 4.598 1.317 6.685 2.41 1.451.486 2.775 1.344 3.937 2.551 5.464 4.309 8.692 10.581 8.86 17.221.187 7.453-3.43 14.199-9.212 18.644-.162.125-.326.249-.492.369zm-111.387-33.489c.157-.121.317-.24.477-.358 3.223-2.346 7.105-3.768 11.093-3.844.019.122.039.243.059.364-.07-.002-.141-.002-.212-.002-4.101 0-8.105 1.433-11.417 3.84zm64.405-21.653c-5.359-4.9-13.28-7.846-21.792-8.006-.249-.006-.494-.008-.739-.008-7.814 0-14.831 2.281-19.955 6.027.161-.123.324-.245.49-.366 5.122-3.745 12.14-6.026 19.951-6.026.247 0 .492.002.739.008 8.47.158 16.351 3.076 21.711 7.929-.139.144-.275.291-.405.442z" fill-opacity=".52"/><path d="M244.073 510.674c3.199-2.44 6.098-5.49 8.538-9.033.054.032.109.064.165.096-2.37 3.345-5.152 6.234-8.209 8.567-.164.125-.329.248-.494.37zm39.781-11.978c5.784-4.444 9.405-11.193 9.216-18.646-.167-6.641-3.396-12.913-8.86-17.221-1.162-1.209-2.485-2.065-3.935-2.553-2.087-1.093-4.331-1.903-6.686-2.41.611-6.674-4.295-14.021-12.17-17.925-3.462-1.714-7.182-2.622-10.761-2.622-3.789 0-7.142 1.008-9.686 2.823.158-.125.32-.246.486-.364 2.543-1.816 5.897-2.824 9.687-2.824 3.579 0 7.3.906 10.761 2.622 7.875 3.904 12.781 11.251 12.17 17.925 2.355.508 4.597 1.315 6.684 2.41 1.452.486 2.775 1.344 3.937 2.553 5.464 4.308 8.693 10.579 8.86 17.219.189 7.455-3.432 14.204-9.216 18.648-.161.124-.323.246-.487.365zm-111.397-33.481c.163-.126.33-.251.497-.373 3.312-2.407 7.316-3.84 11.417-3.84.071 0 .142 0 .212.002.024.127.047.254.072.381-.256-.012-.514-.018-.771-.018-4.106 0-8.114 1.437-11.427 3.848zm64.523-21.563c-5.361-4.958-13.331-7.944-21.9-8.106-.247-.004-.495-.007-.739-.007-7.819 0-14.842 2.286-19.965 6.037.162-.125.33-.25.497-.374 5.124-3.746 12.141-6.027 19.955-6.027.245 0 .49.002.739.008 8.512.16 16.433 3.106 21.792 8.006-.131.151-.259.305-.379.463z" fill-opacity=".52"/><path d="M243.6 511.029c3.333-2.546 6.34-5.75 8.84-9.488.056.034.113.067.171.1-2.44 3.543-5.339 6.593-8.538 9.033-.156.12-.315.239-.473.355zm39.767-11.968c5.784-4.446 9.404-11.192 9.216-18.646-.167-6.641-3.395-12.913-8.86-17.221-1.162-1.207-2.486-2.065-3.937-2.551-2.087-1.095-4.328-1.902-6.684-2.411.611-6.675-4.294-14.022-12.17-17.926-3.462-1.714-7.182-2.622-10.761-2.622-3.786 0-7.138 1.007-9.68 2.82.157-.123.317-.244.481-.362 2.544-1.815 5.897-2.823 9.686-2.823 3.579 0 7.299.908 10.761 2.622 7.875 3.904 12.781 11.251 12.17 17.925 2.355.507 4.599 1.317 6.686 2.41 1.45.488 2.773 1.344 3.935 2.553 5.464 4.308 8.693 10.58 8.86 17.221.189 7.453-3.432 14.202-9.216 18.646-.16.124-.323.246-.487.365zm-111.396-33.482c.16-.124.323-.246.486-.364 3.313-2.411 7.321-3.848 11.427-3.848.257 0 .515.006.771.018.026.132.053.264.084.397 0 .001-.002.003-.002.004-.443-.035-.891-.054-1.339-.054-4.106 0-8.114 1.436-11.427 3.847zm64.649-21.443c-5.36-5.029-13.388-8.062-22.027-8.225-.248-.004-.493-.007-.739-.007-7.817 0-14.838 2.285-19.961 6.034.158-.122.32-.243.483-.362 5.123-3.751 12.146-6.037 19.965-6.037.244 0 .492.003.739.007 8.569.162 16.539 3.148 21.9 8.106-.124.158-.243.319-.36.484z" fill-opacity=".52"/><path d="M243.1 511.405c3.477-2.653 6.6-6.024 9.164-9.97.058.036.117.071.176.106-2.5 3.738-5.507 6.942-8.84 9.488-.166.127-.333.252-.5.376zm39.798-11.992c5.774-4.446 9.385-11.187 9.198-18.633-.166-6.641-3.395-12.913-8.859-17.221-1.163-1.207-2.485-2.065-3.937-2.551-2.087-1.095-4.329-1.904-6.685-2.411.61-6.675-4.294-14.021-12.171-17.924-3.461-1.716-7.181-2.624-10.76-2.624-3.788 0-7.14 1.007-9.682 2.82.158-.125.323-.247.489-.365 2.542-1.813 5.894-2.82 9.68-2.82 3.579 0 7.299.908 10.761 2.622 7.876 3.904 12.781 11.251 12.17 17.926 2.356.509 4.597 1.316 6.684 2.411 1.451.486 2.775 1.344 3.937 2.551 5.465 4.308 8.693 10.58 8.86 17.221.188 7.454-3.432 14.2-9.216 18.646-.154.12-.312.237-.469.352zm-111.43-33.456c.166-.129.333-.254.503-.378 3.313-2.411 7.321-3.847 11.427-3.847.448 0 .896.019 1.339.054-.008.137-.016.273-.023.409-.596-.064-1.198-.096-1.803-.096-4.113 0-8.127 1.44-11.443 3.858zm64.817-21.312c-5.361-5.115-13.459-8.204-22.18-8.369-.247-.004-.493-.007-.738-.007-7.813 0-14.831 2.282-19.953 6.029.157-.123.317-.242.479-.36 5.123-3.749 12.144-6.034 19.961-6.034.246 0 .491.003.739.007 8.639.163 16.667 3.196 22.027 8.225-.116.167-.228.336-.335.509z" fill-opacity=".52"/><path d="M242.612 511.771c3.616-2.76 6.851-6.297 9.47-10.447.059.037.121.075.182.111-2.564 3.946-5.687 7.317-9.164 9.97-.162.123-.325.245-.488.366zm39.798-11.991c5.774-4.446 9.388-11.189 9.2-18.635-.167-6.641-3.396-12.913-8.86-17.221-1.163-1.207-2.485-2.065-3.937-2.551-2.087-1.095-4.331-1.904-6.686-2.411.613-6.674-4.293-14.02-12.17-17.924-3.46-1.716-7.181-2.624-10.761-2.624-3.788 0-7.143 1.01-9.686 2.825.026-.021.053-.042.08-.063.134-.105.272-.206.412-.307 2.542-1.813 5.894-2.82 9.682-2.82 3.579 0 7.299.908 10.76 2.624 7.877 3.903 12.781 11.249 12.171 17.924 2.356.507 4.598 1.316 6.685 2.411 1.452.486 2.774 1.344 3.937 2.551 5.464 4.308 8.693 10.58 8.859 17.221.187 7.446-3.424 14.187-9.198 18.633-.161.124-.324.246-.488.367zM171 466.308c.154-.12.311-.236.468-.351 3.316-2.418 7.33-3.858 11.443-3.858.605 0 1.207.032 1.803.096-.006.142-.011.283-.016.423-.75-.103-1.509-.154-2.274-.154-4.105 0-8.111 1.435-11.424 3.844zm64.972-21.131c-5.358-5.215-13.537-8.37-22.354-8.536-.247-.004-.493-.007-.737-.007-7.819 0-14.842 2.286-19.966 6.037.163-.126.331-.251.499-.373 5.122-3.747 12.14-6.029 19.953-6.029.245 0 .491.003.738.007 8.721.165 16.819 3.254 22.18 8.369-.108.174-.213.352-.313.532z" fill-opacity=".52"/><path d="M224.472 518.37c-10.717 0-20.531-6.648-23.623-15.728-4.088 2.077-8.766 3.207-13.354 3.207-4.715 0-9.225-1.169-13.044-3.382-8.799-5.096-13.556-15.968-11.068-25.295 2.238-8.385 10.425-14.708 19.041-14.708.765 0 1.524.051 2.274.154.009-.276.022-.556.041-.838-.294-1.313-.429-2.639-.406-3.946.224-11.888 12.764-21.2 28.548-21.2.244 0 .491.003.737.007 8.817.168 16.996 3.322 22.354 8.536 2.334-4.244 7.235-6.763 13.224-6.763 3.58 0 7.3.908 10.761 2.624 7.877 3.904 12.783 11.25 12.17 17.924 2.356.509 4.599 1.316 6.686 2.411 1.452.486 2.774 1.344 3.937 2.551 5.464 4.308 8.693 10.58 8.86 17.221.326 12.928-10.802 23.731-24.806 24.083-.235.006-.471.009-.706.009-5.046 0-9.86-1.347-14.016-3.913-5.957 9.438-15.092 15.706-24.685 16.871-.96.115-1.942.175-2.925.175z"/><g><path d="M120.863 620.532c2.5-1.907 4.818-4.186 6.876-6.78.045.023.09.048.136.073-2.105 2.58-4.468 4.834-7.012 6.707zm39.8-11.993c5.777-4.446 9.391-11.188 9.203-18.637-.167-6.641-3.394-12.913-8.86-17.221-1.162-1.208-2.485-2.066-3.935-2.55-2.087-1.095-4.331-1.904-6.686-2.413.611-6.674-4.293-14.021-12.17-17.923-3.461-1.716-7.182-2.624-10.761-2.624-3.785 0-7.138 1.007-9.68 2.82 2.595-2.043 6.135-3.185 10.167-3.185 3.58 0 7.3.908 10.761 2.622 7.876 3.904 12.781 11.251 12.17 17.925 2.355.508 4.599 1.318 6.685 2.413 1.451.484 2.775 1.342 3.937 2.55 5.464 4.307 8.692 10.58 8.86 17.221.193 7.655-3.63 14.565-9.691 19.002zM49.244 575.073c2.762-2.135 6.05-3.582 9.494-4.052.008.101.016.202.025.303-3.428.371-6.72 1.713-9.519 3.749zm64.221-21.853c-5.357-4.788-13.183-7.663-21.589-7.82-.247-.005-.493-.008-.739-.008-7.815 0-14.837 2.284-19.961 6.033 5.16-3.965 12.381-6.398 20.449-6.398.245 0 .491.003.738.008 8.405.157 16.233 3.032 21.589 7.82-.028.02-.054.042-.08.062-.138.099-.275.2-.407.303z" fill-opacity=".52"/><path d="M120.38 620.894c2.64-2.014 5.076-4.441 7.217-7.219.048.025.094.051.142.077-2.058 2.594-4.376 4.873-6.876 6.78-.16.122-.321.243-.483.362zm39.8-11.992c5.774-4.445 9.388-11.189 9.201-18.635-.168-6.641-3.396-12.913-8.862-17.221-1.162-1.207-2.484-2.066-3.935-2.551-2.087-1.094-4.33-1.903-6.686-2.412.611-6.674-4.293-14.02-12.17-17.923-3.461-1.716-7.182-2.624-10.761-2.624-3.791 0-7.147 1.009-9.69 2.827.162-.128.327-.251.497-.372 2.542-1.813 5.895-2.82 9.68-2.82 3.579 0 7.3.908 10.761 2.624 7.877 3.902 12.781 11.249 12.17 17.923 2.355.509 4.599 1.318 6.686 2.413 1.45.484 2.773 1.342 3.935 2.55 5.466 4.308 8.693 10.58 8.86 17.221.188 7.449-3.426 14.191-9.203 18.637-.158.123-.32.243-.483.363zM48.77 575.429c.157-.12.316-.238.474-.356 2.799-2.036 6.091-3.378 9.519-3.749.01.106.021.212.032.317-3.61.285-7.09 1.655-10.025 3.788zm64.226-21.827c-5.356-4.798-13.191-7.679-21.607-7.837-.247-.005-.493-.008-.739-.008-7.82 0-14.843 2.287-19.968 6.039.163-.125.327-.249.494-.371 5.124-3.749 12.146-6.033 19.961-6.033.246 0 .492.003.739.008 8.406.157 16.232 3.032 21.589 7.82-.16.125-.317.251-.469.382z" fill-opacity=".52"/><path d="M119.899 621.255c2.779-2.121 5.33-4.699 7.551-7.662.049.028.099.054.147.082-2.141 2.778-4.577 5.205-7.217 7.219-.16.121-.32.242-.481.361zm39.771-11.969c5.787-4.446 9.411-11.198 9.223-18.654-.167-6.641-3.395-12.913-8.86-17.221-1.163-1.207-2.486-2.065-3.937-2.551-2.087-1.094-4.329-1.903-6.684-2.412.611-6.674-4.296-14.02-12.17-17.923-3.463-1.716-7.183-2.622-10.762-2.622-3.79 0-7.144 1.009-9.688 2.824.157-.124.32-.246.485-.364 2.543-1.818 5.899-2.827 9.69-2.827 3.579 0 7.3.908 10.761 2.624 7.877 3.903 12.781 11.249 12.17 17.923 2.356.509 4.599 1.318 6.686 2.412 1.451.485 2.773 1.344 3.935 2.551 5.466 4.308 8.694 10.58 8.862 17.221.187 7.446-3.427 14.19-9.201 18.635-.168.13-.339.257-.51.384zM48.282 575.797c.161-.125.324-.247.488-.368 2.935-2.133 6.415-3.503 10.025-3.788.013.11.026.221.041.331-3.799.186-7.477 1.586-10.554 3.825zm64.268-21.793c-5.358-4.82-13.212-7.716-21.648-7.876-.248-.003-.493-.004-.738-.004-7.827 0-14.857 2.289-19.983 6.047.166-.126.332-.251.501-.375 5.125-3.752 12.148-6.039 19.968-6.039.246 0 .492.003.739.008 8.416.158 16.251 3.039 21.607 7.837-.152.13-.302.263-.446.402z" fill-opacity=".52"/><path d="M119.406 621.624c2.922-2.228 5.592-4.962 7.891-8.116.051.029.102.056.153.085-2.221 2.963-4.772 5.541-7.551 7.662-.163.125-.327.249-.493.369zm39.788-11.984c5.783-4.444 9.4-11.191 9.212-18.643-.167-6.641-3.396-12.912-8.86-17.221-1.162-1.207-2.485-2.065-3.937-2.551-2.087-1.094-4.329-1.903-6.684-2.41.611-6.676-4.295-14.022-12.172-17.925-3.461-1.716-7.181-2.622-10.759-2.622-3.789 0-7.142 1.007-9.685 2.821.158-.123.319-.244.483-.362 2.544-1.815 5.898-2.824 9.688-2.824 3.579 0 7.299.906 10.762 2.622 7.874 3.903 12.781 11.249 12.17 17.923 2.355.509 4.597 1.318 6.684 2.412 1.451.486 2.774 1.344 3.937 2.551 5.465 4.308 8.693 10.58 8.86 17.221.188 7.456-3.436 14.208-9.223 18.654-.157.12-.316.238-.476.354zM47.793 576.162c.161-.123.323-.245.489-.365 3.077-2.239 6.755-3.639 10.554-3.825.016.115.032.232.049.347-3.988.075-7.869 1.497-11.092 3.843zm64.332-21.737c-5.359-4.853-13.24-7.77-21.711-7.929-.247-.006-.491-.007-.738-.007-7.812 0-14.829 2.28-19.951 6.025.149-.115.302-.229.456-.343 5.126-3.758 12.156-6.047 19.983-6.047.245 0 .49.001.738.004 8.436.16 16.29 3.056 21.648 7.876-.146.136-.288.277-.425.421z" fill-opacity=".52"/><path d="M118.929 621.982c3.057-2.333 5.839-5.221 8.208-8.566.054.031.106.061.16.092-2.299 3.154-4.969 5.888-7.891 8.116-.157.121-.317.24-.477.358zm39.774-11.972c5.784-4.445 9.405-11.193 9.216-18.648-.167-6.641-3.396-12.912-8.86-17.22-1.162-1.208-2.485-2.066-3.937-2.552-2.087-1.095-4.33-1.902-6.684-2.41.611-6.674-4.295-14.022-12.17-17.925-3.462-1.716-7.182-2.622-10.761-2.622-3.79 0-7.144 1.008-9.688 2.824.16-.126.323-.249.49-.368 2.543-1.814 5.896-2.821 9.685-2.821 3.578 0 7.298.906 10.759 2.622 7.877 3.903 12.783 11.249 12.172 17.925 2.355.507 4.597 1.316 6.684 2.41 1.452.486 2.775 1.344 3.937 2.551 5.464 4.309 8.693 10.58 8.86 17.221.188 7.452-3.429 14.199-9.212 18.643-.161.126-.325.249-.491.37zM47.316 576.52c.157-.121.317-.24.477-.358 3.223-2.346 7.104-3.768 11.092-3.843.019.122.04.242.06.363-.07-.001-.141-.001-.212-.001-4.102 0-8.106 1.432-11.417 3.839zm64.405-21.652c-5.359-4.9-13.28-7.847-21.792-8.007-.249-.006-.495-.007-.739-.007-7.814 0-14.832 2.28-19.955 6.027.161-.124.324-.246.49-.367 5.122-3.745 12.139-6.025 19.951-6.025.247 0 .491.001.738.007 8.471.159 16.352 3.076 21.711 7.929-.138.144-.275.291-.404.443z" fill-opacity=".52"/><path d="M118.434 622.353c3.2-2.44 6.098-5.49 8.539-9.033.054.032.109.064.164.096-2.369 3.345-5.151 6.233-8.208 8.566-.165.125-.329.249-.495.371zm39.782-11.978c5.784-4.445 9.405-11.193 9.216-18.647-.167-6.64-3.396-12.913-8.86-17.221-1.162-1.208-2.486-2.065-3.936-2.552-2.087-1.094-4.331-1.904-6.685-2.41.61-6.674-4.295-14.022-12.171-17.925-3.461-1.715-7.181-2.622-10.76-2.622-3.789 0-7.143 1.008-9.686 2.823.158-.125.32-.246.485-.364 2.544-1.816 5.898-2.824 9.688-2.824 3.579 0 7.299.906 10.761 2.622 7.875 3.903 12.781 11.251 12.17 17.925 2.354.508 4.597 1.315 6.684 2.41 1.452.486 2.775 1.344 3.937 2.552 5.464 4.308 8.693 10.579 8.86 17.22.189 7.455-3.432 14.203-9.216 18.648-.162.123-.323.246-.487.365zM46.818 576.894c.163-.127.331-.252.498-.374 3.311-2.407 7.315-3.839 11.417-3.839.071 0 .142 0 .212.001.023.128.046.255.071.381-.256-.012-.513-.017-.771-.017-4.105 0-8.114 1.437-11.427 3.848zm64.523-21.564c-5.36-4.958-13.33-7.944-21.9-8.105-.247-.004-.494-.007-.738-.007-7.819 0-14.842 2.286-19.966 6.037.163-.125.33-.25.498-.374 5.123-3.747 12.141-6.027 19.955-6.027.244 0 .49.001.739.007 8.512.16 16.433 3.107 21.792 8.007-.131.151-.259.305-.38.462z" fill-opacity=".52"/><path d="M117.962 622.708c3.333-2.547 6.339-5.751 8.839-9.488.057.033.114.066.172.1-2.441 3.543-5.339 6.593-8.539 9.033-.155.119-.314.239-.472.355zm39.766-11.968c5.784-4.446 9.404-11.193 9.217-18.646-.168-6.641-3.395-12.914-8.86-17.222-1.162-1.207-2.486-2.065-3.937-2.551-2.087-1.095-4.329-1.902-6.685-2.411.611-6.674-4.293-14.022-12.17-17.925-3.461-1.715-7.181-2.622-10.761-2.622-3.785 0-7.138 1.006-9.68 2.82.157-.124.317-.244.482-.362 2.543-1.815 5.897-2.823 9.686-2.823 3.579 0 7.299.907 10.76 2.622 7.876 3.903 12.781 11.251 12.171 17.925 2.354.506 4.598 1.316 6.685 2.41 1.45.487 2.774 1.344 3.936 2.552 5.464 4.308 8.693 10.581 8.86 17.221.189 7.454-3.432 14.202-9.216 18.647-.16.123-.323.246-.488.365zM46.333 577.258c.16-.124.323-.246.485-.364 3.313-2.411 7.322-3.848 11.427-3.848.258 0 .515.005.771.017.026.132.054.265.085.397 0 .002-.002.003-.002.005-.443-.035-.891-.054-1.339-.054-4.106 0-8.114 1.435-11.427 3.847zm64.649-21.444c-5.361-5.029-13.389-8.061-22.028-8.224-.247-.004-.493-.007-.739-.007-7.817 0-14.837 2.284-19.961 6.034.159-.122.32-.243.483-.362 5.124-3.751 12.147-6.037 19.966-6.037.244 0 .491.003.738.007 8.57.161 16.54 3.147 21.9 8.105-.123.159-.243.32-.359.484z" fill-opacity=".52"/><path d="M117.461 623.083c3.478-2.653 6.6-6.024 9.164-9.97.058.037.118.072.176.107-2.5 3.737-5.506 6.941-8.839 9.488-.166.126-.333.251-.501.375zm39.799-11.991c5.774-4.446 9.385-11.187 9.197-18.633-.165-6.641-3.394-12.914-8.858-17.222-1.164-1.207-2.486-2.065-3.937-2.551-2.087-1.095-4.33-1.903-6.686-2.411.611-6.674-4.293-14.02-12.17-17.923-3.461-1.717-7.182-2.624-10.761-2.624-3.787 0-7.139 1.006-9.681 2.82.158-.125.322-.247.488-.365 2.542-1.814 5.895-2.82 9.68-2.82 3.58 0 7.3.907 10.761 2.622 7.877 3.903 12.781 11.251 12.17 17.925 2.356.509 4.598 1.316 6.685 2.411 1.451.486 2.775 1.344 3.937 2.551 5.465 4.308 8.692 10.581 8.86 17.222.187 7.453-3.433 14.2-9.217 18.646-.154.119-.311.237-.468.352zM45.829 577.636c.166-.13.334-.255.504-.378 3.313-2.412 7.321-3.847 11.427-3.847.448 0 .896.019 1.339.054-.009.136-.016.273-.023.408-.596-.064-1.199-.096-1.804-.096-4.113 0-8.127 1.44-11.443 3.859zm64.817-21.313c-5.361-5.115-13.459-8.204-22.179-8.368-.247-.004-.493-.007-.739-.007-7.813 0-14.83 2.282-19.952 6.028.157-.122.317-.241.478-.359 5.124-3.75 12.144-6.034 19.961-6.034.246 0 .492.003.739.007 8.639.163 16.667 3.195 22.028 8.224-.116.168-.228.336-.336.509z" fill-opacity=".52"/><path d="M116.974 623.45c3.616-2.761 6.85-6.298 9.469-10.447.06.036.121.074.182.11-2.564 3.946-5.686 7.317-9.164 9.97-.161.124-.324.246-.487.367zm39.797-11.992c5.774-4.446 9.388-11.188 9.201-18.634-.168-6.641-3.396-12.914-8.86-17.222-1.164-1.207-2.486-2.065-3.937-2.551-2.087-1.095-4.331-1.903-6.686-2.411.612-6.674-4.293-14.02-12.17-17.923-3.46-1.717-7.182-2.624-10.761-2.624-3.789 0-7.144 1.009-9.686 2.824.026-.02.052-.042.08-.062.134-.105.272-.207.412-.307 2.542-1.814 5.894-2.82 9.681-2.82 3.579 0 7.3.907 10.761 2.624 7.877 3.903 12.781 11.249 12.17 17.923 2.356.508 4.599 1.316 6.686 2.411 1.451.486 2.773 1.344 3.937 2.551 5.464 4.308 8.693 10.581 8.858 17.222.188 7.446-3.423 14.187-9.197 18.633-.161.124-.324.246-.489.366zm-111.41-33.472c.154-.119.311-.235.468-.35 3.316-2.419 7.33-3.859 11.443-3.859.605 0 1.208.032 1.804.096-.006.143-.012.284-.016.423-.751-.103-1.51-.154-2.275-.154-4.104 0-8.111 1.436-11.424 3.844zm64.972-21.13c-5.357-5.216-13.537-8.37-22.353-8.536-.247-.004-.493-.007-.737-.007-7.819 0-14.842 2.286-19.966 6.037.163-.127.33-.252.499-.374 5.122-3.746 12.139-6.028 19.952-6.028.246 0 .492.003.739.007 8.72.164 16.818 3.253 22.179 8.368-.107.175-.212.352-.313.533z" fill-opacity=".52"/><path d="M98.834 630.048c-10.717 0-20.531-6.648-23.623-15.727-4.089 2.076-8.766 3.206-13.354 3.206-4.715 0-9.225-1.169-13.045-3.381-8.799-5.096-13.556-15.969-11.067-25.296 2.238-8.384 10.425-14.708 19.04-14.708.765 0 1.524.051 2.275.154.009-.276.022-.555.041-.837-.294-1.314-.429-2.64-.406-3.946.224-11.888 12.763-21.2 28.548-21.2.244 0 .491.003.737.007 8.816.167 16.996 3.322 22.353 8.536 2.335-4.244 7.236-6.763 13.225-6.763 3.579 0 7.299.907 10.761 2.624 7.877 3.903 12.782 11.249 12.17 17.923 2.356.509 4.599 1.316 6.686 2.411 1.451.486 2.773 1.344 3.937 2.551 5.464 4.308 8.692 10.581 8.86 17.222.325 12.927-10.802 23.73-24.806 24.082-.236.006-.471.009-.707.009-5.045 0-9.859-1.347-14.016-3.912-5.957 9.437-15.091 15.706-24.684 16.871-.96.114-1.942.174-2.925.174z"/></g></g><g fill-rule="nonzero"><path d="M1143.7 779.408c-3.86 0-3.86-6 0-6 3.87 0 3.86 6 0 6zM912.71 523.416c-3.867 0-3.86-6 0-6 3.867 0 3.861 6 0 6zM1092.7 431.426c-3.87 0-3.86-6 0-6 3.87 0 3.86 6 0 6zM720.721 788.408c-3.867 0-3.86-6 0-6 3.867 0 3.862 6 0 6zM579.729 605.417c-3.868 0-3.861-6 0-6 3.866 0 3.86 6 0 6z" fill="#c5e4f0"/><path d="M481.72 1026.45c-3.867 0-3.86-6 0-6 3.867 0 3.861 6 0 6z" fill="#cfe9f3"/><path d="M779.723 401.183c-3.86 0-3.86-6 0-6 3.87 0 3.86 6 0 6zM548.736 145.191c-3.867 0-3.86-6 0-6 3.867 0 3.861 6 0 6zM728.723 53.201c-3.87 0-3.86-6 0-6 3.87 0 3.86 6 0 6zM356.747 410.183c-3.867 0-3.86-6 0-6 3.867 0 3.862 6 0 6zM215.755 227.192c-3.868 0-3.861-6 0-6 3.866 0 3.86 6 0 6zM1458.67 83.798c-3.867 0-3.86-6 0-6 3.867 0 3.861 6 0 6zM1266.68 348.79c-3.867 0-3.86-6 0-6 3.867 0 3.862 6 0 6zM1125.69 165.799c-3.868 0-3.861-6 0-6 3.866 0 3.86 6 0 6z" fill="#c5e4f0"/><path d="M1027.68 586.828c-3.867 0-3.86-6 0-6 3.867 0 3.861 6 0 6z" fill="#cfe9f3"/></g><path d="M168.626 959.806c1.742-2.47 5.934-6.189 7.63-7.3 2.101-.561 12.657 25.825 8.744 39.091 39.954-3.179 57.448 18.394 61.837 50.545-2.231.365-4.822.926-6.803 1.387-.715.167-1.474.397-1.474.397s-29.766-46.451-63.304-42.563c0 0 .631-27.494-6.63-41.557z" fill="#a7d5e8"/><path d="M545.153 1103.59c-2.706-.91-5.476-1.66-8.301-2.27 1.781-19.47-12.523-40.89-35.49-52.27-10.093-5.01-20.942-7.65-31.378-7.65-15.73 0-28.885 5.961-36.315 16.18-.075.11-.149.21-.223.31-.049.07-.098.14-.146.211-.027.039-.054.069-.081.109-.053.08-.107.151-.16.23-.01.01-.019.02-.029.041-.007.01-.014.019-.021.029-.029.04-.059.081-.087.12-.013.02-.025.03-.037.05-.017.02-.034.051-.051.07-.002 0-.005.01-.007.01l-.039.06c-.024.031-.047.06-.071.09-.037.061-.075.11-.112.16-.014.021-.029.041-.043.06-.024.04-.047.07-.071.101-.032.039-.064.089-.095.13-.009.019-.019.029-.028.039-.019.03-.037.06-.056.081-.033.049-.066.089-.098.139-.025.03-.05.07-.075.101-.035.049-.07.099-.105.149-.036.05-.073.101-.109.15-.011.02-.022.03-.032.05-.006.01-.011.01-.016.021-.028.039-.057.079-.085.119-.038.05-.077.11-.115.16-.03.04-.061.09-.091.13-.011.01-.021.03-.031.04-.019.03-.036.051-.054.08-.047.06-.094.13-.14.19-.011.02-.022.031-.033.051-.018.019-.035.049-.053.069-.006.01-.013.02-.019.03-15.63-15.109-39.403-24.25-65.018-24.73-.722-.01-1.439-.02-2.154-.02-.262 0-.52.01-.78.01-.261 0-.519-.01-.781-.01-.715 0-1.432.01-2.154.02-25.356.48-48.908 9.44-64.543 24.27-.362-.05-.723-.11-1.088-.159-6.968-11.911-21.022-18.941-38.115-18.941-3.235 0-6.511.25-9.789.75-.317-2.28-.77-4.55-1.368-6.79-6.529-24.451-30.398-42.891-55.522-42.891-2.23 0-4.446.152-6.631.449-.027-.805-.064-1.618-.118-2.441.852-3.828 1.249-7.697 1.18-11.509-.179-9.522-3.068-18.476-8.119-26.458 6.222-4.493 13.809-7.131 21.997-7.131 6.591 0 12.789 1.711 18.203 4.72 1.828-19.931 18.165-35.529 38.073-35.529 18.458 0 33.861 13.413 37.46 31.256 9.233-17.736 27.448-29.808 48.418-29.808 30.304 0 54.867 25.198 54.867 56.287 0 4.207-.465 8.301-1.317 12.243 5.979-3.969 13.091-6.301 20.746-6.301 21.129 0 38.258 17.572 38.258 39.253 0 1.37-.07 2.72-.203 4.05 6.5-5.24 14.674-8.384 23.582-8.384 4.028 0 7.907.647 11.552 1.834-.075-1.217-.127-2.434-.127-3.667 0-31.089 24.564-56.288 54.866-56.288 26.33 0 48.318 19.03 53.633 44.411 6.597-5.55 15.035-8.884 24.236-8.884 21.128 0 38.257 17.571 38.257 39.248 0 .75-.068 1.49-.109 2.23 6.992-7.8 16.992-12.73 28.14-12.73 17.769 0 32.666 12.45 36.968 29.3 5.44-4.24 11.672-7.45 18.43-9.37 11.574-3.689 10.923 1.587 5.258 4.991-.341.205-.526.6-.785.899-.259.29-.515.581-.769.88-.267.3-.531.6-.793.9-.261.29-.521.59-.777.89-.266.301-.53.6-.791.9-.263.3-.525.6-.783.901-.267.299-.533.599-.795.909-.256.28-.512.581-.763.87-3.191 3.581-15.523 14.781-17.913 18.931-1.067.49-10.107 4.06-11.134 4.61-10.534-11.249-18.361-22.078-34.389-28.379-.407-.16-4.657-.83-5.096-.82-1.843.05-3.475-.841-5.265-.571-13.988 2.081-24.983 7.031-35.235 18.94-.261.29-.986-.691-1.243-.402-.263.3-.688.202-.947.502-.266.301.372 1.08.11 1.38-.262.3-.191 3.131-1.023.235-.107-.374-.271.753-.526 1.044-.267.299-.941-.292-1.204.008-.258.29-.267.17-.522.47-.27.3.119 1.348-1.048.019-.926-1.056-2.332.573-3.215 1.683-7.261-3.97-15.453-6.04-23.974-6.04-.476 0-.952.01-1.43.02-.442.01-.882.03-1.325.05-14.283.75-26.811 7.26-35.062 16.94-.264.29-.524.59-.779.89-.266.29-.526.59-.784.89-.267.3-.53.6-.79.9-.262.3-.521.59-.775.89-.266.3-.53.6-.787.9-.263.29-.522.59-.777.89-.265.29-.526.59-.782.89-.268.3-.533.6-.793.91-4.275 4.76-7.49 10.34-9.327 16.42zm-63.433-83.14c-3.86 0-3.867 6 0 6 3.861 0 3.867-6 0-6zM778.057 1021.09c5.58-14.188 16.633-25.511 30.477-31.209-4.699 9.466-7.277 20.031-7.276 30.949 0 .01 2.113 15.02 2.113 15.03-3.58-.57-24.248 14.352-27.237 14.193-.117-.006-7.507-4.991 1.923-28.963z" fill="#a7d5e8" fill-rule="nonzero"/><g fill="#a7d5e8"><path d="M942.162 985.09c-5.153-11.93-13.42-21.887-23.575-29.115-.224-2.059-.351-4.147-.351-6.267 0-31.089 24.562-56.289 54.866-56.289 7.805 0 15.231 1.673 21.952 4.687-.2.231-.4.46-.6.693-.02.016-.03.032-.05.048-.23.269-.47.539-.7.811-.03.028-.05.055-.08.084-.25.28-.49.563-.74.846-.01.016-.03.032-.04.048-.24.269-.48.541-.71.813-.03.026-.05.055-.07.081-.25.281-.5.562-.74.845-.02.016-.03.034-.05.05-.24.269-.47.541-.71.813-.02.028-.04.053-.07.081-11.783 13.276-17.581 29.791-17.594 46.246-.005 5.266 1.757 15.672 1.757 15.672l2.306 7.858s-25.016 2.631-31.06 9.723c-.265.295-.525.593-.782.894-.265.295-.525.593-.782.894-.262.292-.52.587-.774.885-.269.299-.533.601-.794.907-.206.229-.408-1.541-.609-1.308z" fill-rule="nonzero"/><path d="M943.172 985.09c-5.804-13.363-15.59-23.182-24.469-29.059-10.308-6.824-22.089-8.333-35.516-3.906l52.843 42.472"/></g><path d="M389.41 1125.92c-4.72-4.69-8.986-9.94-12.919-15.35-3.422 1.48-6.579 3.7-9.406 6.63l-.103.09c-5.919-2.91-12.442-4.65-19.073-4.88-4.799-.16-9.399.45-13.734 1.82-.064-.25-.129-.51-.197-.76.06-3.08-.233-6.12-.873-9.04-4.603-21.06-26.359-35.86-54.136-36.82-7.071-.25-14.276.42-21.417 1.98-7.052 1.54-13.746 3.91-19.889 6.96 3.183-10.87 3.638-22.36.76-33.14-6.53-24.45-30.4-42.89-55.523-42.89-2.23 0-4.446.151-6.632.448-.026-.805 1.132-10.137 1.063-13.949-.652-34.663-37.218-61.815-83.243-61.815-.716 0-1.433.008-2.154.02-25.708.484-49.559 9.684-65.187 24.891-6.803-12.378-21.096-19.721-38.559-19.721-2.242 0-4.503.129-6.771.37v313.546h453.836v-86.58c-4.245-2.14-8.442-4.37-12.555-6.77-11.909-6.96-23.5-15.31-33.288-25.04zM1188.96 915.682c-25.96-13.849-58.48-9.966-80.47 10.628-3.81-10.763-10.31-20.741-19.45-28.856-28.83-25.593-72.95-22.968-98.55 5.865-17.487 19.702-21.791 46.538-13.571 69.727-4.581-.352-9.294-.017-14.004 1.1-11.834 2.806-21.448 10.019-27.601 19.463-13.036-30.797-46.736-48.621-80.363-40.643-35.375 8.392-58.009 42.331-53.007 77.63-10.999-3.06-22.898-3.48-34.792-.65-22.036 5.22-39.12 20.37-47.671 39.57-2.367.89-4.674 1.92-6.876 3.11-6.262-16.87-25.006-28.84-45.107-28.3-1.843.05-3.684.21-5.475.48-17.938 2.671-34.754 14.89-45.449 32.89-7.926-4.6-17.025-6.88-26.489-6.63-.441.01-.881.03-1.325.05-26.247 1.37-46.572 22.2-45.307 46.43.651 12.45 7.024 24.05 17.491 31.85 2.242 2.21 4.767 3.75 7.513 4.59 3.97 1.95 8.218 3.35 12.661 4.18-.808 12.55 8.765 26.08 23.735 33.01 6.58 3.04 13.604 4.55 20.317 4.37 11.234-.3 20.3-5.27 24.461-13.35 4.162 3.84 9.179 7.01 14.757 9.43l-79.201 83.88 574.593-49.31v-65.54c8.68-3.92 16.71-9.67 23.45-17.26 1.3-1.47 2.52-2.99 3.67-4.53.06 4.4.75 8.79 2.06 13.02V915.682z" fill="#e7f4f9" fill-rule="nonzero"/><path d="M1623.32 907.081c-25.96-13.849-58.48-9.966-80.47 10.628-3.81-10.763-10.31-20.741-19.45-28.856-28.83-25.593-72.95-22.968-98.55 5.865-17.487 19.702-21.791 46.538-13.571 69.727-4.581-.352-9.294-.017-14.004 1.1-11.834 2.806-21.448 10.019-27.601 19.463-13.036-30.797-46.736-48.621-80.363-40.643-35.375 8.392-58.009 42.331-53.007 77.63-10.999-3.06-22.898-3.48-34.792-.65-22.036 5.22-39.12 20.37-47.671 39.57-2.367.89-4.674 1.92-6.876 3.11-6.262-16.87-25.006-28.84-45.107-28.3-1.843.05-3.684.21-5.475.48-17.938 2.671-34.754 14.89-45.449 32.89-7.926-4.6-17.025-6.88-26.489-6.63-.441.01-.881.03-1.325.05-26.247 1.37-46.572 22.2-45.307 46.43.651 12.45 7.024 24.05 17.491 31.85 2.242 2.21 4.767 3.75 7.513 4.59 3.97 1.95 8.218 3.35 12.661 4.18-.808 12.55 8.765 26.08 23.735 33.01 6.58 3.04 13.604 4.55 20.317 4.37 11.234-.3 20.3-5.27 24.461-13.35 4.162 3.84 9.179 7.01 14.757 9.43l-79.201 83.88 574.593-49.31v-65.54c8.68-3.92 16.71-9.67 23.45-17.26 1.3-1.47 2.52-2.99 3.67-4.53.06 4.4.75 8.79 2.06 13.02V907.081z" fill="#e7f4f9" fill-rule="nonzero"/><clipPath id="e"><path d="M792.371 1037.02h227.698v281.084H792.371z"/></clipPath><g clip-path="url(#e)"><clipPath id="f"><path d="M856.71 1037.02h746.359v192.084H856.71z"/></clipPath><g clip-path="url(#f)"><path d="M2057.49 1042.21c-17.47 0-31.76 7.34-38.56 19.72-15.63-15.21-39.48-24.4-65.19-24.89-.72-.01-1.44-.02-2.15-.02-46.03 0-82.59 27.15-83.24 61.81-.07 3.82.32 7.69 1.18 11.51-.06.83-.1 1.64-.12 2.45-2.19-.3-4.4-.45-6.633-.45-25.123 0-48.994 18.44-55.524 42.89-2.877 10.78-2.422 22.27.762 33.14-6.145-3.05-12.839-5.42-19.891-6.96-7.14-1.57-14.345-2.23-21.416-1.99-27.777.97-49.533 15.77-54.136 36.83-.64 2.92-.933 5.95-.874 9.04-.067.25-.132.5-.197.76-4.335-1.38-8.934-1.99-13.733-1.82-6.631.23-13.154 1.97-19.072 4.87l-.104-.08c-3.39-3.52-7.248-6.02-11.478-7.44-6.086-3.19-12.627-5.55-19.494-7.03 1.782-19.46-12.522-40.88-35.49-52.27-10.093-5-20.941-7.65-31.378-7.65-17.465 0-31.757 7.35-38.56 19.73-15.627-15.21-39.48-24.41-65.186-24.89-.722-.02-1.439-.02-2.155-.02-6.154 0-12.138.49-17.891 1.41-4.412-8.69-10.805-16.52-18.871-22.88-3.39-3.52-7.248-6.02-11.479-7.44-6.086-3.19-12.626-5.55-19.493-7.03 1.781-19.46-12.523-40.88-35.49-52.269-10.094-5-20.942-7.651-31.378-7.651-17.465 0-31.757 7.35-38.561 19.73-15.627-15.21-39.479-24.41-65.186-24.89-.721-.02-1.439-.02-2.154-.02-.261 0-.52 0-.78.01-.26-.01-.518-.01-.78-.01-.715 0-1.432 0-2.154.02-25.707.48-49.559 9.68-65.186 24.89-6.803-12.38-21.095-19.73-38.56-19.73-10.437 0-21.285 2.651-31.378 7.651-22.967 11.389-37.272 32.809-35.49 52.269-6.867 1.48-13.407 3.84-19.493 7.03-4.231 1.42-8.089 3.92-11.479 7.44-8.067 6.36-14.459 14.19-18.871 22.88-5.754-.92-11.737-1.41-17.893-1.41-.714 0-1.432 0-2.153.02-25.707.48-44.559 9.68-60.186 24.89-6.804-12.38-26.096-19.73-43.561-19.73-9.851 0-20.068 2.36-29.671 6.83v147.38h1207.55v-266.26c-2.27-.24-4.53-.37-6.77-.37z" fill="#fff" fill-rule="nonzero"/></g></g><clipPath id="g"><path d="M171.579 1026H330.06v103.355H171.579z"/></clipPath><g clip-path="url(#g)"><path d="M545.217 1241.3c-4.72-4.69-8.986-9.94-12.919-15.35-3.422 1.48-6.579 3.7-9.406 6.63l-.103.09c-5.919-2.91-12.442-4.65-19.073-4.88-4.799-.16-9.399.45-13.734 1.82-.064-.25-.129-.51-.197-.76.06-3.08-.233-6.12-.873-9.04-4.603-21.06-26.359-35.86-54.136-36.82-7.071-.25-14.276.42-21.417 1.98-7.052 1.54-13.746 3.91-19.889 6.96 3.183-10.87 3.638-22.36.76-33.14-6.53-24.45-30.4-42.89-55.523-42.89-2.23 0-4.446.151-6.632.448-.026-.805-.063-1.618-.117-2.441.852-3.829 1.249-7.696 1.18-11.508-.652-34.663-37.218-61.815-83.243-61.815-.716 0-1.433.008-2.154.02-25.708.484-49.559 9.684-65.187 24.891-6.803-12.378-21.096-19.721-38.559-19.721-2.242 0-4.503.129-6.771.37v313.546H591.06v-86.58c-4.245-2.14-8.442-4.37-12.555-6.77-11.909-6.96-23.5-15.31-33.288-25.04z" fill="#e7f4f9" fill-rule="nonzero"/></g><g fill="#f4516d" fill-rule="nonzero"><path d="M1224.33 577.374c-.104.913-.239 1.816-.397 2.702-.532 2.974-1.349 5.778-2.283 8.303-6.662-9.748-18.022-12.042-18.022-12.042 0-5.845-2.816-9.539-5.257-11.642-1.87-1.609-3.516-2.289-3.516-2.289s16.912-.451 29.475 14.968z"/><path d="M1224.59 572.044v.924c0 .524-.011 1.045-.032 1.564-.041.959-.116 1.907-.223 2.842-12.564-15.419-29.476-14.968-29.476-14.968.225-.674.376-1.348.462-2.014 1.114-8.502-8.204-16.048-8.204-16.048 11.669 1.373 19.913 5.598 25.721 10.621 6.524 5.647 9.976 12.306 11.752 17.079z"/></g><path d="M1227.16 577.661l-3.124 2.547-.107-.132-1.166-1.432c-8.462-10.385-19.037-13.194-24.397-13.949-1.869-1.609-3.516-2.289-3.516-2.289.226-.674.376-1.348.462-2.015 2.961.046 17.493.967 29.237 14.141.451.505.897 1.026 1.338 1.568l1.273 1.561z" fill="#d64766" fill-rule="nonzero"/><path d="M1244.94 533.654c11.683 0 16.69 18.777 16.69 18.777l-.07.172c-2.837-1.15-5.894-2.101-9.109-2.815h-.003v-.003c.038-8.91-7.508-16.131-7.508-16.131z" fill="#56d353" fill-rule="nonzero"/><path d="M1281.35 574.172c0 9.609-10.253 12.228-24.039 8.018-.002-.002-.002-.002-.005-.002.491 1.66.97 3.465 1.399 5.361.54 2.377 1 4.905 1.301 7.498l-2.625-1.698-15.846 10.258-7.003-4.531v-.003l-8.843-5.724-10.232 6.624c1.424-1.679 4.105-5.942 6.197-11.591v-.003c1.215-3.277 2.227-7.024 2.681-11.005.164-1.443.256-2.915.256-4.406v-.924c-.008-6.71-.014-14.052 3.075-18.777 1.65-2.527 4.21-4.306 8.174-4.84-1.603-7.043-7.064-12.268-7.064-12.268 7.048 0 11.666 6.839 14.22 12.26.691.048 1.378.107 2.058.177 2.539.255 5.01.658 7.395 1.193h.003c3.216.714 6.273 1.665 9.109 2.815 4.626 1.867 8.669 4.252 11.873 6.984 4.962 4.234 7.916 9.303 7.916 14.584z" fill="#56d353" fill-rule="nonzero"/><g fill-rule="nonzero"><path d="M1243.87 550.4s-13.915 16.499-9.335 48.672l-8.843-5.724-10.232 6.624c1.424-1.679 4.105-5.942 6.197-11.591v-.003c1.214-3.277 2.227-7.024 2.681-11.006.164-1.442.255-2.914.255-4.405v-.924c-.008-6.71-.013-14.052 3.076-18.777 1.649-2.528 4.209-4.306 8.174-4.84-1.603-7.044-7.065-12.268-7.065-12.268 7.049 0 11.667 6.839 14.221 12.259.691.049 1.378.108 2.058.178l-1.187 1.805z" fill="#56d353"/><path d="M1258.7 587.549c-13.852-4.024-20.232-14.317-20.232-14.317 6.57 4.193 13.017 7.183 18.83 8.953l.003.003c.491 1.66.969 3.465 1.399 5.361z" fill="#46ba43"/></g><g fill="#4d4d4d" fill-rule="nonzero"><path d="M1255.23 561.56c-.309 0-.619-.118-.855-.354-.685-.685-1.596-1.062-2.564-1.062-.969 0-1.88.377-2.565 1.062-.472.472-1.237.472-1.709 0s-.472-1.237 0-1.709c1.141-1.142 2.659-1.77 4.274-1.77 1.614 0 3.132.628 4.273 1.77.472.472.472 1.237 0 1.71-.235.235-.545.353-.854.353zM1271.73 561.56c-.309 0-.619-.118-.855-.354-.685-.685-1.595-1.062-2.564-1.062-.969 0-1.88.377-2.565 1.062-.471.472-1.237.472-1.709 0s-.472-1.237 0-1.71c1.142-1.141 2.659-1.77 4.274-1.77 1.614 0 3.132.629 4.273 1.77.473.472.473 1.238 0 1.71-.235.236-.544.354-.854.354z"/></g><g fill="#46ba43" fill-rule="nonzero"><path d="M1271.34 575.467c-.731 0-1.343-.614-1.343-1.344-.001-.739.626-1.361 1.368-1.342.705.017 1.292.591 1.316 1.298.026.744-.596 1.388-1.341 1.388zM1278.6 573.855c-.747 0-1.366-.639-1.342-1.384.023-.713.622-1.307 1.34-1.304.7.002 1.3.563 1.342 1.263.046.757-.581 1.425-1.34 1.425z"/></g><path d="M1282.43 609.127c0 20.38-14.914 37.282-34.424 40.384-2.106.334-4.268.508-6.471.508-22.586 0-40.895-18.309-40.895-40.892 0-3.498.438-7.237 1.265-11.062l7.938 5.138 5.611-3.634 10.232-6.624 5.152 3.336 10.694 6.922 15.846-10.258 2.625 1.697v.003l13.221 8.558 7.941-5.138c.827 3.825 1.265 7.564 1.265 11.062z" fill="#e6e6e6" fill-rule="nonzero"/><path d="M1248.01 649.511c-2.106.334-4.269.508-6.471.508-22.586 0-40.896-18.309-40.896-40.892 0-3.498.438-7.237 1.266-11.062l7.938 5.138 5.611-3.634 10.232-6.624 5.152 3.336s-14.508 36.847 17.165 53.228c.001 0 .003 0 .003.002z" fill="#e6e6e6" fill-rule="nonzero"/><g fill-rule="nonzero"><path d="M1208.03 679.515v261.439h364.814V679.515h-67.734v95.615h-229.346v-95.615h-67.734z" fill="#de9252"/><path fill="#de9252" d="M1333.74 579.894h114.712v181.005H1333.74z"/><path d="M1524.93 940.954V717.379h-38.236v35.167h-38.239v-35.167h-38.237v35.167h-38.237v-35.167h-38.237v35.167h-38.239v-35.167h-38.237v223.575h267.662z" fill="#f1c395"/><path d="M1486.69 717.379v35.167h-8.919v188.408h47.155V717.379h-38.236z" fill="#f1c395"/><path d="M1429.77 894.549l-77.342-16.697v-24.346c0-21.357 17.314-38.67 38.671-38.67s38.67 17.314 38.67 38.67v41.043h.001z" fill="#ab632e"/><path d="M1539.38 1084.64l-51.778-179.321-172.468-37.526-117.688 17.196-37.558 102.62-38.356 12.061-23.739 84.97h441.587z" fill="#d4d4d4"/><path d="M1586.11 907.75l-98.499-2.426v179.321h139.612L1586.11 907.75z" fill="#bfbfbf"/><path d="M1190.08 679.515v-67.03h34.548v31.774h34.546v-31.774h34.547v67.03H1190.08zM1487.16 679.515v-67.03h34.546v31.774h34.547v-31.774h34.547v67.03h-103.64z" fill="#f1c395"/><path d="M1556.25 612.485v31.774h-12.608v35.256h47.155v-67.03h-34.547zM1391.1 498.739l-97.56 81.155h195.121l-97.561-81.155z" fill="#f1c395"/><path d="M1391.09 498.739l-23.577 19.613 73.983 61.542h47.156l-97.562-81.155z" fill="#f1c395"/><path d="M1391.09 621.16c-4.883 0-8.841 3.958-8.841 8.841v33.328c0 11.431 17.684 11.431 17.684 0v-33.328c0-4.883-3.959-8.841-8.843-8.841z" fill="#ab632e"/></g><g><path d="M1273.21 992.835c-17.47 0-31.76 7.34-38.56 19.72-15.63-15.21-39.48-24.4-65.19-24.89-.72-.01-1.44-.02-2.15-.02-46.03 0-82.59 27.15-83.24 61.81-.07 3.82.32 7.69 1.18 11.51-.06.83-.1 1.64-.12 2.45-2.19-.3-4.4-.45-6.633-.45-25.123 0-48.994 18.44-55.524 42.89-2.877 10.78-2.422 22.27.762 33.14-6.145-3.05-12.839-5.42-19.891-6.96-7.14-1.57-14.345-2.23-21.416-1.99-27.777.97-49.533 15.77-54.136 36.83-.64 2.92-.933 5.95-.874 9.04-.067.25-.132.5-.197.76-4.335-1.38-8.934-1.99-13.733-1.82-6.631.23-13.154 1.97-19.072 4.87l-.104-.08c-3.39-3.52-7.248-6.02-11.478-7.44-6.086-3.19-12.627-5.55-19.494-7.03 1.782-19.46-12.522-40.88-35.49-52.27-10.093-5-20.941-7.65-31.378-7.65-17.465 0-31.757 7.35-38.56 19.73-15.627-15.21-39.48-24.41-65.186-24.89-.722-.02-1.439-.02-2.155-.02-6.154 0-12.138.49-17.891 1.41-4.412-8.69-10.805-16.52-18.871-22.88-3.39-3.52-7.248-6.02-11.479-7.44-6.086-3.19-12.626-5.55-19.493-7.03 1.781-19.46-12.523-40.88-35.49-52.269-10.094-5-20.942-7.651-31.378-7.651-17.465 0-31.757 7.35-38.561 19.73-15.627-15.21-39.479-24.41-65.186-24.89-.721-.02-1.439-.02-2.154-.02-.261 0-.52 0-.78.01-.26-.01-.518-.01-.78-.01-.715 0-1.432 0-2.154.02-25.707.48-49.559 9.68-65.186 24.89-6.803-12.38-21.095-19.73-38.56-19.73-10.437 0-21.285 2.651-31.378 7.651-22.967 11.389-37.272 32.809-35.49 52.269-6.867 1.48-13.407 3.84-19.493 7.03-4.231 1.42-8.089 3.92-11.479 7.44-8.067 6.36-14.459 14.19-18.871 22.88-5.754-.92-11.737-1.41-17.893-1.41-.714 0-1.432 0-2.153.02-25.707.48-49.559 9.68-65.186 24.89-6.804-12.38-21.096-19.73-38.561-19.73-9.851 0-20.068 2.36-29.671 6.83v147.38h1207.55v-266.26c-2.27-.24-4.53-.37-6.77-.37z" fill="#fff" fill-rule="nonzero"/></g><g><clipPath id="h"><path d="M-12.718 1086.78h92.845v132.262h-92.845z"/></clipPath><g clip-path="url(#h)"><clipPath id="i"><path d="M-8.297 1091.73H85.25v117.37H-8.297z"/></clipPath><g clip-path="url(#i)"><path d="M1023.48 1096.92c-17.47 0-31.76 7.34-38.56 19.72-15.63-15.21-39.48-24.4-65.19-24.89-.72-.01-1.44-.02-2.15-.02-46.03 0-82.59 27.149-83.24 61.81-.07 3.82.32 7.69 1.18 11.51-.06.829-.1 1.64-.12 2.45-2.19-.3-4.4-.45-6.633-.45-25.123 0-48.994 18.44-55.524 42.89-2.877 10.78-2.422 22.27.762 33.14-6.145-3.05-12.839-5.42-19.891-6.96-7.14-1.57-14.345-2.23-21.416-1.99-27.777.97-49.533 15.77-54.136 36.83-.64 2.92-.933 5.95-.874 9.04-.067.25-.132.5-.197.76-4.335-1.38-8.934-1.99-13.733-1.82-6.631.23-13.154 1.97-19.072 4.87l-.104-.08c-3.39-3.52-7.248-6.02-11.478-7.44-6.086-3.19-12.627-5.55-19.494-7.03 1.782-19.46-12.522-40.88-35.49-52.27-10.093-5-20.941-7.65-31.378-7.65-17.465 0-31.757 7.35-38.56 19.73-15.627-15.21-39.48-24.41-65.186-24.89-.722-.02-1.439-.02-2.155-.02-6.154 0-12.138.49-17.891 1.41-4.412-8.691-10.805-16.52-18.871-22.88-3.39-3.52-7.248-6.02-11.479-7.44-6.086-3.191-12.626-5.55-19.493-7.03 1.781-19.46-12.523-40.88-35.49-52.27-10.094-5-20.942-7.651-31.378-7.651-17.465 0-31.757 7.351-38.561 19.731-15.627-15.21-39.479-24.41-65.186-24.89-.721-.02-1.439-.02-2.154-.02-.261 0-.52 0-.78.009-.26-.009-.518-.009-.78-.009-.715 0-1.432 0-2.154.02-25.707.48-49.559 9.68-65.186 24.89-6.803-12.38-21.095-19.731-38.56-19.731-10.437 0-21.285 2.651-31.378 7.651-22.967 11.39-37.272 32.81-35.49 52.27-6.867 1.48-13.407 3.839-19.493 7.03-4.231 1.42-8.089 3.92-11.479 7.44-8.067 6.36-14.459 14.189-18.871 22.88-5.754-.92-11.737-1.41-17.893-1.41-.714 0-1.432 0-2.153.02-25.707.48-49.559 9.68-65.186 24.89-6.804-12.38-21.096-19.73-38.561-19.73-9.851 0-20.068 2.36-29.671 6.83v147.38h1207.55v-266.26c-2.27-.241-4.53-.37-6.77-.37z" fill="#fff" fill-rule="nonzero"/></g></g></g><g><clipPath id="j"><path d="M1247.56 877.595h365.514v331.506H1247.56z"/></clipPath><g clip-path="url(#j)"><path d="M1651.62 877.595s.009 0 0 0c-27.779.519-53.554 10.46-70.441 26.897-7.351-13.378-22.795-21.321-41.668-21.321-11.279 0-23.001 2.865-33.908 8.268-24.818 12.307-40.276 35.454-38.351 56.482-7.42 1.6-14.488 4.15-21.064 7.597-4.572 1.535-8.741 4.236-12.405 8.04-8.717 6.873-15.624 15.334-20.392 24.724-6.218-.994-12.683-1.523-19.335-1.523-.772 0-1.548 0-2.327.021-27.779.519-53.554 10.461-70.441 26.897-7.352-13.378-22.796-21.321-41.669-21.321-10.646 0-21.686 2.551-32.063 7.381l1.716 297.364s269.416-3.661 404.798-2.683l-2.45-416.823z" fill="#fff" fill-rule="nonzero"/></g></g></g><defs><linearGradient id="_Linear2" x1="0" y1="0" x2="1" y2="0" gradientUnits="userSpaceOnUse" gradientTransform="matrix(0 789.608 -685.344 0 745.403 366.506)"><stop offset="0" stop-color="#5d28e3"/><stop offset="1" stop-color="#baa9e4"/></linearGradient></defs></svg>