<?xml version="1.0" encoding="UTF-8" standalone="no"?><!DOCTYPE svg PUBLIC "-//W3C//DTD SVG 1.1//EN" "http://www.w3.org/Graphics/SVG/1.1/DTD/svg11.dtd"><svg width="100%" height="100%" viewBox="0 0 1605 1200" version="1.1" xmlns="http://www.w3.org/2000/svg" xmlns:xlink="http://www.w3.org/1999/xlink" xml:space="preserve" xmlns:serif="http://www.serif.com/" style="fill-rule:evenodd;clip-rule:evenodd;stroke-linejoin:round;stroke-miterlimit:2;"><g id="Landing-Background" serif:id="Landing Background"><clipPath id="_clip1"><rect x="0" y="-0.772" width="1604.74" height="1200.77"/></clipPath><g clip-path="url(#_clip1)"><rect id="Background" x="-4.434" y="364.167" width="1609.66" height="841.145" style="fill:url(#_Linear2);fill-rule:nonzero;"/><rect x="-19.11" y="-8.697" width="1623.85" height="373.865" style="fill:#5d28e3;"/><g id="Clouds"><g id="Cloud"><path id="Cloud1" serif:id="Cloud" d="M366.723,560.142c-10.717,0 -20.531,-6.647 -23.623,-15.727c-4.089,2.077 -8.766,3.207 -13.354,3.207c-4.715,0 -9.225,-1.17 -13.045,-3.382c-8.798,-5.096 -13.556,-15.968 -11.067,-25.295c2.238,-8.385 10.425,-14.708 19.04,-14.708c0.765,0 1.524,0.051 2.275,0.154c0.009,-0.276 0.022,-0.556 0.041,-0.838c-0.294,-1.313 -0.429,-2.64 -0.406,-3.946c0.224,-11.888 12.763,-21.2 28.548,-21.2c0.244,0 0.491,0.003 0.737,0.007c8.816,0.168 16.996,3.322 22.354,8.536c2.334,-4.244 7.235,-6.763 13.224,-6.763c3.579,0 7.3,0.908 10.761,2.624c7.877,3.904 12.782,11.249 12.17,17.924c2.356,0.509 4.599,1.316 6.686,2.411c1.451,0.486 2.773,1.344 3.937,2.551c5.464,4.308 8.692,10.58 8.86,17.221c0.325,12.928 -10.802,23.731 -24.806,24.083c-0.236,0.006 -0.471,0.009 -0.707,0.009c-5.045,0 -9.859,-1.347 -14.015,-3.913c-5.958,9.438 -15.092,15.706 -24.685,16.871c-0.96,0.115 -1.942,0.174 -2.925,0.174Z" style="fill:#937aff;fill-rule:nonzero;"/><path id="Cloud2" serif:id="Cloud" d="M1355.24,531.774c-10.717,0 -20.531,-6.647 -23.623,-15.727c-4.088,2.077 -8.766,3.207 -13.354,3.207c-4.715,0 -9.225,-1.169 -13.044,-3.382c-8.799,-5.096 -13.556,-15.968 -11.068,-25.295c2.238,-8.385 10.425,-14.708 19.041,-14.708c0.765,0 1.524,0.051 2.274,0.154c0.009,-0.276 0.022,-0.556 0.041,-0.838c-0.294,-1.313 -0.429,-2.64 -0.406,-3.946c0.224,-11.888 12.764,-21.2 28.548,-21.2c0.244,0 0.491,0.003 0.737,0.007c8.817,0.168 16.996,3.322 22.354,8.536c2.334,-4.244 7.235,-6.763 13.224,-6.763c3.58,0 7.3,0.908 10.761,2.624c7.877,3.904 12.783,11.249 12.17,17.924c2.356,0.509 4.599,1.316 6.686,2.411c1.452,0.486 2.774,1.344 3.937,2.551c5.464,4.308 8.693,10.58 8.86,17.221c0.326,12.928 -10.802,23.731 -24.806,24.083c-0.235,0.006 -0.471,0.009 -0.706,0.009c-5.046,0 -9.86,-1.347 -14.016,-3.913c-5.957,9.438 -15.092,15.706 -24.685,16.871c-0.96,0.115 -1.942,0.174 -2.925,0.174Z" style="fill:#937aff;fill-rule:nonzero;"/><g id="Cloud3" serif:id="Cloud"><path d="M1449.86,284.663c-13.188,0 -25.268,-8.181 -29.075,-19.355c-5.031,2.555 -10.788,3.946 -16.436,3.946c-5.802,0 -11.354,-1.439 -16.054,-4.162c-10.83,-6.271 -16.685,-19.654 -13.622,-31.132c2.756,-10.321 12.831,-18.103 23.435,-18.103c0.941,0 1.876,0.064 2.799,0.189c0.011,-0.34 0.027,-0.683 0.05,-1.03c-0.36,-1.616 -0.528,-3.249 -0.498,-4.858c0.274,-14.63 15.708,-26.09 35.135,-26.09c0.302,0 0.604,0.003 0.909,0.008c10.85,0.205 20.917,4.087 27.513,10.506c2.872,-5.225 8.904,-8.324 16.276,-8.324c4.405,0 8.983,1.116 13.244,3.227c9.694,4.806 15.731,13.848 14.979,22.062c2.899,0.625 5.659,1.62 8.228,2.967c1.785,0.598 3.414,1.654 4.844,3.14c6.726,5.302 10.699,13.021 10.905,21.195c0.401,15.91 -13.294,29.207 -30.529,29.641c-0.291,0.008 -0.581,0.011 -0.87,0.011c-6.21,0 -12.135,-1.658 -17.251,-4.815c-7.331,11.615 -18.574,19.329 -30.382,20.762c-1.18,0.143 -2.39,0.215 -3.6,0.215Z" style="fill:#937aff;fill-rule:nonzero;"/></g><g id="Cloud4" serif:id="Cloud"><path d="M84.923,382.86c-13.188,0 -25.268,-8.181 -29.075,-19.355c-5.031,2.555 -10.788,3.946 -16.436,3.946c-5.802,0 -11.354,-1.439 -16.054,-4.162c-10.83,-6.271 -16.685,-19.654 -13.622,-31.132c2.756,-10.321 12.831,-18.103 23.435,-18.103c0.941,0 1.876,0.064 2.799,0.189c0.011,-0.34 0.027,-0.683 0.05,-1.03c-0.36,-1.616 -0.528,-3.249 -0.498,-4.858c0.274,-14.63 15.708,-26.09 35.135,-26.09c0.302,0 0.604,0.003 0.909,0.008c10.85,0.205 20.917,4.087 27.513,10.506c2.872,-5.225 8.904,-8.324 16.276,-8.324c4.405,0 8.983,1.116 13.244,3.227c9.694,4.806 15.731,13.848 14.979,22.062c2.899,0.625 5.659,1.62 8.228,2.967c1.785,0.598 3.414,1.654 4.844,3.14c6.726,5.302 10.699,13.021 10.905,21.195c0.401,15.91 -13.294,29.207 -30.529,29.641c-0.291,0.008 -0.581,0.011 -0.87,0.011c-6.21,0 -12.135,-1.658 -17.251,-4.815c-7.331,11.615 -18.574,19.329 -30.382,20.762c-1.18,0.143 -2.39,0.215 -3.6,0.215Z" style="fill:#937aff;fill-rule:nonzero;"/></g><g id="Cloud5" serif:id="Cloud"><path d="M322.778,194.104c-13.188,0 -25.268,-8.181 -29.075,-19.355c-5.031,2.555 -10.788,3.946 -16.436,3.946c-5.802,0 -11.354,-1.439 -16.054,-4.162c-10.83,-6.271 -16.685,-19.654 -13.622,-31.132c2.756,-10.321 12.831,-18.103 23.435,-18.103c0.941,0 1.876,0.064 2.799,0.189c0.011,-0.34 0.027,-0.683 0.05,-1.03c-0.36,-1.616 -0.528,-3.249 -0.498,-4.858c0.274,-14.63 15.708,-26.09 35.135,-26.09c0.302,0 0.604,0.003 0.909,0.008c10.85,0.205 20.917,4.087 27.513,10.506c2.872,-5.225 8.904,-8.324 16.276,-8.324c4.405,0 8.983,1.116 13.244,3.227c9.694,4.806 15.731,13.848 14.979,22.062c2.899,0.625 5.659,1.62 8.228,2.967c1.785,0.598 3.414,1.654 4.844,3.14c6.726,5.302 10.699,13.021 10.905,21.195c0.401,15.91 -13.294,29.207 -30.529,29.641c-0.291,0.008 -0.581,0.011 -0.87,0.011c-6.21,0 -12.135,-1.658 -17.251,-4.815c-7.331,11.615 -18.574,19.329 -30.382,20.762c-1.18,0.143 -2.39,0.215 -3.6,0.215Z" style="fill:#937aff;fill-rule:nonzero;"/></g><g id="Cloud6" serif:id="Cloud"><path d="M1556.41,444.055c-13.188,0 -25.268,-8.181 -29.075,-19.355c-5.031,2.555 -10.788,3.946 -16.436,3.946c-5.802,0 -11.354,-1.439 -16.054,-4.162c-10.83,-6.271 -16.685,-19.654 -13.622,-31.132c2.756,-10.321 12.831,-18.103 23.435,-18.103c0.941,0 1.876,0.064 2.799,0.189c0.011,-0.34 0.027,-0.683 0.05,-1.03c-0.36,-1.616 -0.528,-3.249 -0.498,-4.858c0.274,-14.63 15.708,-26.09 35.135,-26.09c0.302,0 0.604,0.003 0.909,0.008c10.85,0.205 20.917,4.087 27.513,10.506c2.872,-5.225 8.904,-8.324 16.276,-8.324c4.405,0 8.983,1.116 13.244,3.227c9.694,4.806 15.731,13.848 14.979,22.062c2.899,0.625 5.659,1.62 8.228,2.967c1.785,0.598 3.414,1.654 4.844,3.14c6.726,5.302 10.699,13.021 10.905,21.195c0.401,15.91 -13.294,29.207 -30.529,29.641c-0.291,0.008 -0.581,0.011 -0.87,0.011c-6.21,0 -12.135,-1.658 -17.251,-4.815c-7.331,11.615 -18.574,19.329 -30.382,20.762c-1.18,0.143 -2.39,0.215 -3.6,0.215Z" style="fill:#937aff;fill-rule:nonzero;"/></g></g><g id="Cloud7" serif:id="Cloud"><path d="M431.995,1076.54c-16.23,0 -31.092,-10.068 -35.774,-23.818c-6.191,3.145 -13.274,4.857 -20.223,4.857c-7.141,0 -13.971,-1.771 -19.754,-5.121c-13.325,-7.718 -20.529,-24.183 -16.761,-38.308c3.39,-12.697 15.787,-22.273 28.835,-22.273c1.158,0 2.308,0.077 3.444,0.233c0.014,-0.418 0.033,-0.841 0.062,-1.268c-0.445,-1.989 -0.65,-3.998 -0.614,-5.976c0.339,-18.003 19.328,-32.105 43.232,-32.105c0.37,0 0.744,0.004 1.116,0.011c13.352,0.253 25.738,5.03 33.852,12.926c3.535,-6.427 10.958,-10.241 20.027,-10.241c5.421,0 11.055,1.374 16.296,3.973c11.929,5.912 19.358,17.036 18.431,27.143c3.568,0.771 6.964,1.994 10.124,3.652c2.198,0.736 4.2,2.035 5.962,3.863c8.275,6.524 13.165,16.023 13.418,26.08c0.493,19.577 -16.358,35.937 -37.565,36.47c-0.357,0.009 -0.714,0.013 -1.071,0.013c-7.64,0 -14.93,-2.039 -21.225,-5.924c-9.021,14.291 -22.855,23.784 -37.382,25.548c-1.454,0.174 -2.941,0.265 -4.43,0.265Z" style="fill:#a7d5e8;fill-rule:nonzero;"/></g></g><g id="Rainbow-Cloud" serif:id="Rainbow Cloud"><clipPath id="_clip3"><rect x="-135.072" y="307.36" width="650.476" height="726.801"/></clipPath><g clip-path="url(#_clip3)"><path id="Orange" d="M-47.317,381.682c92.285,0.421 184.805,30.774 259.208,86.739c83.948,63.147 143.926,156.911 164.994,259.812c12.607,61.576 11.847,125.491 -2.556,187.369l-0.347,1.471l-2.6,8.615c-3.216,7.302 -3.714,9.336 -8.227,15.97c-10.136,14.899 -25.868,25.857 -43.356,30.199c-7.788,1.933 -9.868,1.695 -17.832,2.18l-76.709,0c-3.061,-0.19 -6.138,-0.191 -9.181,-0.571c-33.381,-4.174 -61.91,-33.422 -64.597,-67.639c-0.481,-6.125 -0.197,-12.286 0.845,-18.341c1.104,-6.421 3.294,-12.57 4.886,-18.88c17.962,-71.183 -2.92,-150.493 -56.679,-203.606c-52.291,-51.662 -131.685,-73.586 -204.708,-54c-2.934,0.787 -5.849,1.642 -8.747,2.551l-8.975,2.211c-3.06,0.358 -6.104,0.907 -9.181,1.074c-30.749,1.661 -61.436,-17.778 -72.856,-46.795c-2.261,-5.745 -3.794,-11.751 -4.564,-17.877c-0.384,-3.057 -0.385,-6.15 -0.577,-9.225l0,-76.883c0.543,-8.969 1.646,-17.914 4.823,-26.279c6.364,-16.753 19.015,-31.001 34.896,-39.304c7.678,-4.014 9.288,-4.524 19.023,-6.864c33.72,-8.038 68.401,-11.98 103.017,-11.927Zm-2.045,74.003c-28.811,0.081 -57.589,3.5 -85.71,10.371l0,76.883c0.647,-0.203 1.295,-0.404 1.942,-0.604c77.818,-23.796 166.13,-13.032 235.895,30.603c81.535,50.996 134.882,144.146 134.919,243.165c0.011,27.956 -4.046,55.872 -12.046,82.671l-0.38,1.259l76.709,0c23.959,-101.26 2.398,-211.534 -58.804,-295.554c-65.005,-89.239 -171.687,-146.661 -285.074,-148.733c-1.877,-0.034 -3.754,-0.051 -5.632,-0.06c-0.606,-0.001 -1.212,-0.002 -1.819,-0.001Z" style="fill:#ffb44d;"/><clipPath id="_clip4"><rect id="Red" x="-283.398" y="307.36" width="743.417" height="598.314"/></clipPath><g clip-path="url(#_clip4)"><path d="M-47.078,307.36c112.502,0.656 225.278,39.256 313.935,109.618c100.301,79.603 169.114,197.833 187.764,324.335c9.364,63.516 6.433,129.311 -7.921,191.206l-0.903,3.834c-2.923,9.682 -2.856,9.707 -6.356,19.196c-8.6,19.601 -20.314,37.884 -35.809,52.439c-24.036,22.577 -55.652,37.305 -88.624,39.743c-2.487,0.183 -4.978,0.293 -7.467,0.429l-3.363,0.199l-81.163,0c-13.303,-0.803 -26.643,-2.23 -39.406,-6.055c-51.413,-15.412 -92.983,-60.375 -103.78,-113.316c-4.845,-23.752 -3.234,-48.493 3.445,-71.935c4.86,-17.059 27.802,-34.82 26.212,-52.371c-3.253,-35.915 -23.006,-88.933 -50.559,-112.094c-34.476,-28.982 -101.897,-36.728 -145.233,-24.575c-2.225,0.624 -4.427,1.318 -6.632,2.007l-11.188,2.755l-8.994,1.636c-10.478,1.247 -21.23,17.243 -31.909,16.477c-57.763,-4.145 -111.741,-44.444 -130.645,-100.708c-4.598,-13.683 -6.888,-28.123 -7.567,-42.368l-0.157,-2.62l0,-81.459c1.073,-17.152 3.587,-34.319 9.656,-50.322c12.502,-32.96 37.074,-61.13 68.437,-77.999c21.497,-11.563 45.967,-16.604 70.378,-20.752c28.988,-4.925 58.241,-7.318 87.849,-7.3Zm-1.862,74.322c-35.823,0.108 -71.247,4.152 -106.106,13.085c-27.602,7.074 -49.266,32.283 -53.103,61.238c-0.442,3.338 -0.717,6.692 -0.927,10.051l0,76.883c0.023,0.385 0.044,0.769 0.064,1.154c0.693,14.535 4.607,28.805 13.197,40.89c14.933,21.013 41.259,34.243 66.751,31.695c2.3,-0.23 4.581,-0.601 6.879,-0.882l9.262,-2.245c76.021,-23.748 165.048,-0.949 219.604,57.791c48.148,51.841 68.212,128.812 50.379,197.855c-0.764,2.956 -1.643,5.875 -2.475,8.807c-4.14,14.716 -4.562,30.536 0.594,45.297c9.572,27.409 35.472,48.897 64.907,50.493c1.341,0.066 2.682,0.116 4.023,0.179c0.547,0.029 1.149,0.064 1.149,0.064l76.709,0c7.607,-0.453 15.173,-1.13 22.701,-3.574c19.561,-6.349 36.4,-20.837 44.706,-40.132c1.053,-2.447 2.008,-4.643 2.008,-4.643l2.6,-8.615c16.603,-70.466 15.688,-145.368 -3.381,-215.153c-28.321,-103.646 -96.122,-195.815 -187.425,-253.277c-68.601,-43.173 -149.07,-66.486 -230.493,-66.961c-0.541,0 -1.082,0 -1.623,0Zm1.397,74.004c81.453,0.472 162.319,29.701 225.74,80.759c30.487,24.544 57.034,53.996 77.936,87.161c51.051,81.004 67.764,183.381 45.834,276.427l-76.709,0c20.544,-67.956 14.824,-145.432 -17.872,-211.037c-27.56,-55.302 -72.965,-101.842 -128.141,-129.194c-63.142,-31.302 -137.928,-38.361 -205.968,-19.341c-2.798,0.782 -5.583,1.614 -8.349,2.478l0,-76.883c28.584,-6.956 57.832,-10.406 87.529,-10.37Zm-86.889,86.721c0,0 0.009,-0.002 0,0Z" style="fill:#ff7f5a;"/></g><path d="M-135.072,466.056c27.93,-6.853 56.903,-10.372 86.401,-10.372c96.277,0 186.773,37.499 254.847,105.573c68.069,68.073 105.567,158.569 105.567,254.846c0,28.635 -3.32,56.754 -9.776,83.93l-76.709,0c8.183,-26.844 12.426,-55.062 12.426,-83.93c0,-76.491 -29.781,-148.401 -83.87,-202.485c-54.084,-54.088 -125.994,-83.875 -202.485,-83.875c-29.746,0 -58.813,4.506 -86.401,13.196l0,-76.883Z" style="fill:#ffe76c;fill-rule:nonzero;"/><path d="M-135.072,542.939c27.588,-8.69 56.655,-13.196 86.401,-13.196c76.491,0 148.401,29.787 202.485,83.875c54.089,54.084 83.87,125.994 83.87,202.485c0,28.868 -4.243,57.086 -12.426,83.93l-78.814,0c11.271,-26.164 17.186,-54.59 17.186,-83.93c0,-56.704 -22.084,-110.014 -62.183,-150.118c-40.104,-40.104 -93.413,-62.183 -150.118,-62.183c-30.267,0 -59.567,6.298 -86.401,18.268l0,-79.131Z" style="fill:#1fd7c3;fill-rule:nonzero;"/><path d="M-135.072,708.173c24.442,-19.647 54.595,-30.312 86.401,-30.312c36.928,0 71.638,14.377 97.746,40.496c26.114,26.104 40.496,60.813 40.496,97.746c0,30.744 -9.96,59.95 -28.391,83.93l85.264,0c11.271,-26.169 17.186,-54.59 17.186,-83.93c0,-56.704 -22.084,-110.014 -62.183,-150.118c-40.104,-40.104 -93.413,-62.183 -150.118,-62.183c-30.267,0 -59.567,6.293 -86.401,18.268l0,86.103Z" style="fill:#5bd6fd;fill-rule:nonzero;"/><path d="M418.923,1034.16c53.285,0 96.481,-43.196 96.481,-96.481c0,-49.667 -37.533,-90.55 -85.781,-95.875c-11.141,-69.612 -71.458,-122.798 -144.212,-122.798c-60.471,0 -112.361,36.754 -134.55,89.141c-2.58,-0.174 -5.181,-0.273 -7.806,-0.273c-62.486,0 -113.141,50.654 -113.141,113.145c0,62.486 50.655,113.141 113.141,113.141l275.868,0Z" style="fill:#ececee;fill-rule:nonzero;"/><g><path d="M192.523,884.842c-5.419,0 -9.816,-4.397 -9.816,-9.816l0,-14.502c0,-5.424 4.397,-9.816 9.816,-9.816c5.42,0 9.817,4.392 9.817,9.816l0,14.502c0,5.419 -4.397,9.816 -9.817,9.816Z" style="fill:#444f5c;fill-rule:nonzero;"/><path d="M352.795,884.842c-5.424,0 -9.816,-4.397 -9.816,-9.816l0,-14.502c0,-5.424 4.392,-9.816 9.816,-9.816c5.419,0 9.816,4.392 9.816,9.816l0,14.502c0,5.419 -4.397,9.816 -9.816,9.816Z" style="fill:#444f5c;fill-rule:nonzero;"/><path d="M272.657,892.584c-10.541,0 -20.442,-4.412 -27.166,-12.104c-3.569,-4.085 -3.152,-10.288 0.928,-13.851c4.084,-3.569 10.282,-3.157 13.851,0.928c2.997,3.429 7.513,5.394 12.387,5.394c4.878,0 9.394,-1.965 12.392,-5.394c3.568,-4.085 9.766,-4.497 13.851,-0.928c4.079,3.563 4.496,9.766 0.928,13.851c-6.725,7.692 -16.631,12.104 -27.171,12.104Z" style="fill:#444f5c;fill-rule:nonzero;"/></g></g></g><g id="Rainbow"><g id="Cloud8" serif:id="Cloud"><path d="M246.501,508.854c2.5,-1.907 4.819,-4.186 6.877,-6.781c0.045,0.024 0.09,0.048 0.135,0.073c-2.105,2.58 -4.468,4.834 -7.012,6.708Zm39.801,-11.993c5.776,-4.446 9.39,-11.189 9.203,-18.638c-0.167,-6.64 -3.395,-12.913 -8.86,-17.221c-1.162,-1.207 -2.486,-2.065 -3.936,-2.549c-2.087,-1.096 -4.331,-1.904 -6.685,-2.413c0.61,-6.674 -4.294,-14.022 -12.171,-17.924c-3.461,-1.716 -7.181,-2.623 -10.76,-2.623c-3.786,0 -7.138,1.006 -9.681,2.82c2.595,-2.044 6.135,-3.186 10.168,-3.186c3.579,0 7.299,0.908 10.761,2.623c7.875,3.903 12.781,11.251 12.17,17.925c2.354,0.507 4.598,1.317 6.684,2.413c1.452,0.484 2.775,1.342 3.937,2.549c5.464,4.308 8.693,10.581 8.86,17.221c0.193,7.656 -3.63,14.566 -9.69,19.003Zm-111.419,-33.466c2.762,-2.136 6.05,-3.583 9.494,-4.052c0.007,0.1 0.016,0.202 0.025,0.302c-3.428,0.371 -6.721,1.713 -9.519,3.75Zm64.22,-21.854c-5.356,-4.788 -13.182,-7.663 -21.589,-7.82c-0.247,-0.004 -0.493,-0.007 -0.738,-0.007c-7.816,0 -14.838,2.283 -19.961,6.033c5.16,-3.965 12.381,-6.398 20.448,-6.398c0.246,0 0.491,0.003 0.739,0.007c8.404,0.157 16.232,3.032 21.588,7.82c-0.027,0.021 -0.054,0.042 -0.08,0.063c-0.138,0.099 -0.275,0.199 -0.407,0.302Z" style="fill:#fff;fill-opacity:0.52;fill-rule:nonzero;"/><path d="M246.019,509.216c2.639,-2.015 5.075,-4.442 7.216,-7.22c0.048,0.025 0.095,0.051 0.143,0.077c-2.058,2.595 -4.377,4.874 -6.877,6.781c-0.16,0.122 -0.321,0.243 -0.482,0.362Zm39.8,-11.993c5.774,-4.445 9.388,-11.188 9.2,-18.635c-0.167,-6.64 -3.396,-12.913 -8.861,-17.221c-1.162,-1.207 -2.484,-2.065 -3.936,-2.551c-2.087,-1.094 -4.33,-1.902 -6.686,-2.411c0.611,-6.674 -4.293,-14.02 -12.17,-17.924c-3.461,-1.716 -7.181,-2.623 -10.761,-2.623c-3.791,0 -7.146,1.009 -9.69,2.827c0.163,-0.128 0.327,-0.252 0.497,-0.372c2.543,-1.814 5.895,-2.82 9.681,-2.82c3.579,0 7.299,0.907 10.76,2.623c7.877,3.902 12.781,11.25 12.171,17.924c2.354,0.509 4.598,1.317 6.685,2.413c1.45,0.484 2.774,1.342 3.936,2.549c5.465,4.308 8.693,10.581 8.86,17.221c0.187,7.449 -3.427,14.192 -9.203,18.638c-0.159,0.122 -0.32,0.243 -0.483,0.362Zm-111.41,-33.472c0.157,-0.121 0.315,-0.239 0.474,-0.356c2.798,-2.037 6.091,-3.379 9.519,-3.75c0.01,0.106 0.02,0.213 0.032,0.317c-3.61,0.285 -7.091,1.655 -10.025,3.789Zm64.226,-21.827c-5.357,-4.798 -13.191,-7.679 -21.608,-7.838c-0.247,-0.004 -0.493,-0.007 -0.739,-0.007c-7.82,0 -14.843,2.286 -19.968,6.038c0.163,-0.125 0.327,-0.248 0.495,-0.37c5.123,-3.75 12.145,-6.033 19.961,-6.033c0.245,0 0.491,0.003 0.738,0.007c8.407,0.157 16.233,3.032 21.589,7.82c-0.16,0.125 -0.317,0.252 -0.468,0.383Z" style="fill:#fff;fill-opacity:0.52;fill-rule:nonzero;"/><path d="M245.537,509.576c2.779,-2.12 5.33,-4.699 7.551,-7.661c0.05,0.027 0.099,0.054 0.147,0.081c-2.141,2.778 -4.577,5.205 -7.216,7.22c-0.16,0.12 -0.32,0.241 -0.482,0.36Zm39.771,-11.969c5.787,-4.446 9.411,-11.197 9.224,-18.654c-0.167,-6.64 -3.396,-12.913 -8.86,-17.221c-1.164,-1.207 -2.487,-2.065 -3.937,-2.551c-2.087,-1.093 -4.33,-1.902 -6.684,-2.411c0.61,-6.674 -4.297,-14.02 -12.171,-17.924c-3.462,-1.716 -7.183,-2.622 -10.762,-2.622c-3.79,0 -7.144,1.009 -9.687,2.824c0.157,-0.123 0.32,-0.245 0.484,-0.363c2.544,-1.818 5.899,-2.827 9.69,-2.827c3.58,0 7.3,0.907 10.761,2.623c7.877,3.904 12.781,11.25 12.17,17.924c2.356,0.509 4.599,1.317 6.686,2.411c1.452,0.486 2.774,1.344 3.936,2.551c5.465,4.308 8.694,10.581 8.861,17.221c0.188,7.447 -3.426,14.19 -9.2,18.635c-0.169,0.131 -0.339,0.257 -0.511,0.384Zm-111.388,-33.488c0.161,-0.125 0.324,-0.247 0.489,-0.368c2.934,-2.134 6.415,-3.504 10.025,-3.789c0.013,0.111 0.026,0.221 0.04,0.332c-3.799,0.186 -7.477,1.585 -10.554,3.825Zm64.268,-21.794c-5.358,-4.82 -13.211,-7.715 -21.648,-7.875c-0.247,-0.003 -0.493,-0.005 -0.737,-0.005c-7.828,0 -14.858,2.29 -19.983,6.048c0.166,-0.127 0.331,-0.252 0.5,-0.376c5.125,-3.752 12.148,-6.038 19.968,-6.038c0.246,0 0.492,0.003 0.739,0.007c8.417,0.159 16.251,3.04 21.608,7.838c-0.153,0.129 -0.303,0.263 -0.447,0.401Z" style="fill:#fff;fill-opacity:0.52;fill-rule:nonzero;"/><path d="M245.044,509.946c2.922,-2.228 5.592,-4.962 7.892,-8.117c0.05,0.029 0.101,0.057 0.152,0.086c-2.221,2.962 -4.772,5.541 -7.551,7.661c-0.163,0.125 -0.327,0.249 -0.493,0.37Zm39.789,-11.984c5.782,-4.445 9.399,-11.191 9.212,-18.644c-0.168,-6.64 -3.396,-12.912 -8.86,-17.221c-1.162,-1.207 -2.486,-2.065 -3.937,-2.551c-2.087,-1.093 -4.33,-1.902 -6.685,-2.41c0.611,-6.675 -4.294,-14.021 -12.171,-17.925c-3.462,-1.716 -7.182,-2.622 -10.76,-2.622c-3.788,0 -7.142,1.008 -9.684,2.822c0.157,-0.124 0.318,-0.245 0.483,-0.363c2.543,-1.815 5.897,-2.824 9.687,-2.824c3.579,0 7.3,0.906 10.762,2.622c7.874,3.904 12.781,11.25 12.171,17.924c2.354,0.509 4.597,1.318 6.684,2.411c1.45,0.486 2.773,1.344 3.937,2.551c5.464,4.308 8.693,10.581 8.86,17.221c0.187,7.457 -3.437,14.208 -9.224,18.654c-0.157,0.121 -0.315,0.239 -0.475,0.355Zm-111.402,-33.478c0.162,-0.124 0.323,-0.246 0.489,-0.365c3.077,-2.24 6.755,-3.639 10.554,-3.825c0.016,0.115 0.032,0.231 0.05,0.346c-3.988,0.076 -7.87,1.498 -11.093,3.844Zm64.333,-21.737c-5.36,-4.853 -13.241,-7.771 -21.711,-7.929c-0.247,-0.006 -0.492,-0.008 -0.739,-0.008c-7.811,0 -14.829,2.281 -19.951,6.026c0.15,-0.115 0.303,-0.23 0.457,-0.343c5.125,-3.758 12.155,-6.048 19.983,-6.048c0.244,0 0.49,0.002 0.737,0.005c8.437,0.16 16.29,3.055 21.648,7.875c-0.145,0.137 -0.288,0.278 -0.424,0.422Z" style="fill:#fff;fill-opacity:0.52;fill-rule:nonzero;"/><path d="M244.567,510.304c3.057,-2.333 5.839,-5.222 8.209,-8.567c0.053,0.031 0.106,0.061 0.16,0.092c-2.3,3.155 -4.97,5.889 -7.892,8.117c-0.157,0.121 -0.317,0.24 -0.477,0.358Zm39.774,-11.973c5.784,-4.444 9.405,-11.193 9.216,-18.648c-0.167,-6.64 -3.396,-12.911 -8.86,-17.219c-1.162,-1.209 -2.485,-2.067 -3.937,-2.553c-2.087,-1.095 -4.329,-1.902 -6.684,-2.41c0.611,-6.674 -4.295,-14.021 -12.17,-17.925c-3.461,-1.716 -7.182,-2.622 -10.761,-2.622c-3.79,0 -7.144,1.008 -9.687,2.824c0.16,-0.126 0.323,-0.248 0.49,-0.367c2.542,-1.814 5.896,-2.822 9.684,-2.822c3.578,0 7.298,0.906 10.76,2.622c7.877,3.904 12.782,11.25 12.171,17.925c2.355,0.508 4.598,1.317 6.685,2.41c1.451,0.486 2.775,1.344 3.937,2.551c5.464,4.309 8.692,10.581 8.86,17.221c0.187,7.453 -3.43,14.199 -9.212,18.644c-0.162,0.125 -0.326,0.249 -0.492,0.369Zm-111.387,-33.489c0.157,-0.121 0.317,-0.24 0.477,-0.358c3.223,-2.346 7.105,-3.768 11.093,-3.844c0.019,0.122 0.039,0.243 0.059,0.364c-0.07,-0.002 -0.141,-0.002 -0.212,-0.002c-4.101,0 -8.105,1.433 -11.417,3.84Zm64.405,-21.653c-5.359,-4.9 -13.28,-7.846 -21.792,-8.006c-0.249,-0.006 -0.494,-0.008 -0.739,-0.008c-7.814,0 -14.831,2.281 -19.955,6.027c0.161,-0.123 0.324,-0.245 0.49,-0.366c5.122,-3.745 12.14,-6.026 19.951,-6.026c0.247,0 0.492,0.002 0.739,0.008c8.47,0.158 16.351,3.076 21.711,7.929c-0.139,0.144 -0.275,0.291 -0.405,0.442Z" style="fill:#fff;fill-opacity:0.52;fill-rule:nonzero;"/><path d="M244.073,510.674c3.199,-2.44 6.098,-5.49 8.538,-9.033c0.054,0.032 0.109,0.064 0.165,0.096c-2.37,3.345 -5.152,6.234 -8.209,8.567c-0.164,0.125 -0.329,0.248 -0.494,0.37Zm39.781,-11.978c5.784,-4.444 9.405,-11.193 9.216,-18.646c-0.167,-6.641 -3.396,-12.913 -8.86,-17.221c-1.162,-1.209 -2.485,-2.065 -3.935,-2.553c-2.087,-1.093 -4.331,-1.903 -6.686,-2.41c0.611,-6.674 -4.295,-14.021 -12.17,-17.925c-3.462,-1.714 -7.182,-2.622 -10.761,-2.622c-3.789,0 -7.142,1.008 -9.686,2.823c0.158,-0.125 0.32,-0.246 0.486,-0.364c2.543,-1.816 5.897,-2.824 9.687,-2.824c3.579,0 7.3,0.906 10.761,2.622c7.875,3.904 12.781,11.251 12.17,17.925c2.355,0.508 4.597,1.315 6.684,2.41c1.452,0.486 2.775,1.344 3.937,2.553c5.464,4.308 8.693,10.579 8.86,17.219c0.189,7.455 -3.432,14.204 -9.216,18.648c-0.161,0.124 -0.323,0.246 -0.487,0.365Zm-111.397,-33.481c0.163,-0.126 0.33,-0.251 0.497,-0.373c3.312,-2.407 7.316,-3.84 11.417,-3.84c0.071,0 0.142,0 0.212,0.002c0.024,0.127 0.047,0.254 0.072,0.381c-0.256,-0.012 -0.514,-0.018 -0.771,-0.018c-4.106,0 -8.114,1.437 -11.427,3.848Zm64.523,-21.563c-5.361,-4.958 -13.331,-7.944 -21.9,-8.106c-0.247,-0.004 -0.495,-0.007 -0.739,-0.007c-7.819,0 -14.842,2.286 -19.965,6.037c0.162,-0.125 0.33,-0.25 0.497,-0.374c5.124,-3.746 12.141,-6.027 19.955,-6.027c0.245,0 0.49,0.002 0.739,0.008c8.512,0.16 16.433,3.106 21.792,8.006c-0.131,0.151 -0.259,0.305 -0.379,0.463Z" style="fill:#fff;fill-opacity:0.52;fill-rule:nonzero;"/><path d="M243.6,511.029c3.333,-2.546 6.34,-5.75 8.84,-9.488c0.056,0.034 0.113,0.067 0.171,0.1c-2.44,3.543 -5.339,6.593 -8.538,9.033c-0.156,0.12 -0.315,0.239 -0.473,0.355Zm39.767,-11.968c5.784,-4.446 9.404,-11.192 9.216,-18.646c-0.167,-6.641 -3.395,-12.913 -8.86,-17.221c-1.162,-1.207 -2.486,-2.065 -3.937,-2.551c-2.087,-1.095 -4.328,-1.902 -6.684,-2.411c0.611,-6.675 -4.294,-14.022 -12.17,-17.926c-3.462,-1.714 -7.182,-2.622 -10.761,-2.622c-3.786,0 -7.138,1.007 -9.68,2.82c0.157,-0.123 0.317,-0.244 0.481,-0.362c2.544,-1.815 5.897,-2.823 9.686,-2.823c3.579,0 7.299,0.908 10.761,2.622c7.875,3.904 12.781,11.251 12.17,17.925c2.355,0.507 4.599,1.317 6.686,2.41c1.45,0.488 2.773,1.344 3.935,2.553c5.464,4.308 8.693,10.58 8.86,17.221c0.189,7.453 -3.432,14.202 -9.216,18.646c-0.16,0.124 -0.323,0.246 -0.487,0.365Zm-111.396,-33.482c0.16,-0.124 0.323,-0.246 0.486,-0.364c3.313,-2.411 7.321,-3.848 11.427,-3.848c0.257,0 0.515,0.006 0.771,0.018c0.026,0.132 0.053,0.264 0.084,0.397c0,0.001 -0.002,0.003 -0.002,0.004c-0.443,-0.035 -0.891,-0.054 -1.339,-0.054c-4.106,0 -8.114,1.436 -11.427,3.847Zm64.649,-21.443c-5.36,-5.029 -13.388,-8.062 -22.027,-8.225c-0.248,-0.004 -0.493,-0.007 -0.739,-0.007c-7.817,0 -14.838,2.285 -19.961,6.034c0.158,-0.122 0.32,-0.243 0.483,-0.362c5.123,-3.751 12.146,-6.037 19.965,-6.037c0.244,0 0.492,0.003 0.739,0.007c8.569,0.162 16.539,3.148 21.9,8.106c-0.124,0.158 -0.243,0.319 -0.36,0.484Z" style="fill:#fff;fill-opacity:0.52;fill-rule:nonzero;"/><path d="M243.1,511.405c3.477,-2.653 6.6,-6.024 9.164,-9.97c0.058,0.036 0.117,0.071 0.176,0.106c-2.5,3.738 -5.507,6.942 -8.84,9.488c-0.166,0.127 -0.333,0.252 -0.5,0.376Zm39.798,-11.992c5.774,-4.446 9.385,-11.187 9.198,-18.633c-0.166,-6.641 -3.395,-12.913 -8.859,-17.221c-1.163,-1.207 -2.485,-2.065 -3.937,-2.551c-2.087,-1.095 -4.329,-1.904 -6.685,-2.411c0.61,-6.675 -4.294,-14.021 -12.171,-17.924c-3.461,-1.716 -7.181,-2.624 -10.76,-2.624c-3.788,0 -7.14,1.007 -9.682,2.82c0.158,-0.125 0.323,-0.247 0.489,-0.365c2.542,-1.813 5.894,-2.82 9.68,-2.82c3.579,0 7.299,0.908 10.761,2.622c7.876,3.904 12.781,11.251 12.17,17.926c2.356,0.509 4.597,1.316 6.684,2.411c1.451,0.486 2.775,1.344 3.937,2.551c5.465,4.308 8.693,10.58 8.86,17.221c0.188,7.454 -3.432,14.2 -9.216,18.646c-0.154,0.12 -0.312,0.237 -0.469,0.352Zm-111.43,-33.456c0.166,-0.129 0.333,-0.254 0.503,-0.378c3.313,-2.411 7.321,-3.847 11.427,-3.847c0.448,0 0.896,0.019 1.339,0.054c-0.008,0.137 -0.016,0.273 -0.023,0.409c-0.596,-0.064 -1.198,-0.096 -1.803,-0.096c-4.113,0 -8.127,1.44 -11.443,3.858Zm64.817,-21.312c-5.361,-5.115 -13.459,-8.204 -22.18,-8.369c-0.247,-0.004 -0.493,-0.007 -0.738,-0.007c-7.813,0 -14.831,2.282 -19.953,6.029c0.157,-0.123 0.317,-0.242 0.479,-0.36c5.123,-3.749 12.144,-6.034 19.961,-6.034c0.246,0 0.491,0.003 0.739,0.007c8.639,0.163 16.667,3.196 22.027,8.225c-0.116,0.167 -0.228,0.336 -0.335,0.509Z" style="fill:#fff;fill-opacity:0.52;fill-rule:nonzero;"/><path d="M242.612,511.771c3.616,-2.76 6.851,-6.297 9.47,-10.447c0.059,0.037 0.121,0.075 0.182,0.111c-2.564,3.946 -5.687,7.317 -9.164,9.97c-0.162,0.123 -0.325,0.245 -0.488,0.366Zm39.798,-11.991c5.774,-4.446 9.388,-11.189 9.2,-18.635c-0.167,-6.641 -3.396,-12.913 -8.86,-17.221c-1.163,-1.207 -2.485,-2.065 -3.937,-2.551c-2.087,-1.095 -4.331,-1.904 -6.686,-2.411c0.613,-6.674 -4.293,-14.02 -12.17,-17.924c-3.46,-1.716 -7.181,-2.624 -10.761,-2.624c-3.788,0 -7.143,1.01 -9.686,2.825c0.026,-0.021 0.053,-0.042 0.08,-0.063c0.134,-0.105 0.272,-0.206 0.412,-0.307c2.542,-1.813 5.894,-2.82 9.682,-2.82c3.579,0 7.299,0.908 10.76,2.624c7.877,3.903 12.781,11.249 12.171,17.924c2.356,0.507 4.598,1.316 6.685,2.411c1.452,0.486 2.774,1.344 3.937,2.551c5.464,4.308 8.693,10.58 8.859,17.221c0.187,7.446 -3.424,14.187 -9.198,18.633c-0.161,0.124 -0.324,0.246 -0.488,0.367Zm-111.41,-33.472c0.154,-0.12 0.311,-0.236 0.468,-0.351c3.316,-2.418 7.33,-3.858 11.443,-3.858c0.605,0 1.207,0.032 1.803,0.096c-0.006,0.142 -0.011,0.283 -0.016,0.423c-0.75,-0.103 -1.509,-0.154 -2.274,-0.154c-4.105,0 -8.111,1.435 -11.424,3.844Zm64.972,-21.131c-5.358,-5.215 -13.537,-8.37 -22.354,-8.536c-0.247,-0.004 -0.493,-0.007 -0.737,-0.007c-7.819,0 -14.842,2.286 -19.966,6.037c0.163,-0.126 0.331,-0.251 0.499,-0.373c5.122,-3.747 12.14,-6.029 19.953,-6.029c0.245,0 0.491,0.003 0.738,0.007c8.721,0.165 16.819,3.254 22.18,8.369c-0.108,0.174 -0.213,0.352 -0.313,0.532Z" style="fill:#fff;fill-opacity:0.52;fill-rule:nonzero;"/><path d="M224.472,518.37c-10.717,0 -20.531,-6.648 -23.623,-15.728c-4.088,2.077 -8.766,3.207 -13.354,3.207c-4.715,0 -9.225,-1.169 -13.044,-3.382c-8.799,-5.096 -13.556,-15.968 -11.068,-25.295c2.238,-8.385 10.425,-14.708 19.041,-14.708c0.765,0 1.524,0.051 2.274,0.154c0.009,-0.276 0.022,-0.556 0.041,-0.838c-0.294,-1.313 -0.429,-2.639 -0.406,-3.946c0.224,-11.888 12.764,-21.2 28.548,-21.2c0.244,0 0.491,0.003 0.737,0.007c8.817,0.168 16.996,3.322 22.354,8.536c2.334,-4.244 7.235,-6.763 13.224,-6.763c3.58,0 7.3,0.908 10.761,2.624c7.877,3.904 12.783,11.25 12.17,17.924c2.356,0.509 4.599,1.316 6.686,2.411c1.452,0.486 2.774,1.344 3.937,2.551c5.464,4.308 8.693,10.58 8.86,17.221c0.326,12.928 -10.802,23.731 -24.806,24.083c-0.235,0.006 -0.471,0.009 -0.706,0.009c-5.046,0 -9.86,-1.347 -14.016,-3.913c-5.957,9.438 -15.092,15.706 -24.685,16.871c-0.96,0.115 -1.942,0.175 -2.925,0.175Z" style="fill:#fff;fill-rule:nonzero;"/></g><g id="Cloud9" serif:id="Cloud"><path d="M120.863,620.532c2.5,-1.907 4.818,-4.186 6.876,-6.78c0.045,0.023 0.09,0.048 0.136,0.073c-2.105,2.58 -4.468,4.834 -7.012,6.707Zm39.8,-11.993c5.777,-4.446 9.391,-11.188 9.203,-18.637c-0.167,-6.641 -3.394,-12.913 -8.86,-17.221c-1.162,-1.208 -2.485,-2.066 -3.935,-2.55c-2.087,-1.095 -4.331,-1.904 -6.686,-2.413c0.611,-6.674 -4.293,-14.021 -12.17,-17.923c-3.461,-1.716 -7.182,-2.624 -10.761,-2.624c-3.785,0 -7.138,1.007 -9.68,2.82c2.595,-2.043 6.135,-3.185 10.167,-3.185c3.58,0 7.3,0.908 10.761,2.622c7.876,3.904 12.781,11.251 12.17,17.925c2.355,0.508 4.599,1.318 6.685,2.413c1.451,0.484 2.775,1.342 3.937,2.55c5.464,4.307 8.692,10.58 8.86,17.221c0.193,7.655 -3.63,14.565 -9.691,19.002Zm-111.419,-33.466c2.762,-2.135 6.05,-3.582 9.494,-4.052c0.008,0.101 0.016,0.202 0.025,0.303c-3.428,0.371 -6.72,1.713 -9.519,3.749Zm64.221,-21.853c-5.357,-4.788 -13.183,-7.663 -21.589,-7.82c-0.247,-0.005 -0.493,-0.008 -0.739,-0.008c-7.815,0 -14.837,2.284 -19.961,6.033c5.16,-3.965 12.381,-6.398 20.449,-6.398c0.245,0 0.491,0.003 0.738,0.008c8.405,0.157 16.233,3.032 21.589,7.82c-0.028,0.02 -0.054,0.042 -0.08,0.062c-0.138,0.099 -0.275,0.2 -0.407,0.303Z" style="fill:#fff;fill-opacity:0.52;fill-rule:nonzero;"/><path d="M120.38,620.894c2.64,-2.014 5.076,-4.441 7.217,-7.219c0.048,0.025 0.094,0.051 0.142,0.077c-2.058,2.594 -4.376,4.873 -6.876,6.78c-0.16,0.122 -0.321,0.243 -0.483,0.362Zm39.8,-11.992c5.774,-4.445 9.388,-11.189 9.201,-18.635c-0.168,-6.641 -3.396,-12.913 -8.862,-17.221c-1.162,-1.207 -2.484,-2.066 -3.935,-2.551c-2.087,-1.094 -4.33,-1.903 -6.686,-2.412c0.611,-6.674 -4.293,-14.02 -12.17,-17.923c-3.461,-1.716 -7.182,-2.624 -10.761,-2.624c-3.791,0 -7.147,1.009 -9.69,2.827c0.162,-0.128 0.327,-0.251 0.497,-0.372c2.542,-1.813 5.895,-2.82 9.68,-2.82c3.579,0 7.3,0.908 10.761,2.624c7.877,3.902 12.781,11.249 12.17,17.923c2.355,0.509 4.599,1.318 6.686,2.413c1.45,0.484 2.773,1.342 3.935,2.55c5.466,4.308 8.693,10.58 8.86,17.221c0.188,7.449 -3.426,14.191 -9.203,18.637c-0.158,0.123 -0.32,0.243 -0.483,0.363Zm-111.41,-33.473c0.157,-0.12 0.316,-0.238 0.474,-0.356c2.799,-2.036 6.091,-3.378 9.519,-3.749c0.01,0.106 0.021,0.212 0.032,0.317c-3.61,0.285 -7.09,1.655 -10.025,3.788Zm64.226,-21.827c-5.356,-4.798 -13.191,-7.679 -21.607,-7.837c-0.247,-0.005 -0.493,-0.008 -0.739,-0.008c-7.82,0 -14.843,2.287 -19.968,6.039c0.163,-0.125 0.327,-0.249 0.494,-0.371c5.124,-3.749 12.146,-6.033 19.961,-6.033c0.246,0 0.492,0.003 0.739,0.008c8.406,0.157 16.232,3.032 21.589,7.82c-0.16,0.125 -0.317,0.251 -0.469,0.382Z" style="fill:#fff;fill-opacity:0.52;fill-rule:nonzero;"/><path d="M119.899,621.255c2.779,-2.121 5.33,-4.699 7.551,-7.662c0.049,0.028 0.099,0.054 0.147,0.082c-2.141,2.778 -4.577,5.205 -7.217,7.219c-0.16,0.121 -0.32,0.242 -0.481,0.361Zm39.771,-11.969c5.787,-4.446 9.411,-11.198 9.223,-18.654c-0.167,-6.641 -3.395,-12.913 -8.86,-17.221c-1.163,-1.207 -2.486,-2.065 -3.937,-2.551c-2.087,-1.094 -4.329,-1.903 -6.684,-2.412c0.611,-6.674 -4.296,-14.02 -12.17,-17.923c-3.463,-1.716 -7.183,-2.622 -10.762,-2.622c-3.79,0 -7.144,1.009 -9.688,2.824c0.157,-0.124 0.32,-0.246 0.485,-0.364c2.543,-1.818 5.899,-2.827 9.69,-2.827c3.579,0 7.3,0.908 10.761,2.624c7.877,3.903 12.781,11.249 12.17,17.923c2.356,0.509 4.599,1.318 6.686,2.412c1.451,0.485 2.773,1.344 3.935,2.551c5.466,4.308 8.694,10.58 8.862,17.221c0.187,7.446 -3.427,14.19 -9.201,18.635c-0.168,0.13 -0.339,0.257 -0.51,0.384Zm-111.388,-33.489c0.161,-0.125 0.324,-0.247 0.488,-0.368c2.935,-2.133 6.415,-3.503 10.025,-3.788c0.013,0.11 0.026,0.221 0.041,0.331c-3.799,0.186 -7.477,1.586 -10.554,3.825Zm64.268,-21.793c-5.358,-4.82 -13.212,-7.716 -21.648,-7.876c-0.248,-0.003 -0.493,-0.004 -0.738,-0.004c-7.827,0 -14.857,2.289 -19.983,6.047c0.166,-0.126 0.332,-0.251 0.501,-0.375c5.125,-3.752 12.148,-6.039 19.968,-6.039c0.246,0 0.492,0.003 0.739,0.008c8.416,0.158 16.251,3.039 21.607,7.837c-0.152,0.13 -0.302,0.263 -0.446,0.402Z" style="fill:#fff;fill-opacity:0.52;fill-rule:nonzero;"/><path d="M119.406,621.624c2.922,-2.228 5.592,-4.962 7.891,-8.116c0.051,0.029 0.102,0.056 0.153,0.085c-2.221,2.963 -4.772,5.541 -7.551,7.662c-0.163,0.125 -0.327,0.249 -0.493,0.369Zm39.788,-11.984c5.783,-4.444 9.4,-11.191 9.212,-18.643c-0.167,-6.641 -3.396,-12.912 -8.86,-17.221c-1.162,-1.207 -2.485,-2.065 -3.937,-2.551c-2.087,-1.094 -4.329,-1.903 -6.684,-2.41c0.611,-6.676 -4.295,-14.022 -12.172,-17.925c-3.461,-1.716 -7.181,-2.622 -10.759,-2.622c-3.789,0 -7.142,1.007 -9.685,2.821c0.158,-0.123 0.319,-0.244 0.483,-0.362c2.544,-1.815 5.898,-2.824 9.688,-2.824c3.579,0 7.299,0.906 10.762,2.622c7.874,3.903 12.781,11.249 12.17,17.923c2.355,0.509 4.597,1.318 6.684,2.412c1.451,0.486 2.774,1.344 3.937,2.551c5.465,4.308 8.693,10.58 8.86,17.221c0.188,7.456 -3.436,14.208 -9.223,18.654c-0.157,0.12 -0.316,0.238 -0.476,0.354Zm-111.401,-33.478c0.161,-0.123 0.323,-0.245 0.489,-0.365c3.077,-2.239 6.755,-3.639 10.554,-3.825c0.016,0.115 0.032,0.232 0.049,0.347c-3.988,0.075 -7.869,1.497 -11.092,3.843Zm64.332,-21.737c-5.359,-4.853 -13.24,-7.77 -21.711,-7.929c-0.247,-0.006 -0.491,-0.007 -0.738,-0.007c-7.812,0 -14.829,2.28 -19.951,6.025c0.149,-0.115 0.302,-0.229 0.456,-0.343c5.126,-3.758 12.156,-6.047 19.983,-6.047c0.245,0 0.49,0.001 0.738,0.004c8.436,0.16 16.29,3.056 21.648,7.876c-0.146,0.136 -0.288,0.277 -0.425,0.421Z" style="fill:#fff;fill-opacity:0.52;fill-rule:nonzero;"/><path d="M118.929,621.982c3.057,-2.333 5.839,-5.221 8.208,-8.566c0.054,0.031 0.106,0.061 0.16,0.092c-2.299,3.154 -4.969,5.888 -7.891,8.116c-0.157,0.121 -0.317,0.24 -0.477,0.358Zm39.774,-11.972c5.784,-4.445 9.405,-11.193 9.216,-18.648c-0.167,-6.641 -3.396,-12.912 -8.86,-17.22c-1.162,-1.208 -2.485,-2.066 -3.937,-2.552c-2.087,-1.095 -4.33,-1.902 -6.684,-2.41c0.611,-6.674 -4.295,-14.022 -12.17,-17.925c-3.462,-1.716 -7.182,-2.622 -10.761,-2.622c-3.79,0 -7.144,1.008 -9.688,2.824c0.16,-0.126 0.323,-0.249 0.49,-0.368c2.543,-1.814 5.896,-2.821 9.685,-2.821c3.578,0 7.298,0.906 10.759,2.622c7.877,3.903 12.783,11.249 12.172,17.925c2.355,0.507 4.597,1.316 6.684,2.41c1.452,0.486 2.775,1.344 3.937,2.551c5.464,4.309 8.693,10.58 8.86,17.221c0.188,7.452 -3.429,14.199 -9.212,18.643c-0.161,0.126 -0.325,0.249 -0.491,0.37Zm-111.387,-33.49c0.157,-0.121 0.317,-0.24 0.477,-0.358c3.223,-2.346 7.104,-3.768 11.092,-3.843c0.019,0.122 0.04,0.242 0.06,0.363c-0.07,-0.001 -0.141,-0.001 -0.212,-0.001c-4.102,0 -8.106,1.432 -11.417,3.839Zm64.405,-21.652c-5.359,-4.9 -13.28,-7.847 -21.792,-8.007c-0.249,-0.006 -0.495,-0.007 -0.739,-0.007c-7.814,0 -14.832,2.28 -19.955,6.027c0.161,-0.124 0.324,-0.246 0.49,-0.367c5.122,-3.745 12.139,-6.025 19.951,-6.025c0.247,0 0.491,0.001 0.738,0.007c8.471,0.159 16.352,3.076 21.711,7.929c-0.138,0.144 -0.275,0.291 -0.404,0.443Z" style="fill:#fff;fill-opacity:0.52;fill-rule:nonzero;"/><path d="M118.434,622.353c3.2,-2.44 6.098,-5.49 8.539,-9.033c0.054,0.032 0.109,0.064 0.164,0.096c-2.369,3.345 -5.151,6.233 -8.208,8.566c-0.165,0.125 -0.329,0.249 -0.495,0.371Zm39.782,-11.978c5.784,-4.445 9.405,-11.193 9.216,-18.647c-0.167,-6.64 -3.396,-12.913 -8.86,-17.221c-1.162,-1.208 -2.486,-2.065 -3.936,-2.552c-2.087,-1.094 -4.331,-1.904 -6.685,-2.41c0.61,-6.674 -4.295,-14.022 -12.171,-17.925c-3.461,-1.715 -7.181,-2.622 -10.76,-2.622c-3.789,0 -7.143,1.008 -9.686,2.823c0.158,-0.125 0.32,-0.246 0.485,-0.364c2.544,-1.816 5.898,-2.824 9.688,-2.824c3.579,0 7.299,0.906 10.761,2.622c7.875,3.903 12.781,11.251 12.17,17.925c2.354,0.508 4.597,1.315 6.684,2.41c1.452,0.486 2.775,1.344 3.937,2.552c5.464,4.308 8.693,10.579 8.86,17.22c0.189,7.455 -3.432,14.203 -9.216,18.648c-0.162,0.123 -0.323,0.246 -0.487,0.365Zm-111.398,-33.481c0.163,-0.127 0.331,-0.252 0.498,-0.374c3.311,-2.407 7.315,-3.839 11.417,-3.839c0.071,0 0.142,0 0.212,0.001c0.023,0.128 0.046,0.255 0.071,0.381c-0.256,-0.012 -0.513,-0.017 -0.771,-0.017c-4.105,0 -8.114,1.437 -11.427,3.848Zm64.523,-21.564c-5.36,-4.958 -13.33,-7.944 -21.9,-8.105c-0.247,-0.004 -0.494,-0.007 -0.738,-0.007c-7.819,0 -14.842,2.286 -19.966,6.037c0.163,-0.125 0.33,-0.25 0.498,-0.374c5.123,-3.747 12.141,-6.027 19.955,-6.027c0.244,0 0.49,0.001 0.739,0.007c8.512,0.16 16.433,3.107 21.792,8.007c-0.131,0.151 -0.259,0.305 -0.38,0.462Z" style="fill:#fff;fill-opacity:0.52;fill-rule:nonzero;"/><path d="M117.962,622.708c3.333,-2.547 6.339,-5.751 8.839,-9.488c0.057,0.033 0.114,0.066 0.172,0.1c-2.441,3.543 -5.339,6.593 -8.539,9.033c-0.155,0.119 -0.314,0.239 -0.472,0.355Zm39.766,-11.968c5.784,-4.446 9.404,-11.193 9.217,-18.646c-0.168,-6.641 -3.395,-12.914 -8.86,-17.222c-1.162,-1.207 -2.486,-2.065 -3.937,-2.551c-2.087,-1.095 -4.329,-1.902 -6.685,-2.411c0.611,-6.674 -4.293,-14.022 -12.17,-17.925c-3.461,-1.715 -7.181,-2.622 -10.761,-2.622c-3.785,0 -7.138,1.006 -9.68,2.82c0.157,-0.124 0.317,-0.244 0.482,-0.362c2.543,-1.815 5.897,-2.823 9.686,-2.823c3.579,0 7.299,0.907 10.76,2.622c7.876,3.903 12.781,11.251 12.171,17.925c2.354,0.506 4.598,1.316 6.685,2.41c1.45,0.487 2.774,1.344 3.936,2.552c5.464,4.308 8.693,10.581 8.86,17.221c0.189,7.454 -3.432,14.202 -9.216,18.647c-0.16,0.123 -0.323,0.246 -0.488,0.365Zm-111.395,-33.482c0.16,-0.124 0.323,-0.246 0.485,-0.364c3.313,-2.411 7.322,-3.848 11.427,-3.848c0.258,0 0.515,0.005 0.771,0.017c0.026,0.132 0.054,0.265 0.085,0.397c0,0.002 -0.002,0.003 -0.002,0.005c-0.443,-0.035 -0.891,-0.054 -1.339,-0.054c-4.106,0 -8.114,1.435 -11.427,3.847Zm64.649,-21.444c-5.361,-5.029 -13.389,-8.061 -22.028,-8.224c-0.247,-0.004 -0.493,-0.007 -0.739,-0.007c-7.817,0 -14.837,2.284 -19.961,6.034c0.159,-0.122 0.32,-0.243 0.483,-0.362c5.124,-3.751 12.147,-6.037 19.966,-6.037c0.244,0 0.491,0.003 0.738,0.007c8.57,0.161 16.54,3.147 21.9,8.105c-0.123,0.159 -0.243,0.32 -0.359,0.484Z" style="fill:#fff;fill-opacity:0.52;fill-rule:nonzero;"/><path d="M117.461,623.083c3.478,-2.653 6.6,-6.024 9.164,-9.97c0.058,0.037 0.118,0.072 0.176,0.107c-2.5,3.737 -5.506,6.941 -8.839,9.488c-0.166,0.126 -0.333,0.251 -0.501,0.375Zm39.799,-11.991c5.774,-4.446 9.385,-11.187 9.197,-18.633c-0.165,-6.641 -3.394,-12.914 -8.858,-17.222c-1.164,-1.207 -2.486,-2.065 -3.937,-2.551c-2.087,-1.095 -4.33,-1.903 -6.686,-2.411c0.611,-6.674 -4.293,-14.02 -12.17,-17.923c-3.461,-1.717 -7.182,-2.624 -10.761,-2.624c-3.787,0 -7.139,1.006 -9.681,2.82c0.158,-0.125 0.322,-0.247 0.488,-0.365c2.542,-1.814 5.895,-2.82 9.68,-2.82c3.58,0 7.3,0.907 10.761,2.622c7.877,3.903 12.781,11.251 12.17,17.925c2.356,0.509 4.598,1.316 6.685,2.411c1.451,0.486 2.775,1.344 3.937,2.551c5.465,4.308 8.692,10.581 8.86,17.222c0.187,7.453 -3.433,14.2 -9.217,18.646c-0.154,0.119 -0.311,0.237 -0.468,0.352Zm-111.431,-33.456c0.166,-0.13 0.334,-0.255 0.504,-0.378c3.313,-2.412 7.321,-3.847 11.427,-3.847c0.448,0 0.896,0.019 1.339,0.054c-0.009,0.136 -0.016,0.273 -0.023,0.408c-0.596,-0.064 -1.199,-0.096 -1.804,-0.096c-4.113,0 -8.127,1.44 -11.443,3.859Zm64.817,-21.313c-5.361,-5.115 -13.459,-8.204 -22.179,-8.368c-0.247,-0.004 -0.493,-0.007 -0.739,-0.007c-7.813,0 -14.83,2.282 -19.952,6.028c0.157,-0.122 0.317,-0.241 0.478,-0.359c5.124,-3.75 12.144,-6.034 19.961,-6.034c0.246,0 0.492,0.003 0.739,0.007c8.639,0.163 16.667,3.195 22.028,8.224c-0.116,0.168 -0.228,0.336 -0.336,0.509Z" style="fill:#fff;fill-opacity:0.52;fill-rule:nonzero;"/><path d="M116.974,623.45c3.616,-2.761 6.85,-6.298 9.469,-10.447c0.06,0.036 0.121,0.074 0.182,0.11c-2.564,3.946 -5.686,7.317 -9.164,9.97c-0.161,0.124 -0.324,0.246 -0.487,0.367Zm39.797,-11.992c5.774,-4.446 9.388,-11.188 9.201,-18.634c-0.168,-6.641 -3.396,-12.914 -8.86,-17.222c-1.164,-1.207 -2.486,-2.065 -3.937,-2.551c-2.087,-1.095 -4.331,-1.903 -6.686,-2.411c0.612,-6.674 -4.293,-14.02 -12.17,-17.923c-3.46,-1.717 -7.182,-2.624 -10.761,-2.624c-3.789,0 -7.144,1.009 -9.686,2.824c0.026,-0.02 0.052,-0.042 0.08,-0.062c0.134,-0.105 0.272,-0.207 0.412,-0.307c2.542,-1.814 5.894,-2.82 9.681,-2.82c3.579,0 7.3,0.907 10.761,2.624c7.877,3.903 12.781,11.249 12.17,17.923c2.356,0.508 4.599,1.316 6.686,2.411c1.451,0.486 2.773,1.344 3.937,2.551c5.464,4.308 8.693,10.581 8.858,17.222c0.188,7.446 -3.423,14.187 -9.197,18.633c-0.161,0.124 -0.324,0.246 -0.489,0.366Zm-111.41,-33.472c0.154,-0.119 0.311,-0.235 0.468,-0.35c3.316,-2.419 7.33,-3.859 11.443,-3.859c0.605,0 1.208,0.032 1.804,0.096c-0.006,0.143 -0.012,0.284 -0.016,0.423c-0.751,-0.103 -1.51,-0.154 -2.275,-0.154c-4.104,0 -8.111,1.436 -11.424,3.844Zm64.972,-21.13c-5.357,-5.216 -13.537,-8.37 -22.353,-8.536c-0.247,-0.004 -0.493,-0.007 -0.737,-0.007c-7.819,0 -14.842,2.286 -19.966,6.037c0.163,-0.127 0.33,-0.252 0.499,-0.374c5.122,-3.746 12.139,-6.028 19.952,-6.028c0.246,0 0.492,0.003 0.739,0.007c8.72,0.164 16.818,3.253 22.179,8.368c-0.107,0.175 -0.212,0.352 -0.313,0.533Z" style="fill:#fff;fill-opacity:0.52;fill-rule:nonzero;"/><path d="M98.834,630.048c-10.717,0 -20.531,-6.648 -23.623,-15.727c-4.089,2.076 -8.766,3.206 -13.354,3.206c-4.715,0 -9.225,-1.169 -13.045,-3.381c-8.799,-5.096 -13.556,-15.969 -11.067,-25.296c2.238,-8.384 10.425,-14.708 19.04,-14.708c0.765,0 1.524,0.051 2.275,0.154c0.009,-0.276 0.022,-0.555 0.041,-0.837c-0.294,-1.314 -0.429,-2.64 -0.406,-3.946c0.224,-11.888 12.763,-21.2 28.548,-21.2c0.244,0 0.491,0.003 0.737,0.007c8.816,0.167 16.996,3.322 22.353,8.536c2.335,-4.244 7.236,-6.763 13.225,-6.763c3.579,0 7.299,0.907 10.761,2.624c7.877,3.903 12.782,11.249 12.17,17.923c2.356,0.509 4.599,1.316 6.686,2.411c1.451,0.486 2.773,1.344 3.937,2.551c5.464,4.308 8.692,10.581 8.86,17.222c0.325,12.927 -10.802,23.73 -24.806,24.082c-0.236,0.006 -0.471,0.009 -0.707,0.009c-5.045,0 -9.859,-1.347 -14.016,-3.912c-5.957,9.437 -15.091,15.706 -24.684,16.871c-0.96,0.114 -1.942,0.174 -2.925,0.174Z" style="fill:#fff;fill-rule:nonzero;"/></g></g><g id="Stars"><path d="M1143.7,779.408c-3.86,0 -3.86,-6 0,-6c3.87,0 3.86,6 0,6Z" style="fill:#c5e4f0;fill-rule:nonzero;"/><path d="M912.71,523.416c-3.867,0 -3.86,-6 0,-6c3.867,0 3.861,6 0,6Z" style="fill:#c5e4f0;fill-rule:nonzero;"/><path d="M1092.7,431.426c-3.87,0 -3.86,-6 0,-6c3.87,0 3.86,6 0,6Z" style="fill:#c5e4f0;fill-rule:nonzero;"/><path d="M720.721,788.408c-3.867,0 -3.86,-6 0,-6c3.867,0 3.862,6 0,6Z" style="fill:#c5e4f0;fill-rule:nonzero;"/><path d="M579.729,605.417c-3.868,0 -3.861,-6 0,-6c3.866,0 3.86,6 0,6Z" style="fill:#c5e4f0;fill-rule:nonzero;"/><path d="M481.72,1026.45c-3.867,0 -3.86,-6 0,-6c3.867,0 3.861,6 0,6Z" style="fill:#cfe9f3;fill-rule:nonzero;"/><path d="M779.723,401.183c-3.86,0 -3.86,-6 0,-6c3.87,0 3.86,6 0,6Z" style="fill:#c5e4f0;fill-rule:nonzero;"/><path d="M548.736,145.191c-3.867,0 -3.86,-6 0,-6c3.867,0 3.861,6 0,6Z" style="fill:#c5e4f0;fill-rule:nonzero;"/><path d="M728.723,53.201c-3.87,0 -3.86,-6 0,-6c3.87,0 3.86,6 0,6Z" style="fill:#c5e4f0;fill-rule:nonzero;"/><path d="M356.747,410.183c-3.867,0 -3.86,-6 0,-6c3.867,0 3.862,6 0,6Z" style="fill:#c5e4f0;fill-rule:nonzero;"/><path d="M215.755,227.192c-3.868,0 -3.861,-6 0,-6c3.866,0 3.86,6 0,6Z" style="fill:#c5e4f0;fill-rule:nonzero;"/><path d="M1458.67,83.798c-3.867,0 -3.86,-6 0,-6c3.867,0 3.861,6 0,6Z" style="fill:#c5e4f0;fill-rule:nonzero;"/><path d="M1266.68,348.79c-3.867,0 -3.86,-6 0,-6c3.867,0 3.862,6 0,6Z" style="fill:#c5e4f0;fill-rule:nonzero;"/><path d="M1125.69,165.799c-3.868,0 -3.861,-6 0,-6c3.866,0 3.86,6 0,6Z" style="fill:#c5e4f0;fill-rule:nonzero;"/><path d="M1027.68,586.828c-3.867,0 -3.86,-6 0,-6c3.867,0 3.861,6 0,6Z" style="fill:#cfe9f3;fill-rule:nonzero;"/></g><g id="Lower-Back-Clouds" serif:id="Lower Back Clouds"><path d="M168.626,959.806c1.742,-2.47 5.934,-6.189 7.63,-7.3c2.101,-0.561 12.657,25.825 8.744,39.091c39.954,-3.179 57.448,18.394 61.837,50.545c-2.231,0.365 -4.822,0.926 -6.803,1.387c-0.715,0.167 -1.474,0.397 -1.474,0.397c0,0 -29.766,-46.451 -63.304,-42.563c0,0 0.631,-27.494 -6.63,-41.557Z" style="fill:#a7d5e8;"/><path d="M545.153,1103.59c-2.706,-0.91 -5.476,-1.66 -8.301,-2.27c1.781,-19.47 -12.523,-40.89 -35.49,-52.27c-10.093,-5.01 -20.942,-7.65 -31.378,-7.65c-15.73,0 -28.885,5.961 -36.315,16.18c-0.075,0.11 -0.149,0.21 -0.223,0.31c-0.049,0.07 -0.098,0.14 -0.146,0.211c-0.027,0.039 -0.054,0.069 -0.081,0.109c-0.053,0.08 -0.107,0.151 -0.16,0.23c-0.01,0.01 -0.019,0.02 -0.029,0.041c-0.007,0.01 -0.014,0.019 -0.021,0.029c-0.029,0.04 -0.059,0.081 -0.087,0.12c-0.013,0.02 -0.025,0.03 -0.037,0.05c-0.017,0.02 -0.034,0.051 -0.051,0.07c-0.002,0 -0.005,0.01 -0.007,0.01c-0.013,0.02 -0.026,0.04 -0.039,0.06c-0.024,0.031 -0.047,0.06 -0.071,0.09c-0.037,0.061 -0.075,0.11 -0.112,0.16c-0.014,0.021 -0.029,0.041 -0.043,0.06c-0.024,0.04 -0.047,0.07 -0.071,0.101c-0.032,0.039 -0.064,0.089 -0.095,0.13c-0.009,0.019 -0.019,0.029 -0.028,0.039c-0.019,0.03 -0.037,0.06 -0.056,0.081c-0.033,0.049 -0.066,0.089 -0.098,0.139c-0.025,0.03 -0.05,0.07 -0.075,0.101c-0.035,0.049 -0.07,0.099 -0.105,0.149c-0.036,0.05 -0.073,0.101 -0.109,0.15c-0.011,0.02 -0.022,0.03 -0.032,0.05c-0.006,0.01 -0.011,0.01 -0.016,0.021c-0.028,0.039 -0.057,0.079 -0.085,0.119c-0.038,0.05 -0.077,0.11 -0.115,0.16c-0.03,0.04 -0.061,0.09 -0.091,0.13c-0.011,0.01 -0.021,0.03 -0.031,0.04c-0.019,0.03 -0.036,0.051 -0.054,0.08c-0.047,0.06 -0.094,0.13 -0.14,0.19c-0.011,0.02 -0.022,0.031 -0.033,0.051c-0.018,0.019 -0.035,0.049 -0.053,0.069c-0.006,0.01 -0.013,0.02 -0.019,0.03c-15.63,-15.109 -39.403,-24.25 -65.018,-24.73c-0.722,-0.01 -1.439,-0.02 -2.154,-0.02c-0.262,0 -0.52,0.01 -0.78,0.01c-0.261,0 -0.519,-0.01 -0.781,-0.01c-0.715,0 -1.432,0.01 -2.154,0.02c-25.356,0.48 -48.908,9.44 -64.543,24.27c-0.362,-0.05 -0.723,-0.11 -1.088,-0.159c-6.968,-11.911 -21.022,-18.941 -38.115,-18.941c-3.235,0 -6.511,0.25 -9.789,0.75c-0.317,-2.28 -0.77,-4.55 -1.368,-6.79c-6.529,-24.451 -30.398,-42.891 -55.522,-42.891c-2.23,0 -4.446,0.152 -6.631,0.449c-0.027,-0.805 -0.064,-1.618 -0.118,-2.441c0.852,-3.828 1.249,-7.697 1.18,-11.509c-0.179,-9.522 -3.068,-18.476 -8.119,-26.458c6.222,-4.493 13.809,-7.131 21.997,-7.131c6.591,0 12.789,1.711 18.203,4.72c1.828,-19.931 18.165,-35.529 38.073,-35.529c18.458,0 33.861,13.413 37.46,31.256c9.233,-17.736 27.448,-29.808 48.418,-29.808c30.304,0 54.867,25.198 54.867,56.287c0,4.207 -0.465,8.301 -1.317,12.243c5.979,-3.969 13.091,-6.301 20.746,-6.301c21.129,0 38.258,17.572 38.258,39.253c0,1.37 -0.07,2.72 -0.203,4.05c6.5,-5.24 14.674,-8.384 23.582,-8.384c4.028,0 7.907,0.647 11.552,1.834c-0.075,-1.217 -0.127,-2.434 -0.127,-3.667c0,-31.089 24.564,-56.288 54.866,-56.288c26.33,0 48.318,19.03 53.633,44.411c6.597,-5.55 15.035,-8.884 24.236,-8.884c21.128,0 38.257,17.571 38.257,39.248c0,0.75 -0.068,1.49 -0.109,2.23c6.992,-7.8 16.992,-12.73 28.14,-12.73c17.769,0 32.666,12.45 36.968,29.3c5.44,-4.24 11.672,-7.45 18.43,-9.37c11.574,-3.689 10.923,1.587 5.258,4.991c-0.341,0.205 -0.526,0.6 -0.785,0.899c-0.259,0.29 -0.515,0.581 -0.769,0.88c-0.267,0.3 -0.531,0.6 -0.793,0.9c-0.261,0.29 -0.521,0.59 -0.777,0.89c-0.266,0.301 -0.53,0.6 -0.791,0.9c-0.263,0.3 -0.525,0.6 -0.783,0.901c-0.267,0.299 -0.533,0.599 -0.795,0.909c-0.256,0.28 -0.512,0.581 -0.763,0.87c-3.191,3.581 -15.523,14.781 -17.913,18.931c-1.067,0.49 -10.107,4.06 -11.134,4.61c-10.534,-11.249 -18.361,-22.078 -34.389,-28.379c-0.407,-0.16 -4.657,-0.83 -5.096,-0.82c-1.843,0.05 -3.475,-0.841 -5.265,-0.571c-13.988,2.081 -24.983,7.031 -35.235,18.94c-0.261,0.29 -0.986,-0.691 -1.243,-0.402c-0.263,0.3 -0.688,0.202 -0.947,0.502c-0.266,0.301 0.372,1.08 0.11,1.38c-0.262,0.3 -0.191,3.131 -1.023,0.235c-0.107,-0.374 -0.271,0.753 -0.526,1.044c-0.267,0.299 -0.941,-0.292 -1.204,0.008c-0.258,0.29 -0.267,0.17 -0.522,0.47c-0.27,0.3 0.119,1.348 -1.048,0.019c-0.926,-1.056 -2.332,0.573 -3.215,1.683c-7.261,-3.97 -15.453,-6.04 -23.974,-6.04c-0.476,0 -0.952,0.01 -1.43,0.02c-0.442,0.01 -0.882,0.03 -1.325,0.05c-14.283,0.75 -26.811,7.26 -35.062,16.94c-0.264,0.29 -0.524,0.59 -0.779,0.89c-0.266,0.29 -0.526,0.59 -0.784,0.89c-0.267,0.3 -0.53,0.6 -0.79,0.9c-0.262,0.3 -0.521,0.59 -0.775,0.89c-0.266,0.3 -0.53,0.6 -0.787,0.9c-0.263,0.29 -0.522,0.59 -0.777,0.89c-0.265,0.29 -0.526,0.59 -0.782,0.89c-0.268,0.3 -0.533,0.6 -0.793,0.91c-4.275,4.76 -7.49,10.34 -9.327,16.42Zm-63.433,-83.14c-3.86,0 -3.867,6 0,6c3.861,0 3.867,-6 0,-6Z" style="fill:#a7d5e8;fill-rule:nonzero;"/><path d="M778.057,1021.09c5.58,-14.188 16.633,-25.511 30.477,-31.209c-4.699,9.466 -7.277,20.031 -7.276,30.949c0,0.01 2.113,15.02 2.113,15.03c-3.58,-0.57 -24.248,14.352 -27.237,14.193c-0.117,-0.006 -7.507,-4.991 1.923,-28.963Z" style="fill:#a7d5e8;fill-rule:nonzero;"/><g><path d="M942.162,985.09c-5.153,-11.93 -13.42,-21.887 -23.575,-29.115c-0.224,-2.059 -0.351,-4.147 -0.351,-6.267c0,-31.089 24.562,-56.289 54.866,-56.289c7.805,0 15.231,1.673 21.952,4.687c-0.2,0.231 -0.4,0.46 -0.6,0.693c-0.02,0.016 -0.03,0.032 -0.05,0.048c-0.23,0.269 -0.47,0.539 -0.7,0.811c-0.03,0.028 -0.05,0.055 -0.08,0.084c-0.25,0.28 -0.49,0.563 -0.74,0.846c-0.01,0.016 -0.03,0.032 -0.04,0.048c-0.24,0.269 -0.48,0.541 -0.71,0.813c-0.03,0.026 -0.05,0.055 -0.07,0.081c-0.25,0.281 -0.5,0.562 -0.74,0.845c-0.02,0.016 -0.03,0.034 -0.05,0.05c-0.24,0.269 -0.47,0.541 -0.71,0.813c-0.02,0.028 -0.04,0.053 -0.07,0.081c-11.783,13.276 -17.581,29.791 -17.594,46.246c-0.005,5.266 1.757,15.672 1.757,15.672l2.306,7.858c0,0 -25.016,2.631 -31.06,9.723c-0.265,0.295 -0.525,0.593 -0.782,0.894c-0.265,0.295 -0.525,0.593 -0.782,0.894c-0.262,0.292 -0.52,0.587 -0.774,0.885c-0.269,0.299 -0.533,0.601 -0.794,0.907c-0.206,0.229 -0.408,-1.541 -0.609,-1.308Z" style="fill:#a7d5e8;fill-rule:nonzero;"/><path d="M943.172,985.09c-5.804,-13.363 -15.59,-23.182 -24.469,-29.059c-10.308,-6.824 -22.089,-8.333 -35.516,-3.906l52.843,42.472" style="fill:#a7d5e8;"/></g><path d="M389.41,1125.92c-4.72,-4.69 -8.986,-9.94 -12.919,-15.35c-3.422,1.48 -6.579,3.7 -9.406,6.63l-0.103,0.09c-5.919,-2.91 -12.442,-4.65 -19.073,-4.88c-4.799,-0.16 -9.399,0.45 -13.734,1.82c-0.064,-0.25 -0.129,-0.51 -0.197,-0.76c0.06,-3.08 -0.233,-6.12 -0.873,-9.04c-4.603,-21.06 -26.359,-35.86 -54.136,-36.82c-7.071,-0.25 -14.276,0.42 -21.417,1.98c-7.052,1.54 -13.746,3.91 -19.889,6.96c3.183,-10.87 3.638,-22.36 0.76,-33.14c-6.53,-24.45 -30.4,-42.89 -55.523,-42.89c-2.23,0 -4.446,0.151 -6.632,0.448c-0.026,-0.805 1.132,-10.137 1.063,-13.949c-0.652,-34.663 -37.218,-61.815 -83.243,-61.815c-0.716,0 -1.433,0.008 -2.154,0.02c-25.708,0.484 -49.559,9.684 -65.187,24.891c-6.803,-12.378 -21.096,-19.721 -38.559,-19.721c-2.242,0 -4.503,0.129 -6.771,0.37l0,313.546l453.836,0l0,-86.58c-4.245,-2.14 -8.442,-4.37 -12.555,-6.77c-11.909,-6.96 -23.5,-15.31 -33.288,-25.04Z" style="fill:#e7f4f9;fill-rule:nonzero;"/><path d="M1188.96,915.682c-25.96,-13.849 -58.48,-9.966 -80.47,10.628c-3.81,-10.763 -10.31,-20.741 -19.45,-28.856c-28.83,-25.593 -72.95,-22.968 -98.55,5.865c-17.487,19.702 -21.791,46.538 -13.571,69.727c-4.581,-0.352 -9.294,-0.017 -14.004,1.1c-11.834,2.806 -21.448,10.019 -27.601,19.463c-13.036,-30.797 -46.736,-48.621 -80.363,-40.643c-35.375,8.392 -58.009,42.331 -53.007,77.63c-10.999,-3.06 -22.898,-3.48 -34.792,-0.65c-22.036,5.22 -39.12,20.37 -47.671,39.57c-2.367,0.89 -4.674,1.92 -6.876,3.11c-6.262,-16.87 -25.006,-28.84 -45.107,-28.3c-1.843,0.05 -3.684,0.21 -5.475,0.48c-17.938,2.671 -34.754,14.89 -45.449,32.89c-7.926,-4.6 -17.025,-6.88 -26.489,-6.63c-0.441,0.01 -0.881,0.03 -1.325,0.05c-26.247,1.37 -46.572,22.2 -45.307,46.43c0.651,12.45 7.024,24.05 17.491,31.85c2.242,2.21 4.767,3.75 7.513,4.59c3.97,1.95 8.218,3.35 12.661,4.18c-0.808,12.55 8.765,26.08 23.735,33.01c6.58,3.04 13.604,4.55 20.317,4.37c11.234,-0.3 20.3,-5.27 24.461,-13.35c4.162,3.84 9.179,7.01 14.757,9.43l-79.201,83.88l574.593,-49.31l0,-65.54c8.68,-3.92 16.71,-9.67 23.45,-17.26c1.3,-1.47 2.52,-2.99 3.67,-4.53c0.06,4.4 0.75,8.79 2.06,13.02l0,-236.204Z" style="fill:#e7f4f9;fill-rule:nonzero;"/><path d="M1623.32,907.081c-25.96,-13.849 -58.48,-9.966 -80.47,10.628c-3.81,-10.763 -10.31,-20.741 -19.45,-28.856c-28.83,-25.593 -72.95,-22.968 -98.55,5.865c-17.487,19.702 -21.791,46.538 -13.571,69.727c-4.581,-0.352 -9.294,-0.017 -14.004,1.1c-11.834,2.806 -21.448,10.019 -27.601,19.463c-13.036,-30.797 -46.736,-48.621 -80.363,-40.643c-35.375,8.392 -58.009,42.331 -53.007,77.63c-10.999,-3.06 -22.898,-3.48 -34.792,-0.65c-22.036,5.22 -39.12,20.37 -47.671,39.57c-2.367,0.89 -4.674,1.92 -6.876,3.11c-6.262,-16.87 -25.006,-28.84 -45.107,-28.3c-1.843,0.05 -3.684,0.21 -5.475,0.48c-17.938,2.671 -34.754,14.89 -45.449,32.89c-7.926,-4.6 -17.025,-6.88 -26.489,-6.63c-0.441,0.01 -0.881,0.03 -1.325,0.05c-26.247,1.37 -46.572,22.2 -45.307,46.43c0.651,12.45 7.024,24.05 17.491,31.85c2.242,2.21 4.767,3.75 7.513,4.59c3.97,1.95 8.218,3.35 12.661,4.18c-0.808,12.55 8.765,26.08 23.735,33.01c6.58,3.04 13.604,4.55 20.317,4.37c11.234,-0.3 20.3,-5.27 24.461,-13.35c4.162,3.84 9.179,7.01 14.757,9.43l-79.201,83.88l574.593,-49.31l0,-65.54c8.68,-3.92 16.71,-9.67 23.45,-17.26c1.3,-1.47 2.52,-2.99 3.67,-4.53c0.06,4.4 0.75,8.79 2.06,13.02l0,-236.204Z" style="fill:#e7f4f9;fill-rule:nonzero;"/></g><g id="Hacked-Cloud-Right" serif:id="Hacked Cloud Right"><clipPath id="_clip5"><rect x="792.371" y="1037.02" width="227.698" height="281.084"/></clipPath><g clip-path="url(#_clip5)"><clipPath id="_clip6"><rect x="856.71" y="1037.02" width="746.359" height="192.084"/></clipPath><g clip-path="url(#_clip6)"><path d="M2057.49,1042.21c-17.47,0 -31.76,7.34 -38.56,19.72c-15.63,-15.21 -39.48,-24.4 -65.19,-24.89c-0.72,-0.01 -1.44,-0.02 -2.15,-0.02c-46.03,0 -82.59,27.15 -83.24,61.81c-0.07,3.82 0.32,7.69 1.18,11.51c-0.06,0.83 -0.1,1.64 -0.12,2.45c-2.19,-0.3 -4.4,-0.45 -6.633,-0.45c-25.123,0 -48.994,18.44 -55.524,42.89c-2.877,10.78 -2.422,22.27 0.762,33.14c-6.145,-3.05 -12.839,-5.42 -19.891,-6.96c-7.14,-1.57 -14.345,-2.23 -21.416,-1.99c-27.777,0.97 -49.533,15.77 -54.136,36.83c-0.64,2.92 -0.933,5.95 -0.874,9.04c-0.067,0.25 -0.132,0.5 -0.197,0.76c-4.335,-1.38 -8.934,-1.99 -13.733,-1.82c-6.631,0.23 -13.154,1.97 -19.072,4.87l-0.104,-0.08c-3.39,-3.52 -7.248,-6.02 -11.478,-7.44c-6.086,-3.19 -12.627,-5.55 -19.494,-7.03c1.782,-19.46 -12.522,-40.88 -35.49,-52.27c-10.093,-5 -20.941,-7.65 -31.378,-7.65c-17.465,0 -31.757,7.35 -38.56,19.73c-15.627,-15.21 -39.48,-24.41 -65.186,-24.89c-0.722,-0.02 -1.439,-0.02 -2.155,-0.02c-6.154,0 -12.138,0.49 -17.891,1.41c-4.412,-8.69 -10.805,-16.52 -18.871,-22.88c-3.39,-3.52 -7.248,-6.02 -11.479,-7.44c-6.086,-3.19 -12.626,-5.55 -19.493,-7.03c1.781,-19.46 -12.523,-40.88 -35.49,-52.269c-10.094,-5 -20.942,-7.651 -31.378,-7.651c-17.465,0 -31.757,7.35 -38.561,19.73c-15.627,-15.21 -39.479,-24.41 -65.186,-24.89c-0.721,-0.02 -1.439,-0.02 -2.154,-0.02c-0.261,0 -0.52,0 -0.78,0.01c-0.26,-0.01 -0.518,-0.01 -0.78,-0.01c-0.715,0 -1.432,0 -2.154,0.02c-25.707,0.48 -49.559,9.68 -65.186,24.89c-6.803,-12.38 -21.095,-19.73 -38.56,-19.73c-10.437,0 -21.285,2.651 -31.378,7.651c-22.967,11.389 -37.272,32.809 -35.49,52.269c-6.867,1.48 -13.407,3.84 -19.493,7.03c-4.231,1.42 -8.089,3.92 -11.479,7.44c-8.067,6.36 -14.459,14.19 -18.871,22.88c-5.754,-0.92 -11.737,-1.41 -17.893,-1.41c-0.714,0 -1.432,0 -2.153,0.02c-25.707,0.48 -44.559,9.68 -60.186,24.89c-6.804,-12.38 -26.096,-19.73 -43.561,-19.73c-9.851,0 -20.068,2.36 -29.671,6.83l0,147.38l1207.55,0l0,-266.26c-2.27,-0.24 -4.53,-0.37 -6.77,-0.37Z" style="fill:#fff;fill-rule:nonzero;"/></g></g></g><clipPath id="_clip7"><rect id="Hacked-Cloud-Part" serif:id="Hacked Cloud Part" x="171.579" y="1026" width="158.481" height="103.355"/></clipPath><g clip-path="url(#_clip7)"><path d="M545.217,1241.3c-4.72,-4.69 -8.986,-9.94 -12.919,-15.35c-3.422,1.48 -6.579,3.7 -9.406,6.63l-0.103,0.09c-5.919,-2.91 -12.442,-4.65 -19.073,-4.88c-4.799,-0.16 -9.399,0.45 -13.734,1.82c-0.064,-0.25 -0.129,-0.51 -0.197,-0.76c0.06,-3.08 -0.233,-6.12 -0.873,-9.04c-4.603,-21.06 -26.359,-35.86 -54.136,-36.82c-7.071,-0.25 -14.276,0.42 -21.417,1.98c-7.052,1.54 -13.746,3.91 -19.889,6.96c3.183,-10.87 3.638,-22.36 0.76,-33.14c-6.53,-24.45 -30.4,-42.89 -55.523,-42.89c-2.23,0 -4.446,0.151 -6.632,0.448c-0.026,-0.805 -0.063,-1.618 -0.117,-2.441c0.852,-3.829 1.249,-7.696 1.18,-11.508c-0.652,-34.663 -37.218,-61.815 -83.243,-61.815c-0.716,0 -1.433,0.008 -2.154,0.02c-25.708,0.484 -49.559,9.684 -65.187,24.891c-6.803,-12.378 -21.096,-19.721 -38.559,-19.721c-2.242,0 -4.503,0.129 -6.771,0.37l0,313.546l453.836,0l0,-86.58c-4.245,-2.14 -8.442,-4.37 -12.555,-6.77c-11.909,-6.96 -23.5,-15.31 -33.288,-25.04Z" style="fill:#e7f4f9;fill-rule:nonzero;"/></g><g><path d="M1224.33,577.374c-0.104,0.913 -0.239,1.816 -0.397,2.702c-0.532,2.974 -1.349,5.778 -2.283,8.303c-6.662,-9.748 -18.022,-12.042 -18.022,-12.042c0,-5.845 -2.816,-9.539 -5.257,-11.642c-1.87,-1.609 -3.516,-2.289 -3.516,-2.289c0,0 16.912,-0.451 29.475,14.968Z" style="fill:#f4516d;fill-rule:nonzero;"/><path d="M1224.59,572.044l0,0.924c0,0.524 -0.011,1.045 -0.032,1.564c-0.041,0.959 -0.116,1.907 -0.223,2.842c-12.564,-15.419 -29.476,-14.968 -29.476,-14.968c0.225,-0.674 0.376,-1.348 0.462,-2.014c1.114,-8.502 -8.204,-16.048 -8.204,-16.048c11.669,1.373 19.913,5.598 25.721,10.621c6.524,5.647 9.976,12.306 11.752,17.079Z" style="fill:#f4516d;fill-rule:nonzero;"/></g><path d="M1227.16,577.661l-3.124,2.547l-0.107,-0.132l-1.166,-1.432c-8.462,-10.385 -19.037,-13.194 -24.397,-13.949c-1.869,-1.609 -3.516,-2.289 -3.516,-2.289c0.226,-0.674 0.376,-1.348 0.462,-2.015c2.961,0.046 17.493,0.967 29.237,14.141c0.451,0.505 0.897,1.026 1.338,1.568l1.273,1.561Z" style="fill:#d64766;fill-rule:nonzero;"/><path d="M1244.94,533.654c11.683,0 16.69,18.777 16.69,18.777l-0.07,0.172c-2.837,-1.15 -5.894,-2.101 -9.109,-2.815l-0.003,0l0,-0.003c0.038,-8.91 -7.508,-16.131 -7.508,-16.131Z" style="fill:#56d353;fill-rule:nonzero;"/><path d="M1281.35,574.172c0,9.609 -10.253,12.228 -24.039,8.018c-0.002,-0.002 -0.002,-0.002 -0.005,-0.002c0.491,1.66 0.97,3.465 1.399,5.361c0.54,2.377 1,4.905 1.301,7.498l-2.625,-1.698l-15.846,10.258l-7.003,-4.531l0,-0.003l-8.843,-5.724l-10.232,6.624c1.424,-1.679 4.105,-5.942 6.197,-11.591l0,-0.003c1.215,-3.277 2.227,-7.024 2.681,-11.005c0.164,-1.443 0.256,-2.915 0.256,-4.406l0,-0.924c-0.008,-6.71 -0.014,-14.052 3.075,-18.777c1.65,-2.527 4.21,-4.306 8.174,-4.84c-1.603,-7.043 -7.064,-12.268 -7.064,-12.268c7.048,0 11.666,6.839 14.22,12.26c0.691,0.048 1.378,0.107 2.058,0.177c2.539,0.255 5.01,0.658 7.395,1.193l0.003,0c3.216,0.714 6.273,1.665 9.109,2.815c4.626,1.867 8.669,4.252 11.873,6.984c4.962,4.234 7.916,9.303 7.916,14.584Z" style="fill:#56d353;fill-rule:nonzero;"/><g><path d="M1243.87,550.4c0,0 -13.915,16.499 -9.335,48.672l-8.843,-5.724l-10.232,6.624c1.424,-1.679 4.105,-5.942 6.197,-11.591l0,-0.003c1.214,-3.277 2.227,-7.024 2.681,-11.006c0.164,-1.442 0.255,-2.914 0.255,-4.405l0,-0.924c-0.008,-6.71 -0.013,-14.052 3.076,-18.777c1.649,-2.528 4.209,-4.306 8.174,-4.84c-1.603,-7.044 -7.065,-12.268 -7.065,-12.268c7.049,0 11.667,6.839 14.221,12.259c0.691,0.049 1.378,0.108 2.058,0.178l-1.187,1.805Z" style="fill:#56d353;fill-rule:nonzero;"/><path d="M1258.7,587.549c-13.852,-4.024 -20.232,-14.317 -20.232,-14.317c6.57,4.193 13.017,7.183 18.83,8.953l0.003,0.003c0.491,1.66 0.969,3.465 1.399,5.361Z" style="fill:#46ba43;fill-rule:nonzero;"/></g><g><path d="M1255.23,561.56c-0.309,0 -0.619,-0.118 -0.855,-0.354c-0.685,-0.685 -1.596,-1.062 -2.564,-1.062c-0.969,0 -1.88,0.377 -2.565,1.062c-0.472,0.472 -1.237,0.472 -1.709,0c-0.472,-0.472 -0.472,-1.237 0,-1.709c1.141,-1.142 2.659,-1.77 4.274,-1.77c1.614,0 3.132,0.628 4.273,1.77c0.472,0.472 0.472,1.237 0,1.71c-0.235,0.235 -0.545,0.353 -0.854,0.353Z" style="fill:#4d4d4d;fill-rule:nonzero;"/><path d="M1271.73,561.56c-0.309,0 -0.619,-0.118 -0.855,-0.354c-0.685,-0.685 -1.595,-1.062 -2.564,-1.062c-0.969,0 -1.88,0.377 -2.565,1.062c-0.471,0.472 -1.237,0.472 -1.709,0c-0.472,-0.472 -0.472,-1.237 0,-1.71c1.142,-1.141 2.659,-1.77 4.274,-1.77c1.614,0 3.132,0.629 4.273,1.77c0.473,0.472 0.473,1.238 0,1.71c-0.235,0.236 -0.544,0.354 -0.854,0.354Z" style="fill:#4d4d4d;fill-rule:nonzero;"/></g><g><path d="M1271.34,575.467c-0.731,0 -1.343,-0.614 -1.343,-1.344c-0.001,-0.739 0.626,-1.361 1.368,-1.342c0.705,0.017 1.292,0.591 1.316,1.298c0.026,0.744 -0.596,1.388 -1.341,1.388Z" style="fill:#46ba43;fill-rule:nonzero;"/><path d="M1278.6,573.855c-0.747,0 -1.366,-0.639 -1.342,-1.384c0.023,-0.713 0.622,-1.307 1.34,-1.304c0.7,0.002 1.3,0.563 1.342,1.263c0.046,0.757 -0.581,1.425 -1.34,1.425Z" style="fill:#46ba43;fill-rule:nonzero;"/></g><path d="M1282.43,609.127c0,20.38 -14.914,37.282 -34.424,40.384c-2.106,0.334 -4.268,0.508 -6.471,0.508c-22.586,0 -40.895,-18.309 -40.895,-40.892c0,-3.498 0.438,-7.237 1.265,-11.062l7.938,5.138l5.611,-3.634l10.232,-6.624l5.152,3.336l10.694,6.922l15.846,-10.258l2.625,1.697l0,0.003l13.221,8.558l7.941,-5.138c0.827,3.825 1.265,7.564 1.265,11.062Z" style="fill:#e6e6e6;fill-rule:nonzero;"/><path d="M1248.01,649.511c-2.106,0.334 -4.269,0.508 -6.471,0.508c-22.586,0 -40.896,-18.309 -40.896,-40.892c0,-3.498 0.438,-7.237 1.266,-11.062l7.938,5.138l5.611,-3.634l10.232,-6.624l5.152,3.336c0,0 -14.508,36.847 17.165,53.228c0.001,0 0.003,0 0.003,0.002Z" style="fill:#e6e6e6;fill-rule:nonzero;"/><g id="Castle"><path d="M1208.03,679.515l0,261.439l364.814,0l0,-261.439l-67.734,0l0,95.615l-229.346,0l0,-95.615l-67.734,0Z" style="fill:#de9252;fill-rule:nonzero;"/><rect x="1333.74" y="579.894" width="114.712" height="181.005" style="fill:#de9252;fill-rule:nonzero;"/><path d="M1524.93,940.954l0,-223.575l-38.236,0l0,35.167l-38.239,0l0,-35.167l-38.237,0l0,35.167l-38.237,0l0,-35.167l-38.237,0l0,35.167l-38.239,0l0,-35.167l-38.237,0l0,223.575l267.662,0Z" style="fill:#f1c395;fill-rule:nonzero;"/><path d="M1486.69,717.379l0,35.167l-8.919,0l0,188.408l47.155,0l0,-223.575l-38.236,0Z" style="fill:#f1c395;fill-rule:nonzero;"/><path d="M1429.77,894.549l-77.342,-16.697l0,-24.346c0,-21.357 17.314,-38.67 38.671,-38.67c21.357,0 38.67,17.314 38.67,38.67l0,41.043l0.001,0Z" style="fill:#ab632e;fill-rule:nonzero;"/><path d="M1539.38,1084.64l-51.778,-179.321l-172.468,-37.526l-117.688,17.196l-37.558,102.62l-38.356,12.061l-23.739,84.97l441.587,0Z" style="fill:#d4d4d4;fill-rule:nonzero;"/><path d="M1586.11,907.75l-98.499,-2.426l0,179.321l139.612,0l-41.113,-176.895Z" style="fill:#bfbfbf;fill-rule:nonzero;"/><path d="M1190.08,679.515l0,-67.03l34.548,0l0,31.774l34.546,0l0,-31.774l34.547,0l0,67.03l-103.641,0Z" style="fill:#f1c395;fill-rule:nonzero;"/><path d="M1487.16,679.515l0,-67.03l34.546,0l0,31.774l34.547,0l0,-31.774l34.547,0l0,67.03l-103.64,0Z" style="fill:#f1c395;fill-rule:nonzero;"/><path d="M1556.25,612.485l0,31.774l-12.608,0l0,35.256l47.155,0l0,-67.03l-34.547,0Z" style="fill:#f1c395;fill-rule:nonzero;"/><path d="M1391.1,498.739l-97.56,81.155l195.121,0l-97.561,-81.155Z" style="fill:#f1c395;fill-rule:nonzero;"/><path d="M1391.09,498.739l-23.577,19.613l73.983,61.542l47.156,0l-97.562,-81.155Z" style="fill:#f1c395;fill-rule:nonzero;"/><path d="M1391.09,621.16c-4.883,0 -8.841,3.958 -8.841,8.841l0,33.328c0,11.431 17.684,11.431 17.684,0l0,-33.328c0,-4.883 -3.959,-8.841 -8.843,-8.841Z" style="fill:#ab632e;fill-rule:nonzero;"/></g><g id="Lower-Front-Cloud-Left" serif:id="Lower Front Cloud Left"><path d="M1273.21,992.835c-17.47,0 -31.76,7.34 -38.56,19.72c-15.63,-15.21 -39.48,-24.4 -65.19,-24.89c-0.72,-0.01 -1.44,-0.02 -2.15,-0.02c-46.03,0 -82.59,27.15 -83.24,61.81c-0.07,3.82 0.32,7.69 1.18,11.51c-0.06,0.83 -0.1,1.64 -0.12,2.45c-2.19,-0.3 -4.4,-0.45 -6.633,-0.45c-25.123,0 -48.994,18.44 -55.524,42.89c-2.877,10.78 -2.422,22.27 0.762,33.14c-6.145,-3.05 -12.839,-5.42 -19.891,-6.96c-7.14,-1.57 -14.345,-2.23 -21.416,-1.99c-27.777,0.97 -49.533,15.77 -54.136,36.83c-0.64,2.92 -0.933,5.95 -0.874,9.04c-0.067,0.25 -0.132,0.5 -0.197,0.76c-4.335,-1.38 -8.934,-1.99 -13.733,-1.82c-6.631,0.23 -13.154,1.97 -19.072,4.87l-0.104,-0.08c-3.39,-3.52 -7.248,-6.02 -11.478,-7.44c-6.086,-3.19 -12.627,-5.55 -19.494,-7.03c1.782,-19.46 -12.522,-40.88 -35.49,-52.27c-10.093,-5 -20.941,-7.65 -31.378,-7.65c-17.465,0 -31.757,7.35 -38.56,19.73c-15.627,-15.21 -39.48,-24.41 -65.186,-24.89c-0.722,-0.02 -1.439,-0.02 -2.155,-0.02c-6.154,0 -12.138,0.49 -17.891,1.41c-4.412,-8.69 -10.805,-16.52 -18.871,-22.88c-3.39,-3.52 -7.248,-6.02 -11.479,-7.44c-6.086,-3.19 -12.626,-5.55 -19.493,-7.03c1.781,-19.46 -12.523,-40.88 -35.49,-52.269c-10.094,-5 -20.942,-7.651 -31.378,-7.651c-17.465,0 -31.757,7.35 -38.561,19.73c-15.627,-15.21 -39.479,-24.41 -65.186,-24.89c-0.721,-0.02 -1.439,-0.02 -2.154,-0.02c-0.261,0 -0.52,0 -0.78,0.01c-0.26,-0.01 -0.518,-0.01 -0.78,-0.01c-0.715,0 -1.432,0 -2.154,0.02c-25.707,0.48 -49.559,9.68 -65.186,24.89c-6.803,-12.38 -21.095,-19.73 -38.56,-19.73c-10.437,0 -21.285,2.651 -31.378,7.651c-22.967,11.389 -37.272,32.809 -35.49,52.269c-6.867,1.48 -13.407,3.84 -19.493,7.03c-4.231,1.42 -8.089,3.92 -11.479,7.44c-8.067,6.36 -14.459,14.19 -18.871,22.88c-5.754,-0.92 -11.737,-1.41 -17.893,-1.41c-0.714,0 -1.432,0 -2.153,0.02c-25.707,0.48 -49.559,9.68 -65.186,24.89c-6.804,-12.38 -21.096,-19.73 -38.561,-19.73c-9.851,0 -20.068,2.36 -29.671,6.83l0,147.38l1207.55,0l0,-266.26c-2.27,-0.24 -4.53,-0.37 -6.77,-0.37Z" style="fill:#fff;fill-rule:nonzero;"/></g><g id="Hacked-Cloud-Left" serif:id="Hacked Cloud Left"><clipPath id="_clip8"><rect x="-12.718" y="1086.78" width="92.845" height="132.262"/></clipPath><g clip-path="url(#_clip8)"><g id="Shadows"></g><clipPath id="_clip9"><rect x="-8.297" y="1091.73" width="93.547" height="117.37"/></clipPath><g clip-path="url(#_clip9)"><path d="M1023.48,1096.92c-17.47,0 -31.76,7.34 -38.56,19.72c-15.63,-15.21 -39.48,-24.4 -65.19,-24.89c-0.72,-0.01 -1.44,-0.02 -2.15,-0.02c-46.03,0 -82.59,27.149 -83.24,61.81c-0.07,3.82 0.32,7.69 1.18,11.51c-0.06,0.829 -0.1,1.64 -0.12,2.45c-2.19,-0.3 -4.4,-0.45 -6.633,-0.45c-25.123,0 -48.994,18.44 -55.524,42.89c-2.877,10.78 -2.422,22.27 0.762,33.14c-6.145,-3.05 -12.839,-5.42 -19.891,-6.96c-7.14,-1.57 -14.345,-2.23 -21.416,-1.99c-27.777,0.97 -49.533,15.77 -54.136,36.83c-0.64,2.92 -0.933,5.95 -0.874,9.04c-0.067,0.25 -0.132,0.5 -0.197,0.76c-4.335,-1.38 -8.934,-1.99 -13.733,-1.82c-6.631,0.23 -13.154,1.97 -19.072,4.87l-0.104,-0.08c-3.39,-3.52 -7.248,-6.02 -11.478,-7.44c-6.086,-3.19 -12.627,-5.55 -19.494,-7.03c1.782,-19.46 -12.522,-40.88 -35.49,-52.27c-10.093,-5 -20.941,-7.65 -31.378,-7.65c-17.465,0 -31.757,7.35 -38.56,19.73c-15.627,-15.21 -39.48,-24.41 -65.186,-24.89c-0.722,-0.02 -1.439,-0.02 -2.155,-0.02c-6.154,0 -12.138,0.49 -17.891,1.41c-4.412,-8.691 -10.805,-16.52 -18.871,-22.88c-3.39,-3.52 -7.248,-6.02 -11.479,-7.44c-6.086,-3.191 -12.626,-5.55 -19.493,-7.03c1.781,-19.46 -12.523,-40.88 -35.49,-52.27c-10.094,-5 -20.942,-7.651 -31.378,-7.651c-17.465,0 -31.757,7.351 -38.561,19.731c-15.627,-15.21 -39.479,-24.41 -65.186,-24.89c-0.721,-0.02 -1.439,-0.02 -2.154,-0.02c-0.261,0 -0.52,0 -0.78,0.009c-0.26,-0.009 -0.518,-0.009 -0.78,-0.009c-0.715,0 -1.432,0 -2.154,0.02c-25.707,0.48 -49.559,9.68 -65.186,24.89c-6.803,-12.38 -21.095,-19.731 -38.56,-19.731c-10.437,0 -21.285,2.651 -31.378,7.651c-22.967,11.39 -37.272,32.81 -35.49,52.27c-6.867,1.48 -13.407,3.839 -19.493,7.03c-4.231,1.42 -8.089,3.92 -11.479,7.44c-8.067,6.36 -14.459,14.189 -18.871,22.88c-5.754,-0.92 -11.737,-1.41 -17.893,-1.41c-0.714,0 -1.432,0 -2.153,0.02c-25.707,0.48 -49.559,9.68 -65.186,24.89c-6.804,-12.38 -21.096,-19.73 -38.561,-19.73c-9.851,0 -20.068,2.36 -29.671,6.83l0,147.38l1207.55,0l0,-266.26c-2.27,-0.241 -4.53,-0.37 -6.77,-0.37Z" style="fill:#fff;fill-rule:nonzero;"/></g></g></g><g id="Lower-Front-Cloud-Right" serif:id="Lower Front Cloud Right"><clipPath id="_clip10"><rect x="1247.56" y="877.595" width="365.514" height="331.506"/></clipPath><g clip-path="url(#_clip10)"><path d="M1651.62,877.595c0,0 0.009,0 0,0c-27.779,0.519 -53.554,10.46 -70.441,26.897c-7.351,-13.378 -22.795,-21.321 -41.668,-21.321c-11.279,0 -23.001,2.865 -33.908,8.268c-24.818,12.307 -40.276,35.454 -38.351,56.482c-7.42,1.6 -14.488,4.15 -21.064,7.597c-4.572,1.535 -8.741,4.236 -12.405,8.04c-8.717,6.873 -15.624,15.334 -20.392,24.724c-6.218,-0.994 -12.683,-1.523 -19.335,-1.523c-0.772,0 -1.548,0 -2.327,0.021c-27.779,0.519 -53.554,10.461 -70.441,26.897c-7.352,-13.378 -22.796,-21.321 -41.669,-21.321c-10.646,0 -21.686,2.551 -32.063,7.381l1.716,297.364c0,0 269.416,-3.661 404.798,-2.683l-2.45,-416.823Z" style="fill:#fff;fill-rule:nonzero;"/></g></g><g id="Hidden-Characters" serif:id="Hidden Characters"></g></g></g><defs><linearGradient id="_Linear2" x1="0" y1="0" x2="1" y2="0" gradientUnits="userSpaceOnUse" gradientTransform="matrix(4.19652e-14,713.466,-685.344,4.36872e-14,745.403,420.983)"><stop offset="0" style="stop-color:#5d28e3;stop-opacity:1"/><stop offset="1" style="stop-color:#baa9e4;stop-opacity:1"/></linearGradient></defs></svg>