<?xml version="1.0" encoding="UTF-8" standalone="no"?>
<!DOCTYPE svg PUBLIC "-//W3C//DTD SVG 1.1//EN" "http://www.w3.org/Graphics/SVG/1.1/DTD/svg11.dtd">
<svg width="800" height="600" viewBox="0 0 1060 500" preserveAspectRatio="xMidYMin meet" version="1.1" xmlns="http://www.w3.org/2000/svg" xmlns:xlink="http://www.w3.org/1999/xlink" xml:space="preserve" xmlns:serif="http://www.serif.com/" style="fill-rule:evenodd;clip-rule:evenodd;stroke-linejoin:round;stroke-miterlimit:2;">
    <g>
        <path d="M167.618,676.632L167.66,694.486L157.299,694.51L157.252,674.716L167.618,676.632Z" style="fill:rgb(237,211,184);fill-rule:nonzero;"/>
        <path d="M210.221,673.531L212.269,692.822L223.464,691.634L221.194,670.246L210.221,673.531Z" style="fill:rgb(237,211,184);fill-rule:nonzero;"/>
        <path d="M223.305,690.988L213.243,693.243L210.041,696.124L209.841,703.728L236.036,708.591C238.568,705.523 237.528,700.891 233.927,699.199L232.739,698.641L223.305,690.988Z" style="fill:rgb(41,41,73);fill-rule:nonzero;"/>
        <path d="M167.374,693.288L157.012,693.264L153.382,698.037L154.106,705.61L180.697,707.259L181.46,705.532C182.959,702.138 180.782,698.254 177.104,697.764L176.515,697.686L167.374,693.288Z" style="fill:rgb(41,41,73);fill-rule:nonzero;"/>
        <path d="M129.927,508.53L139.988,598.704L143.987,687.12L178.117,687.239L191.772,445.552L136.764,446.415L129.927,508.53Z" style="fill:rgb(140,171,239);fill-rule:nonzero;"/>
        <path d="M231.758,496.527L239.161,584.494L229.788,686.964L196.648,685.974L191.866,586.759L186.256,506.524L180.524,446.72L220.204,445.581L231.758,496.527Z" style="fill:rgb(140,171,239);fill-rule:nonzero;"/>
        <path d="M203.124,309.062L164.647,310.469L144.245,328.761L131.644,396.283L124.658,454.122L214.604,454.527L237.042,448.849L229.988,388.221L218.816,330.238L203.124,309.062Z" style="fill:rgb(71,78,187);fill-rule:nonzero;"/>
        <path d="M167.821,251.657C172.115,247.138 178.279,244.453 184.512,244.387C206.14,244.156 208.232,265.162 204.551,281.615C202.929,288.865 199.523,296.015 193.593,300.491C191.983,301.707 190.16,302.667 188.24,303.351L188.244,303.361C188.6,304.474 188.818,318.032 189.774,317.882C184.766,318.662 179.557,318.115 174.819,316.311C174.883,312.263 174.26,307.292 174.562,302.913C173.952,302.609 173.354,302.277 172.785,301.881C166.909,297.798 164.87,290.154 163.639,283.105C162.04,273.948 160.878,258.963 167.821,251.657Z" style="fill:rgb(234,197,176);fill-rule:nonzero;"/>
        <path d="M171.287,261.431C167.186,266.302 166.888,273.247 167.09,279.611C167.36,288.072 168.23,296.76 172.098,304.291C166.842,300.285 161.587,296.278 156.332,292.271C154.354,290.764 152.321,289.192 151.122,287.014C149.913,284.817 149.68,282.231 149.512,279.728C148.618,266.392 149.245,251.865 157.574,241.411C162.834,234.808 170.926,230.542 179.346,229.933C186.22,229.435 214.98,238.231 203.655,248.932C200.39,252.018 192.337,252.5 188.158,253.623C182.192,255.227 175.484,256.446 171.287,261.431Z" style="fill:rgb(214,112,134);fill-rule:nonzero;"/>
        <path d="M196.347,258.438C197.185,258.486 198.054,258.543 198.79,258.947C199.665,259.426 200.219,260.32 200.705,261.191C207.672,273.691 207.988,289.66 201.522,302.426C212.497,298.905 220.676,288.631 222.851,277.312C225.026,265.992 221.599,253.977 214.777,244.687C208.398,236 198.1,229.236 187.396,230.493C181.013,231.243 175.032,234.915 171.475,240.268C158.043,260.483 183.396,257.69 196.347,258.438Z" style="fill:rgb(214,112,134);fill-rule:nonzero;"/>
        <path d="M400.171,706.744L398.639,714.623L382.127,719.915L376.169,710.743L385.191,704.158L401.703,698.866L400.171,706.744Z" style="fill:rgb(41,41,73);fill-rule:nonzero;"/>
        <path d="M446.181,697.885L446.879,706.059L462.91,712.88L469.88,704.029L461.515,696.531L446.181,697.885Z" style="fill:rgb(41,41,73);fill-rule:nonzero;"/>
        <path d="M376.169,466.126L369.175,491.532L372.801,503.142L372.456,503.102L376.799,570.072L385.983,704.901L401.449,704.341L429.229,546.752L431.251,554.045L446.252,699.691L460.432,698.44L482.404,508.368L482.404,469.824L376.169,466.126Z" style="fill:rgb(41,41,73);fill-rule:nonzero;"/>
        <path d="M439.154,305.668L421.036,304.157C380.549,300.781 377.668,357.229 372.415,385.311C364.807,425.985 361.46,467.659 365.348,508.942C378.081,501.987 395.729,503.435 410.205,502.934C436.867,502.013 464.459,501.283 490.164,505.384C494.964,506.149 492.865,471.569 491.893,465.14C489.911,452.051 487.931,438.962 485.95,425.874C482.37,402.219 478.79,378.563 475.21,354.909C475.105,354.215 475,353.521 474.895,352.827C474.51,350.28 473.657,347.827 472.382,345.589L455.6,316.159C452.183,310.166 446.03,306.241 439.154,305.668Z" style="fill:rgb(140,171,239);fill-rule:nonzero;"/>
        <path d="M441.092,245.995C439.944,242.023 438.407,238.192 436.217,234.691C432.04,228.013 425.088,222.649 417.225,222.183C402.762,221.326 386.818,230.817 385.914,246.263C385.344,256.001 384.302,266.465 387.354,275.908C388.928,280.777 391.861,285.565 395.963,288.708C398.934,290.984 405.077,291.39 407.299,293.975C414.577,302.442 404.579,306.857 417.523,312.382C418.173,312.66 418.847,312.941 419.553,312.93C420.556,312.915 421.445,312.317 422.268,311.742C423.855,310.63 425.444,309.518 427.033,308.407C427.221,308.276 427.414,308.138 427.523,307.937C427.699,307.615 427.617,307.219 427.525,306.863C424.071,293.514 439.384,289.055 442.457,276.755C444.073,270.284 444.513,263.56 443.452,257.015C442.854,253.317 442.133,249.598 441.092,245.995Z" style="fill:rgb(234,197,176);fill-rule:nonzero;"/>
        <path d="M601.24,271.621C605.604,275.987 610.553,279.769 615.912,282.833C610.916,273.221 607.248,262.918 605.047,252.311C604.879,251.502 604.659,250.6 603.957,250.164C603.302,249.756 602.456,249.904 601.708,250.094C588.35,253.498 593.633,264.01 601.24,271.621Z" style="fill:rgb(59,51,135);fill-rule:nonzero;"/>
        <path d="M639.808,285.01C640.612,284.089 641.31,283.112 641.893,282.14C649.959,268.69 649.591,218.24 613.53,224.877C580.787,230.903 601.906,269.553 615.681,283.193C618.291,285.779 621.585,288.394 625.476,289.519C626.518,289.821 626.206,299.961 627.128,301.489C628.975,304.546 633.341,305.447 636.46,304.024C639.163,302.792 641.791,299.051 642.386,296.219C642.816,294.17 639.053,285.875 639.808,285.01Z" style="fill:rgb(234,197,176);fill-rule:nonzero;"/>
        <path d="M640.202,270.442C643.494,272.199 647.367,269.355 649.603,266.368C658.789,254.099 658.612,235.671 649.192,223.581C641.311,213.464 622.924,212.094 627.003,227.462C628.449,232.911 634.872,238.259 636.915,244.086C639.835,252.413 639.917,261.726 640.202,270.442Z" style="fill:rgb(59,51,135);fill-rule:nonzero;"/>
        <path d="M577.81,225.531C567.848,240.766 570.623,261.244 562.849,277.703C577.225,276.889 591.154,269.958 600.475,258.981C609.615,248.216 635.617,230.869 623.528,216.708C611.223,202.294 586.537,212.182 577.81,225.531Z" style="fill:rgb(59,51,135);fill-rule:nonzero;"/>
        <path d="M648.011,698.156L645.352,701.42L644.194,704.926L652.186,717.014L659.736,719.915L668.198,719.189C668.198,719.189 671.824,717.86 669.648,714.959C667.473,712.058 661.671,710.607 661.671,710.607L662.517,700.846L648.011,698.156Z" style="fill:rgb(41,41,73);fill-rule:nonzero;"/>
        <path d="M616.461,698.519L615.373,704.563L609.449,714.838L612.109,718.102L622.021,717.255L628.065,708.673L628.065,691.75L616.702,692.837L616.461,698.519Z" style="fill:rgb(41,41,73);fill-rule:nonzero;"/>
        <path d="M603.164,461.471L597.252,493.867L613.93,700.846L631.387,697.185L660.346,468.401L603.164,461.471Z" style="fill:rgb(41,41,73);fill-rule:nonzero;"/>
        <path d="M694.459,457.218L697.831,590.632L663.946,705.798L644.194,698.454L660.829,595.749L645.556,456.079L694.459,457.218Z" style="fill:rgb(41,41,73);fill-rule:nonzero;"/>
        <path d="M593.09,323.05C589.926,329.931 589.341,337.54 588.295,345.831C586.483,360.201 585.588,374.65 585.385,389.094C585.148,405.885 585.856,422.667 587.183,439.394C587.845,447.759 588.665,456.112 589.598,464.452C590.081,468.772 588.176,479.864 592.852,482.137C595.448,483.4 598.592,483.124 601.53,482.815C627.445,480.094 653.36,477.373 679.275,474.652C683.431,474.216 687.733,473.734 691.329,471.741C697.77,468.17 696.653,461.155 697.671,455.244C699.019,447.411 699.323,439.459 699.163,431.558C698.834,415.304 696.342,399.21 695.171,383.016C693.912,365.605 691.121,342.254 684.519,325.701C681.549,318.709 677.364,312.22 671.648,306.881C664.51,300.213 657.939,298.532 648.325,296.791C647.923,296.718 647.502,296.637 647.193,296.388C646.859,296.12 646.716,295.704 646.587,295.311C645.974,293.437 645.36,291.563 644.747,289.69C644.516,288.983 644.229,288.21 643.534,287.856C642.866,287.515 642.039,287.676 641.295,287.845C634.855,289.309 628.417,290.773 621.979,292.237C622.332,293.708 622.688,295.218 622.464,296.716C622.239,298.214 621.307,299.722 619.786,300.261C613.199,302.599 606.318,307.792 600.995,312.511C597.279,315.805 594.806,319.32 593.09,323.05Z" style="fill:rgb(214,112,134);fill-rule:nonzero;"/>
        <path d="M778.322,276.012C780.715,273.553 782.714,270.827 784.884,267.995C785.397,267.326 785.919,266.641 786.194,265.843C786.527,264.881 786.475,263.834 786.419,262.817C786.337,261.339 786.255,259.862 786.174,258.385C786.123,257.464 786.068,256.527 785.751,255.66C784.934,253.428 782.613,252.179 780.48,251.13C780.045,250.916 779.587,250.697 779.102,250.714C778.29,250.744 777.632,251.453 777.395,252.23C776.643,254.694 776.876,255.609 775.11,257.917C773.606,259.882 772.025,261.834 770.055,263.354C769.474,262.454 769.618,261.283 769.589,260.121C769.564,259.147 769.441,257.998 768.594,257.517C767.465,256.877 766.117,257.991 765.528,259.148C764.346,261.467 764.359,264.188 763.817,266.734C763.011,270.52 759.145,276.174 761.977,279.296C763.699,281.194 766.566,282.609 768.661,284.12C770.909,282.307 773.158,280.494 775.407,278.68C776.456,277.835 777.417,276.943 778.322,276.012Z" style="fill:rgb(254,231,222);fill-rule:nonzero;"/>
        <path d="M659.059,333.167C656.241,330.309 653.477,327.398 650.768,324.437C644.782,317.896 636.652,308.882 640.444,299.753C644.707,289.49 655.643,290.247 663.748,294.356C672.967,299.028 695.949,324.481 705.168,329.153C705.168,329.153 739.268,294.47 759.969,273.653C762.956,275.959 769.323,278.361 770.57,282.203C773.496,291.212 753.624,316.061 748.842,323.182C737.688,339.789 724.177,354.813 708.815,367.631C707.562,368.677 706.192,369.753 704.566,369.908C702.593,370.096 700.785,368.888 699.183,367.721C684.896,357.322 671.463,345.751 659.059,333.167Z" style="fill:rgb(214,112,134);fill-rule:nonzero;"/>
        <path d="M653.627,666.787L461.186,666.638C457.04,666.635 453.682,663.296 453.684,659.181L453.932,346.279C453.934,342.164 457.299,338.831 461.444,338.834L653.886,338.983C658.031,338.986 661.39,342.325 661.387,346.44L661.14,659.342C661.137,663.457 657.773,666.791 653.627,666.787Z" style="fill:rgb(47,55,137);fill-rule:nonzero;"/>
        <path d="M650.021,636.32L464.413,636.176L464.634,356.228L650.241,356.372L650.021,636.32Z" style="fill:rgb(221,218,232);fill-rule:nonzero;"/>
        <path d="M568.528,654.497L546.304,654.479L546.308,649.389L568.532,649.406L568.528,654.497Z" style="fill:white;fill-rule:nonzero;"/>
        <path d="M650.021,636.32L464.413,636.176L464.604,395.088L650.021,636.32Z" style="fill:rgb(216,213,227);fill-rule:nonzero;"/>
        <path d="M279.57,224.451L276.924,103.193C276.903,102.229 277.668,101.43 278.633,101.409L491.408,96.768C492.372,96.747 493.172,97.511 493.192,98.476L495.838,219.733C495.858,220.698 495.094,221.496 494.13,221.517L281.354,226.159C280.39,226.18 279.591,225.415 279.57,224.451Z" style="fill:rgb(47,55,137);fill-rule:nonzero;"/>
        <path d="M309.193,216.294L306.875,110.05L482.102,106.228L484.42,212.472L309.193,216.294Z" style="fill:rgb(247,247,247);fill-rule:nonzero;"/>
        <path d="M287.264,176.489L286.703,150.774C286.689,150.164 287.173,149.659 287.782,149.646L294.737,149.494C295.347,149.481 295.852,149.964 295.865,150.574L296.426,176.289C296.439,176.899 295.956,177.404 295.346,177.417L288.392,177.569C287.782,177.582 287.277,177.099 287.264,176.489Z" style="fill:white;fill-rule:nonzero;"/>
        <path d="M819.226,259.445L717.501,276.203C716.549,276.36 715.65,275.715 715.493,274.763L686.025,95.885C685.868,94.933 686.513,94.034 687.465,93.877L789.189,77.12C790.141,76.963 791.04,77.607 791.196,78.559L820.665,257.438C820.821,258.39 820.177,259.288 819.226,259.445Z" style="fill:rgb(71,78,187);fill-rule:nonzero;"/>
        <path d="M809.011,235.334L719.441,250.089L695.105,102.364L784.675,87.609L809.011,235.334Z" style="fill:white;fill-rule:nonzero;"/>
        <path d="M777.831,258.699L756.469,262.219C755.867,262.318 755.299,261.91 755.2,261.309L754.286,255.763C754.188,255.161 754.595,254.593 755.196,254.494L776.559,250.975C777.16,250.876 777.728,251.283 777.827,251.885L778.74,257.431C778.84,258.032 778.433,258.6 777.831,258.699Z" style="fill:white;fill-rule:nonzero;"/>
        <path d="M322.298,571.351L191.015,571.351C190.05,571.351 189.268,570.57 189.268,569.605L189.268,339.449C189.268,338.484 190.05,337.702 191.015,337.702L322.298,337.702C323.262,337.702 324.044,338.484 324.044,339.449L324.044,569.605C324.044,570.57 323.262,571.351 322.298,571.351Z" style="fill:rgb(41,41,73);fill-rule:nonzero;"/>
        <rect x="199.265" y="349.861" width="114.783" height="189.309" style="fill:white;fill-rule:nonzero;"/>
        <path d="M270.636,561.913L242.677,561.913C242.067,561.913 241.573,561.419 241.573,560.809L241.573,553.119C241.573,552.509 242.067,552.015 242.677,552.015L270.636,552.015C271.246,552.015 271.74,552.509 271.74,553.119L271.74,560.809C271.74,561.419 271.246,561.913 270.636,561.913Z" style="fill:white;fill-rule:nonzero;"/>
        <path d="M223.128,456.661C223.486,456.833 223.859,456.958 224.257,457.007C228.04,457.474 232.858,456.117 236.529,455.274C239.367,454.622 239.733,450.87 240.122,448.583C240.235,447.918 240.331,447.171 239.935,446.625C239.706,446.309 239.345,446.115 238.979,445.979C236.88,445.193 234.822,446.343 232.708,446.283C231.774,446.256 230.577,446.14 230,445.288C228.662,443.31 231.615,443.258 232.828,442.806C232.868,439.516 230.165,440.169 227.835,440.491C224.956,440.888 222.104,441.488 219.31,442.285C217.138,442.903 216.032,442.962 215.644,445.266C215.546,445.843 214.326,451.042 214.569,451.193C216.551,452.426 218.534,453.658 220.506,454.906C221.379,455.458 222.2,456.216 223.128,456.661Z" style="fill:rgb(234,197,176);fill-rule:nonzero;"/>
        <path d="M176.48,339.456C176.746,341.049 176.398,342.712 176.049,344.307C174.213,352.69 172.56,361.12 171.071,369.571C169.707,377.316 166.002,388.354 167.115,396.148C168.059,402.752 176.876,409.207 181.712,414.079C187.52,419.93 193.562,425.618 200.337,430.347C202.971,432.185 219.494,438.898 218.794,442.506C217.855,446.864 216.917,451.218 215.87,455.553C215.994,455.04 192.322,445.73 190.459,444.938C175.399,438.534 162.495,429.702 149.688,419.337C147.229,417.347 144.75,415.257 143.167,412.517C141.803,410.157 141.186,407.452 140.585,404.792C137.43,390.817 138.525,376.465 140.094,362.362C140.836,355.684 140.51,347.52 142.394,341.107C144.144,335.149 149.71,329.144 153.74,324.504C154.521,323.606 155.359,322.694 156.463,322.248C162.694,319.734 170.317,330.961 173.571,334.57C174.713,335.837 175.877,337.175 176.339,338.817C176.398,339.028 176.445,339.241 176.48,339.456Z" style="fill:rgb(71,78,187);fill-rule:nonzero;"/>
        <path d="M439.3,261.803C437.333,264.309 428.042,263.273 424.826,263.453C421.211,263.656 419.533,263.477 418.946,259.129C418.798,258.026 418.877,256.903 418.898,255.776C418.99,255.766 419.084,255.752 419.184,255.723C424.113,254.27 429.114,253.246 434.235,252.956C435.397,252.892 436.561,252.861 437.725,252.862C439.927,252.668 440.709,253.758 440.071,256.133C440.176,258.118 440.535,260.23 439.3,261.803ZM405.2,259.23C404.884,261.754 404.54,261.918 402.19,262.108C400.38,262.254 398.571,262.412 396.765,262.618C393.46,262.995 390.178,263.523 386.907,264.141C386.917,261.967 385.551,256.556 387.183,254.795C388.692,253.167 394.483,254.088 396.592,254.156C400.279,254.277 405.895,253.668 405.2,259.23ZM447.287,250.142C446.035,250.79 444.916,251.947 443.922,252.934C443.649,253.204 443.365,253.482 443.082,253.767C442.789,252.249 442.285,251 441.526,250.423C439.398,248.803 434.639,249.842 432.258,250.032C427.589,250.406 423.042,251.307 418.541,252.653C418.049,252.8 417.735,253.126 417.568,253.512C417.455,253.602 417.356,253.714 417.304,253.862C416.716,255.487 416.353,257.547 416.279,259.585L416.244,259.575C414.301,259.419 412.323,259.507 410.374,259.551C409.686,259.567 408.952,259.517 408.254,259.584C408.261,259.077 408.252,258.551 408.239,258.005C408.161,254.828 408.286,252.363 404.962,251.582C398.767,250.127 391.527,250.7 385.247,251.195C383.59,251.325 383.176,253.596 384.22,254.292C382.774,257.662 383.82,262.326 383.974,265.915C384.017,266.931 384.751,267.703 385.772,267.503C391.98,266.286 398.407,266.296 404.562,265.078C406.711,264.653 407.63,263.527 408.009,261.975C408.722,262.085 409.485,262.049 410.243,262.079C412.189,262.158 414.163,262.28 416.109,262.159C416.2,262.153 416.27,262.117 416.351,262.097C416.429,262.873 416.552,263.621 416.744,264.3C417.425,266.696 418.851,266.439 421.036,266.428C425.888,266.403 430.761,266.109 435.607,265.876C437.854,265.767 440.598,265.974 442.121,263.868C442.984,262.675 443.462,259.663 443.386,256.756C444.126,256.106 444.815,255.385 445.543,254.732C446.613,253.77 447.851,252.893 448.774,251.792C449.546,250.874 448.236,249.65 447.287,250.142Z" style="fill:rgb(41,41,73);fill-rule:nonzero;"/>
        <path d="M321.033,228.593L310.622,230.512L305.449,213.681L313.443,206.052L322.645,208.459L320.104,216.452L322.056,216.092L323.636,213.749L325.96,215.373L321.033,228.593Z" style="fill:rgb(234,197,176);fill-rule:nonzero;"/>
        <path d="M399.526,338.177C403.926,322.927 406.9,308.592 406.657,308.6C395.762,308.96 384.863,309.332 373.96,309.343C367.057,309.35 357.27,312.607 352.893,307.378C347.32,300.719 345.145,285.304 342.246,277.02C339.015,267.785 335.783,258.55 332.552,249.314C330.642,243.854 327.348,226.766 322.332,225.261C321.27,224.943 308.282,227.52 308.258,227.282C309.562,241.451 310.865,255.619 312.169,269.787C313.143,280.378 314.118,290.969 315.092,301.56C316.805,320.172 322.105,327.153 336.124,339.352C350.016,351.442 364.857,362.379 379.668,373.303C386.162,378.092 393.978,357.407 399.526,338.177Z" style="fill:rgb(140,171,239);fill-rule:nonzero;"/>
        <rect x="480.375" y="443.711" width="145.933" height="34.5" style="fill:white;fill-rule:nonzero;"/>
        <rect x="483.172" y="514.337" width="145.932" height="34.5" style="fill:white;fill-rule:nonzero;"/>
        <path d="M498.66,538.137L496.194,536.331L499.39,532.406L494.457,531.051L495.43,528.134L500.153,529.94L499.91,524.869L502.967,524.869L502.724,529.905L507.482,528.134L508.42,531.051L503.522,532.371L506.719,536.331L504.218,538.137L501.438,533.9L498.66,538.137Z" style="fill:rgb(214,112,134);fill-rule:nonzero;"/>
        <path d="M518.288,538.137L515.822,536.331L519.018,532.406L514.085,531.051L515.057,528.134L519.781,529.94L519.538,524.869L522.594,524.869L522.352,529.905L527.11,528.134L528.048,531.051L523.15,532.371L526.347,536.331L523.846,538.137L521.065,533.9L518.288,538.137Z" style="fill:rgb(214,112,134);fill-rule:nonzero;"/>
        <path d="M537.916,538.137L535.45,536.331L538.646,532.406L533.713,531.051L534.686,528.134L539.409,529.94L539.166,524.869L542.223,524.869L541.979,529.905L546.738,528.134L547.676,531.051L542.778,532.371L545.974,536.331L543.474,538.137L540.694,533.9L537.916,538.137Z" style="fill:rgb(214,112,134);fill-rule:nonzero;"/>
        <path d="M557.544,538.137L555.078,536.331L558.273,532.406L553.341,531.051L554.313,528.134L559.037,529.94L558.794,524.869L561.851,524.869L561.607,529.905L566.366,528.134L567.304,531.051L562.406,532.371L565.602,536.331L563.102,538.137L560.322,533.9L557.544,538.137Z" style="fill:rgb(214,112,134);fill-rule:nonzero;"/>
        <path d="M890.26,696.476L890.26,703.825L871.412,713.25L861.987,703.825L871.412,694.401L872.628,694.401L872.931,696.476L890.26,696.476Z" style="fill:rgb(41,41,73);fill-rule:nonzero;"/>
        <path d="M936.677,694.401L937.978,694.401L947.401,703.825L937.978,713.25L919.13,703.825L919.13,696.476L936.459,696.476L936.677,694.401Z" style="fill:rgb(41,41,73);fill-rule:nonzero;"/>
        <path d="M981.186,463.101C981.009,457.778 980.693,453.323 980.649,451.73C980.25,437.318 978.871,422.822 976.915,408.282C975.148,395.155 972.905,381.993 970.477,368.768C966.668,348.03 963.205,329.757 955.57,310.034C952.858,303.029 950.076,295.899 945.395,290.067C939.069,282.185 926.145,276.528 916.115,276.87C915.936,277.282 915.193,281.956 915.695,281.896C915.542,281.914 915.389,281.933 915.236,281.951L917.365,281.931L928.9,305.805C928.9,305.805 931.278,368.22 931.813,387.119C931.99,393.402 933.93,404.989 936.41,417.542C941.225,441.9 948.08,469.903 948.08,469.903C948.08,469.903 947.135,471.334 939.535,470.932C944.055,472.137 948.46,473.66 952.585,475.657C954.644,476.654 956.553,477.772 958.393,478.948C963.629,482.295 968.307,486.125 974.245,489.059C975.006,489.435 975.839,489.824 976.703,489.719C981.319,489.162 981.557,474.25 981.186,463.101Z" style="fill:rgb(47,55,137);fill-rule:nonzero;"/>
        <path d="M901.38,277.51C898.754,277.989 896.207,278.644 893.786,279.492C880.234,284.243 872.495,293.809 867.91,307.39C864.22,318.316 860.53,329.243 856.84,340.17C853.811,349.143 850.779,358.12 848.152,367.222C841.275,391.051 837.21,415.608 834.224,440.223C832.727,452.564 831.501,464.937 830.32,477.313C829.597,484.898 831.923,483.427 837.229,479.716C840.82,477.202 844.338,473.998 848.662,472.831C849.414,472.628 850.174,472.412 850.937,472.189C861.551,469.084 873.048,464.294 884.133,464.394C885.311,464.405 886.49,464.436 887.669,464.464C871.73,463.255 860.714,462.991 860.714,462.991C860.714,462.991 863.096,440.016 865.148,418.751C866.445,405.314 867.611,392.558 867.962,386.715C868.884,371.344 893.979,282.158 893.979,282.158L902.873,282.072C902.063,281.125 901.695,279.679 901.538,278.375C901.502,278.075 901.443,277.791 901.38,277.51Z" style="fill:rgb(47,55,137);fill-rule:nonzero;"/>
        <path d="M850.937,472.189C861.55,469.084 873.048,464.295 884.134,464.394C885.311,464.405 886.49,464.436 887.669,464.464C888.655,464.539 889.66,464.618 890.684,464.7C898.111,465.297 906.458,466.095 915.172,467.153C915.6,467.205 916.025,467.255 916.455,467.309C927.601,469.734 934.837,470.683 939.535,470.932C944.055,472.137 948.46,473.66 952.585,475.657C954.644,476.654 956.552,477.772 958.394,478.948L958.452,491.058L937.203,696.754L919.781,696.754L919.781,698.848L919.682,698.848L900.525,560.877L900.446,560.1L889.951,698.848L889.852,698.848L889.852,696.754L872.345,696.754L850.14,542.248L850.937,472.189Z" style="fill:rgb(47,55,137);fill-rule:nonzero;"/>
        <path d="M860.714,462.991C860.714,462.991 871.731,463.255 887.669,464.464C888.655,464.539 889.661,464.618 890.684,464.7C898.111,465.297 906.458,466.095 915.172,467.153C915.6,467.205 916.025,467.255 916.455,467.309C927.601,469.734 934.837,470.683 939.535,470.932C947.135,471.335 948.08,469.903 948.08,469.903C948.08,469.903 941.224,441.9 936.41,417.542C933.93,404.989 931.99,393.403 931.813,387.119C931.08,367.345 930.617,347.563 930.023,327.786C929.728,317.908 929.401,308.03 928.992,298.156C928.811,293.774 929.566,287.649 925.991,284.345C920.554,279.322 913.649,283.057 907.412,282.845C902.761,282.687 895.842,280.602 892.734,285.394C890.824,288.341 890.47,294.778 889.479,298.386C886.539,309.093 883.645,319.813 880.821,330.552C876.083,348.572 869.086,367.993 867.962,386.714C867.611,392.558 866.445,405.314 865.148,418.751C863.096,440.016 860.714,462.991 860.714,462.991Z" style="fill:white;fill-rule:nonzero;"/>
        <path d="M886.75,225.078C884.518,229.579 883.59,234.679 883.627,239.72C883.637,241.061 883.625,242.61 882.603,243.455C881.507,244.36 882.601,246.162 881.678,245.077C880.755,243.991 877.616,240.218 877.411,238.798C876.933,235.471 876.767,232.098 876.916,228.739C877.047,225.818 877.477,222.75 879.234,220.436C880.277,219.064 881.71,218.063 883.122,217.091C885.17,215.682 887.281,214.258 889.686,213.671C893.829,212.66 896.473,214.052 892.932,217.212C890.395,219.476 888.279,221.994 886.75,225.078Z" style="fill:rgb(41,41,73);fill-rule:nonzero;"/>
        <path d="M916.095,280.826C916.022,282.473 915.71,284.03 914.851,285.388C913.992,286.745 912.606,287.674 911.201,288.45C909.45,289.416 907.554,290.219 905.558,290.325C903.561,290.431 901.44,289.74 900.205,288.168C896.583,283.561 896.584,273.664 896.144,268.084C891.086,267.473 885.106,266.133 883.123,260.882C882.498,259.228 882.386,257.4 882.282,255.611C881.854,248.215 881.427,240.819 880.999,233.423C880.851,230.865 880.711,228.229 881.453,225.809C882.754,221.563 886.47,218.878 890.158,217.118C899.57,212.626 910.784,212.198 919.945,217.406C922.383,218.792 924.71,220.617 926.204,223.182C928.507,227.136 928.497,232.168 928.409,236.875C928.328,241.219 928.246,245.564 928.165,249.908C928.071,254.905 927.626,260.675 923.958,263.504C922.01,265.005 919.414,265.398 917.766,267.296C914.619,270.919 916.297,276.223 916.095,280.826Z" style="fill:rgb(234,197,176);fill-rule:nonzero;"/>
        <path d="M899.957,260.28C902.207,261.653 904.485,261.553 906.86,260.688C908.08,260.244 908.712,262.328 907.494,262.772C904.628,263.816 901.744,263.87 899.042,262.221C897.917,261.535 898.825,259.589 899.957,260.28ZM881.195,259.986C882.327,264.544 884.74,268.827 888.557,271.221C892.883,273.934 898.136,273.868 903.102,273.728C905.817,273.651 908.534,273.574 911.25,273.497C918.122,273.302 924.905,272.042 928.064,264.506C929.521,261.032 929.84,257.064 929.406,253.255C929.287,252.208 929.101,251.135 928.566,250.255C928.032,249.375 927.07,248.73 926.126,248.915C924.918,249.152 924.255,250.522 923.523,251.598C921.929,253.947 918.974,255.365 916.474,254.285C915.732,253.965 915.08,253.457 914.43,252.944C914.164,252.734 913.898,252.524 913.627,252.324C910.94,250.347 907.732,249.543 904.554,249.289C901.796,249.069 897.711,248.254 895.798,250.733C894.685,252.176 893.571,253.618 892.458,255.06C892,255.654 891.53,256.26 890.919,256.657C890.29,257.066 889.55,257.228 888.817,257.279C886.976,257.409 884.863,256.652 884.141,254.784C883.826,253.97 883.82,253.063 883.743,252.184C883.665,251.307 883.487,250.379 882.923,249.746C880.767,247.326 880.381,251.377 880.369,252.753C880.348,255.186 880.611,257.632 881.195,259.986Z" style="fill:rgb(41,41,73);fill-rule:nonzero;"/>
        <path d="M877.303,212.717C876.732,210.949 876.286,209.14 875.968,207.308C877.676,207.819 879.513,207.883 881.251,207.491C881.201,206.427 881.152,205.363 881.103,204.299C881.065,203.413 892.804,202.177 893.757,202.047C902.673,200.832 910.825,199.692 919.169,204.155C926.297,207.967 931.046,213.969 932.519,222.027C933.925,229.726 931.942,239.98 927.86,246.645C927.781,244.58 928.702,239.651 928.125,237.715C927.731,235.765 926.968,233.904 925.958,232.203C923.941,228.806 920.943,226.015 917.546,224.089C912.128,221.02 905.937,219.571 899.799,219.026C894.176,218.528 887.335,218.155 881.895,219.948C879.28,220.809 878.874,221.509 877.131,218.871C876.823,218.406 874.295,212.921 874.515,212.906C875.443,212.843 876.373,212.78 877.303,212.717Z" style="fill:rgb(41,41,73);fill-rule:nonzero;"/>
        <path d="M941.484,536.082L824.915,569.58C823.988,569.846 823.021,569.311 822.754,568.384L763.975,363.836C763.708,362.909 764.244,361.941 765.171,361.675L881.74,328.177C882.667,327.911 883.635,328.446 883.901,329.373L942.681,533.921C942.947,534.848 942.411,535.816 941.484,536.082Z" style="fill:rgb(41,41,73);fill-rule:nonzero;"/>
        <path d="M926.039,508.521L823.903,537.871L775.496,369.42L877.633,340.07L926.039,508.521Z" style="fill:rgb(140,171,239);fill-rule:nonzero;"/>
        <path d="M893.147,539.881L868.426,546.985C867.84,547.153 867.229,546.815 867.061,546.229L865.139,539.543C864.971,538.957 865.309,538.345 865.895,538.177L890.616,531.073C891.202,530.905 891.813,531.243 891.981,531.829L893.903,538.515C894.071,539.101 893.733,539.713 893.147,539.881Z" style="fill:white;fill-rule:nonzero;"/>
        <path d="M822.497,420.526C823.838,424.92 821.363,429.569 816.969,430.91C812.574,432.251 807.925,429.776 806.584,425.382C805.243,420.987 807.718,416.338 812.112,414.997C816.507,413.656 821.156,416.131 822.497,420.526Z" style="fill:white;fill-rule:nonzero;"/>
        <path d="M854.589,410.733C855.93,415.127 853.454,419.777 849.06,421.118C844.665,422.458 840.016,419.983 838.675,415.589C837.334,411.194 839.81,406.545 844.204,405.204C848.599,403.863 853.248,406.338 854.589,410.733Z" style="fill:white;fill-rule:nonzero;"/>
        <path d="M886.68,400.94C888.021,405.334 885.546,409.984 881.151,411.325C876.757,412.666 872.107,410.19 870.767,405.796C869.426,401.402 871.901,396.752 876.295,395.411C880.689,394.07 885.339,396.546 886.68,400.94Z" style="fill:white;fill-rule:nonzero;"/>
        <path d="M832.62,453.697C833.961,458.092 831.485,462.741 827.091,464.082C822.696,465.423 818.047,462.948 816.706,458.553C815.365,454.159 817.841,449.51 822.235,448.169C826.629,446.828 831.278,449.303 832.62,453.697Z" style="fill:white;fill-rule:nonzero;"/>
        <path d="M864.711,443.905C866.052,448.299 863.577,452.948 859.183,454.289C854.788,455.63 850.139,453.155 848.798,448.761C847.457,444.366 849.932,439.717 854.326,438.376C858.721,437.035 863.37,439.51 864.711,443.905Z" style="fill:white;fill-rule:nonzero;"/>
        <path d="M896.803,434.112C898.144,438.506 895.668,443.156 891.273,444.497C886.88,445.838 882.23,443.362 880.889,438.968C879.548,434.573 882.023,429.924 886.418,428.583C890.813,427.242 895.462,429.717 896.803,434.112Z" style="fill:white;fill-rule:nonzero;"/>
        <path d="M842.742,486.869C844.083,491.264 841.607,495.913 837.214,497.254C832.819,498.595 828.17,496.12 826.829,491.725C825.487,487.331 827.963,482.682 832.357,481.341C836.752,480 841.401,482.475 842.742,486.869Z" style="fill:white;fill-rule:nonzero;"/>
        <path d="M874.834,477.077C876.175,481.471 873.699,486.12 869.305,487.461C864.91,488.802 860.261,486.327 858.92,481.933C857.579,477.538 860.055,472.889 864.449,471.548C868.844,470.207 873.493,472.682 874.834,477.077Z" style="fill:white;fill-rule:nonzero;"/>
        <path d="M906.925,467.284C908.266,471.678 905.791,476.328 901.396,477.668C897.002,479.01 892.353,476.534 891.012,472.14C889.671,467.745 892.146,463.096 896.54,461.755C900.935,460.414 905.584,462.889 906.925,467.284Z" style="fill:white;fill-rule:nonzero;"/>
        <path d="M849.657,378.552L824.8,386.138L823.351,381.389L848.208,373.804L849.657,378.552Z" style="fill:white;fill-rule:nonzero;"/>
        <path d="M335.561,166.256L374.019,165.067L373.552,149.994L375.736,149.926L376.202,165L381.205,164.845L380.739,149.771L383.919,149.673L384.385,164.747L386.886,164.669L386.42,149.596L385.543,149.623L458.245,147.375L458.711,162.449L335.561,166.256ZM459.032,146.337L334.245,150.196L334.773,167.294L459.561,163.435L459.032,146.337Z" style="fill:rgb(214,112,134);fill-rule:nonzero;"/>
        <path d="M739.505,157.46C740.896,160.184 742.289,162.908 743.682,165.632C744.34,166.92 746.279,165.784 745.622,164.498C744.229,161.774 742.837,159.05 741.444,156.326C740.786,155.038 738.847,156.173 739.505,157.46Z" style="fill:rgb(48,83,153);fill-rule:nonzero;"/>
        <path d="M756.01,156.091C755.056,158.654 754.529,161.306 754.39,164.036C754.315,165.481 756.563,165.477 756.636,164.036C756.767,161.498 757.29,159.068 758.176,156.688C758.681,155.331 756.51,154.745 756.01,156.091Z" style="fill:rgb(48,83,153);fill-rule:nonzero;"/>
        <path d="M731.511,174.484C733.551,174.991 735.591,175.499 737.631,176.006C739.034,176.356 739.633,174.189 738.229,173.84C736.188,173.332 734.148,172.825 732.108,172.317C730.705,171.968 730.106,174.134 731.511,174.484Z" style="fill:rgb(48,83,153);fill-rule:nonzero;"/>
        <path d="M738.737,191.571C740.22,189.998 741.703,188.424 743.187,186.851C744.178,185.799 742.592,184.207 741.598,185.262C740.114,186.835 738.631,188.409 737.148,189.983C736.157,191.034 737.743,192.626 738.737,191.571Z" style="fill:rgb(48,83,153);fill-rule:nonzero;"/>
        <path d="M751.229,191.183C752.041,193.203 752.854,195.224 753.666,197.244C754.199,198.569 756.373,197.99 755.833,196.647C755.021,194.626 754.208,192.606 753.396,190.586C752.863,189.261 750.688,189.839 751.229,191.183Z" style="fill:rgb(48,83,153);fill-rule:nonzero;"/>
        <path d="M762.144,184.264C763.934,184.752 765.725,185.241 767.515,185.73C768.911,186.111 769.508,183.944 768.112,183.563C766.321,183.074 764.531,182.586 762.741,182.097C761.344,181.716 760.748,183.883 762.144,184.264Z" style="fill:rgb(48,83,153);fill-rule:nonzero;"/>
        <path d="M763.716,170.212C766.025,169.228 768.335,168.244 770.645,167.259C771.971,166.694 770.827,164.758 769.511,165.319C767.201,166.303 764.892,167.288 762.582,168.272C761.256,168.837 762.399,170.773 763.716,170.212Z" style="fill:rgb(48,83,153);fill-rule:nonzero;"/>
        <path d="M267.561,451.195C265.949,447.584 261.911,445.256 258.092,446.757C256.42,447.413 257.151,450.144 258.842,449.476C261.709,448.345 264.559,450.432 265.311,453.221C266.055,455.977 264.971,459.03 263.958,461.559C262.329,465.623 260.329,469.563 258.271,473.422C256.172,477.355 253.921,481.206 251.557,484.985C249.171,488.8 246.77,492.855 243.176,495.66C239.71,498.365 234.522,499.737 230.763,496.782C226.743,493.621 227.908,487.519 229.144,483.284C231.682,474.585 236.083,466.693 241.342,459.368C242.075,458.349 240.392,457.033 239.59,458.016C235.486,463.051 232.142,468.618 229.563,474.581C227.378,479.633 225.011,485.452 225.374,491.068C226.046,501.472 237.42,503.515 244.716,497.939C249.371,494.38 252.422,488.891 255.417,483.981C258.837,478.374 261.993,472.602 264.756,466.642C266.876,462.069 269.827,456.274 267.561,451.195Z" style="fill:rgb(47,55,137);fill-rule:nonzero;"/>
        <path d="M246.365,455.021C248.034,458.606 252.107,460.87 255.903,459.309C257.562,458.626 256.79,455.908 255.11,456.602C252.261,457.778 249.379,455.736 248.583,452.96C247.795,450.216 248.831,447.146 249.804,444.601C251.369,440.513 253.305,436.542 255.303,432.65C257.338,428.684 259.53,424.799 261.834,420.983C264.16,417.131 266.497,413.039 270.045,410.177C273.469,407.418 278.634,405.964 282.439,408.859C286.509,411.956 285.44,418.076 284.271,422.33C281.87,431.068 277.594,439.029 272.451,446.436C271.735,447.467 273.439,448.756 274.225,447.76C278.249,442.661 281.504,437.042 283.989,431.039C286.094,425.953 288.369,420.097 287.918,414.487C287.082,404.096 275.677,402.232 268.47,407.923C263.871,411.554 260.907,417.09 257.989,422.047C254.659,427.707 251.594,433.529 248.926,439.531C246.878,444.137 244.019,449.978 246.365,455.021Z" style="fill:rgb(47,55,137);fill-rule:nonzero;"/>
        <path d="M908.487,423.725C908.175,423.889 907.844,424.073 907.688,424.389C907.512,424.743 907.605,425.166 907.702,425.55C907.956,426.557 908.21,427.564 908.464,428.572C908.448,428.514 911.727,428.131 912.272,428.641C913.701,429.97 912.461,431.811 911.389,432.851C909.403,434.778 907.418,436.704 905.433,438.63C906.431,439.962 907.429,441.293 908.427,442.625C908.701,442.991 908.98,443.362 909.347,443.637C913.757,446.944 919.766,439.863 921.704,436.747C923.629,433.655 924.883,430.195 925.937,426.708C926.025,426.413 926.114,426.097 926.027,425.801C925.924,425.448 925.601,425.213 925.299,425.003C923.017,423.415 920.104,419.909 917.187,419.792C914.365,419.679 910.874,422.473 908.487,423.725Z" style="fill:rgb(234,197,176);fill-rule:nonzero;"/>
        <path d="M940.653,379.494C941.041,383.194 941.071,386.905 939.476,390.117C935.634,397.847 930.139,404.664 924.181,410.858C921.788,413.345 918.492,414.897 915.91,417.184C914.499,418.435 912.85,419.658 913.445,421.507C914.028,423.316 917.94,425.896 919.341,427.239C920.334,428.191 922.854,431.85 924.132,432.033C925.778,432.269 928.682,429.305 929.952,428.367C933.924,425.435 937.772,422.334 941.46,419.05C953.115,408.675 960.206,396.159 970.083,384.392C971.538,382.66 973.048,380.809 973.403,378.574C973.687,376.796 973.197,374.996 972.713,373.262C967.81,355.719 962.906,338.176 958.003,320.633C955.68,312.32 953.109,303.584 946.876,297.613C944.482,295.321 940.954,293.464 937.949,294.861C934.271,296.572 934.047,301.631 934.375,305.674C935.571,320.425 936.769,335.175 937.966,349.926C938.564,357.301 939.163,364.677 939.762,372.052C939.954,374.417 940.388,376.953 940.653,379.494Z" style="fill:rgb(47,55,137);fill-rule:nonzero;"/>
    </g>
</svg>
