<?xml version="1.0" encoding="UTF-8" standalone="no"?>
<!DOCTYPE svg PUBLIC "-//W3C//DTD SVG 1.1//EN" "http://www.w3.org/Graphics/SVG/1.1/DTD/svg11.dtd">
<svg width="800" height="600" viewBox="0 0 1000 800" preserveAspectRatio="xMidYMin meet" version="1.1" xmlns="http://www.w3.org/2000/svg" xmlns:xlink="http://www.w3.org/1999/xlink" xml:space="preserve" xmlns:serif="http://www.serif.com/" style="fill-rule:evenodd;clip-rule:evenodd;stroke-linejoin:round;stroke-miterlimit:2;">
    <g>
        <path d="M191.812,559.103C190.795,557.612 189.608,556.134 187.969,555.436C186.946,555 185.819,554.901 184.713,554.842C179.245,554.547 174.273,555.851 168.917,556.231C164.693,556.532 161.804,555.987 159.355,560.435C158.03,562.843 157.57,565.617 157.137,568.331C152.116,599.772 148.008,631.352 143.899,662.925C142.919,670.465 141.938,678.004 140.957,685.543C140.572,688.498 140.188,691.453 139.804,694.408C138.1,707.505 136.396,720.603 134.691,733.7C134.381,736.09 133.231,738.093 132.441,740.256L132.393,740.259L118.345,750.29L115.779,754.865L121.908,757.828L136.113,755.198L145.916,748.548L146.054,742.586C146.077,740.397 146.295,738.318 146.797,736.179C147.777,732.003 149.321,727.932 150.676,723.867C152.715,716.93 154.834,710.017 156.896,703.086C161.39,687.979 165.78,672.839 170.122,657.686C174.589,642.094 179.612,626.66 184.253,611.121C188.478,596.974 200.909,572.449 191.812,559.103Z" style="fill:rgb(59,69,90);fill-rule:nonzero;"/>
        <path d="M245.336,568.359C248.291,569.031 251.103,570.364 253.299,572.438C260.303,579.047 255.993,588.913 254.783,597.021C253.226,607.455 252.393,617.973 252.109,628.516C251.551,649.244 250.714,669.965 249.599,690.671C248.707,707.229 243.298,728.6 247.42,744.74L253.345,755.019L250.685,758.284L240.769,757.438C239.435,757.323 234.962,749.542 234.594,748.019C233.277,742.574 234.621,737.162 233.887,731.762C233.293,727.393 231.615,722.912 230.817,718.431C229.566,711.415 228.353,704.393 227.192,697.36C224.915,683.569 222.842,669.743 221.086,655.875C218.853,638.227 216.618,620.579 214.384,602.931C213.428,595.372 211.532,589.811 216.123,583.412C220.303,577.586 225.848,571.783 232.694,569.236C236.078,567.978 239.769,567.553 243.351,568.009C244.016,568.094 244.68,568.21 245.336,568.359Z" style="fill:rgb(59,69,90);fill-rule:nonzero;"/>
        <path d="M258.93,603.677C253.769,603.759 248.608,603.702 243.469,603.254C231.908,602.245 220.614,599.73 208.939,599.76C207.703,593.315 205.718,586.602 205.151,580.115C204.513,572.813 205.927,565.163 206.244,557.859C206.996,540.549 208.233,523.258 209.955,506.017C225.343,505.418 240.63,507.131 255.943,507.052C259.834,507.032 265.188,505.983 267.003,509.555C269.63,514.726 268.524,521.652 269.189,527.259C270.203,535.811 270.99,544.35 271.217,552.963C271.661,569.869 270.365,586.822 267.336,603.461C264.535,603.547 261.732,603.632 258.93,603.677Z" style="fill:rgb(197,204,211);fill-rule:nonzero;"/>
        <path d="M152.151,600.105C148.585,599.741 145.026,599.316 141.476,598.829C140.239,598.66 138.928,598.449 137.992,597.624C136.259,596.095 136.635,593.345 137.157,591.093C142.154,569.537 147.045,547.954 152.148,526.425C152.962,522.995 160.854,488.297 162.884,488.275C177.252,488.424 191.619,488.572 205.987,488.721C207.289,488.734 208.704,488.788 209.703,489.623C210.693,490.45 211.001,491.818 211.241,493.086C214.855,512.2 217.328,531.831 218.671,551.203C219.816,567.74 210.651,582.928 202.532,596.946C201.708,598.369 200.805,599.847 199.372,600.654C198.083,601.38 196.542,601.461 195.063,601.515C180.749,602.031 166.4,601.559 152.151,600.105Z" style="fill:rgb(197,204,211);fill-rule:nonzero;"/>
        <path d="M395.482,319.684C395.353,318.912 395.254,318.133 395.162,317.362C393.338,302.036 394.648,287.762 395.353,272.606C395.921,260.373 397.517,246.21 407.151,237.484C408.627,236.148 415.848,230.043 409.122,229.459C407.481,229.316 405.877,230.757 405.844,232.404C408.17,228.431 409.874,224.095 410.875,219.602C411.023,218.936 411.151,218.215 410.876,217.59C410.658,217.099 410.223,216.745 409.803,216.41C408.192,215.126 406.582,213.843 404.972,212.56C404.748,212.382 404.503,212.195 404.218,212.185C403.881,212.172 403.591,212.406 403.336,212.627C400.465,215.113 397.595,217.599 394.722,220.087C389.863,224.299 391.665,231.122 390.742,236.663C389.709,242.868 387.387,245.628 384.644,250.834C376.918,265.499 372.35,282.032 368.811,298.222C367.364,304.841 366.162,311.641 366.992,318.365C367.918,325.87 371.321,332.837 375.127,339.373C379.926,348.171 385.89,356.704 392.539,364.194C396.141,368.251 400.057,371.899 404.371,375.184C408.63,378.426 410.112,381.547 412.74,386.329C413.076,386.94 413.435,387.576 414.018,387.958C415.673,389.045 417.766,387.516 419.122,386.073C427.126,377.557 434.424,368.377 440.915,358.658C441.889,357.201 442.864,355.682 443.19,353.959C443.854,350.462 441.613,346.946 438.671,344.943C435.728,342.94 432.175,342.099 428.752,341.121C419.709,338.536 411.016,334.732 402.979,329.845C400.862,328.558 398.729,327.136 397.368,325.065C396.313,323.46 395.804,321.593 395.482,319.684Z" style="fill:rgb(239,191,165);fill-rule:nonzero;"/>
        <path d="M532.975,332.92C543.515,327.195 542.915,315.007 545.36,300.282C547.827,285.42 552.146,265.17 542.203,252.02C541.003,250.433 535.047,243.088 541.763,243.768C543.401,243.934 544.709,245.648 544.435,247.272C542.89,242.936 542.024,238.358 541.879,233.757C541.857,233.075 541.865,232.342 542.253,231.78C542.558,231.338 543.052,231.071 543.527,230.821C545.349,229.86 547.17,228.899 548.991,227.939C549.244,227.806 549.52,227.668 549.802,227.711C550.135,227.762 550.377,228.045 550.586,228.31C552.942,231.287 555.299,234.265 557.658,237.245C561.646,242.289 558.604,248.656 558.478,254.272C558.336,260.561 560.104,263.706 561.827,269.332C566.684,285.18 568.09,302.275 568.549,318.841C568.736,325.613 568.649,332.518 566.581,338.97C564.271,346.17 559.629,352.381 554.672,358.092C544.063,370.315 529.097,385.133 513.253,390.218C484.78,399.355 484.941,341.999 510.959,336.986C514.112,336.378 517.354,336.468 520.554,336.184C525.877,335.711 529.899,334.591 532.975,332.92Z" style="fill:rgb(239,191,165);fill-rule:nonzero;"/>
        <path d="M494.199,623.883L492.317,665.648C491.324,677.208 491.657,688.813 491.651,700.394C491.646,711.151 488.806,722.064 493.278,732.311C494.682,735.523 497.941,737.902 500.744,734.463C502.903,731.813 502.284,726.959 502.974,723.771C508.155,699.811 516.481,676.646 521.401,652.624C526.558,627.461 516.695,627.526 494.199,623.883Z" style="fill:rgb(239,191,165);fill-rule:nonzero;"/>
        <path d="M490.356,724.972L487.245,731.767L499.73,744.198L511.792,745.44L516.096,739.301L500.703,724.159L490.356,724.972Z" style="fill:rgb(59,69,90);fill-rule:nonzero;"/>
        <path d="M423.889,622.1L428.26,663.681C429.449,682.221 434.031,700.546 435.221,719.087C435.494,723.35 434.825,727.937 436.273,732.053C437.69,736.078 441.052,736.498 444.237,734.094C448.505,730.872 447.162,724.409 447.47,719.574C449.518,687.363 454.549,655.846 457.698,623.668C457.739,623.246 457.759,622.761 457.453,622.467C457.205,622.228 456.826,622.202 456.481,622.198C453.336,622.16 423.983,622.998 423.889,622.1Z" style="fill:rgb(239,191,165);fill-rule:nonzero;"/>
        <path d="M447.004,726.683L450.696,733.18L439.346,746.655L427.439,748.947L422.616,743.207L436.626,726.777L447.004,726.683Z" style="fill:rgb(59,69,90);fill-rule:nonzero;"/>
        <path d="M530,651.269L538.613,592.365C536.218,558.543 521.503,524.333 519.158,490.392C519.008,488.228 518.762,485.847 517.187,484.354C515.966,483.199 514.215,482.846 512.557,482.569C496.809,479.946 480.755,479.956 464.788,479.973C449.225,479.988 418.657,476.668 410.867,491.981C402.856,507.728 405.202,543.126 404.574,560.946C403.591,588.831 403.361,621.115 406.331,648.865L466.763,647.865L471.845,582.169L481.03,624.999L480.641,651.269L530,651.269Z" style="fill:rgb(196,201,206);fill-rule:nonzero;"/>
        <path d="M508.982,349.649C508.152,347.368 507.008,345.025 505.46,342.543C498.826,331.914 478.198,324.566 465.761,326.226C455.018,327.659 444.462,327.825 434.349,332.277C426.755,335.621 419.875,346.476 415.973,353.247C402.56,376.519 408.008,404.99 408.032,430.653C408.046,444.181 406.734,457.781 406.183,471.295C405.821,480.124 405.493,488.961 405.441,497.798C405.423,500.937 403.905,510.866 406.228,513.498C408.265,515.807 421.26,513.416 425.171,513.295C434.745,512.997 444.324,512.858 453.903,512.88C465.255,512.902 476.605,513.151 487.948,513.621C499.594,514.108 510.319,516.502 521.992,513.862C523.503,513.521 525.094,513.041 526.086,511.864C527.415,510.287 527.258,507.994 527.024,505.954C524.568,484.498 521.538,463.106 517.939,441.809C516.271,431.936 512.839,421.254 512.744,411.263C512.663,402.827 512.801,394.406 512.228,385.855C511.463,374.516 512.892,360.388 508.982,349.649Z" style="fill:rgb(235,176,68);fill-rule:nonzero;"/>
        <path d="M487.703,268.393C490.315,272.97 491.574,278.242 491.806,283.507C491.867,284.907 491.964,286.524 493.095,287.35C494.307,288.235 493.242,290.176 494.163,288.993C495.085,287.809 498.215,283.698 498.355,282.204C498.685,278.705 498.68,275.175 498.34,271.676C498.045,268.634 497.423,265.456 495.433,263.136C494.252,261.761 492.677,260.794 491.125,259.857C488.876,258.498 486.558,257.127 483.974,256.646C479.52,255.816 476.789,257.414 480.719,260.519C483.533,262.744 485.914,265.257 487.703,268.393Z" style="fill:rgb(50,55,107);fill-rule:nonzero;"/>
        <path d="M459.878,328.116C459.907,330.27 459.466,332.505 461.367,334.176C462.28,334.979 463.516,335.302 464.718,335.492C467.824,335.984 471.043,335.756 474.049,334.83C475.285,334.449 476.518,333.932 477.451,333.036C478.554,331.978 478.609,330.974 478.662,329.587C478.725,327.963 479.053,326.312 479.265,324.665C479.729,321.063 479.939,317.431 480.043,313.802C485.379,312.886 491.655,311.161 493.479,305.571C494.054,303.81 494.074,301.896 494.088,300.022C494.145,292.278 494.201,284.534 494.258,276.79C494.277,274.112 494.284,271.352 493.366,268.866C491.757,264.504 487.668,261.905 483.657,260.27C473.424,256.095 461.496,256.262 452.051,262.199C449.536,263.779 447.164,265.812 445.716,268.57C443.483,272.824 443.765,278.077 444.111,282.985C444.431,287.516 444.751,292.047 445.071,296.578C445.439,301.789 446.222,307.788 450.269,310.54C452.418,312.001 455.194,312.27 457.046,314.161C460.278,317.462 458.738,322.393 459.693,326.393C459.827,326.953 459.869,327.531 459.878,328.116Z" style="fill:rgb(239,191,165);fill-rule:nonzero;"/>
        <path d="M476.651,307.839C473.87,309.708 470.807,309.809 467.708,308.876C466.391,308.48 466.949,306.269 468.269,306.667C470.837,307.439 473.261,307.419 475.575,305.863C476.74,305.08 477.809,307.061 476.651,307.839ZM495.966,296.935C495.879,295.499 495.252,291.291 493.093,293.936C492.527,294.627 492.389,295.604 492.354,296.525C492.318,297.446 492.36,298.394 492.07,299.261C491.404,301.25 489.202,302.156 487.24,302.121C486.46,302.107 485.665,301.979 484.976,301.586C484.306,301.205 483.773,300.599 483.255,300.004C481.996,298.559 480.737,297.114 479.478,295.669C477.313,293.186 473.021,294.26 470.104,294.641C466.743,295.08 463.381,296.094 460.635,298.305C460.357,298.528 460.087,298.763 459.815,298.997C459.153,299.567 458.488,300.133 457.719,300.508C455.123,301.771 451.909,300.453 450.089,298.088C449.255,297.005 448.478,295.611 447.183,295.429C446.17,295.288 445.184,296.014 444.663,296.962C444.144,297.91 444.004,299.041 443.934,300.139C443.678,304.139 444.229,308.264 445.962,311.812C449.723,319.505 456.991,320.45 464.297,320.277C467.185,320.209 470.072,320.141 472.96,320.073C478.239,319.948 483.819,319.729 488.267,316.661C492.189,313.953 494.521,309.35 495.478,304.53C495.971,302.041 496.119,299.473 495.966,296.935Z" style="fill:rgb(59,69,90);fill-rule:nonzero;"/>
        <path d="M497.068,254.972C497.578,253.095 497.955,251.183 498.195,249.253C496.408,249.879 494.463,250.046 492.596,249.732C492.591,248.619 492.587,247.505 492.582,246.392C492.574,245.466 480.045,244.817 479.026,244.733C469.496,243.952 460.78,243.208 452.161,248.323C444.8,252.692 440.08,259.217 438.95,267.71C437.871,275.824 440.526,286.421 445.219,293.155C445.192,290.995 443.949,285.899 444.459,283.847C444.771,281.789 445.481,279.806 446.462,277.974C448.42,274.318 451.453,271.24 454.957,269.044C460.543,265.543 467.038,263.692 473.524,262.789C479.468,261.961 486.711,261.197 492.582,262.771C495.404,263.528 495.872,264.236 497.582,261.388C497.883,260.885 500.272,255.021 500.039,255.017C499.049,255.002 498.059,254.987 497.068,254.972Z" style="fill:rgb(59,69,90);fill-rule:nonzero;"/>
        <path d="M525.33,326.119C526.974,325.69 528.707,325.222 530.344,325.679C532.244,326.21 533.586,327.866 534.749,329.459C542.511,340.089 548.293,352.158 551.713,364.867C552.183,366.61 552.598,368.514 551.887,370.174C551.321,371.496 550.136,372.428 549.021,373.337C532.733,386.609 522.58,406.321 505.979,419.199C502.81,402.729 500.582,386.077 499.31,369.353C498.778,362.38 498.393,355.287 496.055,348.696C493.684,342.014 481.082,333.913 487.679,329.198C490.113,327.458 502.484,329.581 505.79,329.342C512.38,328.867 518.935,327.786 525.33,326.119Z" style="fill:rgb(235,176,68);fill-rule:nonzero;"/>
        <path d="M448.242,331.104C447.999,330.36 447.67,329.626 447.131,329.06C445.977,327.846 444.147,327.642 442.479,327.484C435.404,326.816 428.375,325.664 421.455,324.042C417.403,323.093 411.744,320.247 406.784,318.717C406.503,318.367 406.214,318.023 405.938,317.668C405.601,317.233 405.268,316.794 404.938,316.352C403.294,314.139 400.965,315.794 398.782,318.216C395.078,319.698 393.029,324.212 390.573,327.224C386.529,332.186 380.683,336.041 375.932,340.317C374.962,341.18 373.923,342.176 373.824,343.47C373.743,344.537 374.33,345.527 374.896,346.435C388.214,367.83 401.531,389.225 414.849,410.619C414.323,409.773 429.413,385.59 430.689,382.657C433.898,375.285 435.254,366.758 438.663,359.618C439.369,358.138 446.359,349.473 445.099,345.922C445.652,345.045 446.174,344.148 446.644,343.221C448.532,339.491 449.536,335.08 448.242,331.104Z" style="fill:rgb(235,176,68);fill-rule:nonzero;"/>
        <path d="M362.111,157.319L412.268,163.571C414.039,161.072 416.997,159.601 420.136,159.992L552.519,176.494C555.658,176.885 558.164,179.038 559.269,181.895L609.425,188.147L602.799,241.339L553.188,235.155C551.583,238.353 548.223,240.357 544.62,239.909L412.236,223.407C408.634,222.958 405.868,220.189 405.097,216.696L355.485,210.512L362.111,157.319Z" style="fill:rgb(71,78,187);fill-rule:nonzero;"/>
        <path d="M700.311,201.267L695.389,199.005C694.631,198.657 693.858,198.495 693.09,198.465L698.386,155.944C699.986,143.098 690.794,131.376 677.853,129.763L674.931,129.398C662.926,127.902 651.92,135.633 649.112,147.015C649.183,135.292 640.409,125.096 628.405,123.599L625.482,123.235C612.541,121.622 600.754,130.729 599.153,143.574L581.752,283.269C580.152,296.116 589.345,307.837 602.286,309.451L605.208,309.815C617.213,311.311 628.219,303.58 631.027,292.199C630.957,303.921 639.73,314.118 651.734,315.614L654.657,315.979C667.597,317.591 679.385,308.485 680.985,295.639L686.282,253.117C687.034,253.277 687.823,253.309 688.644,253.158L693.97,252.174C697.845,251.459 701.063,247.182 701.725,241.868L705.3,213.162C705.962,207.848 703.892,202.912 700.311,201.267Z" style="fill:rgb(71,78,187);fill-rule:nonzero;"/>
        <path d="M369.292,91.301L366.37,90.936C354.365,89.44 343.358,97.172 340.551,108.553C340.621,96.831 331.848,86.634 319.844,85.137L316.921,84.773C303.98,83.16 292.192,92.266 290.593,105.113L285.296,147.634C284.543,147.474 283.755,147.442 282.935,147.593L277.608,148.577C273.733,149.292 270.516,153.57 269.854,158.883L266.277,187.59C265.616,192.902 267.687,197.839 271.267,199.484L276.188,201.746C276.947,202.094 277.72,202.256 278.488,202.286L273.191,244.807C271.591,257.654 280.784,269.375 293.726,270.988L296.647,271.353C308.652,272.849 319.658,265.117 322.466,253.736C322.396,265.458 331.168,275.655 343.173,277.152L346.096,277.516C359.037,279.129 370.824,270.022 372.425,257.176L389.826,117.482C391.426,104.636 382.233,92.914 369.292,91.301Z" style="fill:rgb(71,78,187);fill-rule:nonzero;"/>
        <path d="M267.711,363.087C270.876,369.97 271.462,377.583 272.508,385.876C274.32,400.251 275.216,414.706 275.419,429.155C275.655,445.952 274.946,462.74 273.62,479.474C272.957,487.842 272.138,496.197 271.204,504.541C270.721,508.862 272.626,519.959 267.949,522.232C265.352,523.495 262.206,523.22 259.268,522.911C241.524,521.048 223.781,519.185 206.038,517.321C191.106,515.755 175.344,514.746 161.094,509.748C160.334,509.481 159.55,509.173 159.019,508.568C158.44,507.913 158.25,507.011 158.096,506.15C155.711,492.809 159.132,482.35 161.422,469.646C164.121,454.666 164.492,438.284 165.593,423.075C166.852,405.658 169.644,382.298 176.248,365.738C179.22,358.744 183.405,352.253 189.123,346.912C195.933,340.552 205.136,335.112 214.521,335.114C223.362,335.116 232.472,335.976 240.315,340.055C247.516,343.799 253.585,347.033 259.803,352.544C263.521,355.839 265.994,359.355 267.711,363.087Z" style="fill:rgb(71,78,187);fill-rule:nonzero;"/>
        <path d="M260.505,315.587C256.139,319.955 251.188,323.737 245.827,326.803C250.825,317.187 254.494,306.881 256.696,296.27C256.864,295.46 257.084,294.559 257.786,294.122C258.441,293.714 259.288,293.861 260.036,294.052C273.399,297.457 268.115,307.973 260.505,315.587Z" style="fill:rgb(59,69,90);fill-rule:nonzero;"/>
        <path d="M221.923,328.98C221.118,328.059 220.421,327.083 219.837,326.109C211.769,312.655 212.136,262.186 248.21,268.825C280.966,274.854 259.838,313.518 246.06,327.163C243.447,329.75 240.152,332.366 236.26,333.492C235.218,333.793 235.53,343.937 234.607,345.465C232.76,348.524 228.393,349.425 225.272,348.002C222.567,346.769 219.939,343.027 219.344,340.194C218.913,338.144 222.678,329.846 221.923,328.98Z" style="fill:rgb(239,191,165);fill-rule:nonzero;"/>
        <path d="M221.528,314.407C218.235,316.165 214.361,313.319 212.124,310.332C202.935,298.058 203.111,279.624 212.535,267.529C220.42,257.408 238.813,256.038 234.732,271.412C233.286,276.863 226.86,282.213 224.816,288.042C221.896,296.371 221.813,305.688 221.528,314.407Z" style="fill:rgb(59,69,90);fill-rule:nonzero;"/>
        <path d="M283.944,269.48C293.909,284.721 291.133,305.206 298.91,321.671C284.528,320.857 270.594,313.923 261.271,302.942C252.127,292.173 226.115,274.82 238.209,260.654C250.518,246.234 275.213,256.126 283.944,269.48Z" style="fill:rgb(59,69,90);fill-rule:nonzero;"/>
        <path d="M328.371,390.646C316,378.004 300.71,377.754 289.471,380.08C281.338,381.762 272.871,380.03 265.954,375.434C256.329,369.041 241.771,363.39 225.36,370.8C203.356,380.735 195.007,404.225 194.795,427.004C194.639,443.861 197.136,461.794 204.072,477.418C210.784,492.537 225.729,510.037 244.213,507.508C249.849,506.736 255.604,507.791 260.453,510.768C283.659,525.017 307.398,500.241 319.714,482.933C332.573,464.858 343.624,441.77 341.398,418.997C340.352,408.291 335.896,398.335 328.371,390.646Z" style="fill:rgb(211,78,78);fill-rule:nonzero;"/>
        <path d="M273.653,359.889C277.128,354.092 282.866,349.591 288.484,347.075C294.103,344.56 299.66,343.795 304.984,343.468C309.707,343.179 314.332,343.21 318.829,343.561C317.074,347.47 314.65,351.229 312.163,354.908C308.574,360.216 304.759,365.493 300.217,370.013C295.674,374.532 290.301,378.278 285.064,379.624C274.276,382.396 266.341,372.087 273.653,359.889Z" style="fill:rgb(127,197,163);fill-rule:nonzero;"/>
        <path d="M120.652,263.57C120.287,260.501 120.349,257.455 120.346,254.242C120.345,253.482 120.347,252.706 120.586,251.984C120.875,251.114 121.485,250.393 122.082,249.696C122.949,248.684 123.816,247.672 124.684,246.66C125.225,246.028 125.776,245.387 126.478,244.941C128.284,243.791 130.628,244.168 132.729,244.585C133.157,244.67 133.604,244.764 133.942,245.042C134.507,245.508 134.59,246.375 134.334,247.062C133.523,249.236 132.856,249.763 132.856,252.38C132.855,254.609 132.919,256.872 133.497,259.039C134.405,258.712 134.943,257.796 135.6,256.98C136.15,256.296 136.868,255.542 137.737,255.661C138.895,255.821 139.249,257.356 139.038,258.506C138.615,260.813 137.115,262.752 136.11,264.871C134.614,268.021 134.286,274.183 130.55,274.866C128.279,275.282 125.453,274.724 123.128,274.659C122.511,272.131 121.895,269.603 121.278,267.075C120.99,265.896 120.791,264.731 120.652,263.57Z" style="fill:rgb(239,191,165);fill-rule:nonzero;"/>
        <path d="M216.29,336.753C194.505,335.619 172.741,334.068 151.016,332.1C149.45,331.958 147.76,331.759 146.616,330.682C145.497,329.627 145.186,327.996 144.938,326.479C142.198,309.667 140.188,292.736 138.912,275.75C138.801,274.273 138.575,272.58 137.332,271.774C136.503,271.237 135.444,271.259 134.457,271.301C129.86,271.495 124.281,270.433 120.874,274.396C117.6,278.205 119.081,284.928 118.979,289.715C118.677,303.899 117.795,318.072 116.336,332.184C115.868,336.702 114.993,343.417 117.949,347.353C120.552,350.817 126.252,353.092 129.925,355.5C144.67,365.168 159.414,374.837 174.157,384.505C177.267,386.543 180.605,388.655 184.323,388.684C190.281,388.729 190.303,384.578 191.964,380.63C194.022,375.739 197.907,371.899 200.972,367.491C207.53,358.059 212.72,347.673 216.29,336.753Z" style="fill:rgb(71,78,187);fill-rule:nonzero;"/>
        <path d="M307.156,515.029C304.521,515.082 301.656,513.988 300.482,511.629C299.599,509.851 299.829,507.736 300.213,505.788C300.848,502.574 301.844,499.433 303.179,496.441C306.523,488.945 317.078,486.399 320.128,495.613C322.838,503.8 315.833,514.857 307.156,515.029Z" style="fill:rgb(71,78,187);fill-rule:nonzero;"/>
        <path d="M290.463,502.627C289.244,500.881 288.067,498.518 288.864,496.251C289.657,493.998 292.07,491.658 293.988,490.341C296.031,488.938 297.728,490.8 298.771,492.411C299.741,493.91 300.775,495.419 302.354,496.28C303.712,494.331 302.077,492.334 303.242,490.357C303.736,489.52 304.514,488.879 305.317,488.357C305.591,488.18 305.924,488.007 306.188,488.125C306.367,488.205 306.46,488.401 306.545,488.584C308.525,492.827 312.414,494.969 313.424,499.919C314.501,505.202 311.392,509.292 306.031,510.097C300.242,510.965 294.243,507.577 291.013,503.375C290.833,503.142 290.647,502.892 290.463,502.627Z" style="fill:rgb(239,191,165);fill-rule:nonzero;"/>
        <path d="M85.721,124.8L99.423,252.506C99.844,256.425 118.018,259.573 140.021,259.61C162.025,259.648 180.209,256.563 180.643,252.645L194.788,124.987L85.721,124.8Z" style="fill:rgb(142,195,203);fill-rule:nonzero;"/>
        <path d="M140.497,254.912L140.155,254.912C121.937,254.88 106.892,252.413 106.544,249.343L95.189,149.302L95.545,149.303C95.463,149.243 95.403,149.183 95.366,149.123C98.41,150.547 117.326,151.672 140.209,151.711C140.619,151.712 141.028,151.712 141.436,151.712C164.686,151.712 183.572,150.576 185.352,149.102C185.354,149.113 185.354,149.124 185.354,149.135C185.354,149.244 185.278,149.351 185.131,149.456L185.488,149.457L173.786,249.459C173.43,252.508 158.562,254.912 140.497,254.912ZM163.144,146.322C156.42,146.056 148.585,145.896 140.219,145.882C139.805,145.881 139.396,145.881 138.986,145.881C132.065,145.881 125.529,145.982 119.719,146.162C125.593,145.955 132.22,145.839 139.246,145.839C139.61,145.839 139.979,145.84 140.345,145.84C148.665,145.855 156.457,146.029 163.144,146.322Z" style="fill:rgb(214,233,236);fill-rule:nonzero;"/>
        <path d="M194.627,124.576C194.623,126.844 170.277,128.641 140.249,128.59C110.22,128.539 85.879,126.658 85.883,124.39C85.887,122.121 110.234,120.324 140.263,120.375C170.291,120.427 194.631,122.308 194.627,124.576Z" style="fill:rgb(123,177,183);fill-rule:nonzero;"/>
        <path d="M95.366,149.123C95.083,148.99 94.938,148.856 94.938,148.719C94.94,147.584 105.015,146.618 119.719,146.162C105.229,146.672 95.325,147.735 95.323,148.981C95.323,149.028 95.337,149.076 95.366,149.123ZM185.352,149.102C185.191,147.933 176.313,146.899 163.144,146.322C176.515,146.851 185.49,147.803 185.489,148.874C185.489,148.951 185.443,149.027 185.352,149.102Z" style="fill:rgb(200,226,230);fill-rule:nonzero;"/>
        <path d="M141.436,151.712C141.028,151.712 140.619,151.712 140.209,151.711C117.326,151.672 98.41,150.547 95.366,149.123C95.337,149.076 95.323,149.028 95.323,148.981C95.325,147.735 105.229,146.672 119.719,146.162C125.529,145.982 132.065,145.881 138.986,145.881C139.396,145.881 139.805,145.881 140.219,145.882C148.585,145.896 156.42,146.056 163.144,146.322C176.313,146.899 185.191,147.933 185.352,149.102C183.572,150.576 164.686,151.712 141.436,151.712Z" style="fill:rgb(235,244,246);fill-rule:nonzero;"/>
        <path d="M133.49,196.367C133.718,192.835 133.872,189.298 133.946,185.757C133.987,183.787 130.905,183.69 130.863,185.664C130.796,188.898 130.66,192.129 130.464,195.356L122.835,195.127C122.875,192.829 122.915,190.532 122.955,188.234C122.989,186.265 119.907,186.167 119.873,188.142C119.769,194.097 119.665,200.053 119.561,206.008C119.526,207.978 122.608,208.076 122.643,206.101C122.688,203.464 122.735,200.827 122.781,198.19L130.259,198.415C130.026,201.565 129.737,204.711 129.384,207.853C129.162,209.812 132.246,209.894 132.466,207.945C132.851,204.535 133.159,201.119 133.399,197.699C133.606,197.294 133.64,196.797 133.49,196.367Z" style="fill:white;fill-rule:nonzero;"/>
        <path d="M140.679,218.947C140.433,218.925 138.441,218.778 137.692,218.696C138.104,218.434 138.817,217.597 138.813,217.601C139.099,217.292 139.407,217.003 139.687,216.688C140.858,215.364 141.729,213.724 141.242,211.928C140.372,208.717 135.83,208.564 135.046,211.905C134.598,213.817 137.542,214.73 137.993,212.809C138.532,212.804 138.559,213.117 138.074,213.748C137.819,214.182 137.508,214.573 137.142,214.921C136.712,215.383 136.254,215.816 135.852,216.304C135.118,217.193 134.395,218.307 134.557,219.517C134.917,222.217 138.625,221.832 140.585,222.009C142.563,222.188 142.648,219.126 140.679,218.947Z" style="fill:white;fill-rule:nonzero;"/>
        <path d="M158.436,199.405C157.964,202.443 155.751,205.998 152.18,205.572C148.664,205.152 147.868,200.677 148.053,197.843C148.145,196.43 148.487,195.027 149.051,193.726C149.477,192.741 150.421,190.779 151.604,189.966C151.908,190.492 152.48,190.881 153.239,190.78C154.9,190.558 156.848,193.199 157.588,194.402C158.522,195.919 158.704,197.671 158.436,199.405ZM154.169,187.823C154.097,187.146 153.628,186.534 152.739,186.534C147.569,186.53 145.032,194.174 144.945,198.333C144.849,202.986 147.19,208.647 152.632,208.654C157.981,208.662 161.195,203.64 161.592,198.83C161.937,194.636 158.751,188.534 154.169,187.823Z" style="fill:white;fill-rule:nonzero;"/>
        <path d="M835.739,131.751C833.165,129.035 826.438,128.162 826.438,128.162L795.952,127.45C792.724,127.375 789.466,126.144 786.728,124.022C787.677,123.045 787.705,121.493 786.764,120.5C785.798,119.481 784.184,119.442 783.159,120.413L783.084,120.484L780.009,117.24L760.714,135.526L763.789,138.771L763.102,139.422C762.076,140.394 762.028,142.007 762.995,143.027C763.961,144.046 765.574,144.085 766.599,143.114L767.163,142.58C769.31,145.582 770.42,149.132 770.227,152.547L768.494,183.079C768.494,183.079 769.005,189.842 771.579,192.558L784.757,206.462C784.757,206.462 810.849,207.15 810.79,233.639L889.437,316.914C889.437,316.914 934.113,308.557 953.597,256.106L874.657,173.109C849.182,171.903 848.917,145.655 848.917,145.655L835.739,131.751Z" style="fill:rgb(142,195,203);fill-rule:nonzero;"/>
        <path d="M915.204,215.597L875.437,173.637L861.18,189.512C849.464,201.637 840.219,210.03 827.012,221.894L811.276,234.445L851.044,276.405L850.842,276.596C894.907,256.801 915.406,215.405 915.406,215.405L915.204,215.597Z" style="fill:rgb(235,176,68);fill-rule:nonzero;"/>
        <path d="M849.954,213.757L861.519,202.797L861.048,222.708L875.027,217.05L872.04,248.882L865.594,230.259L855.135,236.875L849.954,213.757Z" style="fill:white;fill-rule:nonzero;"/>
        <path d="M783.907,118.055L760.706,140.043C759.961,140.75 758.784,140.718 758.077,139.973L746.468,127.723C745.761,126.978 745.793,125.801 746.538,125.094L769.739,103.105C770.484,102.399 771.662,102.431 772.368,103.176L783.978,115.426C784.685,116.171 784.652,117.349 783.907,118.055Z" style="fill:rgb(59,69,90);fill-rule:nonzero;"/>
        <path d="M767.337,142.826L786.657,124.105C786.657,124.105 787.977,125.004 789.029,125.532L767.337,142.826Z" style="fill:rgb(121,167,174);fill-rule:nonzero;"/>
        <path d="M804.322,215.091C796.609,207.148 785.119,206.845 785.119,206.845L784.936,206.651L785.115,206.481C787.15,206.611 797.404,207.629 804.322,215.091ZM856.937,165.744C849.834,158.42 849.02,148.022 848.928,146.002L849.096,145.843L849.279,146.037C849.279,146.037 849.396,157.614 856.937,165.744Z" style="fill:rgb(240,241,241);fill-rule:nonzero;"/>
        <path d="M811.423,234.307L811.152,234.021C811.172,225.109 808.233,219.118 804.322,215.091C797.404,207.629 787.15,206.611 785.115,206.481L848.928,146.002C849.02,148.022 849.834,158.42 856.937,165.744C860.75,169.856 866.463,173.087 875.02,173.492L875.29,173.776L846.437,203.712C844.703,205.511 842.887,207.228 840.994,208.857L811.423,234.307Z" style="fill:rgb(134,184,192);fill-rule:nonzero;"/>
        <path d="M915.412,215.415L915.401,215.395L915.402,215.395L915.412,215.415Z" style="fill:rgb(164,166,169);fill-rule:nonzero;"/>
        <path d="M744.634,479.912C744.482,478.755 744.524,478.641 743.532,478.004C742.431,477.297 741.234,476.699 740.078,476.097C735.793,471.497 733.931,466.841 732.334,460.636C731.214,456.285 729.042,452.012 727.435,447.827C724.222,439.458 721.081,431.059 718.018,422.628C717.55,421.343 717.077,419.962 717.366,418.622C717.587,417.602 718.225,416.745 718.854,415.936C721.862,412.066 725.108,408.402 728.564,404.97C731.654,401.901 734.323,400.302 737.932,398.309C741.756,396.195 740.338,392.076 738.945,388.535C738.381,387.101 732.476,374.745 733.085,374.128C721.266,386.081 709.508,398.101 697.813,410.187C697.049,410.977 696.256,411.816 695.96,412.898C695.579,414.293 696.102,415.769 696.628,417.113C701.057,428.439 706.212,439.454 711.964,450.107C714.832,455.421 717.853,460.645 721.018,465.77C722.862,468.757 729.085,474.837 727.723,478.724C727.568,479.164 727.317,479.559 727.224,480.023C727.116,480.549 727.217,481.117 727.332,481.665C727.752,483.672 728.332,485.711 729.171,487.611C729.937,489.346 731.299,489.554 732.828,490.244C734.424,490.965 735.454,492.522 736.964,493.376C738.482,494.234 739.808,493.636 741.203,492.699C741.85,492.265 742.487,491.813 743.113,491.347C743.483,491.07 743.85,490.789 744.212,490.502C744.43,490.33 744.651,490.149 744.788,489.901C744.922,489.659 744.962,489.375 744.995,489.097C745.378,485.956 745.041,483.02 744.634,479.912Z" style="fill:rgb(216,163,139);fill-rule:nonzero;"/>
        <path d="M839.321,331.085C841.54,330.027 843.846,328.864 845.247,326.845C846.191,325.485 846.64,323.851 847.072,322.252C850.17,310.789 853.269,299.326 856.367,287.863C853.291,284.531 853.188,277.229 859.18,281.254C859.713,281.612 860.295,282.064 860.922,281.93C861.392,281.83 861.725,281.425 862.02,281.046C863.233,279.487 864.446,277.927 865.66,276.367C866.08,275.828 866.534,275.263 867.177,275.031C867.665,274.855 868.202,274.896 868.718,274.958C872.665,275.438 876.46,277.109 879.479,279.695C877.354,282.803 874.87,285.664 872.091,288.204C871.048,289.158 869.956,290.075 869.086,291.189C865.465,295.828 866.213,304.83 865.583,310.43C864.723,318.075 863.862,325.72 863.002,333.365C862.877,334.48 862.74,335.629 862.193,336.608C861.529,337.798 860.345,338.59 859.199,339.328C839.803,351.833 819.074,362.271 797.478,370.405C795.641,365.265 792.56,358.187 792.711,352.66C792.854,347.442 800.47,347.008 804.738,345.48C816.499,341.27 828.047,336.464 839.321,331.085Z" style="fill:rgb(216,163,139);fill-rule:nonzero;"/>
        <path d="M758.402,353.782C750.361,356.431 746.312,361.092 746.074,372.074C745.786,385.375 745.503,398.757 747.534,411.905C748.676,419.297 750.542,426.563 751.628,433.964C753.836,449.014 752.732,464.452 749.014,479.174C747.762,484.13 742.674,492.289 746.45,496.64C750.064,500.806 756.988,498.167 761.576,497.945C776.751,497.212 791.925,496.479 807.099,495.746C816.39,495.298 835.519,494.818 833.127,480.463C832.021,473.824 825.58,466.859 823.122,460.441C820.402,453.343 818.581,445.686 818.942,438.041C819.474,426.828 817.589,415.902 816.698,404.581C815.475,389.025 814.951,372.924 808.386,358.479C802.869,346.341 775.374,350.124 764.84,352.171C762.466,352.632 760.32,353.15 758.402,353.782Z" style="fill:rgb(216,163,139);fill-rule:nonzero;"/>
        <path d="M836.979,721.824C839.903,722.218 842.661,721.368 845.53,721.24C846.076,711.174 845.64,701.456 844.146,691.378C839.385,695.994 835.85,692.884 835.375,702.13C835.221,705.123 837.863,717.313 836.979,721.824Z" style="fill:rgb(216,163,139);fill-rule:nonzero;"/>
        <path d="M846.512,716.282C849.935,715.313 850.147,723.342 850.046,725.22C849.984,726.348 849.773,727.488 849.986,728.599C850.22,729.819 850.943,730.882 851.649,731.905C853.13,734.049 854.609,736.191 856.089,738.335C856.754,739.298 857.431,740.284 857.746,741.412C858.526,744.207 856.712,747.335 854.039,748.466C844.765,752.388 837.317,740.865 835.866,733.492C835.644,732.362 835.503,731.218 835.362,730.075C835.072,727.71 833.649,722.501 834.73,720.283C835.992,717.695 839.137,719.846 841.35,718.987C843.403,718.192 845.128,716.676 846.512,716.282Z" style="fill:rgb(59,69,90);fill-rule:nonzero;"/>
        <path d="M775.64,722.619C772.82,723.492 769.96,723.112 767.11,723.462C764.901,713.626 763.72,703.97 763.521,693.784C768.982,697.546 771.952,693.893 773.954,702.932C774.603,705.857 774.02,718.317 775.64,722.619Z" style="fill:rgb(216,163,139);fill-rule:nonzero;"/>
        <path d="M764.431,720.364C764.055,725.817 759.364,731.398 756.657,736.142C756.339,736.699 756.013,737.28 755.958,737.92C755.876,738.871 756.4,739.757 756.906,740.566C757.607,741.691 758.373,742.873 759.571,743.439C760.749,743.995 762.124,743.85 763.412,743.656C765.566,743.335 767.707,742.914 769.823,742.396C770.351,742.268 770.89,742.126 771.333,741.814C771.859,741.444 772.199,740.871 772.523,740.316C774.188,737.467 775.575,735.459 775.719,732.168C775.867,728.77 775.677,725.226 776.525,721.905C776.942,720.295 777.49,718.236 776.153,717.247C775.12,716.481 773.078,717.301 771.889,717.413C769.791,717.611 767.882,717.354 765.897,718.313C765.493,718.509 765.096,718.75 764.831,719.112C764.561,719.48 764.462,719.91 764.431,720.364Z" style="fill:rgb(59,69,90);fill-rule:nonzero;"/>
        <path d="M770.172,352.208C770.368,352.554 770.625,352.882 770.965,353.188C772.302,354.398 774.11,355.039 775.885,355.215C778.224,355.448 780.57,354.96 782.858,354.42C785.949,353.691 785.761,351.871 786.09,349.022C786.271,347.466 786.357,345.901 786.406,344.336C786.434,343.478 785.97,340.429 786.489,339.806C786.842,339.383 788.354,339.455 789,339.082C790.022,338.491 790.854,337.446 791.439,336.442C792.385,334.822 792.864,332.979 793.333,331.163C794.148,328.003 794.965,324.844 795.78,321.684C796.613,318.456 797.451,315.2 797.62,311.87C797.874,306.851 796.762,299.829 792.831,296.336C789.245,293.15 784.173,292.199 779.542,291.81C773.41,291.293 767.137,292.682 762.01,296.146C759.939,297.545 757.996,299.328 756.841,301.712C755.06,305.388 755.4,309.868 755.789,314.053C756.148,317.915 756.508,321.778 756.867,325.641C757.28,330.083 758.056,335.19 761.496,337.46C763.322,338.666 765.649,338.84 767.237,340.418C769.225,342.396 769.235,345.49 769.427,348.098C769.537,349.588 769.486,351.005 770.172,352.208Z" style="fill:rgb(216,163,139);fill-rule:nonzero;"/>
        <path d="M787.316,301.334C787.542,301.689 787.733,302.058 787.887,302.443C788.686,304.465 788.306,306.803 789.088,308.831C790.33,312.046 794.222,313.843 794.942,317.213C795.531,319.97 793.747,322.691 793.709,325.51C793.666,328.589 795.759,331.411 795.584,334.456C795.433,337.102 793.922,340.875 792.44,343.053C792.899,342.378 797.318,342.421 798.432,341.673C800.139,340.527 800.309,339.844 800.751,337.996C801.19,336.16 800.713,334.391 801.439,332.499C802.33,330.177 804.292,328.417 804.899,325.957C805.729,322.599 803.813,319.176 803.802,315.718C803.785,310.483 808.089,305.365 806.235,300.469C805.148,297.597 802.238,295.857 800.534,293.302C799.24,291.362 798.693,289.033 797.762,286.896C796.83,284.758 795.295,282.645 793.032,282.082C791.774,281.77 790.445,281.977 789.163,281.795C786.945,281.481 785.053,280.042 782.902,279.416C779.826,278.521 774.609,281.818 772.951,284.464C771.305,287.09 772.284,289.22 774.178,291.398C777.33,295.024 784.663,297.17 787.316,301.334Z" style="fill:rgb(59,69,90);fill-rule:nonzero;"/>
        <path d="M745.819,287.661C744.061,289.072 741.858,290.131 740.267,291.761C737.162,294.938 736.757,299.821 736.832,304.262C736.897,308.215 735.321,311.799 735.927,315.897C736.334,318.649 737.629,321.394 739.949,322.929C742.839,324.841 747.251,324.984 748.64,328.158C750.148,331.605 746.707,336.177 749.044,339.128C750.332,340.756 752.727,340.899 754.516,341.953C756.512,343.129 757.605,345.335 758.877,347.272C760.148,349.208 762.016,351.122 764.331,351.072C764.272,347.548 764.257,344.756 762.614,341.602C761.658,339.765 758.931,336.417 760.823,334.302C762,332.561 764.924,331.885 764.909,329.783C764.902,328.796 764.179,327.987 763.602,327.188C761.364,324.092 760.968,319.856 762.238,316.254C763.509,312.653 766.319,309.699 769.683,307.887C773.623,305.764 772.932,304.809 773.936,300.905C774.858,297.313 776.835,296.395 779.972,294.964C782.788,293.68 783.678,292.917 784.62,290.189C785.309,288.193 786.161,285.801 784.943,283.658C783.977,281.956 782.316,280.78 780.71,279.661C777.353,277.323 773.589,274.875 769.525,275.345C767.269,275.606 765.185,276.761 762.925,276.988C761.417,277.139 759.899,276.869 758.384,276.884C755.801,276.909 753.114,277.81 751.092,279.436C749.052,281.076 749.182,282.695 748.105,284.944C747.579,286.045 746.763,286.904 745.819,287.661Z" style="fill:rgb(59,69,90);fill-rule:nonzero;"/>
        <path d="M754.322,272.798C754.612,270.329 754.22,267.145 751.843,266.418C750.54,266.02 749.124,266.579 747.779,266.365C744.912,265.91 743.796,262.51 742.198,260.087C741.96,259.724 741.678,259.358 741.273,259.199C740.695,258.97 740.055,259.223 739.442,259.325C736.629,259.792 734.359,257.093 731.652,256.197C728.302,255.087 724.243,257.327 723.396,260.753C723.049,262.161 723.185,263.651 722.861,265.065C721.554,270.794 713.367,273.56 713.41,279.436C713.439,283.406 717.483,287.037 716.134,290.771C715.271,293.159 712.32,294.889 712.774,297.387C713.066,298.994 714.836,300.021 716.466,299.927C718.097,299.834 719.558,298.874 720.74,297.748C722.618,295.959 723.994,293.71 725.774,291.825C727.556,289.941 729.971,288.371 732.556,288.581C735.059,288.784 737.395,290.625 739.852,290.104C741.816,289.687 743.209,287.858 745.132,287.276C746.931,286.732 748.853,287.365 750.731,287.397C752.61,287.429 754.87,286.354 754.839,284.476C754.831,284.021 754.684,283.556 754.808,283.118C755.155,281.891 757.226,281.871 757.565,280.641C756.522,279.175 755.166,279.775 754.38,277.836C753.771,276.335 754.14,274.349 754.322,272.798Z" style="fill:rgb(59,69,90);fill-rule:nonzero;"/>
        <path d="M741.37,430.865C741.403,433.119 740.952,442.819 744.57,443.055C762.543,444.208 780.197,437.153 797.706,434.302C802.263,433.56 806.865,433.039 811.486,432.971C815.642,432.909 819.478,434.824 820.601,430.419C821.715,426.047 820.931,420.236 820.959,415.726C821.012,406.026 819.827,397.183 822.073,387.69C824.337,378.126 827.964,368.884 832.832,360.345C833.319,359.49 833.832,358.604 833.912,357.621C834.039,356.05 833.085,354.339 832.675,352.852C832.039,350.543 831.681,348.129 831.117,345.797C830.033,341.313 828.78,336.87 827.361,332.481C824.608,334.669 821.528,336.443 818.255,337.726C813.16,339.722 807.689,340.532 802.593,342.519C799.971,343.542 797.98,345.308 795.539,346.524C793.229,347.674 790.706,347.625 789.36,350.334C788.279,352.515 789.148,357.179 789.128,359.591C789.101,362.764 789.072,365.937 788.526,369.072C787.831,373.073 785.92,377.816 781.878,378.217C779.28,378.474 776.911,376.701 775.218,374.713C770.593,369.282 771.313,362.26 767.948,356.478C767.282,355.333 764.544,351.062 763.582,350.666C761.458,349.791 755.022,353.871 752.884,354.792C747.311,357.194 742.192,359.104 737.146,362.72C732.176,366.28 727.664,370.448 723.466,374.883C719.793,378.764 716.261,382.834 712.971,387.047C709.362,391.669 713.43,393.924 716.628,397.54C718.837,400.038 721.163,402.431 723.597,404.708C725.598,406.581 728.184,409.709 730.708,410.824C734.091,412.318 737.737,408.606 739.963,406.469C739.015,407.38 741.363,415.35 741.545,417.07C742.018,421.559 741.304,426.342 741.37,430.865Z" style="fill:rgb(127,197,163);fill-rule:nonzero;"/>
        <path d="M850.079,699.885C849.823,692.244 849.439,684.59 849.043,676.939C848.355,663.679 847.712,650.644 846.359,637.468C842.192,596.866 840.515,555.846 837.619,515.13C837.619,503.082 837.473,490.434 834.93,478.597C834.782,477.933 834.623,477.26 834.27,476.681C833.102,474.769 830.431,474.625 828.194,474.72C819.431,475.093 810.265,476.986 801.577,476.774C791.814,476.535 781.483,475.695 771.394,476.262C768.394,476.43 765.379,476.035 762.35,475.64C758.386,475.122 754.399,474.605 750.391,475.351C746.946,475.993 747.043,478.884 746.462,482.254C745.833,485.902 745.624,489.611 745.45,493.305C745.139,499.931 744.953,506.562 744.893,513.195C744.744,529.62 747.3,546.19 748.115,562.607C748.971,579.815 749.702,597.029 750.351,614.246C751.174,636.041 754.297,657.718 756.991,679.252C757.943,686.863 758.908,694.476 760.009,702.053C760.352,704.419 760.414,708.27 761.409,710.343C763.356,714.398 768.542,713.951 771.771,713.46C774.588,713.03 777.379,712.33 780.115,711.365C779.074,681.303 782.223,650.77 782.083,620.497C781.99,600.379 784.24,580.364 786.296,560.381C786.68,556.656 786.962,552.74 787.771,549.082C788.54,545.607 789.946,542.288 790.528,538.715C791.163,534.813 794.282,534.569 795.69,537.958C797.492,542.294 798.148,547.547 799.324,552.099C805.389,575.555 812.396,598.665 816.367,622.847C821.273,652.719 829.225,682.345 833.272,712.147C835.931,712.68 838.596,712.943 841.237,712.934C844.268,712.925 849.076,712.571 850.179,708.273C850.743,706.077 850.159,702.27 850.079,699.885Z" style="fill:rgb(59,69,90);fill-rule:nonzero;"/>
        <path d="M834.568,478.524C834.568,476.83 831.168,473.913 830.423,472.282C829.584,470.448 828.854,468.614 827.88,466.803C827.83,466.711 827.778,466.615 827.693,466.554C827.376,466.32 826.986,466.699 826.692,466.961C825.665,467.877 822.932,467.273 821.648,467.286C819.442,467.308 817.236,467.328 815.031,467.35C810.757,467.391 806.483,467.432 802.21,467.472C785.057,467.636 768.082,468.586 750.946,467.522C750.266,469.235 747.837,475.099 748.873,476.836C749.252,477.472 749.899,477.348 750.663,477.423C752.42,477.596 754.202,477.625 755.966,477.699C761.689,477.94 767.418,478.092 773.146,478.232C787.293,478.578 801.445,478.814 815.597,478.889C816.684,478.895 834.568,479.137 834.568,478.524Z" style="fill:rgb(52,63,81);fill-rule:nonzero;"/>
        <path d="M618.734,662.804C625.973,667.852 675.471,733.482 675.471,733.482L647.102,755.276L529.725,730.826L529.725,709.04L574.725,705.527C574.725,705.527 541.934,700.734 533.018,678.971C524.104,657.206 618.734,662.804 618.734,662.804Z" style="fill:rgb(71,78,187);fill-rule:nonzero;"/>
        <path d="M515.537,718.297C513.068,724.859 510.538,733.564 512.533,740.877C514.744,748.979 527.379,754.631 530.816,744.471C531.479,742.512 531.304,740.127 529.843,738.663C526.733,735.548 524.13,732.127 530.008,730.047C532.186,729.276 534.574,729.374 536.819,728.826C537.597,728.637 538.394,728.345 538.916,727.738C539.576,726.971 539.661,725.878 539.692,724.866C539.812,721.017 539.616,717.158 539.11,713.341C538.955,712.171 527.89,711.213 526.741,711.335C522.565,711.778 517.129,714.064 515.537,718.297Z" style="fill:rgb(59,69,90);fill-rule:nonzero;"/>
        <path d="M638.946,701.954L682.214,726.508L693.613,717.229L693.613,706.431L638.946,662.804L605.98,698.532L638.946,701.954Z" style="fill:rgb(71,78,187);fill-rule:nonzero;"/>
        <path d="M581.505,521.789C582.751,521.015 584.053,520.338 585.424,519.797C608.204,510.801 624.893,520.956 632.235,542.972C648.698,592.328 651.099,637.487 639.869,687.388C614.238,688.888 583.744,690.008 558.155,687.904C549.065,687.157 539.113,685.756 533.019,678.971C530.302,675.945 528.646,672.124 527.286,668.292C518.609,643.852 520.396,616.392 529.452,592.089C538.507,567.785 554.454,546.469 573.218,528.563C575.799,526.101 578.49,523.661 581.505,521.789Z" style="fill:rgb(127,197,163);fill-rule:nonzero;"/>
        <path d="M635.235,472.208C623.381,475.266 610.841,467.355 599.388,471.956C591.941,474.947 586.819,482.911 585.526,491.075C584.924,494.881 585.069,498.883 586.621,502.277C587.628,504.48 589.188,506.349 590.943,507.94C593.29,510.069 596.027,511.696 598.971,512.794C599.21,512.883 595.227,519.897 594.84,520.505C596.664,521.653 595.821,525.351 597.503,527.229C599.242,529.172 602.315,529.63 604.892,528.982C607.468,528.334 609.657,526.779 611.735,525.212C613.619,523.792 612.63,514.186 614.569,513.724C616.218,513.329 617.841,512.791 619.404,512.073C628.863,507.726 635.819,497.576 636.624,486.95C637.001,481.972 636.134,477.051 635.235,472.208Z" style="fill:rgb(239,191,165);fill-rule:nonzero;"/>
        <path d="M606.87,472.241C607.323,472.219 607.776,472.206 608.227,472.202C614.754,472.136 621.23,473.564 627.107,476.23C629.276,477.215 631.407,478.397 632.989,480.17C635.331,482.793 636.236,486.49 636.121,490.068C636.005,493.647 634.958,497.155 633.788,500.571C635.279,500.645 636.686,499.827 637.941,498.973C641.632,496.461 645.644,493.171 647.906,489.238C652.016,482.094 652.195,477.01 659.194,471.893C665,467.648 672.389,470.188 677.059,462.997C680.88,457.111 678.626,447.556 671.871,445.653C668.848,444.802 665.41,445.615 663.089,447.732C660.593,450.008 657.874,453.988 654.95,452.3C653.781,451.624 653.268,450.243 652.665,449.035C647.671,439.026 636.999,440.769 628.468,444.499C623.657,446.604 618.984,449.439 613.809,449.982C609.657,450.417 605.535,449.327 601.372,449.448C594.428,449.651 587.647,453.394 583.338,458.992C578.508,465.265 576.027,474.293 579.28,481.456C580.911,485.047 581.949,488.821 583.02,492.614C583.392,493.931 586.296,499.286 587.419,494.995C588.29,491.664 588.078,488.151 588.972,484.826C591.149,476.722 599.088,472.627 606.87,472.241Z" style="fill:rgb(59,69,90);fill-rule:nonzero;"/>
        <path d="M728.26,548.147C710.902,546.63 689.006,555.943 683.716,570.979C678.578,555.894 651.985,546.504 634.614,547.86C588.773,551.44 572.998,603.276 592.25,638.273C602.611,657.108 617.555,673.605 633.874,688.431C647.54,700.846 682.817,727.207 682.927,727.118C683.034,727.208 718.576,701.175 732.367,688.886C748.836,674.212 763.945,657.854 774.497,639.115C794.102,604.299 774.063,552.15 728.26,548.147Z" style="fill:rgb(211,78,78);fill-rule:nonzero;"/>
        <path d="M682.677,726.986L682.676,726.986C682.649,726.986 682.123,726.611 681.194,725.929L681.502,726.104C682.064,726.516 682.472,726.811 682.704,726.974C682.689,726.982 682.68,726.986 682.677,726.986Z" style="fill:rgb(212,213,213);fill-rule:nonzero;"/>
        <path d="M681.502,726.104L681.194,725.929C676.924,722.793 664.146,713.173 652.221,703.731C652.26,703.741 652.299,703.75 652.339,703.759C664.357,713.279 677.275,723.002 681.502,726.104Z" style="fill:rgb(62,69,164);fill-rule:nonzero;"/>
        <path d="M682.704,726.974C682.472,726.811 682.064,726.516 681.502,726.104C677.275,723.002 664.357,713.279 652.339,703.759C656.818,704.818 661.44,705.355 666.161,705.355C669.793,705.355 673.484,705.037 677.209,704.393C695.13,701.295 711.444,691.854 725.384,680.994C739.797,669.764 753.088,656.669 764.579,642.707C770.602,635.389 776.158,627.674 780.953,619.563C779.87,626.331 777.662,632.921 774.248,638.984C763.696,657.724 748.587,674.081 732.118,688.755C718.528,700.864 683.816,726.319 682.704,726.974Z" style="fill:rgb(185,69,69);fill-rule:nonzero;"/>
        <path d="M764.878,628.729C752.877,628.982 740.877,629.236 728.876,629.49C724.614,613.469 720.354,597.447 716.092,581.426C715.476,579.11 712.091,579.268 711.367,581.404C701.937,609.215 692.506,637.025 683.075,664.836C682.528,666.446 681.982,668.058 681.437,669.668C675.212,651.303 668.987,632.938 662.764,614.573C661.766,611.628 660.768,608.683 659.769,605.737C659.167,603.962 656.291,603.245 655.294,605.157C650.656,614.044 646.02,622.931 641.383,631.818C627.955,631.756 614.527,631.694 601.099,631.632C597.946,631.617 597.917,636.302 601.075,636.316C615.01,636.381 628.943,636.445 642.877,636.51C643.692,636.514 644.621,636.083 644.998,635.359C648.972,627.744 652.945,620.128 656.919,612.512C663.305,631.354 669.69,650.194 676.076,669.035C677.074,671.98 678.072,674.926 679.07,677.871C679.819,680.081 683.037,680.131 683.796,677.894C693.227,650.083 702.657,622.272 712.088,594.462C712.539,593.132 712.99,591.801 713.44,590.471C717.166,604.476 720.891,618.479 724.615,632.484C724.874,633.457 725.91,634.237 726.97,634.216C739.598,633.948 752.226,633.682 764.854,633.414C768.001,633.348 768.038,628.662 764.878,628.729Z" style="fill:white;fill-rule:nonzero;"/>
        <path d="M579.101,630.308C581.922,637.877 586.018,644.574 592.334,649.155C597.571,652.953 602.809,656.752 608.046,660.55C609.479,661.59 610.948,662.667 611.885,664.169C613.209,666.292 613.279,668.927 613.64,671.403C614.424,676.784 617.135,682.278 622.045,684.616C626.955,686.953 634.043,684.63 635.222,679.321C632.961,676.292 630.826,673.089 628.404,670.188C627.097,668.621 624.202,664.84 628.889,666.087C629.612,666.28 630.351,666.537 631.093,666.435C632.241,666.277 633.127,665.27 633.492,664.169C633.847,663.098 633.888,661.896 633.659,660.812C623.005,660.614 611.269,650.278 605.492,642.036C590.042,619.988 596.24,592.011 591.063,567.253C590.02,562.258 588.079,557.177 584.144,553.93C580.207,550.683 573.864,549.955 570.144,553.446C566.152,557.191 566.731,563.569 567.618,568.97C568.89,576.72 570.161,584.47 571.434,592.22C573.32,603.716 574.563,618.139 579.101,630.308Z" style="fill:rgb(239,191,165);fill-rule:nonzero;"/>
        <path d="M561.952,554.771C560.63,565.252 560.497,575.882 561.555,586.393C574.18,584.503 586.915,583.35 599.674,582.938C598.506,571.841 596.56,560.826 593.854,550.001C591.873,542.072 584.966,537.865 576.75,538.194C567.701,538.557 562.956,546.817 561.952,554.771Z" style="fill:rgb(127,197,163);fill-rule:nonzero;"/>
        <path d="M657.19,551.526C657.854,551.454 658.599,551.408 659.111,551.835C659.623,552.261 659.716,553.002 659.719,553.667C659.73,556.285 658.91,558.901 657.406,561.045C657.058,561.542 656.651,562.108 656.795,562.699C656.946,563.317 657.62,563.629 658.215,563.856C659.769,564.449 661.323,565.042 662.878,565.635C663.191,565.755 663.524,565.876 663.854,565.816C664.278,565.74 664.59,565.39 664.866,565.06C667.027,562.48 669.246,559.795 670.152,556.555C671.06,553.314 670.279,549.345 667.446,547.53C662.824,544.57 648.307,542.651 647.935,550.984C650.673,552.443 654.22,551.823 657.19,551.526Z" style="fill:rgb(239,191,165);fill-rule:nonzero;"/>
    </g>
</svg>
